<?xml version="1.0" encoding="utf-8" standalone="no"?>
<!DOCTYPE svg PUBLIC "-//W3C//DTD SVG 1.1//EN"
  "http://www.w3.org/Graphics/SVG/1.1/DTD/svg11.dtd">
<svg xmlns:xlink="http://www.w3.org/1999/xlink" width="1008pt" height="360pt" viewBox="0 0 1008 360" xmlns="http://www.w3.org/2000/svg" version="1.1">
 <metadata>
  <rdf:RDF xmlns:dc="http://purl.org/dc/elements/1.1/" xmlns:cc="http://creativecommons.org/ns#" xmlns:rdf="http://www.w3.org/1999/02/22-rdf-syntax-ns#">
   <cc:Work>
    <dc:type rdf:resource="http://purl.org/dc/dcmitype/StillImage"/>
    <dc:date>2026-04-20T21:49:26.940513</dc:date>
    <dc:format>image/svg+xml</dc:format>
    <dc:creator>
     <cc:Agent>
      <dc:title>Matplotlib v3.10.8, https://matplotlib.org/</dc:title>
     </cc:Agent>
    </dc:creator>
   </cc:Work>
  </rdf:RDF>
 </metadata>
 <defs>
  <style type="text/css">*{stroke-linejoin: round; stroke-linecap: butt}</style>
 </defs>
 <g id="figure_1">
  <g id="patch_1">
   <path d="M 0 360 
L 1008 360 
L 1008 0 
L 0 0 
z
" style="fill: #ffffff"/>
  </g>
  <g id="axes_1">
   <g id="patch_2">
    <path d="M 54.11 313.498536 
L 473.885 313.498536 
L 473.885 41.856 
L 54.11 41.856 
z
" style="fill: #ffffff"/>
   </g>
   <g id="matplotlib.axis_1">
    <g id="xtick_1">
     <g id="line2d_1">
      <defs>
       <path id="m28dd1537b4" d="M 0 0 
L 0 3.5 
" style="stroke: #000000; stroke-width: 0.8"/>
      </defs>
      <g>
       <use xlink:href="#m28dd1537b4" x="54.45017" y="313.498536" style="stroke: #000000; stroke-width: 0.8"/>
      </g>
     </g>
     <g id="text_1">
      <!-- 0.6 -->
      <g transform="translate(46.498608 328.096973) scale(0.1 -0.1)">
       <defs>
        <path id="DejaVuSans-30" d="M 2034 4250 
Q 1547 4250 1301 3770 
Q 1056 3291 1056 2328 
Q 1056 1369 1301 889 
Q 1547 409 2034 409 
Q 2525 409 2770 889 
Q 3016 1369 3016 2328 
Q 3016 3291 2770 3770 
Q 2525 4250 2034 4250 
z
M 2034 4750 
Q 2819 4750 3233 4129 
Q 3647 3509 3647 2328 
Q 3647 1150 3233 529 
Q 2819 -91 2034 -91 
Q 1250 -91 836 529 
Q 422 1150 422 2328 
Q 422 3509 836 4129 
Q 1250 4750 2034 4750 
z
" transform="scale(0.015625)"/>
        <path id="DejaVuSans-2e" d="M 684 794 
L 1344 794 
L 1344 0 
L 684 0 
L 684 794 
z
" transform="scale(0.015625)"/>
        <path id="DejaVuSans-36" d="M 2113 2584 
Q 1688 2584 1439 2293 
Q 1191 2003 1191 1497 
Q 1191 994 1439 701 
Q 1688 409 2113 409 
Q 2538 409 2786 701 
Q 3034 994 3034 1497 
Q 3034 2003 2786 2293 
Q 2538 2584 2113 2584 
z
M 3366 4563 
L 3366 3988 
Q 3128 4100 2886 4159 
Q 2644 4219 2406 4219 
Q 1781 4219 1451 3797 
Q 1122 3375 1075 2522 
Q 1259 2794 1537 2939 
Q 1816 3084 2150 3084 
Q 2853 3084 3261 2657 
Q 3669 2231 3669 1497 
Q 3669 778 3244 343 
Q 2819 -91 2113 -91 
Q 1303 -91 875 529 
Q 447 1150 447 2328 
Q 447 3434 972 4092 
Q 1497 4750 2381 4750 
Q 2619 4750 2861 4703 
Q 3103 4656 3366 4563 
z
" transform="scale(0.015625)"/>
       </defs>
       <use xlink:href="#DejaVuSans-30"/>
       <use xlink:href="#DejaVuSans-2e" transform="translate(63.623047 0)"/>
       <use xlink:href="#DejaVuSans-36" transform="translate(95.410156 0)"/>
      </g>
     </g>
    </g>
    <g id="xtick_2">
     <g id="line2d_2">
      <g>
       <use xlink:href="#m28dd1537b4" x="105.049552" y="313.498536" style="stroke: #000000; stroke-width: 0.8"/>
      </g>
     </g>
     <g id="text_2">
      <!-- 0.8 -->
      <g transform="translate(97.097989 328.096973) scale(0.1 -0.1)">
       <defs>
        <path id="DejaVuSans-38" d="M 2034 2216 
Q 1584 2216 1326 1975 
Q 1069 1734 1069 1313 
Q 1069 891 1326 650 
Q 1584 409 2034 409 
Q 2484 409 2743 651 
Q 3003 894 3003 1313 
Q 3003 1734 2745 1975 
Q 2488 2216 2034 2216 
z
M 1403 2484 
Q 997 2584 770 2862 
Q 544 3141 544 3541 
Q 544 4100 942 4425 
Q 1341 4750 2034 4750 
Q 2731 4750 3128 4425 
Q 3525 4100 3525 3541 
Q 3525 3141 3298 2862 
Q 3072 2584 2669 2484 
Q 3125 2378 3379 2068 
Q 3634 1759 3634 1313 
Q 3634 634 3220 271 
Q 2806 -91 2034 -91 
Q 1263 -91 848 271 
Q 434 634 434 1313 
Q 434 1759 690 2068 
Q 947 2378 1403 2484 
z
M 1172 3481 
Q 1172 3119 1398 2916 
Q 1625 2713 2034 2713 
Q 2441 2713 2670 2916 
Q 2900 3119 2900 3481 
Q 2900 3844 2670 4047 
Q 2441 4250 2034 4250 
Q 1625 4250 1398 4047 
Q 1172 3844 1172 3481 
z
" transform="scale(0.015625)"/>
       </defs>
       <use xlink:href="#DejaVuSans-30"/>
       <use xlink:href="#DejaVuSans-2e" transform="translate(63.623047 0)"/>
       <use xlink:href="#DejaVuSans-38" transform="translate(95.410156 0)"/>
      </g>
     </g>
    </g>
    <g id="xtick_3">
     <g id="line2d_3">
      <g>
       <use xlink:href="#m28dd1537b4" x="155.648933" y="313.498536" style="stroke: #000000; stroke-width: 0.8"/>
      </g>
     </g>
     <g id="text_3">
      <!-- 1.0 -->
      <g transform="translate(147.69737 328.096973) scale(0.1 -0.1)">
       <defs>
        <path id="DejaVuSans-31" d="M 794 531 
L 1825 531 
L 1825 4091 
L 703 3866 
L 703 4441 
L 1819 4666 
L 2450 4666 
L 2450 531 
L 3481 531 
L 3481 0 
L 794 0 
L 794 531 
z
" transform="scale(0.015625)"/>
       </defs>
       <use xlink:href="#DejaVuSans-31"/>
       <use xlink:href="#DejaVuSans-2e" transform="translate(63.623047 0)"/>
       <use xlink:href="#DejaVuSans-30" transform="translate(95.410156 0)"/>
      </g>
     </g>
    </g>
    <g id="xtick_4">
     <g id="line2d_4">
      <g>
       <use xlink:href="#m28dd1537b4" x="206.248314" y="313.498536" style="stroke: #000000; stroke-width: 0.8"/>
      </g>
     </g>
     <g id="text_4">
      <!-- 1.2 -->
      <g transform="translate(198.296752 328.096973) scale(0.1 -0.1)">
       <defs>
        <path id="DejaVuSans-32" d="M 1228 531 
L 3431 531 
L 3431 0 
L 469 0 
L 469 531 
Q 828 903 1448 1529 
Q 2069 2156 2228 2338 
Q 2531 2678 2651 2914 
Q 2772 3150 2772 3378 
Q 2772 3750 2511 3984 
Q 2250 4219 1831 4219 
Q 1534 4219 1204 4116 
Q 875 4013 500 3803 
L 500 4441 
Q 881 4594 1212 4672 
Q 1544 4750 1819 4750 
Q 2544 4750 2975 4387 
Q 3406 4025 3406 3419 
Q 3406 3131 3298 2873 
Q 3191 2616 2906 2266 
Q 2828 2175 2409 1742 
Q 1991 1309 1228 531 
z
" transform="scale(0.015625)"/>
       </defs>
       <use xlink:href="#DejaVuSans-31"/>
       <use xlink:href="#DejaVuSans-2e" transform="translate(63.623047 0)"/>
       <use xlink:href="#DejaVuSans-32" transform="translate(95.410156 0)"/>
      </g>
     </g>
    </g>
    <g id="xtick_5">
     <g id="line2d_5">
      <g>
       <use xlink:href="#m28dd1537b4" x="256.847696" y="313.498536" style="stroke: #000000; stroke-width: 0.8"/>
      </g>
     </g>
     <g id="text_5">
      <!-- 1.4 -->
      <g transform="translate(248.896133 328.096973) scale(0.1 -0.1)">
       <defs>
        <path id="DejaVuSans-34" d="M 2419 4116 
L 825 1625 
L 2419 1625 
L 2419 4116 
z
M 2253 4666 
L 3047 4666 
L 3047 1625 
L 3713 1625 
L 3713 1100 
L 3047 1100 
L 3047 0 
L 2419 0 
L 2419 1100 
L 313 1100 
L 313 1709 
L 2253 4666 
z
" transform="scale(0.015625)"/>
       </defs>
       <use xlink:href="#DejaVuSans-31"/>
       <use xlink:href="#DejaVuSans-2e" transform="translate(63.623047 0)"/>
       <use xlink:href="#DejaVuSans-34" transform="translate(95.410156 0)"/>
      </g>
     </g>
    </g>
    <g id="xtick_6">
     <g id="line2d_6">
      <g>
       <use xlink:href="#m28dd1537b4" x="307.447077" y="313.498536" style="stroke: #000000; stroke-width: 0.8"/>
      </g>
     </g>
     <g id="text_6">
      <!-- 1.6 -->
      <g transform="translate(299.495515 328.096973) scale(0.1 -0.1)">
       <use xlink:href="#DejaVuSans-31"/>
       <use xlink:href="#DejaVuSans-2e" transform="translate(63.623047 0)"/>
       <use xlink:href="#DejaVuSans-36" transform="translate(95.410156 0)"/>
      </g>
     </g>
    </g>
    <g id="xtick_7">
     <g id="line2d_7">
      <g>
       <use xlink:href="#m28dd1537b4" x="358.046459" y="313.498536" style="stroke: #000000; stroke-width: 0.8"/>
      </g>
     </g>
     <g id="text_7">
      <!-- 1.8 -->
      <g transform="translate(350.094896 328.096973) scale(0.1 -0.1)">
       <use xlink:href="#DejaVuSans-31"/>
       <use xlink:href="#DejaVuSans-2e" transform="translate(63.623047 0)"/>
       <use xlink:href="#DejaVuSans-38" transform="translate(95.410156 0)"/>
      </g>
     </g>
    </g>
    <g id="xtick_8">
     <g id="line2d_8">
      <g>
       <use xlink:href="#m28dd1537b4" x="408.64584" y="313.498536" style="stroke: #000000; stroke-width: 0.8"/>
      </g>
     </g>
     <g id="text_8">
      <!-- 2.0 -->
      <g transform="translate(400.694277 328.096973) scale(0.1 -0.1)">
       <use xlink:href="#DejaVuSans-32"/>
       <use xlink:href="#DejaVuSans-2e" transform="translate(63.623047 0)"/>
       <use xlink:href="#DejaVuSans-30" transform="translate(95.410156 0)"/>
      </g>
     </g>
    </g>
    <g id="xtick_9">
     <g id="line2d_9">
      <g>
       <use xlink:href="#m28dd1537b4" x="459.245221" y="313.498536" style="stroke: #000000; stroke-width: 0.8"/>
      </g>
     </g>
     <g id="text_9">
      <!-- 2.2 -->
      <g transform="translate(451.293659 328.096973) scale(0.1 -0.1)">
       <use xlink:href="#DejaVuSans-32"/>
       <use xlink:href="#DejaVuSans-2e" transform="translate(63.623047 0)"/>
       <use xlink:href="#DejaVuSans-32" transform="translate(95.410156 0)"/>
      </g>
     </g>
    </g>
    <g id="text_10">
     <!-- Pvalb/Sst ratio -->
     <g transform="translate(227.855312 341.775098) scale(0.1 -0.1)">
      <defs>
       <path id="DejaVuSans-50" d="M 1259 4147 
L 1259 2394 
L 2053 2394 
Q 2494 2394 2734 2622 
Q 2975 2850 2975 3272 
Q 2975 3691 2734 3919 
Q 2494 4147 2053 4147 
L 1259 4147 
z
M 628 4666 
L 2053 4666 
Q 2838 4666 3239 4311 
Q 3641 3956 3641 3272 
Q 3641 2581 3239 2228 
Q 2838 1875 2053 1875 
L 1259 1875 
L 1259 0 
L 628 0 
L 628 4666 
z
" transform="scale(0.015625)"/>
       <path id="DejaVuSans-76" d="M 191 3500 
L 800 3500 
L 1894 563 
L 2988 3500 
L 3597 3500 
L 2284 0 
L 1503 0 
L 191 3500 
z
" transform="scale(0.015625)"/>
       <path id="DejaVuSans-61" d="M 2194 1759 
Q 1497 1759 1228 1600 
Q 959 1441 959 1056 
Q 959 750 1161 570 
Q 1363 391 1709 391 
Q 2188 391 2477 730 
Q 2766 1069 2766 1631 
L 2766 1759 
L 2194 1759 
z
M 3341 1997 
L 3341 0 
L 2766 0 
L 2766 531 
Q 2569 213 2275 61 
Q 1981 -91 1556 -91 
Q 1019 -91 701 211 
Q 384 513 384 1019 
Q 384 1609 779 1909 
Q 1175 2209 1959 2209 
L 2766 2209 
L 2766 2266 
Q 2766 2663 2505 2880 
Q 2244 3097 1772 3097 
Q 1472 3097 1187 3025 
Q 903 2953 641 2809 
L 641 3341 
Q 956 3463 1253 3523 
Q 1550 3584 1831 3584 
Q 2591 3584 2966 3190 
Q 3341 2797 3341 1997 
z
" transform="scale(0.015625)"/>
       <path id="DejaVuSans-6c" d="M 603 4863 
L 1178 4863 
L 1178 0 
L 603 0 
L 603 4863 
z
" transform="scale(0.015625)"/>
       <path id="DejaVuSans-62" d="M 3116 1747 
Q 3116 2381 2855 2742 
Q 2594 3103 2138 3103 
Q 1681 3103 1420 2742 
Q 1159 2381 1159 1747 
Q 1159 1113 1420 752 
Q 1681 391 2138 391 
Q 2594 391 2855 752 
Q 3116 1113 3116 1747 
z
M 1159 2969 
Q 1341 3281 1617 3432 
Q 1894 3584 2278 3584 
Q 2916 3584 3314 3078 
Q 3713 2572 3713 1747 
Q 3713 922 3314 415 
Q 2916 -91 2278 -91 
Q 1894 -91 1617 61 
Q 1341 213 1159 525 
L 1159 0 
L 581 0 
L 581 4863 
L 1159 4863 
L 1159 2969 
z
" transform="scale(0.015625)"/>
       <path id="DejaVuSans-2f" d="M 1625 4666 
L 2156 4666 
L 531 -594 
L 0 -594 
L 1625 4666 
z
" transform="scale(0.015625)"/>
       <path id="DejaVuSans-53" d="M 3425 4513 
L 3425 3897 
Q 3066 4069 2747 4153 
Q 2428 4238 2131 4238 
Q 1616 4238 1336 4038 
Q 1056 3838 1056 3469 
Q 1056 3159 1242 3001 
Q 1428 2844 1947 2747 
L 2328 2669 
Q 3034 2534 3370 2195 
Q 3706 1856 3706 1288 
Q 3706 609 3251 259 
Q 2797 -91 1919 -91 
Q 1588 -91 1214 -16 
Q 841 59 441 206 
L 441 856 
Q 825 641 1194 531 
Q 1563 422 1919 422 
Q 2459 422 2753 634 
Q 3047 847 3047 1241 
Q 3047 1584 2836 1778 
Q 2625 1972 2144 2069 
L 1759 2144 
Q 1053 2284 737 2584 
Q 422 2884 422 3419 
Q 422 4038 858 4394 
Q 1294 4750 2059 4750 
Q 2388 4750 2728 4690 
Q 3069 4631 3425 4513 
z
" transform="scale(0.015625)"/>
       <path id="DejaVuSans-73" d="M 2834 3397 
L 2834 2853 
Q 2591 2978 2328 3040 
Q 2066 3103 1784 3103 
Q 1356 3103 1142 2972 
Q 928 2841 928 2578 
Q 928 2378 1081 2264 
Q 1234 2150 1697 2047 
L 1894 2003 
Q 2506 1872 2764 1633 
Q 3022 1394 3022 966 
Q 3022 478 2636 193 
Q 2250 -91 1575 -91 
Q 1294 -91 989 -36 
Q 684 19 347 128 
L 347 722 
Q 666 556 975 473 
Q 1284 391 1588 391 
Q 1994 391 2212 530 
Q 2431 669 2431 922 
Q 2431 1156 2273 1281 
Q 2116 1406 1581 1522 
L 1381 1569 
Q 847 1681 609 1914 
Q 372 2147 372 2553 
Q 372 3047 722 3315 
Q 1072 3584 1716 3584 
Q 2034 3584 2315 3537 
Q 2597 3491 2834 3397 
z
" transform="scale(0.015625)"/>
       <path id="DejaVuSans-74" d="M 1172 4494 
L 1172 3500 
L 2356 3500 
L 2356 3053 
L 1172 3053 
L 1172 1153 
Q 1172 725 1289 603 
Q 1406 481 1766 481 
L 2356 481 
L 2356 0 
L 1766 0 
Q 1100 0 847 248 
Q 594 497 594 1153 
L 594 3053 
L 172 3053 
L 172 3500 
L 594 3500 
L 594 4494 
L 1172 4494 
z
" transform="scale(0.015625)"/>
       <path id="DejaVuSans-20" transform="scale(0.015625)"/>
       <path id="DejaVuSans-72" d="M 2631 2963 
Q 2534 3019 2420 3045 
Q 2306 3072 2169 3072 
Q 1681 3072 1420 2755 
Q 1159 2438 1159 1844 
L 1159 0 
L 581 0 
L 581 3500 
L 1159 3500 
L 1159 2956 
Q 1341 3275 1631 3429 
Q 1922 3584 2338 3584 
Q 2397 3584 2469 3576 
Q 2541 3569 2628 3553 
L 2631 2963 
z
" transform="scale(0.015625)"/>
       <path id="DejaVuSans-69" d="M 603 3500 
L 1178 3500 
L 1178 0 
L 603 0 
L 603 3500 
z
M 603 4863 
L 1178 4863 
L 1178 4134 
L 603 4134 
L 603 4863 
z
" transform="scale(0.015625)"/>
       <path id="DejaVuSans-6f" d="M 1959 3097 
Q 1497 3097 1228 2736 
Q 959 2375 959 1747 
Q 959 1119 1226 758 
Q 1494 397 1959 397 
Q 2419 397 2687 759 
Q 2956 1122 2956 1747 
Q 2956 2369 2687 2733 
Q 2419 3097 1959 3097 
z
M 1959 3584 
Q 2709 3584 3137 3096 
Q 3566 2609 3566 1747 
Q 3566 888 3137 398 
Q 2709 -91 1959 -91 
Q 1206 -91 779 398 
Q 353 888 353 1747 
Q 353 2609 779 3096 
Q 1206 3584 1959 3584 
z
" transform="scale(0.015625)"/>
      </defs>
      <use xlink:href="#DejaVuSans-50"/>
      <use xlink:href="#DejaVuSans-76" transform="translate(60.302734 0)"/>
      <use xlink:href="#DejaVuSans-61" transform="translate(119.482422 0)"/>
      <use xlink:href="#DejaVuSans-6c" transform="translate(180.761719 0)"/>
      <use xlink:href="#DejaVuSans-62" transform="translate(208.544922 0)"/>
      <use xlink:href="#DejaVuSans-2f" transform="translate(272.021484 0)"/>
      <use xlink:href="#DejaVuSans-53" transform="translate(305.712891 0)"/>
      <use xlink:href="#DejaVuSans-73" transform="translate(369.189453 0)"/>
      <use xlink:href="#DejaVuSans-74" transform="translate(421.289062 0)"/>
      <use xlink:href="#DejaVuSans-20" transform="translate(460.498047 0)"/>
      <use xlink:href="#DejaVuSans-72" transform="translate(492.285156 0)"/>
      <use xlink:href="#DejaVuSans-61" transform="translate(533.398438 0)"/>
      <use xlink:href="#DejaVuSans-74" transform="translate(594.677734 0)"/>
      <use xlink:href="#DejaVuSans-69" transform="translate(633.886719 0)"/>
      <use xlink:href="#DejaVuSans-6f" transform="translate(661.669922 0)"/>
     </g>
    </g>
   </g>
   <g id="matplotlib.axis_2">
    <g id="ytick_1">
     <g id="line2d_10">
      <defs>
       <path id="m96b07b350f" d="M 0 0 
L -3.5 0 
" style="stroke: #000000; stroke-width: 0.8"/>
      </defs>
      <g>
       <use xlink:href="#m96b07b350f" x="54.11" y="295.529838" style="stroke: #000000; stroke-width: 0.8"/>
      </g>
     </g>
     <g id="text_11">
      <!-- 0.10 -->
      <g transform="translate(24.844375 299.329056) scale(0.1 -0.1)">
       <use xlink:href="#DejaVuSans-30"/>
       <use xlink:href="#DejaVuSans-2e" transform="translate(63.623047 0)"/>
       <use xlink:href="#DejaVuSans-31" transform="translate(95.410156 0)"/>
       <use xlink:href="#DejaVuSans-30" transform="translate(159.033203 0)"/>
      </g>
     </g>
    </g>
    <g id="ytick_2">
     <g id="line2d_11">
      <g>
       <use xlink:href="#m96b07b350f" x="54.11" y="248.19721" style="stroke: #000000; stroke-width: 0.8"/>
      </g>
     </g>
     <g id="text_12">
      <!-- 0.12 -->
      <g transform="translate(24.844375 251.996429) scale(0.1 -0.1)">
       <use xlink:href="#DejaVuSans-30"/>
       <use xlink:href="#DejaVuSans-2e" transform="translate(63.623047 0)"/>
       <use xlink:href="#DejaVuSans-31" transform="translate(95.410156 0)"/>
       <use xlink:href="#DejaVuSans-32" transform="translate(159.033203 0)"/>
      </g>
     </g>
    </g>
    <g id="ytick_3">
     <g id="line2d_12">
      <g>
       <use xlink:href="#m96b07b350f" x="54.11" y="200.864583" style="stroke: #000000; stroke-width: 0.8"/>
      </g>
     </g>
     <g id="text_13">
      <!-- 0.14 -->
      <g transform="translate(24.844375 204.663802) scale(0.1 -0.1)">
       <use xlink:href="#DejaVuSans-30"/>
       <use xlink:href="#DejaVuSans-2e" transform="translate(63.623047 0)"/>
       <use xlink:href="#DejaVuSans-31" transform="translate(95.410156 0)"/>
       <use xlink:href="#DejaVuSans-34" transform="translate(159.033203 0)"/>
      </g>
     </g>
    </g>
    <g id="ytick_4">
     <g id="line2d_13">
      <g>
       <use xlink:href="#m96b07b350f" x="54.11" y="153.531956" style="stroke: #000000; stroke-width: 0.8"/>
      </g>
     </g>
     <g id="text_14">
      <!-- 0.16 -->
      <g transform="translate(24.844375 157.331174) scale(0.1 -0.1)">
       <use xlink:href="#DejaVuSans-30"/>
       <use xlink:href="#DejaVuSans-2e" transform="translate(63.623047 0)"/>
       <use xlink:href="#DejaVuSans-31" transform="translate(95.410156 0)"/>
       <use xlink:href="#DejaVuSans-36" transform="translate(159.033203 0)"/>
      </g>
     </g>
    </g>
    <g id="ytick_5">
     <g id="line2d_14">
      <g>
       <use xlink:href="#m96b07b350f" x="54.11" y="106.199328" style="stroke: #000000; stroke-width: 0.8"/>
      </g>
     </g>
     <g id="text_15">
      <!-- 0.18 -->
      <g transform="translate(24.844375 109.998547) scale(0.1 -0.1)">
       <use xlink:href="#DejaVuSans-30"/>
       <use xlink:href="#DejaVuSans-2e" transform="translate(63.623047 0)"/>
       <use xlink:href="#DejaVuSans-31" transform="translate(95.410156 0)"/>
       <use xlink:href="#DejaVuSans-38" transform="translate(159.033203 0)"/>
      </g>
     </g>
    </g>
    <g id="ytick_6">
     <g id="line2d_15">
      <g>
       <use xlink:href="#m96b07b350f" x="54.11" y="58.866701" style="stroke: #000000; stroke-width: 0.8"/>
      </g>
     </g>
     <g id="text_16">
      <!-- 0.20 -->
      <g transform="translate(24.844375 62.66592) scale(0.1 -0.1)">
       <use xlink:href="#DejaVuSans-30"/>
       <use xlink:href="#DejaVuSans-2e" transform="translate(63.623047 0)"/>
       <use xlink:href="#DejaVuSans-32" transform="translate(95.410156 0)"/>
       <use xlink:href="#DejaVuSans-30" transform="translate(159.033203 0)"/>
      </g>
     </g>
    </g>
    <g id="text_17">
     <!-- NW (fast-spiking) fraction -->
     <g transform="translate(18.764687 241.635862) rotate(-90) scale(0.1 -0.1)">
      <defs>
       <path id="DejaVuSans-4e" d="M 628 4666 
L 1478 4666 
L 3547 763 
L 3547 4666 
L 4159 4666 
L 4159 0 
L 3309 0 
L 1241 3903 
L 1241 0 
L 628 0 
L 628 4666 
z
" transform="scale(0.015625)"/>
       <path id="DejaVuSans-57" d="M 213 4666 
L 850 4666 
L 1831 722 
L 2809 4666 
L 3519 4666 
L 4500 722 
L 5478 4666 
L 6119 4666 
L 4947 0 
L 4153 0 
L 3169 4050 
L 2175 0 
L 1381 0 
L 213 4666 
z
" transform="scale(0.015625)"/>
       <path id="DejaVuSans-28" d="M 1984 4856 
Q 1566 4138 1362 3434 
Q 1159 2731 1159 2009 
Q 1159 1288 1364 580 
Q 1569 -128 1984 -844 
L 1484 -844 
Q 1016 -109 783 600 
Q 550 1309 550 2009 
Q 550 2706 781 3412 
Q 1013 4119 1484 4856 
L 1984 4856 
z
" transform="scale(0.015625)"/>
       <path id="DejaVuSans-66" d="M 2375 4863 
L 2375 4384 
L 1825 4384 
Q 1516 4384 1395 4259 
Q 1275 4134 1275 3809 
L 1275 3500 
L 2222 3500 
L 2222 3053 
L 1275 3053 
L 1275 0 
L 697 0 
L 697 3053 
L 147 3053 
L 147 3500 
L 697 3500 
L 697 3744 
Q 697 4328 969 4595 
Q 1241 4863 1831 4863 
L 2375 4863 
z
" transform="scale(0.015625)"/>
       <path id="DejaVuSans-2d" d="M 313 2009 
L 1997 2009 
L 1997 1497 
L 313 1497 
L 313 2009 
z
" transform="scale(0.015625)"/>
       <path id="DejaVuSans-70" d="M 1159 525 
L 1159 -1331 
L 581 -1331 
L 581 3500 
L 1159 3500 
L 1159 2969 
Q 1341 3281 1617 3432 
Q 1894 3584 2278 3584 
Q 2916 3584 3314 3078 
Q 3713 2572 3713 1747 
Q 3713 922 3314 415 
Q 2916 -91 2278 -91 
Q 1894 -91 1617 61 
Q 1341 213 1159 525 
z
M 3116 1747 
Q 3116 2381 2855 2742 
Q 2594 3103 2138 3103 
Q 1681 3103 1420 2742 
Q 1159 2381 1159 1747 
Q 1159 1113 1420 752 
Q 1681 391 2138 391 
Q 2594 391 2855 752 
Q 3116 1113 3116 1747 
z
" transform="scale(0.015625)"/>
       <path id="DejaVuSans-6b" d="M 581 4863 
L 1159 4863 
L 1159 1991 
L 2875 3500 
L 3609 3500 
L 1753 1863 
L 3688 0 
L 2938 0 
L 1159 1709 
L 1159 0 
L 581 0 
L 581 4863 
z
" transform="scale(0.015625)"/>
       <path id="DejaVuSans-6e" d="M 3513 2113 
L 3513 0 
L 2938 0 
L 2938 2094 
Q 2938 2591 2744 2837 
Q 2550 3084 2163 3084 
Q 1697 3084 1428 2787 
Q 1159 2491 1159 1978 
L 1159 0 
L 581 0 
L 581 3500 
L 1159 3500 
L 1159 2956 
Q 1366 3272 1645 3428 
Q 1925 3584 2291 3584 
Q 2894 3584 3203 3211 
Q 3513 2838 3513 2113 
z
" transform="scale(0.015625)"/>
       <path id="DejaVuSans-67" d="M 2906 1791 
Q 2906 2416 2648 2759 
Q 2391 3103 1925 3103 
Q 1463 3103 1205 2759 
Q 947 2416 947 1791 
Q 947 1169 1205 825 
Q 1463 481 1925 481 
Q 2391 481 2648 825 
Q 2906 1169 2906 1791 
z
M 3481 434 
Q 3481 -459 3084 -895 
Q 2688 -1331 1869 -1331 
Q 1566 -1331 1297 -1286 
Q 1028 -1241 775 -1147 
L 775 -588 
Q 1028 -725 1275 -790 
Q 1522 -856 1778 -856 
Q 2344 -856 2625 -561 
Q 2906 -266 2906 331 
L 2906 616 
Q 2728 306 2450 153 
Q 2172 0 1784 0 
Q 1141 0 747 490 
Q 353 981 353 1791 
Q 353 2603 747 3093 
Q 1141 3584 1784 3584 
Q 2172 3584 2450 3431 
Q 2728 3278 2906 2969 
L 2906 3500 
L 3481 3500 
L 3481 434 
z
" transform="scale(0.015625)"/>
       <path id="DejaVuSans-29" d="M 513 4856 
L 1013 4856 
Q 1481 4119 1714 3412 
Q 1947 2706 1947 2009 
Q 1947 1309 1714 600 
Q 1481 -109 1013 -844 
L 513 -844 
Q 928 -128 1133 580 
Q 1338 1288 1338 2009 
Q 1338 2731 1133 3434 
Q 928 4138 513 4856 
z
" transform="scale(0.015625)"/>
       <path id="DejaVuSans-63" d="M 3122 3366 
L 3122 2828 
Q 2878 2963 2633 3030 
Q 2388 3097 2138 3097 
Q 1578 3097 1268 2742 
Q 959 2388 959 1747 
Q 959 1106 1268 751 
Q 1578 397 2138 397 
Q 2388 397 2633 464 
Q 2878 531 3122 666 
L 3122 134 
Q 2881 22 2623 -34 
Q 2366 -91 2075 -91 
Q 1284 -91 818 406 
Q 353 903 353 1747 
Q 353 2603 823 3093 
Q 1294 3584 2113 3584 
Q 2378 3584 2631 3529 
Q 2884 3475 3122 3366 
z
" transform="scale(0.015625)"/>
      </defs>
      <use xlink:href="#DejaVuSans-4e"/>
      <use xlink:href="#DejaVuSans-57" transform="translate(74.804688 0)"/>
      <use xlink:href="#DejaVuSans-20" transform="translate(173.681641 0)"/>
      <use xlink:href="#DejaVuSans-28" transform="translate(205.46875 0)"/>
      <use xlink:href="#DejaVuSans-66" transform="translate(244.482422 0)"/>
      <use xlink:href="#DejaVuSans-61" transform="translate(279.6875 0)"/>
      <use xlink:href="#DejaVuSans-73" transform="translate(340.966797 0)"/>
      <use xlink:href="#DejaVuSans-74" transform="translate(393.066406 0)"/>
      <use xlink:href="#DejaVuSans-2d" transform="translate(432.275391 0)"/>
      <use xlink:href="#DejaVuSans-73" transform="translate(468.359375 0)"/>
      <use xlink:href="#DejaVuSans-70" transform="translate(520.458984 0)"/>
      <use xlink:href="#DejaVuSans-69" transform="translate(583.935547 0)"/>
      <use xlink:href="#DejaVuSans-6b" transform="translate(611.71875 0)"/>
      <use xlink:href="#DejaVuSans-69" transform="translate(669.628906 0)"/>
      <use xlink:href="#DejaVuSans-6e" transform="translate(697.412109 0)"/>
      <use xlink:href="#DejaVuSans-67" transform="translate(760.791016 0)"/>
      <use xlink:href="#DejaVuSans-29" transform="translate(824.267578 0)"/>
      <use xlink:href="#DejaVuSans-20" transform="translate(863.28125 0)"/>
      <use xlink:href="#DejaVuSans-66" transform="translate(895.068359 0)"/>
      <use xlink:href="#DejaVuSans-72" transform="translate(930.273438 0)"/>
      <use xlink:href="#DejaVuSans-61" transform="translate(971.386719 0)"/>
      <use xlink:href="#DejaVuSans-63" transform="translate(1032.666016 0)"/>
      <use xlink:href="#DejaVuSans-74" transform="translate(1087.646484 0)"/>
      <use xlink:href="#DejaVuSans-69" transform="translate(1126.855469 0)"/>
      <use xlink:href="#DejaVuSans-6f" transform="translate(1154.638672 0)"/>
      <use xlink:href="#DejaVuSans-6e" transform="translate(1215.820312 0)"/>
     </g>
    </g>
   </g>
   <g id="line2d_16">
    <path d="M 73.190682 119.631468 
L 77.045365 121.465 
L 80.900048 123.298532 
L 84.754731 125.132064 
L 88.609415 126.965597 
L 92.464098 128.799129 
L 96.318781 130.632661 
L 100.173464 132.466193 
L 104.028147 134.299725 
L 107.882831 136.133257 
L 111.737514 137.966789 
L 115.592197 139.800321 
L 119.44688 141.633854 
L 123.301563 143.467386 
L 127.156247 145.300918 
L 131.01093 147.13445 
L 134.865613 148.967982 
L 138.720296 150.801514 
L 142.574979 152.635046 
L 146.429663 154.468578 
L 150.284346 156.30211 
L 154.139029 158.135643 
L 157.993712 159.969175 
L 161.848395 161.802707 
L 165.703079 163.636239 
L 169.557762 165.469771 
L 173.412445 167.303303 
L 177.267128 169.136835 
L 181.121811 170.970367 
L 184.976494 172.8039 
L 188.831178 174.637432 
L 192.685861 176.470964 
L 196.540544 178.304496 
L 200.395227 180.138028 
L 204.24991 181.97156 
L 208.104594 183.805092 
L 211.959277 185.638624 
L 215.81396 187.472156 
L 219.668643 189.305689 
L 223.523326 191.139221 
L 227.37801 192.972753 
L 231.232693 194.806285 
L 235.087376 196.639817 
L 238.942059 198.473349 
L 242.796742 200.306881 
L 246.651426 202.140413 
L 250.506109 203.973946 
L 254.360792 205.807478 
L 258.215475 207.64101 
L 262.070158 209.474542 
L 265.924842 211.308074 
L 269.779525 213.141606 
L 273.634208 214.975138 
L 277.488891 216.80867 
L 281.343574 218.642202 
L 285.198258 220.475735 
L 289.052941 222.309267 
L 292.907624 224.142799 
L 296.762307 225.976331 
L 300.61699 227.809863 
L 304.471674 229.643395 
L 308.326357 231.476927 
L 312.18104 233.310459 
L 316.035723 235.143992 
L 319.890406 236.977524 
L 323.74509 238.811056 
L 327.599773 240.644588 
L 331.454456 242.47812 
L 335.309139 244.311652 
L 339.163822 246.145184 
L 343.018506 247.978716 
L 346.873189 249.812248 
L 350.727872 251.645781 
L 354.582555 253.479313 
L 358.437238 255.312845 
L 362.291921 257.146377 
L 366.146605 258.979909 
L 370.001288 260.813441 
L 373.855971 262.646973 
L 377.710654 264.480505 
L 381.565337 266.314038 
L 385.420021 268.14757 
L 389.274704 269.981102 
L 393.129387 271.814634 
L 396.98407 273.648166 
L 400.838753 275.481698 
L 404.693437 277.31523 
L 408.54812 279.148762 
L 412.402803 280.982294 
L 416.257486 282.815827 
L 420.112169 284.649359 
L 423.966853 286.482891 
L 427.821536 288.316423 
L 431.676219 290.149955 
L 435.530902 291.983487 
L 439.385585 293.817019 
L 443.240269 295.650551 
L 447.094952 297.484084 
L 450.949635 299.317616 
L 454.804318 301.151148 
" clip-path="url(#p81c5c17bec)" style="fill: none; stroke-dasharray: 5.55,2.4; stroke-dashoffset: 0; stroke: #808080; stroke-opacity: 0.7; stroke-width: 1.5"/>
   </g>
   <g id="patch_3">
    <path d="M 54.11 313.498536 
L 54.11 41.856 
" style="fill: none; stroke: #000000; stroke-width: 0.8; stroke-linejoin: miter; stroke-linecap: square"/>
   </g>
   <g id="patch_4">
    <path d="M 473.885 313.498536 
L 473.885 41.856 
" style="fill: none; stroke: #000000; stroke-width: 0.8; stroke-linejoin: miter; stroke-linecap: square"/>
   </g>
   <g id="patch_5">
    <path d="M 54.11 313.498536 
L 473.885 313.498536 
" style="fill: none; stroke: #000000; stroke-width: 0.8; stroke-linejoin: miter; stroke-linecap: square"/>
   </g>
   <g id="patch_6">
    <path d="M 54.11 41.856 
L 473.885 41.856 
" style="fill: none; stroke: #000000; stroke-width: 0.8; stroke-linejoin: miter; stroke-linecap: square"/>
   </g>
   <g id="text_18">
    <!-- ILA5 -->
    <g transform="translate(202.537322 226.729217) scale(0.07 -0.07)">
     <defs>
      <path id="DejaVuSans-49" d="M 628 4666 
L 1259 4666 
L 1259 0 
L 628 0 
L 628 4666 
z
" transform="scale(0.015625)"/>
      <path id="DejaVuSans-4c" d="M 628 4666 
L 1259 4666 
L 1259 531 
L 3531 531 
L 3531 0 
L 628 0 
L 628 4666 
z
" transform="scale(0.015625)"/>
      <path id="DejaVuSans-41" d="M 2188 4044 
L 1331 1722 
L 3047 1722 
L 2188 4044 
z
M 1831 4666 
L 2547 4666 
L 4325 0 
L 3669 0 
L 3244 1197 
L 1141 1197 
L 716 0 
L 50 0 
L 1831 4666 
z
" transform="scale(0.015625)"/>
      <path id="DejaVuSans-35" d="M 691 4666 
L 3169 4666 
L 3169 4134 
L 1269 4134 
L 1269 2991 
Q 1406 3038 1543 3061 
Q 1681 3084 1819 3084 
Q 2600 3084 3056 2656 
Q 3513 2228 3513 1497 
Q 3513 744 3044 326 
Q 2575 -91 1722 -91 
Q 1428 -91 1123 -41 
Q 819 9 494 109 
L 494 744 
Q 775 591 1075 516 
Q 1375 441 1709 441 
Q 2250 441 2565 725 
Q 2881 1009 2881 1497 
Q 2881 1984 2565 2268 
Q 2250 2553 1709 2553 
Q 1456 2553 1204 2497 
Q 953 2441 691 2322 
L 691 4666 
z
" transform="scale(0.015625)"/>
     </defs>
     <use xlink:href="#DejaVuSans-49"/>
     <use xlink:href="#DejaVuSans-4c" transform="translate(29.492188 0)"/>
     <use xlink:href="#DejaVuSans-41" transform="translate(87.455078 0)"/>
     <use xlink:href="#DejaVuSans-35" transform="translate(155.863281 0)"/>
    </g>
   </g>
   <g id="text_19">
    <!-- ILA6a -->
    <g transform="translate(194.64853 88.308231) scale(0.07 -0.07)">
     <use xlink:href="#DejaVuSans-49"/>
     <use xlink:href="#DejaVuSans-4c" transform="translate(29.492188 0)"/>
     <use xlink:href="#DejaVuSans-41" transform="translate(87.455078 0)"/>
     <use xlink:href="#DejaVuSans-36" transform="translate(155.863281 0)"/>
     <use xlink:href="#DejaVuSans-61" transform="translate(219.486328 0)"/>
    </g>
   </g>
   <g id="text_20">
    <!-- ORBl2/3 -->
    <g transform="translate(410.608655 242.983553) scale(0.07 -0.07)">
     <defs>
      <path id="DejaVuSans-4f" d="M 2522 4238 
Q 1834 4238 1429 3725 
Q 1025 3213 1025 2328 
Q 1025 1447 1429 934 
Q 1834 422 2522 422 
Q 3209 422 3611 934 
Q 4013 1447 4013 2328 
Q 4013 3213 3611 3725 
Q 3209 4238 2522 4238 
z
M 2522 4750 
Q 3503 4750 4090 4092 
Q 4678 3434 4678 2328 
Q 4678 1225 4090 567 
Q 3503 -91 2522 -91 
Q 1538 -91 948 565 
Q 359 1222 359 2328 
Q 359 3434 948 4092 
Q 1538 4750 2522 4750 
z
" transform="scale(0.015625)"/>
      <path id="DejaVuSans-52" d="M 2841 2188 
Q 3044 2119 3236 1894 
Q 3428 1669 3622 1275 
L 4263 0 
L 3584 0 
L 2988 1197 
Q 2756 1666 2539 1819 
Q 2322 1972 1947 1972 
L 1259 1972 
L 1259 0 
L 628 0 
L 628 4666 
L 2053 4666 
Q 2853 4666 3247 4331 
Q 3641 3997 3641 3322 
Q 3641 2881 3436 2590 
Q 3231 2300 2841 2188 
z
M 1259 4147 
L 1259 2491 
L 2053 2491 
Q 2509 2491 2742 2702 
Q 2975 2913 2975 3322 
Q 2975 3731 2742 3939 
Q 2509 4147 2053 4147 
L 1259 4147 
z
" transform="scale(0.015625)"/>
      <path id="DejaVuSans-42" d="M 1259 2228 
L 1259 519 
L 2272 519 
Q 2781 519 3026 730 
Q 3272 941 3272 1375 
Q 3272 1813 3026 2020 
Q 2781 2228 2272 2228 
L 1259 2228 
z
M 1259 4147 
L 1259 2741 
L 2194 2741 
Q 2656 2741 2882 2914 
Q 3109 3088 3109 3444 
Q 3109 3797 2882 3972 
Q 2656 4147 2194 4147 
L 1259 4147 
z
M 628 4666 
L 2241 4666 
Q 2963 4666 3353 4366 
Q 3744 4066 3744 3513 
Q 3744 3084 3544 2831 
Q 3344 2578 2956 2516 
Q 3422 2416 3680 2098 
Q 3938 1781 3938 1306 
Q 3938 681 3513 340 
Q 3088 0 2303 0 
L 628 0 
L 628 4666 
z
" transform="scale(0.015625)"/>
      <path id="DejaVuSans-33" d="M 2597 2516 
Q 3050 2419 3304 2112 
Q 3559 1806 3559 1356 
Q 3559 666 3084 287 
Q 2609 -91 1734 -91 
Q 1441 -91 1130 -33 
Q 819 25 488 141 
L 488 750 
Q 750 597 1062 519 
Q 1375 441 1716 441 
Q 2309 441 2620 675 
Q 2931 909 2931 1356 
Q 2931 1769 2642 2001 
Q 2353 2234 1838 2234 
L 1294 2234 
L 1294 2753 
L 1863 2753 
Q 2328 2753 2575 2939 
Q 2822 3125 2822 3475 
Q 2822 3834 2567 4026 
Q 2313 4219 1838 4219 
Q 1578 4219 1281 4162 
Q 984 4106 628 3988 
L 628 4550 
Q 988 4650 1302 4700 
Q 1616 4750 1894 4750 
Q 2613 4750 3031 4423 
Q 3450 4097 3450 3541 
Q 3450 3153 3228 2886 
Q 3006 2619 2597 2516 
z
" transform="scale(0.015625)"/>
     </defs>
     <use xlink:href="#DejaVuSans-4f"/>
     <use xlink:href="#DejaVuSans-52" transform="translate(78.710938 0)"/>
     <use xlink:href="#DejaVuSans-42" transform="translate(148.193359 0)"/>
     <use xlink:href="#DejaVuSans-6c" transform="translate(216.796875 0)"/>
     <use xlink:href="#DejaVuSans-32" transform="translate(244.580078 0)"/>
     <use xlink:href="#DejaVuSans-2f" transform="translate(308.203125 0)"/>
     <use xlink:href="#DejaVuSans-33" transform="translate(341.894531 0)"/>
    </g>
   </g>
   <g id="text_21">
    <!-- ORBl5 -->
    <g transform="translate(272.967572 146.478238) scale(0.07 -0.07)">
     <use xlink:href="#DejaVuSans-4f"/>
     <use xlink:href="#DejaVuSans-52" transform="translate(78.710938 0)"/>
     <use xlink:href="#DejaVuSans-42" transform="translate(148.193359 0)"/>
     <use xlink:href="#DejaVuSans-6c" transform="translate(216.796875 0)"/>
     <use xlink:href="#DejaVuSans-35" transform="translate(244.580078 0)"/>
    </g>
   </g>
   <g id="text_22">
    <!-- ORBl6a -->
    <g transform="translate(154.378907 50.203388) scale(0.07 -0.07)">
     <use xlink:href="#DejaVuSans-4f"/>
     <use xlink:href="#DejaVuSans-52" transform="translate(78.710938 0)"/>
     <use xlink:href="#DejaVuSans-42" transform="translate(148.193359 0)"/>
     <use xlink:href="#DejaVuSans-6c" transform="translate(216.796875 0)"/>
     <use xlink:href="#DejaVuSans-36" transform="translate(244.580078 0)"/>
     <use xlink:href="#DejaVuSans-61" transform="translate(308.203125 0)"/>
    </g>
   </g>
   <g id="text_23">
    <!-- ORBm2/3 -->
    <g transform="translate(231.223082 238.401378) scale(0.07 -0.07)">
     <defs>
      <path id="DejaVuSans-6d" d="M 3328 2828 
Q 3544 3216 3844 3400 
Q 4144 3584 4550 3584 
Q 5097 3584 5394 3201 
Q 5691 2819 5691 2113 
L 5691 0 
L 5113 0 
L 5113 2094 
Q 5113 2597 4934 2840 
Q 4756 3084 4391 3084 
Q 3944 3084 3684 2787 
Q 3425 2491 3425 1978 
L 3425 0 
L 2847 0 
L 2847 2094 
Q 2847 2600 2669 2842 
Q 2491 3084 2119 3084 
Q 1678 3084 1418 2786 
Q 1159 2488 1159 1978 
L 1159 0 
L 581 0 
L 581 3500 
L 1159 3500 
L 1159 2956 
Q 1356 3278 1631 3431 
Q 1906 3584 2284 3584 
Q 2666 3584 2933 3390 
Q 3200 3197 3328 2828 
z
" transform="scale(0.015625)"/>
     </defs>
     <use xlink:href="#DejaVuSans-4f"/>
     <use xlink:href="#DejaVuSans-52" transform="translate(78.710938 0)"/>
     <use xlink:href="#DejaVuSans-42" transform="translate(148.193359 0)"/>
     <use xlink:href="#DejaVuSans-6d" transform="translate(216.796875 0)"/>
     <use xlink:href="#DejaVuSans-32" transform="translate(314.208984 0)"/>
     <use xlink:href="#DejaVuSans-2f" transform="translate(377.832031 0)"/>
     <use xlink:href="#DejaVuSans-33" transform="translate(411.523438 0)"/>
    </g>
   </g>
   <g id="text_24">
    <!-- ORBm5 -->
    <g transform="translate(256.522773 280.563384) scale(0.07 -0.07)">
     <use xlink:href="#DejaVuSans-4f"/>
     <use xlink:href="#DejaVuSans-52" transform="translate(78.710938 0)"/>
     <use xlink:href="#DejaVuSans-42" transform="translate(148.193359 0)"/>
     <use xlink:href="#DejaVuSans-6d" transform="translate(216.796875 0)"/>
     <use xlink:href="#DejaVuSans-35" transform="translate(314.208984 0)"/>
    </g>
   </g>
   <g id="text_25">
    <!-- ORBm6a -->
    <g transform="translate(147.49526 133.186876) scale(0.07 -0.07)">
     <use xlink:href="#DejaVuSans-4f"/>
     <use xlink:href="#DejaVuSans-52" transform="translate(78.710938 0)"/>
     <use xlink:href="#DejaVuSans-42" transform="translate(148.193359 0)"/>
     <use xlink:href="#DejaVuSans-6d" transform="translate(216.796875 0)"/>
     <use xlink:href="#DejaVuSans-36" transform="translate(314.208984 0)"/>
     <use xlink:href="#DejaVuSans-61" transform="translate(377.832031 0)"/>
    </g>
   </g>
   <g id="text_26">
    <!-- ORBvl2/3 -->
    <g transform="translate(275.155653 231.105207) scale(0.07 -0.07)">
     <use xlink:href="#DejaVuSans-4f"/>
     <use xlink:href="#DejaVuSans-52" transform="translate(78.710938 0)"/>
     <use xlink:href="#DejaVuSans-42" transform="translate(148.193359 0)"/>
     <use xlink:href="#DejaVuSans-76" transform="translate(216.796875 0)"/>
     <use xlink:href="#DejaVuSans-6c" transform="translate(275.976562 0)"/>
     <use xlink:href="#DejaVuSans-32" transform="translate(303.759766 0)"/>
     <use xlink:href="#DejaVuSans-2f" transform="translate(367.382812 0)"/>
     <use xlink:href="#DejaVuSans-33" transform="translate(401.074219 0)"/>
    </g>
   </g>
   <g id="text_27">
    <!-- ORBvl5 -->
    <g transform="translate(249.014771 138.654271) scale(0.07 -0.07)">
     <use xlink:href="#DejaVuSans-4f"/>
     <use xlink:href="#DejaVuSans-52" transform="translate(78.710938 0)"/>
     <use xlink:href="#DejaVuSans-42" transform="translate(148.193359 0)"/>
     <use xlink:href="#DejaVuSans-76" transform="translate(216.796875 0)"/>
     <use xlink:href="#DejaVuSans-6c" transform="translate(275.976562 0)"/>
     <use xlink:href="#DejaVuSans-35" transform="translate(303.759766 0)"/>
    </g>
   </g>
   <g id="text_28">
    <!-- ORBvl6a -->
    <g transform="translate(139.407447 185.711997) scale(0.07 -0.07)">
     <use xlink:href="#DejaVuSans-4f"/>
     <use xlink:href="#DejaVuSans-52" transform="translate(78.710938 0)"/>
     <use xlink:href="#DejaVuSans-42" transform="translate(148.193359 0)"/>
     <use xlink:href="#DejaVuSans-76" transform="translate(216.796875 0)"/>
     <use xlink:href="#DejaVuSans-6c" transform="translate(275.976562 0)"/>
     <use xlink:href="#DejaVuSans-36" transform="translate(303.759766 0)"/>
     <use xlink:href="#DejaVuSans-61" transform="translate(367.382812 0)"/>
    </g>
   </g>
   <g id="text_29">
    <!-- PL2/3 -->
    <g transform="translate(143.997986 162.972084) scale(0.07 -0.07)">
     <use xlink:href="#DejaVuSans-50"/>
     <use xlink:href="#DejaVuSans-4c" transform="translate(60.302734 0)"/>
     <use xlink:href="#DejaVuSans-32" transform="translate(116.015625 0)"/>
     <use xlink:href="#DejaVuSans-2f" transform="translate(179.638672 0)"/>
     <use xlink:href="#DejaVuSans-33" transform="translate(213.330078 0)"/>
    </g>
   </g>
   <g id="text_30">
    <!-- PL5 -->
    <g transform="translate(231.994414 277.273022) scale(0.07 -0.07)">
     <use xlink:href="#DejaVuSans-50"/>
     <use xlink:href="#DejaVuSans-4c" transform="translate(60.302734 0)"/>
     <use xlink:href="#DejaVuSans-35" transform="translate(116.015625 0)"/>
    </g>
   </g>
   <g id="text_31">
    <!-- PL6a -->
    <g transform="translate(98.139421 119.75555) scale(0.07 -0.07)">
     <use xlink:href="#DejaVuSans-50"/>
     <use xlink:href="#DejaVuSans-4c" transform="translate(60.302734 0)"/>
     <use xlink:href="#DejaVuSans-36" transform="translate(116.015625 0)"/>
     <use xlink:href="#DejaVuSans-61" transform="translate(179.638672 0)"/>
    </g>
   </g>
   <g id="text_32">
    <!-- Pvalb/Sst Ratio vs NW Fraction -->
    <g transform="translate(172.289375 22.418625) scale(0.12 -0.12)">
     <defs>
      <path id="DejaVuSans-46" d="M 628 4666 
L 3309 4666 
L 3309 4134 
L 1259 4134 
L 1259 2759 
L 3109 2759 
L 3109 2228 
L 1259 2228 
L 1259 0 
L 628 0 
L 628 4666 
z
" transform="scale(0.015625)"/>
     </defs>
     <use xlink:href="#DejaVuSans-50"/>
     <use xlink:href="#DejaVuSans-76" transform="translate(60.302734 0)"/>
     <use xlink:href="#DejaVuSans-61" transform="translate(119.482422 0)"/>
     <use xlink:href="#DejaVuSans-6c" transform="translate(180.761719 0)"/>
     <use xlink:href="#DejaVuSans-62" transform="translate(208.544922 0)"/>
     <use xlink:href="#DejaVuSans-2f" transform="translate(272.021484 0)"/>
     <use xlink:href="#DejaVuSans-53" transform="translate(305.712891 0)"/>
     <use xlink:href="#DejaVuSans-73" transform="translate(369.189453 0)"/>
     <use xlink:href="#DejaVuSans-74" transform="translate(421.289062 0)"/>
     <use xlink:href="#DejaVuSans-20" transform="translate(460.498047 0)"/>
     <use xlink:href="#DejaVuSans-52" transform="translate(492.285156 0)"/>
     <use xlink:href="#DejaVuSans-61" transform="translate(559.517578 0)"/>
     <use xlink:href="#DejaVuSans-74" transform="translate(620.796875 0)"/>
     <use xlink:href="#DejaVuSans-69" transform="translate(660.005859 0)"/>
     <use xlink:href="#DejaVuSans-6f" transform="translate(687.789062 0)"/>
     <use xlink:href="#DejaVuSans-20" transform="translate(748.970703 0)"/>
     <use xlink:href="#DejaVuSans-76" transform="translate(780.757812 0)"/>
     <use xlink:href="#DejaVuSans-73" transform="translate(839.9375 0)"/>
     <use xlink:href="#DejaVuSans-20" transform="translate(892.037109 0)"/>
     <use xlink:href="#DejaVuSans-4e" transform="translate(923.824219 0)"/>
     <use xlink:href="#DejaVuSans-57" transform="translate(998.628906 0)"/>
     <use xlink:href="#DejaVuSans-20" transform="translate(1097.505859 0)"/>
     <use xlink:href="#DejaVuSans-46" transform="translate(1129.292969 0)"/>
     <use xlink:href="#DejaVuSans-72" transform="translate(1179.5625 0)"/>
     <use xlink:href="#DejaVuSans-61" transform="translate(1220.675781 0)"/>
     <use xlink:href="#DejaVuSans-63" transform="translate(1281.955078 0)"/>
     <use xlink:href="#DejaVuSans-74" transform="translate(1336.935547 0)"/>
     <use xlink:href="#DejaVuSans-69" transform="translate(1376.144531 0)"/>
     <use xlink:href="#DejaVuSans-6f" transform="translate(1403.927734 0)"/>
     <use xlink:href="#DejaVuSans-6e" transform="translate(1465.109375 0)"/>
    </g>
    <!-- ρ = -0.560, p = 0.037 -->
    <g transform="translate(198.364062 35.856) scale(0.12 -0.12)">
     <defs>
      <path id="DejaVuSans-3c1" d="M 863 2875 
Q 1053 3194 1525 3475 
Q 1709 3584 2278 3584 
Q 2916 3584 3314 3078 
Q 3713 2572 3713 1747 
Q 3713 922 3314 415 
Q 2916 -91 2278 -91 
Q 1894 -91 1617 61 
Q 1341 213 1159 525 
L 1159 -1331 
L 581 -1331 
L 581 1716 
Q 581 2438 863 2875 
z
M 3116 1747 
Q 3116 2381 2855 2742 
Q 2594 3103 2138 3103 
Q 1681 3103 1420 2742 
Q 1159 2381 1159 1747 
Q 1159 1113 1420 752 
Q 1681 391 2138 391 
Q 2594 391 2855 752 
Q 3116 1113 3116 1747 
z
" transform="scale(0.015625)"/>
      <path id="DejaVuSans-3d" d="M 678 2906 
L 4684 2906 
L 4684 2381 
L 678 2381 
L 678 2906 
z
M 678 1631 
L 4684 1631 
L 4684 1100 
L 678 1100 
L 678 1631 
z
" transform="scale(0.015625)"/>
      <path id="DejaVuSans-2c" d="M 750 794 
L 1409 794 
L 1409 256 
L 897 -744 
L 494 -744 
L 750 256 
L 750 794 
z
" transform="scale(0.015625)"/>
      <path id="DejaVuSans-37" d="M 525 4666 
L 3525 4666 
L 3525 4397 
L 1831 0 
L 1172 0 
L 2766 4134 
L 525 4134 
L 525 4666 
z
" transform="scale(0.015625)"/>
     </defs>
     <use xlink:href="#DejaVuSans-3c1"/>
     <use xlink:href="#DejaVuSans-20" transform="translate(63.476562 0)"/>
     <use xlink:href="#DejaVuSans-3d" transform="translate(95.263672 0)"/>
     <use xlink:href="#DejaVuSans-20" transform="translate(179.052734 0)"/>
     <use xlink:href="#DejaVuSans-2d" transform="translate(210.839844 0)"/>
     <use xlink:href="#DejaVuSans-30" transform="translate(246.923828 0)"/>
     <use xlink:href="#DejaVuSans-2e" transform="translate(310.546875 0)"/>
     <use xlink:href="#DejaVuSans-35" transform="translate(342.333984 0)"/>
     <use xlink:href="#DejaVuSans-36" transform="translate(405.957031 0)"/>
     <use xlink:href="#DejaVuSans-30" transform="translate(469.580078 0)"/>
     <use xlink:href="#DejaVuSans-2c" transform="translate(533.203125 0)"/>
     <use xlink:href="#DejaVuSans-20" transform="translate(564.990234 0)"/>
     <use xlink:href="#DejaVuSans-70" transform="translate(596.777344 0)"/>
     <use xlink:href="#DejaVuSans-20" transform="translate(660.253906 0)"/>
     <use xlink:href="#DejaVuSans-3d" transform="translate(692.041016 0)"/>
     <use xlink:href="#DejaVuSans-20" transform="translate(775.830078 0)"/>
     <use xlink:href="#DejaVuSans-30" transform="translate(807.617188 0)"/>
     <use xlink:href="#DejaVuSans-2e" transform="translate(871.240234 0)"/>
     <use xlink:href="#DejaVuSans-30" transform="translate(903.027344 0)"/>
     <use xlink:href="#DejaVuSans-33" transform="translate(966.650391 0)"/>
     <use xlink:href="#DejaVuSans-37" transform="translate(1030.273438 0)"/>
    </g>
   </g>
   <g id="PathCollection_1">
    <defs>
     <path id="mcf5b5e1221" d="M 0 5.477226 
C 1.452577 5.477226 2.845856 4.900111 3.872983 3.872983 
C 4.900111 2.845856 5.477226 1.452577 5.477226 0 
C 5.477226 -1.452577 4.900111 -2.845856 3.872983 -3.872983 
C 2.845856 -4.900111 1.452577 -5.477226 0 -5.477226 
C -1.452577 -5.477226 -2.845856 -4.900111 -3.872983 -3.872983 
C -4.900111 -2.845856 -5.477226 -1.452577 -5.477226 0 
C -5.477226 1.452577 -4.900111 2.845856 -3.872983 3.872983 
C -2.845856 4.900111 -1.452577 5.477226 0 5.477226 
z
" style="stroke: #000000; stroke-width: 0.8"/>
    </defs>
    <g clip-path="url(#p81c5c17bec)">
     <use xlink:href="#mcf5b5e1221" x="196.537322" y="230.729217" style="fill: #1f77b4; stroke: #000000; stroke-width: 0.8"/>
     <use xlink:href="#mcf5b5e1221" x="188.64853" y="92.308231" style="fill: #1f77b4; stroke: #000000; stroke-width: 0.8"/>
     <use xlink:href="#mcf5b5e1221" x="404.608655" y="246.983553" style="fill: #1f77b4; stroke: #000000; stroke-width: 0.8"/>
     <use xlink:href="#mcf5b5e1221" x="266.967572" y="150.478238" style="fill: #1f77b4; stroke: #000000; stroke-width: 0.8"/>
     <use xlink:href="#mcf5b5e1221" x="148.378907" y="54.203388" style="fill: #1f77b4; stroke: #000000; stroke-width: 0.8"/>
     <use xlink:href="#mcf5b5e1221" x="225.223082" y="242.401378" style="fill: #1f77b4; stroke: #000000; stroke-width: 0.8"/>
     <use xlink:href="#mcf5b5e1221" x="250.522773" y="284.563384" style="fill: #1f77b4; stroke: #000000; stroke-width: 0.8"/>
     <use xlink:href="#mcf5b5e1221" x="141.49526" y="137.186876" style="fill: #1f77b4; stroke: #000000; stroke-width: 0.8"/>
     <use xlink:href="#mcf5b5e1221" x="269.155653" y="235.105207" style="fill: #1f77b4; stroke: #000000; stroke-width: 0.8"/>
     <use xlink:href="#mcf5b5e1221" x="243.014771" y="142.654271" style="fill: #1f77b4; stroke: #000000; stroke-width: 0.8"/>
     <use xlink:href="#mcf5b5e1221" x="133.407447" y="189.711997" style="fill: #1f77b4; stroke: #000000; stroke-width: 0.8"/>
     <use xlink:href="#mcf5b5e1221" x="137.997986" y="166.972084" style="fill: #1f77b4; stroke: #000000; stroke-width: 0.8"/>
     <use xlink:href="#mcf5b5e1221" x="225.994414" y="281.273022" style="fill: #1f77b4; stroke: #000000; stroke-width: 0.8"/>
     <use xlink:href="#mcf5b5e1221" x="92.139421" y="123.75555" style="fill: #1f77b4; stroke: #000000; stroke-width: 0.8"/>
    </g>
   </g>
  </g>
  <g id="axes_2">
   <g id="patch_7">
    <path d="M 527.905 313.498536 
L 947.68 313.498536 
L 947.68 41.856 
L 527.905 41.856 
z
" style="fill: #ffffff"/>
   </g>
   <g id="patch_8">
    <path d="M 546.985682 313.498536 
L 556.734935 313.498536 
L 556.734935 162.030798 
L 546.985682 162.030798 
z
" clip-path="url(#p9fdfa06c3c)" style="fill: #8172b2; stroke: #000000; stroke-linejoin: miter"/>
   </g>
   <g id="patch_9">
    <path d="M 574.840692 313.498536 
L 584.589945 313.498536 
L 584.589945 166.096661 
L 574.840692 166.096661 
z
" clip-path="url(#p9fdfa06c3c)" style="fill: #8172b2; stroke: #000000; stroke-linejoin: miter"/>
   </g>
   <g id="patch_10">
    <path d="M 602.695702 313.498536 
L 612.444955 313.498536 
L 612.444955 54.791359 
L 602.695702 54.791359 
z
" clip-path="url(#p9fdfa06c3c)" style="fill: #8172b2; stroke: #000000; stroke-linejoin: miter"/>
   </g>
   <g id="patch_11">
    <path d="M 630.550712 313.498536 
L 640.299965 313.498536 
L 640.299965 125.731225 
L 630.550712 125.731225 
z
" clip-path="url(#p9fdfa06c3c)" style="fill: #8172b2; stroke: #000000; stroke-linejoin: miter"/>
   </g>
   <g id="patch_12">
    <path d="M 658.405722 313.498536 
L 668.154975 313.498536 
L 668.154975 186.851523 
L 658.405722 186.851523 
z
" clip-path="url(#p9fdfa06c3c)" style="fill: #8172b2; stroke: #000000; stroke-linejoin: miter"/>
   </g>
   <g id="patch_13">
    <path d="M 686.260732 313.498536 
L 696.009985 313.498536 
L 696.009985 147.246229 
L 686.260732 147.246229 
z
" clip-path="url(#p9fdfa06c3c)" style="fill: #8172b2; stroke: #000000; stroke-linejoin: miter"/>
   </g>
   <g id="patch_14">
    <path d="M 714.115742 313.498536 
L 723.864995 313.498536 
L 723.864995 134.206833 
L 714.115742 134.206833 
z
" clip-path="url(#p9fdfa06c3c)" style="fill: #8172b2; stroke: #000000; stroke-linejoin: miter"/>
   </g>
   <g id="patch_15">
    <path d="M 741.970751 313.498536 
L 751.720005 313.498536 
L 751.720005 190.399337 
L 741.970751 190.399337 
z
" clip-path="url(#p9fdfa06c3c)" style="fill: #8172b2; stroke: #000000; stroke-linejoin: miter"/>
   </g>
   <g id="patch_16">
    <path d="M 769.825761 313.498536 
L 779.575015 313.498536 
L 779.575015 124.603493 
L 769.825761 124.603493 
z
" clip-path="url(#p9fdfa06c3c)" style="fill: #8172b2; stroke: #000000; stroke-linejoin: miter"/>
   </g>
   <g id="patch_17">
    <path d="M 797.680771 313.498536 
L 807.430025 313.498536 
L 807.430025 138.076438 
L 797.680771 138.076438 
z
" clip-path="url(#p9fdfa06c3c)" style="fill: #8172b2; stroke: #000000; stroke-linejoin: miter"/>
   </g>
   <g id="patch_18">
    <path d="M 825.535781 313.498536 
L 835.285035 313.498536 
L 835.285035 194.567776 
L 825.535781 194.567776 
z
" clip-path="url(#p9fdfa06c3c)" style="fill: #8172b2; stroke: #000000; stroke-linejoin: miter"/>
   </g>
   <g id="patch_19">
    <path d="M 853.390791 313.498536 
L 863.140045 313.498536 
L 863.140045 192.201823 
L 853.390791 192.201823 
z
" clip-path="url(#p9fdfa06c3c)" style="fill: #8172b2; stroke: #000000; stroke-linejoin: miter"/>
   </g>
   <g id="patch_20">
    <path d="M 881.245801 313.498536 
L 890.995055 313.498536 
L 890.995055 146.848687 
L 881.245801 146.848687 
z
" clip-path="url(#p9fdfa06c3c)" style="fill: #8172b2; stroke: #000000; stroke-linejoin: miter"/>
   </g>
   <g id="patch_21">
    <path d="M 909.100811 313.498536 
L 918.850065 313.498536 
L 918.850065 215.837212 
L 909.100811 215.837212 
z
" clip-path="url(#p9fdfa06c3c)" style="fill: #8172b2; stroke: #000000; stroke-linejoin: miter"/>
   </g>
   <g id="matplotlib.axis_3">
    <g id="xtick_10">
     <g id="line2d_17">
      <g>
       <use xlink:href="#m28dd1537b4" x="556.734935" y="313.498536" style="stroke: #000000; stroke-width: 0.8"/>
      </g>
     </g>
     <g id="text_33">
      <!-- ILA5 -->
      <g transform="translate(544.840847 335.124266) rotate(-45) scale(0.07 -0.07)">
       <use xlink:href="#DejaVuSans-49"/>
       <use xlink:href="#DejaVuSans-4c" transform="translate(29.492188 0)"/>
       <use xlink:href="#DejaVuSans-41" transform="translate(87.455078 0)"/>
       <use xlink:href="#DejaVuSans-35" transform="translate(155.863281 0)"/>
      </g>
     </g>
    </g>
    <g id="xtick_11">
     <g id="line2d_18">
      <g>
       <use xlink:href="#m28dd1537b4" x="584.589945" y="313.498536" style="stroke: #000000; stroke-width: 0.8"/>
      </g>
     </g>
     <g id="text_34">
      <!-- ILA6a -->
      <g transform="translate(569.66259 338.157533) rotate(-45) scale(0.07 -0.07)">
       <use xlink:href="#DejaVuSans-49"/>
       <use xlink:href="#DejaVuSans-4c" transform="translate(29.492188 0)"/>
       <use xlink:href="#DejaVuSans-41" transform="translate(87.455078 0)"/>
       <use xlink:href="#DejaVuSans-36" transform="translate(155.863281 0)"/>
       <use xlink:href="#DejaVuSans-61" transform="translate(219.486328 0)"/>
      </g>
     </g>
    </g>
    <g id="xtick_12">
     <g id="line2d_19">
      <g>
       <use xlink:href="#m28dd1537b4" x="612.444955" y="313.498536" style="stroke: #000000; stroke-width: 0.8"/>
      </g>
     </g>
     <g id="text_35">
      <!-- ORBl2/3 -->
      <g transform="translate(591.34279 344.332343) rotate(-45) scale(0.07 -0.07)">
       <use xlink:href="#DejaVuSans-4f"/>
       <use xlink:href="#DejaVuSans-52" transform="translate(78.710938 0)"/>
       <use xlink:href="#DejaVuSans-42" transform="translate(148.193359 0)"/>
       <use xlink:href="#DejaVuSans-6c" transform="translate(216.796875 0)"/>
       <use xlink:href="#DejaVuSans-32" transform="translate(244.580078 0)"/>
       <use xlink:href="#DejaVuSans-2f" transform="translate(308.203125 0)"/>
       <use xlink:href="#DejaVuSans-33" transform="translate(341.894531 0)"/>
      </g>
     </g>
    </g>
    <g id="xtick_13">
     <g id="line2d_20">
      <g>
       <use xlink:href="#m28dd1537b4" x="640.299965" y="313.498536" style="stroke: #000000; stroke-width: 0.8"/>
      </g>
     </g>
     <g id="text_36">
      <!-- ORBl5 -->
      <g transform="translate(624.014523 339.51562) rotate(-45) scale(0.07 -0.07)">
       <use xlink:href="#DejaVuSans-4f"/>
       <use xlink:href="#DejaVuSans-52" transform="translate(78.710938 0)"/>
       <use xlink:href="#DejaVuSans-42" transform="translate(148.193359 0)"/>
       <use xlink:href="#DejaVuSans-6c" transform="translate(216.796875 0)"/>
       <use xlink:href="#DejaVuSans-35" transform="translate(244.580078 0)"/>
      </g>
     </g>
    </g>
    <g id="xtick_14">
     <g id="line2d_21">
      <g>
       <use xlink:href="#m28dd1537b4" x="668.154975" y="313.498536" style="stroke: #000000; stroke-width: 0.8"/>
      </g>
     </g>
     <g id="text_37">
      <!-- ORBl6a -->
      <g transform="translate(648.836265 342.548887) rotate(-45) scale(0.07 -0.07)">
       <use xlink:href="#DejaVuSans-4f"/>
       <use xlink:href="#DejaVuSans-52" transform="translate(78.710938 0)"/>
       <use xlink:href="#DejaVuSans-42" transform="translate(148.193359 0)"/>
       <use xlink:href="#DejaVuSans-6c" transform="translate(216.796875 0)"/>
       <use xlink:href="#DejaVuSans-36" transform="translate(244.580078 0)"/>
       <use xlink:href="#DejaVuSans-61" transform="translate(308.203125 0)"/>
      </g>
     </g>
    </g>
    <g id="xtick_15">
     <g id="line2d_22">
      <g>
       <use xlink:href="#m28dd1537b4" x="696.009985" y="313.498536" style="stroke: #000000; stroke-width: 0.8"/>
      </g>
     </g>
     <g id="text_38">
      <!-- ORBm2/3 -->
      <g transform="translate(671.461558 347.778605) rotate(-45) scale(0.07 -0.07)">
       <use xlink:href="#DejaVuSans-4f"/>
       <use xlink:href="#DejaVuSans-52" transform="translate(78.710938 0)"/>
       <use xlink:href="#DejaVuSans-42" transform="translate(148.193359 0)"/>
       <use xlink:href="#DejaVuSans-6d" transform="translate(216.796875 0)"/>
       <use xlink:href="#DejaVuSans-32" transform="translate(314.208984 0)"/>
       <use xlink:href="#DejaVuSans-2f" transform="translate(377.832031 0)"/>
       <use xlink:href="#DejaVuSans-33" transform="translate(411.523438 0)"/>
      </g>
     </g>
    </g>
    <g id="xtick_16">
     <g id="line2d_23">
      <g>
       <use xlink:href="#m28dd1537b4" x="723.864995" y="313.498536" style="stroke: #000000; stroke-width: 0.8"/>
      </g>
     </g>
     <g id="text_39">
      <!-- ORBm5 -->
      <g transform="translate(704.133291 342.961882) rotate(-45) scale(0.07 -0.07)">
       <use xlink:href="#DejaVuSans-4f"/>
       <use xlink:href="#DejaVuSans-52" transform="translate(78.710938 0)"/>
       <use xlink:href="#DejaVuSans-42" transform="translate(148.193359 0)"/>
       <use xlink:href="#DejaVuSans-6d" transform="translate(216.796875 0)"/>
       <use xlink:href="#DejaVuSans-35" transform="translate(314.208984 0)"/>
      </g>
     </g>
    </g>
    <g id="xtick_17">
     <g id="line2d_24">
      <g>
       <use xlink:href="#m28dd1537b4" x="751.720005" y="313.498536" style="stroke: #000000; stroke-width: 0.8"/>
      </g>
     </g>
     <g id="text_40">
      <!-- ORBm6a -->
      <g transform="translate(728.955034 345.995149) rotate(-45) scale(0.07 -0.07)">
       <use xlink:href="#DejaVuSans-4f"/>
       <use xlink:href="#DejaVuSans-52" transform="translate(78.710938 0)"/>
       <use xlink:href="#DejaVuSans-42" transform="translate(148.193359 0)"/>
       <use xlink:href="#DejaVuSans-6d" transform="translate(216.796875 0)"/>
       <use xlink:href="#DejaVuSans-36" transform="translate(314.208984 0)"/>
       <use xlink:href="#DejaVuSans-61" transform="translate(377.832031 0)"/>
      </g>
     </g>
    </g>
    <g id="xtick_18">
     <g id="line2d_25">
      <g>
       <use xlink:href="#m28dd1537b4" x="779.575015" y="313.498536" style="stroke: #000000; stroke-width: 0.8"/>
      </g>
     </g>
     <g id="text_41">
      <!-- ORBvl2/3 -->
      <g transform="translate(755.543218 347.261975) rotate(-45) scale(0.07 -0.07)">
       <use xlink:href="#DejaVuSans-4f"/>
       <use xlink:href="#DejaVuSans-52" transform="translate(78.710938 0)"/>
       <use xlink:href="#DejaVuSans-42" transform="translate(148.193359 0)"/>
       <use xlink:href="#DejaVuSans-76" transform="translate(216.796875 0)"/>
       <use xlink:href="#DejaVuSans-6c" transform="translate(275.976562 0)"/>
       <use xlink:href="#DejaVuSans-32" transform="translate(303.759766 0)"/>
       <use xlink:href="#DejaVuSans-2f" transform="translate(367.382812 0)"/>
       <use xlink:href="#DejaVuSans-33" transform="translate(401.074219 0)"/>
      </g>
     </g>
    </g>
    <g id="xtick_19">
     <g id="line2d_26">
      <g>
       <use xlink:href="#m28dd1537b4" x="807.430025" y="313.498536" style="stroke: #000000; stroke-width: 0.8"/>
      </g>
     </g>
     <g id="text_42">
      <!-- ORBvl5 -->
      <g transform="translate(788.214951 342.445252) rotate(-45) scale(0.07 -0.07)">
       <use xlink:href="#DejaVuSans-4f"/>
       <use xlink:href="#DejaVuSans-52" transform="translate(78.710938 0)"/>
       <use xlink:href="#DejaVuSans-42" transform="translate(148.193359 0)"/>
       <use xlink:href="#DejaVuSans-76" transform="translate(216.796875 0)"/>
       <use xlink:href="#DejaVuSans-6c" transform="translate(275.976562 0)"/>
       <use xlink:href="#DejaVuSans-35" transform="translate(303.759766 0)"/>
      </g>
     </g>
    </g>
    <g id="xtick_20">
     <g id="line2d_27">
      <g>
       <use xlink:href="#m28dd1537b4" x="835.285035" y="313.498536" style="stroke: #000000; stroke-width: 0.8"/>
      </g>
     </g>
     <g id="text_43">
      <!-- ORBvl6a -->
      <g transform="translate(813.036693 345.478519) rotate(-45) scale(0.07 -0.07)">
       <use xlink:href="#DejaVuSans-4f"/>
       <use xlink:href="#DejaVuSans-52" transform="translate(78.710938 0)"/>
       <use xlink:href="#DejaVuSans-42" transform="translate(148.193359 0)"/>
       <use xlink:href="#DejaVuSans-76" transform="translate(216.796875 0)"/>
       <use xlink:href="#DejaVuSans-6c" transform="translate(275.976562 0)"/>
       <use xlink:href="#DejaVuSans-36" transform="translate(303.759766 0)"/>
       <use xlink:href="#DejaVuSans-61" transform="translate(367.382812 0)"/>
      </g>
     </g>
    </g>
    <g id="xtick_21">
     <g id="line2d_28">
      <g>
       <use xlink:href="#m28dd1537b4" x="863.140045" y="313.498536" style="stroke: #000000; stroke-width: 0.8"/>
      </g>
     </g>
     <g id="text_44">
      <!-- PL2/3 -->
      <g transform="translate(848.402172 337.968051) rotate(-45) scale(0.07 -0.07)">
       <use xlink:href="#DejaVuSans-50"/>
       <use xlink:href="#DejaVuSans-4c" transform="translate(60.302734 0)"/>
       <use xlink:href="#DejaVuSans-32" transform="translate(116.015625 0)"/>
       <use xlink:href="#DejaVuSans-2f" transform="translate(179.638672 0)"/>
       <use xlink:href="#DejaVuSans-33" transform="translate(213.330078 0)"/>
      </g>
     </g>
    </g>
    <g id="xtick_22">
     <g id="line2d_29">
      <g>
       <use xlink:href="#m28dd1537b4" x="890.995055" y="313.498536" style="stroke: #000000; stroke-width: 0.8"/>
      </g>
     </g>
     <g id="text_45">
      <!-- PL5 -->
      <g transform="translate(881.073905 333.151328) rotate(-45) scale(0.07 -0.07)">
       <use xlink:href="#DejaVuSans-50"/>
       <use xlink:href="#DejaVuSans-4c" transform="translate(60.302734 0)"/>
       <use xlink:href="#DejaVuSans-35" transform="translate(116.015625 0)"/>
      </g>
     </g>
    </g>
    <g id="xtick_23">
     <g id="line2d_30">
      <g>
       <use xlink:href="#m28dd1537b4" x="918.850065" y="313.498536" style="stroke: #000000; stroke-width: 0.8"/>
      </g>
     </g>
     <g id="text_46">
      <!-- PL6a -->
      <g transform="translate(905.895647 336.184595) rotate(-45) scale(0.07 -0.07)">
       <use xlink:href="#DejaVuSans-50"/>
       <use xlink:href="#DejaVuSans-4c" transform="translate(60.302734 0)"/>
       <use xlink:href="#DejaVuSans-36" transform="translate(116.015625 0)"/>
       <use xlink:href="#DejaVuSans-61" transform="translate(179.638672 0)"/>
      </g>
     </g>
    </g>
   </g>
   <g id="matplotlib.axis_4">
    <g id="ytick_7">
     <g id="line2d_31">
      <g>
       <use xlink:href="#m96b07b350f" x="527.905" y="313.498536" style="stroke: #000000; stroke-width: 0.8"/>
      </g>
     </g>
     <g id="text_47">
      <!-- 0.00 -->
      <g transform="translate(498.639375 317.297755) scale(0.1 -0.1)">
       <use xlink:href="#DejaVuSans-30"/>
       <use xlink:href="#DejaVuSans-2e" transform="translate(63.623047 0)"/>
       <use xlink:href="#DejaVuSans-30" transform="translate(95.410156 0)"/>
       <use xlink:href="#DejaVuSans-30" transform="translate(159.033203 0)"/>
      </g>
     </g>
    </g>
    <g id="ytick_8">
     <g id="line2d_32">
      <g>
       <use xlink:href="#m96b07b350f" x="527.905" y="280.900044" style="stroke: #000000; stroke-width: 0.8"/>
      </g>
     </g>
     <g id="text_48">
      <!-- 0.25 -->
      <g transform="translate(498.639375 284.699263) scale(0.1 -0.1)">
       <use xlink:href="#DejaVuSans-30"/>
       <use xlink:href="#DejaVuSans-2e" transform="translate(63.623047 0)"/>
       <use xlink:href="#DejaVuSans-32" transform="translate(95.410156 0)"/>
       <use xlink:href="#DejaVuSans-35" transform="translate(159.033203 0)"/>
      </g>
     </g>
    </g>
    <g id="ytick_9">
     <g id="line2d_33">
      <g>
       <use xlink:href="#m96b07b350f" x="527.905" y="248.301553" style="stroke: #000000; stroke-width: 0.8"/>
      </g>
     </g>
     <g id="text_49">
      <!-- 0.50 -->
      <g transform="translate(498.639375 252.100772) scale(0.1 -0.1)">
       <use xlink:href="#DejaVuSans-30"/>
       <use xlink:href="#DejaVuSans-2e" transform="translate(63.623047 0)"/>
       <use xlink:href="#DejaVuSans-35" transform="translate(95.410156 0)"/>
       <use xlink:href="#DejaVuSans-30" transform="translate(159.033203 0)"/>
      </g>
     </g>
    </g>
    <g id="ytick_10">
     <g id="line2d_34">
      <g>
       <use xlink:href="#m96b07b350f" x="527.905" y="215.703061" style="stroke: #000000; stroke-width: 0.8"/>
      </g>
     </g>
     <g id="text_50">
      <!-- 0.75 -->
      <g transform="translate(498.639375 219.50228) scale(0.1 -0.1)">
       <use xlink:href="#DejaVuSans-30"/>
       <use xlink:href="#DejaVuSans-2e" transform="translate(63.623047 0)"/>
       <use xlink:href="#DejaVuSans-37" transform="translate(95.410156 0)"/>
       <use xlink:href="#DejaVuSans-35" transform="translate(159.033203 0)"/>
      </g>
     </g>
    </g>
    <g id="ytick_11">
     <g id="line2d_35">
      <g>
       <use xlink:href="#m96b07b350f" x="527.905" y="183.10457" style="stroke: #000000; stroke-width: 0.8"/>
      </g>
     </g>
     <g id="text_51">
      <!-- 1.00 -->
      <g transform="translate(498.639375 186.903789) scale(0.1 -0.1)">
       <use xlink:href="#DejaVuSans-31"/>
       <use xlink:href="#DejaVuSans-2e" transform="translate(63.623047 0)"/>
       <use xlink:href="#DejaVuSans-30" transform="translate(95.410156 0)"/>
       <use xlink:href="#DejaVuSans-30" transform="translate(159.033203 0)"/>
      </g>
     </g>
    </g>
    <g id="ytick_12">
     <g id="line2d_36">
      <g>
       <use xlink:href="#m96b07b350f" x="527.905" y="150.506078" style="stroke: #000000; stroke-width: 0.8"/>
      </g>
     </g>
     <g id="text_52">
      <!-- 1.25 -->
      <g transform="translate(498.639375 154.305297) scale(0.1 -0.1)">
       <use xlink:href="#DejaVuSans-31"/>
       <use xlink:href="#DejaVuSans-2e" transform="translate(63.623047 0)"/>
       <use xlink:href="#DejaVuSans-32" transform="translate(95.410156 0)"/>
       <use xlink:href="#DejaVuSans-35" transform="translate(159.033203 0)"/>
      </g>
     </g>
    </g>
    <g id="ytick_13">
     <g id="line2d_37">
      <g>
       <use xlink:href="#m96b07b350f" x="527.905" y="117.907587" style="stroke: #000000; stroke-width: 0.8"/>
      </g>
     </g>
     <g id="text_53">
      <!-- 1.50 -->
      <g transform="translate(498.639375 121.706806) scale(0.1 -0.1)">
       <use xlink:href="#DejaVuSans-31"/>
       <use xlink:href="#DejaVuSans-2e" transform="translate(63.623047 0)"/>
       <use xlink:href="#DejaVuSans-35" transform="translate(95.410156 0)"/>
       <use xlink:href="#DejaVuSans-30" transform="translate(159.033203 0)"/>
      </g>
     </g>
    </g>
    <g id="ytick_14">
     <g id="line2d_38">
      <g>
       <use xlink:href="#m96b07b350f" x="527.905" y="85.309096" style="stroke: #000000; stroke-width: 0.8"/>
      </g>
     </g>
     <g id="text_54">
      <!-- 1.75 -->
      <g transform="translate(498.639375 89.108314) scale(0.1 -0.1)">
       <use xlink:href="#DejaVuSans-31"/>
       <use xlink:href="#DejaVuSans-2e" transform="translate(63.623047 0)"/>
       <use xlink:href="#DejaVuSans-37" transform="translate(95.410156 0)"/>
       <use xlink:href="#DejaVuSans-35" transform="translate(159.033203 0)"/>
      </g>
     </g>
    </g>
    <g id="ytick_15">
     <g id="line2d_39">
      <g>
       <use xlink:href="#m96b07b350f" x="527.905" y="52.710604" style="stroke: #000000; stroke-width: 0.8"/>
      </g>
     </g>
     <g id="text_55">
      <!-- 2.00 -->
      <g transform="translate(498.639375 56.509823) scale(0.1 -0.1)">
       <use xlink:href="#DejaVuSans-32"/>
       <use xlink:href="#DejaVuSans-2e" transform="translate(63.623047 0)"/>
       <use xlink:href="#DejaVuSans-30" transform="translate(95.410156 0)"/>
       <use xlink:href="#DejaVuSans-30" transform="translate(159.033203 0)"/>
      </g>
     </g>
    </g>
    <g id="text_56">
     <!-- Pvalb/Sst ratio -->
     <g style="fill: #8172b2" transform="translate(492.559688 213.819455) rotate(-90) scale(0.1 -0.1)">
      <use xlink:href="#DejaVuSans-50"/>
      <use xlink:href="#DejaVuSans-76" transform="translate(60.302734 0)"/>
      <use xlink:href="#DejaVuSans-61" transform="translate(119.482422 0)"/>
      <use xlink:href="#DejaVuSans-6c" transform="translate(180.761719 0)"/>
      <use xlink:href="#DejaVuSans-62" transform="translate(208.544922 0)"/>
      <use xlink:href="#DejaVuSans-2f" transform="translate(272.021484 0)"/>
      <use xlink:href="#DejaVuSans-53" transform="translate(305.712891 0)"/>
      <use xlink:href="#DejaVuSans-73" transform="translate(369.189453 0)"/>
      <use xlink:href="#DejaVuSans-74" transform="translate(421.289062 0)"/>
      <use xlink:href="#DejaVuSans-20" transform="translate(460.498047 0)"/>
      <use xlink:href="#DejaVuSans-72" transform="translate(492.285156 0)"/>
      <use xlink:href="#DejaVuSans-61" transform="translate(533.398438 0)"/>
      <use xlink:href="#DejaVuSans-74" transform="translate(594.677734 0)"/>
      <use xlink:href="#DejaVuSans-69" transform="translate(633.886719 0)"/>
      <use xlink:href="#DejaVuSans-6f" transform="translate(661.669922 0)"/>
     </g>
    </g>
   </g>
   <g id="patch_22">
    <path d="M 527.905 313.498536 
L 527.905 41.856 
" style="fill: none; stroke: #000000; stroke-width: 0.8; stroke-linejoin: miter; stroke-linecap: square"/>
   </g>
   <g id="patch_23">
    <path d="M 947.68 313.498536 
L 947.68 41.856 
" style="fill: none; stroke: #000000; stroke-width: 0.8; stroke-linejoin: miter; stroke-linecap: square"/>
   </g>
   <g id="patch_24">
    <path d="M 527.905 313.498536 
L 947.68 313.498536 
" style="fill: none; stroke: #000000; stroke-width: 0.8; stroke-linejoin: miter; stroke-linecap: square"/>
   </g>
   <g id="patch_25">
    <path d="M 527.905 41.856 
L 947.68 41.856 
" style="fill: none; stroke: #000000; stroke-width: 0.8; stroke-linejoin: miter; stroke-linecap: square"/>
   </g>
   <g id="text_57">
    <!-- Pvalb/Sst &amp; NW by Subregion -->
    <g transform="translate(649.680625 35.856) scale(0.12 -0.12)">
     <defs>
      <path id="DejaVuSans-26" d="M 1556 2509 
Q 1272 2256 1139 2004 
Q 1006 1753 1006 1478 
Q 1006 1022 1337 719 
Q 1669 416 2169 416 
Q 2466 416 2725 514 
Q 2984 613 3213 813 
L 1556 2509 
z
M 1997 2859 
L 3584 1234 
Q 3769 1513 3872 1830 
Q 3975 2147 3994 2503 
L 4575 2503 
Q 4538 2091 4375 1687 
Q 4213 1284 3922 891 
L 4794 0 
L 4006 0 
L 3559 459 
Q 3234 181 2878 45 
Q 2522 -91 2113 -91 
Q 1359 -91 881 339 
Q 403 769 403 1441 
Q 403 1841 612 2192 
Q 822 2544 1241 2853 
Q 1091 3050 1012 3245 
Q 934 3441 934 3628 
Q 934 4134 1281 4442 
Q 1628 4750 2203 4750 
Q 2463 4750 2720 4694 
Q 2978 4638 3244 4525 
L 3244 3956 
Q 2972 4103 2725 4179 
Q 2478 4256 2266 4256 
Q 1938 4256 1733 4082 
Q 1528 3909 1528 3634 
Q 1528 3475 1620 3314 
Q 1713 3153 1997 2859 
z
" transform="scale(0.015625)"/>
      <path id="DejaVuSans-79" d="M 2059 -325 
Q 1816 -950 1584 -1140 
Q 1353 -1331 966 -1331 
L 506 -1331 
L 506 -850 
L 844 -850 
Q 1081 -850 1212 -737 
Q 1344 -625 1503 -206 
L 1606 56 
L 191 3500 
L 800 3500 
L 1894 763 
L 2988 3500 
L 3597 3500 
L 2059 -325 
z
" transform="scale(0.015625)"/>
      <path id="DejaVuSans-75" d="M 544 1381 
L 544 3500 
L 1119 3500 
L 1119 1403 
Q 1119 906 1312 657 
Q 1506 409 1894 409 
Q 2359 409 2629 706 
Q 2900 1003 2900 1516 
L 2900 3500 
L 3475 3500 
L 3475 0 
L 2900 0 
L 2900 538 
Q 2691 219 2414 64 
Q 2138 -91 1772 -91 
Q 1169 -91 856 284 
Q 544 659 544 1381 
z
M 1991 3584 
L 1991 3584 
z
" transform="scale(0.015625)"/>
      <path id="DejaVuSans-65" d="M 3597 1894 
L 3597 1613 
L 953 1613 
Q 991 1019 1311 708 
Q 1631 397 2203 397 
Q 2534 397 2845 478 
Q 3156 559 3463 722 
L 3463 178 
Q 3153 47 2828 -22 
Q 2503 -91 2169 -91 
Q 1331 -91 842 396 
Q 353 884 353 1716 
Q 353 2575 817 3079 
Q 1281 3584 2069 3584 
Q 2775 3584 3186 3129 
Q 3597 2675 3597 1894 
z
M 3022 2063 
Q 3016 2534 2758 2815 
Q 2500 3097 2075 3097 
Q 1594 3097 1305 2825 
Q 1016 2553 972 2059 
L 3022 2063 
z
" transform="scale(0.015625)"/>
     </defs>
     <use xlink:href="#DejaVuSans-50"/>
     <use xlink:href="#DejaVuSans-76" transform="translate(60.302734 0)"/>
     <use xlink:href="#DejaVuSans-61" transform="translate(119.482422 0)"/>
     <use xlink:href="#DejaVuSans-6c" transform="translate(180.761719 0)"/>
     <use xlink:href="#DejaVuSans-62" transform="translate(208.544922 0)"/>
     <use xlink:href="#DejaVuSans-2f" transform="translate(272.021484 0)"/>
     <use xlink:href="#DejaVuSans-53" transform="translate(305.712891 0)"/>
     <use xlink:href="#DejaVuSans-73" transform="translate(369.189453 0)"/>
     <use xlink:href="#DejaVuSans-74" transform="translate(421.289062 0)"/>
     <use xlink:href="#DejaVuSans-20" transform="translate(460.498047 0)"/>
     <use xlink:href="#DejaVuSans-26" transform="translate(492.285156 0)"/>
     <use xlink:href="#DejaVuSans-20" transform="translate(570.263672 0)"/>
     <use xlink:href="#DejaVuSans-4e" transform="translate(602.050781 0)"/>
     <use xlink:href="#DejaVuSans-57" transform="translate(676.855469 0)"/>
     <use xlink:href="#DejaVuSans-20" transform="translate(775.732422 0)"/>
     <use xlink:href="#DejaVuSans-62" transform="translate(807.519531 0)"/>
     <use xlink:href="#DejaVuSans-79" transform="translate(870.996094 0)"/>
     <use xlink:href="#DejaVuSans-20" transform="translate(930.175781 0)"/>
     <use xlink:href="#DejaVuSans-53" transform="translate(961.962891 0)"/>
     <use xlink:href="#DejaVuSans-75" transform="translate(1025.439453 0)"/>
     <use xlink:href="#DejaVuSans-62" transform="translate(1088.818359 0)"/>
     <use xlink:href="#DejaVuSans-72" transform="translate(1152.294922 0)"/>
     <use xlink:href="#DejaVuSans-65" transform="translate(1191.158203 0)"/>
     <use xlink:href="#DejaVuSans-67" transform="translate(1252.681641 0)"/>
     <use xlink:href="#DejaVuSans-69" transform="translate(1316.158203 0)"/>
     <use xlink:href="#DejaVuSans-6f" transform="translate(1343.941406 0)"/>
     <use xlink:href="#DejaVuSans-6e" transform="translate(1405.123047 0)"/>
    </g>
   </g>
   <g id="legend_1">
    <g id="patch_26">
     <path d="M 534.905 79.21225 
L 612.955 79.21225 
Q 614.955 79.21225 614.955 77.21225 
L 614.955 48.856 
Q 614.955 46.856 612.955 46.856 
L 534.905 46.856 
Q 532.905 46.856 532.905 48.856 
L 532.905 77.21225 
Q 532.905 79.21225 534.905 79.21225 
z
" style="fill: #ffffff; opacity: 0.8; stroke: #cccccc; stroke-linejoin: miter"/>
    </g>
    <g id="patch_27">
     <path d="M 536.905 58.454438 
L 556.905 58.454438 
L 556.905 51.454438 
L 536.905 51.454438 
z
" style="fill: #8172b2; stroke: #000000; stroke-linejoin: miter"/>
    </g>
    <g id="text_58">
     <!-- Pvalb/Sst -->
     <g transform="translate(564.905 58.454438) scale(0.1 -0.1)">
      <use xlink:href="#DejaVuSans-50"/>
      <use xlink:href="#DejaVuSans-76" transform="translate(60.302734 0)"/>
      <use xlink:href="#DejaVuSans-61" transform="translate(119.482422 0)"/>
      <use xlink:href="#DejaVuSans-6c" transform="translate(180.761719 0)"/>
      <use xlink:href="#DejaVuSans-62" transform="translate(208.544922 0)"/>
      <use xlink:href="#DejaVuSans-2f" transform="translate(272.021484 0)"/>
      <use xlink:href="#DejaVuSans-53" transform="translate(305.712891 0)"/>
      <use xlink:href="#DejaVuSans-73" transform="translate(369.189453 0)"/>
      <use xlink:href="#DejaVuSans-74" transform="translate(421.289062 0)"/>
     </g>
    </g>
    <g id="patch_28">
     <path d="M 536.905 73.132563 
L 556.905 73.132563 
L 556.905 66.132563 
L 536.905 66.132563 
z
" style="fill: #c44e52; opacity: 0.8; stroke: #000000; stroke-linejoin: miter"/>
    </g>
    <g id="text_59">
     <!-- NW frac -->
     <g transform="translate(564.905 73.132563) scale(0.1 -0.1)">
      <use xlink:href="#DejaVuSans-4e"/>
      <use xlink:href="#DejaVuSans-57" transform="translate(74.804688 0)"/>
      <use xlink:href="#DejaVuSans-20" transform="translate(173.681641 0)"/>
      <use xlink:href="#DejaVuSans-66" transform="translate(205.46875 0)"/>
      <use xlink:href="#DejaVuSans-72" transform="translate(240.673828 0)"/>
      <use xlink:href="#DejaVuSans-61" transform="translate(281.787109 0)"/>
      <use xlink:href="#DejaVuSans-63" transform="translate(343.066406 0)"/>
     </g>
    </g>
   </g>
  </g>
  <g id="axes_3">
   <g id="patch_29">
    <path d="M 556.734935 313.498536 
L 566.484189 313.498536 
L 566.484189 150.334233 
L 556.734935 150.334233 
z
" clip-path="url(#p9fdfa06c3c)" style="fill: #c44e52; opacity: 0.8; stroke: #000000; stroke-linejoin: miter"/>
   </g>
   <g id="patch_30">
    <path d="M 584.589945 313.498536 
L 594.339199 313.498536 
L 594.339199 75.415232 
L 584.589945 75.415232 
z
" clip-path="url(#p9fdfa06c3c)" style="fill: #c44e52; opacity: 0.8; stroke: #000000; stroke-linejoin: miter"/>
   </g>
   <g id="patch_31">
    <path d="M 612.444955 313.498536 
L 622.194209 313.498536 
L 622.194209 159.131733 
L 612.444955 159.131733 
z
" clip-path="url(#p9fdfa06c3c)" style="fill: #c44e52; opacity: 0.8; stroke: #000000; stroke-linejoin: miter"/>
   </g>
   <g id="patch_32">
    <path d="M 640.299965 313.498536 
L 650.049219 313.498536 
L 650.049219 106.899177 
L 640.299965 106.899177 
z
" clip-path="url(#p9fdfa06c3c)" style="fill: #c44e52; opacity: 0.8; stroke: #000000; stroke-linejoin: miter"/>
   </g>
   <g id="patch_33">
    <path d="M 668.154975 313.498536 
L 677.904229 313.498536 
L 677.904229 54.791359 
L 668.154975 54.791359 
z
" clip-path="url(#p9fdfa06c3c)" style="fill: #c44e52; opacity: 0.8; stroke: #000000; stroke-linejoin: miter"/>
   </g>
   <g id="patch_34">
    <path d="M 696.009985 313.498536 
L 705.759239 313.498536 
L 705.759239 156.651676 
L 696.009985 156.651676 
z
" clip-path="url(#p9fdfa06c3c)" style="fill: #c44e52; opacity: 0.8; stroke: #000000; stroke-linejoin: miter"/>
   </g>
   <g id="patch_35">
    <path d="M 723.864995 313.498536 
L 733.614249 313.498536 
L 733.614249 179.471448 
L 723.864995 179.471448 
z
" clip-path="url(#p9fdfa06c3c)" style="fill: #c44e52; opacity: 0.8; stroke: #000000; stroke-linejoin: miter"/>
   </g>
   <g id="patch_36">
    <path d="M 751.720005 313.498536 
L 761.469258 313.498536 
L 761.469258 99.705358 
L 751.720005 99.705358 
z
" clip-path="url(#p9fdfa06c3c)" style="fill: #c44e52; opacity: 0.8; stroke: #000000; stroke-linejoin: miter"/>
   </g>
   <g id="patch_37">
    <path d="M 779.575015 313.498536 
L 789.324268 313.498536 
L 789.324268 152.702695 
L 779.575015 152.702695 
z
" clip-path="url(#p9fdfa06c3c)" style="fill: #c44e52; opacity: 0.8; stroke: #000000; stroke-linejoin: miter"/>
   </g>
   <g id="patch_38">
    <path d="M 807.430025 313.498536 
L 817.179278 313.498536 
L 817.179278 102.664532 
L 807.430025 102.664532 
z
" clip-path="url(#p9fdfa06c3c)" style="fill: #c44e52; opacity: 0.8; stroke: #000000; stroke-linejoin: miter"/>
   </g>
   <g id="patch_39">
    <path d="M 835.285035 313.498536 
L 845.034288 313.498536 
L 845.034288 128.134065 
L 835.285035 128.134065 
z
" clip-path="url(#p9fdfa06c3c)" style="fill: #c44e52; opacity: 0.8; stroke: #000000; stroke-linejoin: miter"/>
   </g>
   <g id="patch_40">
    <path d="M 863.140045 313.498536 
L 872.889298 313.498536 
L 872.889298 115.82631 
L 863.140045 115.82631 
z
" clip-path="url(#p9fdfa06c3c)" style="fill: #c44e52; opacity: 0.8; stroke: #000000; stroke-linejoin: miter"/>
   </g>
   <g id="patch_41">
    <path d="M 890.995055 313.498536 
L 900.744308 313.498536 
L 900.744308 177.690572 
L 890.995055 177.690572 
z
" clip-path="url(#p9fdfa06c3c)" style="fill: #c44e52; opacity: 0.8; stroke: #000000; stroke-linejoin: miter"/>
   </g>
   <g id="patch_42">
    <path d="M 918.850065 313.498536 
L 928.599318 313.498536 
L 928.599318 92.435785 
L 918.850065 92.435785 
z
" clip-path="url(#p9fdfa06c3c)" style="fill: #c44e52; opacity: 0.8; stroke: #000000; stroke-linejoin: miter"/>
   </g>
   <g id="matplotlib.axis_5">
    <g id="ytick_16">
     <g id="line2d_40">
      <defs>
       <path id="md2095495d9" d="M 0 0 
L 3.5 0 
" style="stroke: #000000; stroke-width: 0.8"/>
      </defs>
      <g>
       <use xlink:href="#md2095495d9" x="947.68" y="313.498536" style="stroke: #000000; stroke-width: 0.8"/>
      </g>
     </g>
     <g id="text_60">
      <!-- 0.000 -->
      <g transform="translate(954.68 317.297755) scale(0.1 -0.1)">
       <use xlink:href="#DejaVuSans-30"/>
       <use xlink:href="#DejaVuSans-2e" transform="translate(63.623047 0)"/>
       <use xlink:href="#DejaVuSans-30" transform="translate(95.410156 0)"/>
       <use xlink:href="#DejaVuSans-30" transform="translate(159.033203 0)"/>
       <use xlink:href="#DejaVuSans-30" transform="translate(222.65625 0)"/>
      </g>
     </g>
    </g>
    <g id="ytick_17">
     <g id="line2d_41">
      <g>
       <use xlink:href="#md2095495d9" x="947.68" y="281.475635" style="stroke: #000000; stroke-width: 0.8"/>
      </g>
     </g>
     <g id="text_61">
      <!-- 0.025 -->
      <g transform="translate(954.68 285.274854) scale(0.1 -0.1)">
       <use xlink:href="#DejaVuSans-30"/>
       <use xlink:href="#DejaVuSans-2e" transform="translate(63.623047 0)"/>
       <use xlink:href="#DejaVuSans-30" transform="translate(95.410156 0)"/>
       <use xlink:href="#DejaVuSans-32" transform="translate(159.033203 0)"/>
       <use xlink:href="#DejaVuSans-35" transform="translate(222.65625 0)"/>
      </g>
     </g>
    </g>
    <g id="ytick_18">
     <g id="line2d_42">
      <g>
       <use xlink:href="#md2095495d9" x="947.68" y="249.452735" style="stroke: #000000; stroke-width: 0.8"/>
      </g>
     </g>
     <g id="text_62">
      <!-- 0.050 -->
      <g transform="translate(954.68 253.251953) scale(0.1 -0.1)">
       <use xlink:href="#DejaVuSans-30"/>
       <use xlink:href="#DejaVuSans-2e" transform="translate(63.623047 0)"/>
       <use xlink:href="#DejaVuSans-30" transform="translate(95.410156 0)"/>
       <use xlink:href="#DejaVuSans-35" transform="translate(159.033203 0)"/>
       <use xlink:href="#DejaVuSans-30" transform="translate(222.65625 0)"/>
      </g>
     </g>
    </g>
    <g id="ytick_19">
     <g id="line2d_43">
      <g>
       <use xlink:href="#md2095495d9" x="947.68" y="217.429834" style="stroke: #000000; stroke-width: 0.8"/>
      </g>
     </g>
     <g id="text_63">
      <!-- 0.075 -->
      <g transform="translate(954.68 221.229053) scale(0.1 -0.1)">
       <use xlink:href="#DejaVuSans-30"/>
       <use xlink:href="#DejaVuSans-2e" transform="translate(63.623047 0)"/>
       <use xlink:href="#DejaVuSans-30" transform="translate(95.410156 0)"/>
       <use xlink:href="#DejaVuSans-37" transform="translate(159.033203 0)"/>
       <use xlink:href="#DejaVuSans-35" transform="translate(222.65625 0)"/>
      </g>
     </g>
    </g>
    <g id="ytick_20">
     <g id="line2d_44">
      <g>
       <use xlink:href="#md2095495d9" x="947.68" y="185.406934" style="stroke: #000000; stroke-width: 0.8"/>
      </g>
     </g>
     <g id="text_64">
      <!-- 0.100 -->
      <g transform="translate(954.68 189.206152) scale(0.1 -0.1)">
       <use xlink:href="#DejaVuSans-30"/>
       <use xlink:href="#DejaVuSans-2e" transform="translate(63.623047 0)"/>
       <use xlink:href="#DejaVuSans-31" transform="translate(95.410156 0)"/>
       <use xlink:href="#DejaVuSans-30" transform="translate(159.033203 0)"/>
       <use xlink:href="#DejaVuSans-30" transform="translate(222.65625 0)"/>
      </g>
     </g>
    </g>
    <g id="ytick_21">
     <g id="line2d_45">
      <g>
       <use xlink:href="#md2095495d9" x="947.68" y="153.384033" style="stroke: #000000; stroke-width: 0.8"/>
      </g>
     </g>
     <g id="text_65">
      <!-- 0.125 -->
      <g transform="translate(954.68 157.183252) scale(0.1 -0.1)">
       <use xlink:href="#DejaVuSans-30"/>
       <use xlink:href="#DejaVuSans-2e" transform="translate(63.623047 0)"/>
       <use xlink:href="#DejaVuSans-31" transform="translate(95.410156 0)"/>
       <use xlink:href="#DejaVuSans-32" transform="translate(159.033203 0)"/>
       <use xlink:href="#DejaVuSans-35" transform="translate(222.65625 0)"/>
      </g>
     </g>
    </g>
    <g id="ytick_22">
     <g id="line2d_46">
      <g>
       <use xlink:href="#md2095495d9" x="947.68" y="121.361132" style="stroke: #000000; stroke-width: 0.8"/>
      </g>
     </g>
     <g id="text_66">
      <!-- 0.150 -->
      <g transform="translate(954.68 125.160351) scale(0.1 -0.1)">
       <use xlink:href="#DejaVuSans-30"/>
       <use xlink:href="#DejaVuSans-2e" transform="translate(63.623047 0)"/>
       <use xlink:href="#DejaVuSans-31" transform="translate(95.410156 0)"/>
       <use xlink:href="#DejaVuSans-35" transform="translate(159.033203 0)"/>
       <use xlink:href="#DejaVuSans-30" transform="translate(222.65625 0)"/>
      </g>
     </g>
    </g>
    <g id="ytick_23">
     <g id="line2d_47">
      <g>
       <use xlink:href="#md2095495d9" x="947.68" y="89.338232" style="stroke: #000000; stroke-width: 0.8"/>
      </g>
     </g>
     <g id="text_67">
      <!-- 0.175 -->
      <g transform="translate(954.68 93.137451) scale(0.1 -0.1)">
       <use xlink:href="#DejaVuSans-30"/>
       <use xlink:href="#DejaVuSans-2e" transform="translate(63.623047 0)"/>
       <use xlink:href="#DejaVuSans-31" transform="translate(95.410156 0)"/>
       <use xlink:href="#DejaVuSans-37" transform="translate(159.033203 0)"/>
       <use xlink:href="#DejaVuSans-35" transform="translate(222.65625 0)"/>
      </g>
     </g>
    </g>
    <g id="ytick_24">
     <g id="line2d_48">
      <g>
       <use xlink:href="#md2095495d9" x="947.68" y="57.315331" style="stroke: #000000; stroke-width: 0.8"/>
      </g>
     </g>
     <g id="text_68">
      <!-- 0.200 -->
      <g transform="translate(954.68 61.11455) scale(0.1 -0.1)">
       <use xlink:href="#DejaVuSans-30"/>
       <use xlink:href="#DejaVuSans-2e" transform="translate(63.623047 0)"/>
       <use xlink:href="#DejaVuSans-32" transform="translate(95.410156 0)"/>
       <use xlink:href="#DejaVuSans-30" transform="translate(159.033203 0)"/>
       <use xlink:href="#DejaVuSans-30" transform="translate(222.65625 0)"/>
      </g>
     </g>
    </g>
    <g id="text_69">
     <!-- NW fraction -->
     <g style="fill: #c44e52" transform="translate(994.906563 207.156955) rotate(-90) scale(0.1 -0.1)">
      <use xlink:href="#DejaVuSans-4e"/>
      <use xlink:href="#DejaVuSans-57" transform="translate(74.804688 0)"/>
      <use xlink:href="#DejaVuSans-20" transform="translate(173.681641 0)"/>
      <use xlink:href="#DejaVuSans-66" transform="translate(205.46875 0)"/>
      <use xlink:href="#DejaVuSans-72" transform="translate(240.673828 0)"/>
      <use xlink:href="#DejaVuSans-61" transform="translate(281.787109 0)"/>
      <use xlink:href="#DejaVuSans-63" transform="translate(343.066406 0)"/>
      <use xlink:href="#DejaVuSans-74" transform="translate(398.046875 0)"/>
      <use xlink:href="#DejaVuSans-69" transform="translate(437.255859 0)"/>
      <use xlink:href="#DejaVuSans-6f" transform="translate(465.039062 0)"/>
      <use xlink:href="#DejaVuSans-6e" transform="translate(526.220703 0)"/>
     </g>
    </g>
   </g>
   <g id="patch_43">
    <path d="M 527.905 313.498536 
L 527.905 41.856 
" style="fill: none; stroke: #000000; stroke-width: 0.8; stroke-linejoin: miter; stroke-linecap: square"/>
   </g>
   <g id="patch_44">
    <path d="M 947.68 313.498536 
L 947.68 41.856 
" style="fill: none; stroke: #000000; stroke-width: 0.8; stroke-linejoin: miter; stroke-linecap: square"/>
   </g>
   <g id="patch_45">
    <path d="M 527.905 313.498536 
L 947.68 313.498536 
" style="fill: none; stroke: #000000; stroke-width: 0.8; stroke-linejoin: miter; stroke-linecap: square"/>
   </g>
   <g id="patch_46">
    <path d="M 527.905 41.856 
L 947.68 41.856 
" style="fill: none; stroke: #000000; stroke-width: 0.8; stroke-linejoin: miter; stroke-linecap: square"/>
   </g>
  </g>
 </g>
 <defs>
  <clipPath id="p81c5c17bec">
   <rect x="54.11" y="41.856" width="419.775" height="271.642536"/>
  </clipPath>
  <clipPath id="p9fdfa06c3c">
   <rect x="527.905" y="41.856" width="419.775" height="271.642536"/>
  </clipPath>
 </defs>
</svg>
