<?xml version="1.0" encoding="utf-8" standalone="no"?>
<!DOCTYPE svg PUBLIC "-//W3C//DTD SVG 1.1//EN"
  "http://www.w3.org/Graphics/SVG/1.1/DTD/svg11.dtd">
<svg xmlns:xlink="http://www.w3.org/1999/xlink" width="1296pt" height="360pt" viewBox="0 0 1296 360" xmlns="http://www.w3.org/2000/svg" version="1.1">
 <metadata>
  <rdf:RDF xmlns:dc="http://purl.org/dc/elements/1.1/" xmlns:cc="http://creativecommons.org/ns#" xmlns:rdf="http://www.w3.org/1999/02/22-rdf-syntax-ns#">
   <cc:Work>
    <dc:type rdf:resource="http://purl.org/dc/dcmitype/StillImage"/>
    <dc:date>2026-04-20T21:43:43.591947</dc:date>
    <dc:format>image/svg+xml</dc:format>
    <dc:creator>
     <cc:Agent>
      <dc:title>Matplotlib v3.10.8, https://matplotlib.org/</dc:title>
     </cc:Agent>
    </dc:creator>
   </cc:Work>
  </rdf:RDF>
 </metadata>
 <defs>
  <style type="text/css">*{stroke-linejoin: round; stroke-linecap: butt}</style>
 </defs>
 <g id="figure_1">
  <g id="patch_1">
   <path d="M 0 360 
L 1296 360 
L 1296 0 
L 0 0 
z
" style="fill: #ffffff"/>
  </g>
  <g id="axes_1">
   <g id="patch_2">
    <path d="M 54.11 318.04 
L 428.4 318.04 
L 428.4 41.856 
L 54.11 41.856 
z
" style="fill: #ffffff"/>
   </g>
   <g id="matplotlib.axis_1">
    <g id="xtick_1">
     <g id="line2d_1">
      <defs>
       <path id="m2bdbaae920" d="M 0 0 
L 0 3.5 
" style="stroke: #000000; stroke-width: 0.8"/>
      </defs>
      <g>
       <use xlink:href="#m2bdbaae920" x="80.948629" y="318.04" style="stroke: #000000; stroke-width: 0.8"/>
      </g>
     </g>
     <g id="text_1">
      <!-- 0.1 -->
      <g transform="translate(72.997066 332.638438) scale(0.1 -0.1)">
       <defs>
        <path id="DejaVuSans-30" d="M 2034 4250 
Q 1547 4250 1301 3770 
Q 1056 3291 1056 2328 
Q 1056 1369 1301 889 
Q 1547 409 2034 409 
Q 2525 409 2770 889 
Q 3016 1369 3016 2328 
Q 3016 3291 2770 3770 
Q 2525 4250 2034 4250 
z
M 2034 4750 
Q 2819 4750 3233 4129 
Q 3647 3509 3647 2328 
Q 3647 1150 3233 529 
Q 2819 -91 2034 -91 
Q 1250 -91 836 529 
Q 422 1150 422 2328 
Q 422 3509 836 4129 
Q 1250 4750 2034 4750 
z
" transform="scale(0.015625)"/>
        <path id="DejaVuSans-2e" d="M 684 794 
L 1344 794 
L 1344 0 
L 684 0 
L 684 794 
z
" transform="scale(0.015625)"/>
        <path id="DejaVuSans-31" d="M 794 531 
L 1825 531 
L 1825 4091 
L 703 3866 
L 703 4441 
L 1819 4666 
L 2450 4666 
L 2450 531 
L 3481 531 
L 3481 0 
L 794 0 
L 794 531 
z
" transform="scale(0.015625)"/>
       </defs>
       <use xlink:href="#DejaVuSans-30"/>
       <use xlink:href="#DejaVuSans-2e" transform="translate(63.623047 0)"/>
       <use xlink:href="#DejaVuSans-31" transform="translate(95.410156 0)"/>
      </g>
     </g>
    </g>
    <g id="xtick_2">
     <g id="line2d_2">
      <g>
       <use xlink:href="#m2bdbaae920" x="136.64845" y="318.04" style="stroke: #000000; stroke-width: 0.8"/>
      </g>
     </g>
     <g id="text_2">
      <!-- 0.2 -->
      <g transform="translate(128.696888 332.638438) scale(0.1 -0.1)">
       <defs>
        <path id="DejaVuSans-32" d="M 1228 531 
L 3431 531 
L 3431 0 
L 469 0 
L 469 531 
Q 828 903 1448 1529 
Q 2069 2156 2228 2338 
Q 2531 2678 2651 2914 
Q 2772 3150 2772 3378 
Q 2772 3750 2511 3984 
Q 2250 4219 1831 4219 
Q 1534 4219 1204 4116 
Q 875 4013 500 3803 
L 500 4441 
Q 881 4594 1212 4672 
Q 1544 4750 1819 4750 
Q 2544 4750 2975 4387 
Q 3406 4025 3406 3419 
Q 3406 3131 3298 2873 
Q 3191 2616 2906 2266 
Q 2828 2175 2409 1742 
Q 1991 1309 1228 531 
z
" transform="scale(0.015625)"/>
       </defs>
       <use xlink:href="#DejaVuSans-30"/>
       <use xlink:href="#DejaVuSans-2e" transform="translate(63.623047 0)"/>
       <use xlink:href="#DejaVuSans-32" transform="translate(95.410156 0)"/>
      </g>
     </g>
    </g>
    <g id="xtick_3">
     <g id="line2d_3">
      <g>
       <use xlink:href="#m2bdbaae920" x="192.348272" y="318.04" style="stroke: #000000; stroke-width: 0.8"/>
      </g>
     </g>
     <g id="text_3">
      <!-- 0.3 -->
      <g transform="translate(184.396709 332.638438) scale(0.1 -0.1)">
       <defs>
        <path id="DejaVuSans-33" d="M 2597 2516 
Q 3050 2419 3304 2112 
Q 3559 1806 3559 1356 
Q 3559 666 3084 287 
Q 2609 -91 1734 -91 
Q 1441 -91 1130 -33 
Q 819 25 488 141 
L 488 750 
Q 750 597 1062 519 
Q 1375 441 1716 441 
Q 2309 441 2620 675 
Q 2931 909 2931 1356 
Q 2931 1769 2642 2001 
Q 2353 2234 1838 2234 
L 1294 2234 
L 1294 2753 
L 1863 2753 
Q 2328 2753 2575 2939 
Q 2822 3125 2822 3475 
Q 2822 3834 2567 4026 
Q 2313 4219 1838 4219 
Q 1578 4219 1281 4162 
Q 984 4106 628 3988 
L 628 4550 
Q 988 4650 1302 4700 
Q 1616 4750 1894 4750 
Q 2613 4750 3031 4423 
Q 3450 4097 3450 3541 
Q 3450 3153 3228 2886 
Q 3006 2619 2597 2516 
z
" transform="scale(0.015625)"/>
       </defs>
       <use xlink:href="#DejaVuSans-30"/>
       <use xlink:href="#DejaVuSans-2e" transform="translate(63.623047 0)"/>
       <use xlink:href="#DejaVuSans-33" transform="translate(95.410156 0)"/>
      </g>
     </g>
    </g>
    <g id="xtick_4">
     <g id="line2d_4">
      <g>
       <use xlink:href="#m2bdbaae920" x="248.048093" y="318.04" style="stroke: #000000; stroke-width: 0.8"/>
      </g>
     </g>
     <g id="text_4">
      <!-- 0.4 -->
      <g transform="translate(240.09653 332.638438) scale(0.1 -0.1)">
       <defs>
        <path id="DejaVuSans-34" d="M 2419 4116 
L 825 1625 
L 2419 1625 
L 2419 4116 
z
M 2253 4666 
L 3047 4666 
L 3047 1625 
L 3713 1625 
L 3713 1100 
L 3047 1100 
L 3047 0 
L 2419 0 
L 2419 1100 
L 313 1100 
L 313 1709 
L 2253 4666 
z
" transform="scale(0.015625)"/>
       </defs>
       <use xlink:href="#DejaVuSans-30"/>
       <use xlink:href="#DejaVuSans-2e" transform="translate(63.623047 0)"/>
       <use xlink:href="#DejaVuSans-34" transform="translate(95.410156 0)"/>
      </g>
     </g>
    </g>
    <g id="xtick_5">
     <g id="line2d_5">
      <g>
       <use xlink:href="#m2bdbaae920" x="303.747914" y="318.04" style="stroke: #000000; stroke-width: 0.8"/>
      </g>
     </g>
     <g id="text_5">
      <!-- 0.5 -->
      <g transform="translate(295.796352 332.638438) scale(0.1 -0.1)">
       <defs>
        <path id="DejaVuSans-35" d="M 691 4666 
L 3169 4666 
L 3169 4134 
L 1269 4134 
L 1269 2991 
Q 1406 3038 1543 3061 
Q 1681 3084 1819 3084 
Q 2600 3084 3056 2656 
Q 3513 2228 3513 1497 
Q 3513 744 3044 326 
Q 2575 -91 1722 -91 
Q 1428 -91 1123 -41 
Q 819 9 494 109 
L 494 744 
Q 775 591 1075 516 
Q 1375 441 1709 441 
Q 2250 441 2565 725 
Q 2881 1009 2881 1497 
Q 2881 1984 2565 2268 
Q 2250 2553 1709 2553 
Q 1456 2553 1204 2497 
Q 953 2441 691 2322 
L 691 4666 
z
" transform="scale(0.015625)"/>
       </defs>
       <use xlink:href="#DejaVuSans-30"/>
       <use xlink:href="#DejaVuSans-2e" transform="translate(63.623047 0)"/>
       <use xlink:href="#DejaVuSans-35" transform="translate(95.410156 0)"/>
      </g>
     </g>
    </g>
    <g id="xtick_6">
     <g id="line2d_6">
      <g>
       <use xlink:href="#m2bdbaae920" x="359.447736" y="318.04" style="stroke: #000000; stroke-width: 0.8"/>
      </g>
     </g>
     <g id="text_6">
      <!-- 0.6 -->
      <g transform="translate(351.496173 332.638438) scale(0.1 -0.1)">
       <defs>
        <path id="DejaVuSans-36" d="M 2113 2584 
Q 1688 2584 1439 2293 
Q 1191 2003 1191 1497 
Q 1191 994 1439 701 
Q 1688 409 2113 409 
Q 2538 409 2786 701 
Q 3034 994 3034 1497 
Q 3034 2003 2786 2293 
Q 2538 2584 2113 2584 
z
M 3366 4563 
L 3366 3988 
Q 3128 4100 2886 4159 
Q 2644 4219 2406 4219 
Q 1781 4219 1451 3797 
Q 1122 3375 1075 2522 
Q 1259 2794 1537 2939 
Q 1816 3084 2150 3084 
Q 2853 3084 3261 2657 
Q 3669 2231 3669 1497 
Q 3669 778 3244 343 
Q 2819 -91 2113 -91 
Q 1303 -91 875 529 
Q 447 1150 447 2328 
Q 447 3434 972 4092 
Q 1497 4750 2381 4750 
Q 2619 4750 2861 4703 
Q 3103 4656 3366 4563 
z
" transform="scale(0.015625)"/>
       </defs>
       <use xlink:href="#DejaVuSans-30"/>
       <use xlink:href="#DejaVuSans-2e" transform="translate(63.623047 0)"/>
       <use xlink:href="#DejaVuSans-36" transform="translate(95.410156 0)"/>
      </g>
     </g>
    </g>
    <g id="xtick_7">
     <g id="line2d_7">
      <g>
       <use xlink:href="#m2bdbaae920" x="415.147557" y="318.04" style="stroke: #000000; stroke-width: 0.8"/>
      </g>
     </g>
     <g id="text_7">
      <!-- 0.7 -->
      <g transform="translate(407.195995 332.638438) scale(0.1 -0.1)">
       <defs>
        <path id="DejaVuSans-37" d="M 525 4666 
L 3525 4666 
L 3525 4397 
L 1831 0 
L 1172 0 
L 2766 4134 
L 525 4134 
L 525 4666 
z
" transform="scale(0.015625)"/>
       </defs>
       <use xlink:href="#DejaVuSans-30"/>
       <use xlink:href="#DejaVuSans-2e" transform="translate(63.623047 0)"/>
       <use xlink:href="#DejaVuSans-37" transform="translate(95.410156 0)"/>
      </g>
     </g>
    </g>
    <g id="text_8">
     <!-- MD thalamic projection (NPV) -->
     <g transform="translate(167.622969 346.316563) scale(0.1 -0.1)">
      <defs>
       <path id="DejaVuSans-4d" d="M 628 4666 
L 1569 4666 
L 2759 1491 
L 3956 4666 
L 4897 4666 
L 4897 0 
L 4281 0 
L 4281 4097 
L 3078 897 
L 2444 897 
L 1241 4097 
L 1241 0 
L 628 0 
L 628 4666 
z
" transform="scale(0.015625)"/>
       <path id="DejaVuSans-44" d="M 1259 4147 
L 1259 519 
L 2022 519 
Q 2988 519 3436 956 
Q 3884 1394 3884 2338 
Q 3884 3275 3436 3711 
Q 2988 4147 2022 4147 
L 1259 4147 
z
M 628 4666 
L 1925 4666 
Q 3281 4666 3915 4102 
Q 4550 3538 4550 2338 
Q 4550 1131 3912 565 
Q 3275 0 1925 0 
L 628 0 
L 628 4666 
z
" transform="scale(0.015625)"/>
       <path id="DejaVuSans-20" transform="scale(0.015625)"/>
       <path id="DejaVuSans-74" d="M 1172 4494 
L 1172 3500 
L 2356 3500 
L 2356 3053 
L 1172 3053 
L 1172 1153 
Q 1172 725 1289 603 
Q 1406 481 1766 481 
L 2356 481 
L 2356 0 
L 1766 0 
Q 1100 0 847 248 
Q 594 497 594 1153 
L 594 3053 
L 172 3053 
L 172 3500 
L 594 3500 
L 594 4494 
L 1172 4494 
z
" transform="scale(0.015625)"/>
       <path id="DejaVuSans-68" d="M 3513 2113 
L 3513 0 
L 2938 0 
L 2938 2094 
Q 2938 2591 2744 2837 
Q 2550 3084 2163 3084 
Q 1697 3084 1428 2787 
Q 1159 2491 1159 1978 
L 1159 0 
L 581 0 
L 581 4863 
L 1159 4863 
L 1159 2956 
Q 1366 3272 1645 3428 
Q 1925 3584 2291 3584 
Q 2894 3584 3203 3211 
Q 3513 2838 3513 2113 
z
" transform="scale(0.015625)"/>
       <path id="DejaVuSans-61" d="M 2194 1759 
Q 1497 1759 1228 1600 
Q 959 1441 959 1056 
Q 959 750 1161 570 
Q 1363 391 1709 391 
Q 2188 391 2477 730 
Q 2766 1069 2766 1631 
L 2766 1759 
L 2194 1759 
z
M 3341 1997 
L 3341 0 
L 2766 0 
L 2766 531 
Q 2569 213 2275 61 
Q 1981 -91 1556 -91 
Q 1019 -91 701 211 
Q 384 513 384 1019 
Q 384 1609 779 1909 
Q 1175 2209 1959 2209 
L 2766 2209 
L 2766 2266 
Q 2766 2663 2505 2880 
Q 2244 3097 1772 3097 
Q 1472 3097 1187 3025 
Q 903 2953 641 2809 
L 641 3341 
Q 956 3463 1253 3523 
Q 1550 3584 1831 3584 
Q 2591 3584 2966 3190 
Q 3341 2797 3341 1997 
z
" transform="scale(0.015625)"/>
       <path id="DejaVuSans-6c" d="M 603 4863 
L 1178 4863 
L 1178 0 
L 603 0 
L 603 4863 
z
" transform="scale(0.015625)"/>
       <path id="DejaVuSans-6d" d="M 3328 2828 
Q 3544 3216 3844 3400 
Q 4144 3584 4550 3584 
Q 5097 3584 5394 3201 
Q 5691 2819 5691 2113 
L 5691 0 
L 5113 0 
L 5113 2094 
Q 5113 2597 4934 2840 
Q 4756 3084 4391 3084 
Q 3944 3084 3684 2787 
Q 3425 2491 3425 1978 
L 3425 0 
L 2847 0 
L 2847 2094 
Q 2847 2600 2669 2842 
Q 2491 3084 2119 3084 
Q 1678 3084 1418 2786 
Q 1159 2488 1159 1978 
L 1159 0 
L 581 0 
L 581 3500 
L 1159 3500 
L 1159 2956 
Q 1356 3278 1631 3431 
Q 1906 3584 2284 3584 
Q 2666 3584 2933 3390 
Q 3200 3197 3328 2828 
z
" transform="scale(0.015625)"/>
       <path id="DejaVuSans-69" d="M 603 3500 
L 1178 3500 
L 1178 0 
L 603 0 
L 603 3500 
z
M 603 4863 
L 1178 4863 
L 1178 4134 
L 603 4134 
L 603 4863 
z
" transform="scale(0.015625)"/>
       <path id="DejaVuSans-63" d="M 3122 3366 
L 3122 2828 
Q 2878 2963 2633 3030 
Q 2388 3097 2138 3097 
Q 1578 3097 1268 2742 
Q 959 2388 959 1747 
Q 959 1106 1268 751 
Q 1578 397 2138 397 
Q 2388 397 2633 464 
Q 2878 531 3122 666 
L 3122 134 
Q 2881 22 2623 -34 
Q 2366 -91 2075 -91 
Q 1284 -91 818 406 
Q 353 903 353 1747 
Q 353 2603 823 3093 
Q 1294 3584 2113 3584 
Q 2378 3584 2631 3529 
Q 2884 3475 3122 3366 
z
" transform="scale(0.015625)"/>
       <path id="DejaVuSans-70" d="M 1159 525 
L 1159 -1331 
L 581 -1331 
L 581 3500 
L 1159 3500 
L 1159 2969 
Q 1341 3281 1617 3432 
Q 1894 3584 2278 3584 
Q 2916 3584 3314 3078 
Q 3713 2572 3713 1747 
Q 3713 922 3314 415 
Q 2916 -91 2278 -91 
Q 1894 -91 1617 61 
Q 1341 213 1159 525 
z
M 3116 1747 
Q 3116 2381 2855 2742 
Q 2594 3103 2138 3103 
Q 1681 3103 1420 2742 
Q 1159 2381 1159 1747 
Q 1159 1113 1420 752 
Q 1681 391 2138 391 
Q 2594 391 2855 752 
Q 3116 1113 3116 1747 
z
" transform="scale(0.015625)"/>
       <path id="DejaVuSans-72" d="M 2631 2963 
Q 2534 3019 2420 3045 
Q 2306 3072 2169 3072 
Q 1681 3072 1420 2755 
Q 1159 2438 1159 1844 
L 1159 0 
L 581 0 
L 581 3500 
L 1159 3500 
L 1159 2956 
Q 1341 3275 1631 3429 
Q 1922 3584 2338 3584 
Q 2397 3584 2469 3576 
Q 2541 3569 2628 3553 
L 2631 2963 
z
" transform="scale(0.015625)"/>
       <path id="DejaVuSans-6f" d="M 1959 3097 
Q 1497 3097 1228 2736 
Q 959 2375 959 1747 
Q 959 1119 1226 758 
Q 1494 397 1959 397 
Q 2419 397 2687 759 
Q 2956 1122 2956 1747 
Q 2956 2369 2687 2733 
Q 2419 3097 1959 3097 
z
M 1959 3584 
Q 2709 3584 3137 3096 
Q 3566 2609 3566 1747 
Q 3566 888 3137 398 
Q 2709 -91 1959 -91 
Q 1206 -91 779 398 
Q 353 888 353 1747 
Q 353 2609 779 3096 
Q 1206 3584 1959 3584 
z
" transform="scale(0.015625)"/>
       <path id="DejaVuSans-6a" d="M 603 3500 
L 1178 3500 
L 1178 -63 
Q 1178 -731 923 -1031 
Q 669 -1331 103 -1331 
L -116 -1331 
L -116 -844 
L 38 -844 
Q 366 -844 484 -692 
Q 603 -541 603 -63 
L 603 3500 
z
M 603 4863 
L 1178 4863 
L 1178 4134 
L 603 4134 
L 603 4863 
z
" transform="scale(0.015625)"/>
       <path id="DejaVuSans-65" d="M 3597 1894 
L 3597 1613 
L 953 1613 
Q 991 1019 1311 708 
Q 1631 397 2203 397 
Q 2534 397 2845 478 
Q 3156 559 3463 722 
L 3463 178 
Q 3153 47 2828 -22 
Q 2503 -91 2169 -91 
Q 1331 -91 842 396 
Q 353 884 353 1716 
Q 353 2575 817 3079 
Q 1281 3584 2069 3584 
Q 2775 3584 3186 3129 
Q 3597 2675 3597 1894 
z
M 3022 2063 
Q 3016 2534 2758 2815 
Q 2500 3097 2075 3097 
Q 1594 3097 1305 2825 
Q 1016 2553 972 2059 
L 3022 2063 
z
" transform="scale(0.015625)"/>
       <path id="DejaVuSans-6e" d="M 3513 2113 
L 3513 0 
L 2938 0 
L 2938 2094 
Q 2938 2591 2744 2837 
Q 2550 3084 2163 3084 
Q 1697 3084 1428 2787 
Q 1159 2491 1159 1978 
L 1159 0 
L 581 0 
L 581 3500 
L 1159 3500 
L 1159 2956 
Q 1366 3272 1645 3428 
Q 1925 3584 2291 3584 
Q 2894 3584 3203 3211 
Q 3513 2838 3513 2113 
z
" transform="scale(0.015625)"/>
       <path id="DejaVuSans-28" d="M 1984 4856 
Q 1566 4138 1362 3434 
Q 1159 2731 1159 2009 
Q 1159 1288 1364 580 
Q 1569 -128 1984 -844 
L 1484 -844 
Q 1016 -109 783 600 
Q 550 1309 550 2009 
Q 550 2706 781 3412 
Q 1013 4119 1484 4856 
L 1984 4856 
z
" transform="scale(0.015625)"/>
       <path id="DejaVuSans-4e" d="M 628 4666 
L 1478 4666 
L 3547 763 
L 3547 4666 
L 4159 4666 
L 4159 0 
L 3309 0 
L 1241 3903 
L 1241 0 
L 628 0 
L 628 4666 
z
" transform="scale(0.015625)"/>
       <path id="DejaVuSans-50" d="M 1259 4147 
L 1259 2394 
L 2053 2394 
Q 2494 2394 2734 2622 
Q 2975 2850 2975 3272 
Q 2975 3691 2734 3919 
Q 2494 4147 2053 4147 
L 1259 4147 
z
M 628 4666 
L 2053 4666 
Q 2838 4666 3239 4311 
Q 3641 3956 3641 3272 
Q 3641 2581 3239 2228 
Q 2838 1875 2053 1875 
L 1259 1875 
L 1259 0 
L 628 0 
L 628 4666 
z
" transform="scale(0.015625)"/>
       <path id="DejaVuSans-56" d="M 1831 0 
L 50 4666 
L 709 4666 
L 2188 738 
L 3669 4666 
L 4325 4666 
L 2547 0 
L 1831 0 
z
" transform="scale(0.015625)"/>
       <path id="DejaVuSans-29" d="M 513 4856 
L 1013 4856 
Q 1481 4119 1714 3412 
Q 1947 2706 1947 2009 
Q 1947 1309 1714 600 
Q 1481 -109 1013 -844 
L 513 -844 
Q 928 -128 1133 580 
Q 1338 1288 1338 2009 
Q 1338 2731 1133 3434 
Q 928 4138 513 4856 
z
" transform="scale(0.015625)"/>
      </defs>
      <use xlink:href="#DejaVuSans-4d"/>
      <use xlink:href="#DejaVuSans-44" transform="translate(86.279297 0)"/>
      <use xlink:href="#DejaVuSans-20" transform="translate(163.28125 0)"/>
      <use xlink:href="#DejaVuSans-74" transform="translate(195.068359 0)"/>
      <use xlink:href="#DejaVuSans-68" transform="translate(234.277344 0)"/>
      <use xlink:href="#DejaVuSans-61" transform="translate(297.65625 0)"/>
      <use xlink:href="#DejaVuSans-6c" transform="translate(358.935547 0)"/>
      <use xlink:href="#DejaVuSans-61" transform="translate(386.71875 0)"/>
      <use xlink:href="#DejaVuSans-6d" transform="translate(447.998047 0)"/>
      <use xlink:href="#DejaVuSans-69" transform="translate(545.410156 0)"/>
      <use xlink:href="#DejaVuSans-63" transform="translate(573.193359 0)"/>
      <use xlink:href="#DejaVuSans-20" transform="translate(628.173828 0)"/>
      <use xlink:href="#DejaVuSans-70" transform="translate(659.960938 0)"/>
      <use xlink:href="#DejaVuSans-72" transform="translate(723.4375 0)"/>
      <use xlink:href="#DejaVuSans-6f" transform="translate(762.300781 0)"/>
      <use xlink:href="#DejaVuSans-6a" transform="translate(823.482422 0)"/>
      <use xlink:href="#DejaVuSans-65" transform="translate(851.265625 0)"/>
      <use xlink:href="#DejaVuSans-63" transform="translate(912.789062 0)"/>
      <use xlink:href="#DejaVuSans-74" transform="translate(967.769531 0)"/>
      <use xlink:href="#DejaVuSans-69" transform="translate(1006.978516 0)"/>
      <use xlink:href="#DejaVuSans-6f" transform="translate(1034.761719 0)"/>
      <use xlink:href="#DejaVuSans-6e" transform="translate(1095.943359 0)"/>
      <use xlink:href="#DejaVuSans-20" transform="translate(1159.322266 0)"/>
      <use xlink:href="#DejaVuSans-28" transform="translate(1191.109375 0)"/>
      <use xlink:href="#DejaVuSans-4e" transform="translate(1230.123047 0)"/>
      <use xlink:href="#DejaVuSans-50" transform="translate(1304.927734 0)"/>
      <use xlink:href="#DejaVuSans-56" transform="translate(1365.230469 0)"/>
      <use xlink:href="#DejaVuSans-29" transform="translate(1433.638672 0)"/>
     </g>
    </g>
   </g>
   <g id="matplotlib.axis_2">
    <g id="ytick_1">
     <g id="line2d_8">
      <defs>
       <path id="m18b55fa813" d="M 0 0 
L -3.5 0 
" style="stroke: #000000; stroke-width: 0.8"/>
      </defs>
      <g>
       <use xlink:href="#m18b55fa813" x="54.11" y="310.189222" style="stroke: #000000; stroke-width: 0.8"/>
      </g>
     </g>
     <g id="text_9">
      <!-- 0.10 -->
      <g transform="translate(24.844375 313.988441) scale(0.1 -0.1)">
       <use xlink:href="#DejaVuSans-30"/>
       <use xlink:href="#DejaVuSans-2e" transform="translate(63.623047 0)"/>
       <use xlink:href="#DejaVuSans-31" transform="translate(95.410156 0)"/>
       <use xlink:href="#DejaVuSans-30" transform="translate(159.033203 0)"/>
      </g>
     </g>
    </g>
    <g id="ytick_2">
     <g id="line2d_9">
      <g>
       <use xlink:href="#m18b55fa813" x="54.11" y="276.170562" style="stroke: #000000; stroke-width: 0.8"/>
      </g>
     </g>
     <g id="text_10">
      <!-- 0.11 -->
      <g transform="translate(24.844375 279.96978) scale(0.1 -0.1)">
       <use xlink:href="#DejaVuSans-30"/>
       <use xlink:href="#DejaVuSans-2e" transform="translate(63.623047 0)"/>
       <use xlink:href="#DejaVuSans-31" transform="translate(95.410156 0)"/>
       <use xlink:href="#DejaVuSans-31" transform="translate(159.033203 0)"/>
      </g>
     </g>
    </g>
    <g id="ytick_3">
     <g id="line2d_10">
      <g>
       <use xlink:href="#m18b55fa813" x="54.11" y="242.151901" style="stroke: #000000; stroke-width: 0.8"/>
      </g>
     </g>
     <g id="text_11">
      <!-- 0.12 -->
      <g transform="translate(24.844375 245.95112) scale(0.1 -0.1)">
       <use xlink:href="#DejaVuSans-30"/>
       <use xlink:href="#DejaVuSans-2e" transform="translate(63.623047 0)"/>
       <use xlink:href="#DejaVuSans-31" transform="translate(95.410156 0)"/>
       <use xlink:href="#DejaVuSans-32" transform="translate(159.033203 0)"/>
      </g>
     </g>
    </g>
    <g id="ytick_4">
     <g id="line2d_11">
      <g>
       <use xlink:href="#m18b55fa813" x="54.11" y="208.13324" style="stroke: #000000; stroke-width: 0.8"/>
      </g>
     </g>
     <g id="text_12">
      <!-- 0.13 -->
      <g transform="translate(24.844375 211.932459) scale(0.1 -0.1)">
       <use xlink:href="#DejaVuSans-30"/>
       <use xlink:href="#DejaVuSans-2e" transform="translate(63.623047 0)"/>
       <use xlink:href="#DejaVuSans-31" transform="translate(95.410156 0)"/>
       <use xlink:href="#DejaVuSans-33" transform="translate(159.033203 0)"/>
      </g>
     </g>
    </g>
    <g id="ytick_5">
     <g id="line2d_12">
      <g>
       <use xlink:href="#m18b55fa813" x="54.11" y="174.114579" style="stroke: #000000; stroke-width: 0.8"/>
      </g>
     </g>
     <g id="text_13">
      <!-- 0.14 -->
      <g transform="translate(24.844375 177.913798) scale(0.1 -0.1)">
       <use xlink:href="#DejaVuSans-30"/>
       <use xlink:href="#DejaVuSans-2e" transform="translate(63.623047 0)"/>
       <use xlink:href="#DejaVuSans-31" transform="translate(95.410156 0)"/>
       <use xlink:href="#DejaVuSans-34" transform="translate(159.033203 0)"/>
      </g>
     </g>
    </g>
    <g id="ytick_6">
     <g id="line2d_13">
      <g>
       <use xlink:href="#m18b55fa813" x="54.11" y="140.095919" style="stroke: #000000; stroke-width: 0.8"/>
      </g>
     </g>
     <g id="text_14">
      <!-- 0.15 -->
      <g transform="translate(24.844375 143.895137) scale(0.1 -0.1)">
       <use xlink:href="#DejaVuSans-30"/>
       <use xlink:href="#DejaVuSans-2e" transform="translate(63.623047 0)"/>
       <use xlink:href="#DejaVuSans-31" transform="translate(95.410156 0)"/>
       <use xlink:href="#DejaVuSans-35" transform="translate(159.033203 0)"/>
      </g>
     </g>
    </g>
    <g id="ytick_7">
     <g id="line2d_14">
      <g>
       <use xlink:href="#m18b55fa813" x="54.11" y="106.077258" style="stroke: #000000; stroke-width: 0.8"/>
      </g>
     </g>
     <g id="text_15">
      <!-- 0.16 -->
      <g transform="translate(24.844375 109.876477) scale(0.1 -0.1)">
       <use xlink:href="#DejaVuSans-30"/>
       <use xlink:href="#DejaVuSans-2e" transform="translate(63.623047 0)"/>
       <use xlink:href="#DejaVuSans-31" transform="translate(95.410156 0)"/>
       <use xlink:href="#DejaVuSans-36" transform="translate(159.033203 0)"/>
      </g>
     </g>
    </g>
    <g id="ytick_8">
     <g id="line2d_15">
      <g>
       <use xlink:href="#m18b55fa813" x="54.11" y="72.058597" style="stroke: #000000; stroke-width: 0.8"/>
      </g>
     </g>
     <g id="text_16">
      <!-- 0.17 -->
      <g transform="translate(24.844375 75.857816) scale(0.1 -0.1)">
       <use xlink:href="#DejaVuSans-30"/>
       <use xlink:href="#DejaVuSans-2e" transform="translate(63.623047 0)"/>
       <use xlink:href="#DejaVuSans-31" transform="translate(95.410156 0)"/>
       <use xlink:href="#DejaVuSans-37" transform="translate(159.033203 0)"/>
      </g>
     </g>
    </g>
    <g id="text_17">
     <!-- GABA fraction -->
     <g transform="translate(18.764687 214.888625) rotate(-90) scale(0.1 -0.1)">
      <defs>
       <path id="DejaVuSans-47" d="M 3809 666 
L 3809 1919 
L 2778 1919 
L 2778 2438 
L 4434 2438 
L 4434 434 
Q 4069 175 3628 42 
Q 3188 -91 2688 -91 
Q 1594 -91 976 548 
Q 359 1188 359 2328 
Q 359 3472 976 4111 
Q 1594 4750 2688 4750 
Q 3144 4750 3555 4637 
Q 3966 4525 4313 4306 
L 4313 3634 
Q 3963 3931 3569 4081 
Q 3175 4231 2741 4231 
Q 1884 4231 1454 3753 
Q 1025 3275 1025 2328 
Q 1025 1384 1454 906 
Q 1884 428 2741 428 
Q 3075 428 3337 486 
Q 3600 544 3809 666 
z
" transform="scale(0.015625)"/>
       <path id="DejaVuSans-41" d="M 2188 4044 
L 1331 1722 
L 3047 1722 
L 2188 4044 
z
M 1831 4666 
L 2547 4666 
L 4325 0 
L 3669 0 
L 3244 1197 
L 1141 1197 
L 716 0 
L 50 0 
L 1831 4666 
z
" transform="scale(0.015625)"/>
       <path id="DejaVuSans-42" d="M 1259 2228 
L 1259 519 
L 2272 519 
Q 2781 519 3026 730 
Q 3272 941 3272 1375 
Q 3272 1813 3026 2020 
Q 2781 2228 2272 2228 
L 1259 2228 
z
M 1259 4147 
L 1259 2741 
L 2194 2741 
Q 2656 2741 2882 2914 
Q 3109 3088 3109 3444 
Q 3109 3797 2882 3972 
Q 2656 4147 2194 4147 
L 1259 4147 
z
M 628 4666 
L 2241 4666 
Q 2963 4666 3353 4366 
Q 3744 4066 3744 3513 
Q 3744 3084 3544 2831 
Q 3344 2578 2956 2516 
Q 3422 2416 3680 2098 
Q 3938 1781 3938 1306 
Q 3938 681 3513 340 
Q 3088 0 2303 0 
L 628 0 
L 628 4666 
z
" transform="scale(0.015625)"/>
       <path id="DejaVuSans-66" d="M 2375 4863 
L 2375 4384 
L 1825 4384 
Q 1516 4384 1395 4259 
Q 1275 4134 1275 3809 
L 1275 3500 
L 2222 3500 
L 2222 3053 
L 1275 3053 
L 1275 0 
L 697 0 
L 697 3053 
L 147 3053 
L 147 3500 
L 697 3500 
L 697 3744 
Q 697 4328 969 4595 
Q 1241 4863 1831 4863 
L 2375 4863 
z
" transform="scale(0.015625)"/>
      </defs>
      <use xlink:href="#DejaVuSans-47"/>
      <use xlink:href="#DejaVuSans-41" transform="translate(77.490234 0)"/>
      <use xlink:href="#DejaVuSans-42" transform="translate(145.898438 0)"/>
      <use xlink:href="#DejaVuSans-41" transform="translate(214.501953 0)"/>
      <use xlink:href="#DejaVuSans-20" transform="translate(282.910156 0)"/>
      <use xlink:href="#DejaVuSans-66" transform="translate(314.697266 0)"/>
      <use xlink:href="#DejaVuSans-72" transform="translate(349.902344 0)"/>
      <use xlink:href="#DejaVuSans-61" transform="translate(391.015625 0)"/>
      <use xlink:href="#DejaVuSans-63" transform="translate(452.294922 0)"/>
      <use xlink:href="#DejaVuSans-74" transform="translate(507.275391 0)"/>
      <use xlink:href="#DejaVuSans-69" transform="translate(546.484375 0)"/>
      <use xlink:href="#DejaVuSans-6f" transform="translate(574.267578 0)"/>
      <use xlink:href="#DejaVuSans-6e" transform="translate(635.449219 0)"/>
     </g>
    </g>
   </g>
   <g id="line2d_16">
    <path d="M 71.123182 154.888491 
L 74.560188 155.743418 
L 77.997195 156.598346 
L 81.434201 157.453273 
L 84.871208 158.3082 
L 88.308214 159.163128 
L 91.74522 160.018055 
L 95.182227 160.872983 
L 98.619233 161.72791 
L 102.05624 162.582838 
L 105.493246 163.437765 
L 108.930253 164.292692 
L 112.367259 165.14762 
L 115.804265 166.002547 
L 119.241272 166.857475 
L 122.678278 167.712402 
L 126.115285 168.567329 
L 129.552291 169.422257 
L 132.989298 170.277184 
L 136.426304 171.132112 
L 139.86331 171.987039 
L 143.300317 172.841966 
L 146.737323 173.696894 
L 150.17433 174.551821 
L 153.611336 175.406749 
L 157.048343 176.261676 
L 160.485349 177.116603 
L 163.922355 177.971531 
L 167.359362 178.826458 
L 170.796368 179.681386 
L 174.233375 180.536313 
L 177.670381 181.39124 
L 181.107388 182.246168 
L 184.544394 183.101095 
L 187.9814 183.956023 
L 191.418407 184.81095 
L 194.855413 185.665877 
L 198.29242 186.520805 
L 201.729426 187.375732 
L 205.166433 188.23066 
L 208.603439 189.085587 
L 212.040445 189.940514 
L 215.477452 190.795442 
L 218.914458 191.650369 
L 222.351465 192.505297 
L 225.788471 193.360224 
L 229.225478 194.215151 
L 232.662484 195.070079 
L 236.09949 195.925006 
L 239.536497 196.779934 
L 242.973503 197.634861 
L 246.41051 198.489788 
L 249.847516 199.344716 
L 253.284522 200.199643 
L 256.721529 201.054571 
L 260.158535 201.909498 
L 263.595542 202.764425 
L 267.032548 203.619353 
L 270.469555 204.47428 
L 273.906561 205.329208 
L 277.343567 206.184135 
L 280.780574 207.039062 
L 284.21758 207.89399 
L 287.654587 208.748917 
L 291.091593 209.603845 
L 294.5286 210.458772 
L 297.965606 211.313699 
L 301.402612 212.168627 
L 304.839619 213.023554 
L 308.276625 213.878482 
L 311.713632 214.733409 
L 315.150638 215.588336 
L 318.587645 216.443264 
L 322.024651 217.298191 
L 325.461657 218.153119 
L 328.898664 219.008046 
L 332.33567 219.862974 
L 335.772677 220.717901 
L 339.209683 221.572828 
L 342.64669 222.427756 
L 346.083696 223.282683 
L 349.520702 224.137611 
L 352.957709 224.992538 
L 356.394715 225.847465 
L 359.831722 226.702393 
L 363.268728 227.55732 
L 366.705735 228.412248 
L 370.142741 229.267175 
L 373.579747 230.122102 
L 377.016754 230.97703 
L 380.45376 231.831957 
L 383.890767 232.686885 
L 387.327773 233.541812 
L 390.76478 234.396739 
L 394.201786 235.251667 
L 397.638792 236.106594 
L 401.075799 236.961522 
L 404.512805 237.816449 
L 407.949812 238.671376 
L 411.386818 239.526304 
" clip-path="url(#p21376b031e)" style="fill: none; stroke-dasharray: 5.55,2.4; stroke-dashoffset: 0; stroke: #808080; stroke-opacity: 0.7; stroke-width: 1.5"/>
   </g>
   <g id="patch_3">
    <path d="M 54.11 318.04 
L 54.11 41.856 
" style="fill: none; stroke: #000000; stroke-width: 0.8; stroke-linejoin: miter; stroke-linecap: square"/>
   </g>
   <g id="patch_4">
    <path d="M 428.4 318.04 
L 428.4 41.856 
" style="fill: none; stroke: #000000; stroke-width: 0.8; stroke-linejoin: miter; stroke-linecap: square"/>
   </g>
   <g id="patch_5">
    <path d="M 54.11 318.04 
L 428.4 318.04 
" style="fill: none; stroke: #000000; stroke-width: 0.8; stroke-linejoin: miter; stroke-linecap: square"/>
   </g>
   <g id="patch_6">
    <path d="M 54.11 41.856 
L 428.4 41.856 
" style="fill: none; stroke: #000000; stroke-width: 0.8; stroke-linejoin: miter; stroke-linecap: square"/>
   </g>
   <g id="text_18">
    <!-- ILA5 -->
    <g transform="translate(124.713123 50.409818) scale(0.07 -0.07)">
     <defs>
      <path id="DejaVuSans-49" d="M 628 4666 
L 1259 4666 
L 1259 0 
L 628 0 
L 628 4666 
z
" transform="scale(0.015625)"/>
      <path id="DejaVuSans-4c" d="M 628 4666 
L 1259 4666 
L 1259 531 
L 3531 531 
L 3531 0 
L 628 0 
L 628 4666 
z
" transform="scale(0.015625)"/>
     </defs>
     <use xlink:href="#DejaVuSans-49"/>
     <use xlink:href="#DejaVuSans-4c" transform="translate(29.492188 0)"/>
     <use xlink:href="#DejaVuSans-41" transform="translate(87.455078 0)"/>
     <use xlink:href="#DejaVuSans-35" transform="translate(155.863281 0)"/>
    </g>
   </g>
   <g id="text_19">
    <!-- ILA6a -->
    <g transform="translate(138.880446 147.574608) scale(0.07 -0.07)">
     <use xlink:href="#DejaVuSans-49"/>
     <use xlink:href="#DejaVuSans-4c" transform="translate(29.492188 0)"/>
     <use xlink:href="#DejaVuSans-41" transform="translate(87.455078 0)"/>
     <use xlink:href="#DejaVuSans-36" transform="translate(155.863281 0)"/>
     <use xlink:href="#DejaVuSans-61" transform="translate(219.486328 0)"/>
    </g>
   </g>
   <g id="text_20">
    <!-- ORBl5 -->
    <g transform="translate(131.838093 118.662533) scale(0.07 -0.07)">
     <defs>
      <path id="DejaVuSans-4f" d="M 2522 4238 
Q 1834 4238 1429 3725 
Q 1025 3213 1025 2328 
Q 1025 1447 1429 934 
Q 1834 422 2522 422 
Q 3209 422 3611 934 
Q 4013 1447 4013 2328 
Q 4013 3213 3611 3725 
Q 3209 4238 2522 4238 
z
M 2522 4750 
Q 3503 4750 4090 4092 
Q 4678 3434 4678 2328 
Q 4678 1225 4090 567 
Q 3503 -91 2522 -91 
Q 1538 -91 948 565 
Q 359 1222 359 2328 
Q 359 3434 948 4092 
Q 1538 4750 2522 4750 
z
" transform="scale(0.015625)"/>
      <path id="DejaVuSans-52" d="M 2841 2188 
Q 3044 2119 3236 1894 
Q 3428 1669 3622 1275 
L 4263 0 
L 3584 0 
L 2988 1197 
Q 2756 1666 2539 1819 
Q 2322 1972 1947 1972 
L 1259 1972 
L 1259 0 
L 628 0 
L 628 4666 
L 2053 4666 
Q 2853 4666 3247 4331 
Q 3641 3997 3641 3322 
Q 3641 2881 3436 2590 
Q 3231 2300 2841 2188 
z
M 1259 4147 
L 1259 2491 
L 2053 2491 
Q 2509 2491 2742 2702 
Q 2975 2913 2975 3322 
Q 2975 3731 2742 3939 
Q 2509 4147 2053 4147 
L 1259 4147 
z
" transform="scale(0.015625)"/>
     </defs>
     <use xlink:href="#DejaVuSans-4f"/>
     <use xlink:href="#DejaVuSans-52" transform="translate(78.710938 0)"/>
     <use xlink:href="#DejaVuSans-42" transform="translate(148.193359 0)"/>
     <use xlink:href="#DejaVuSans-6c" transform="translate(216.796875 0)"/>
     <use xlink:href="#DejaVuSans-35" transform="translate(244.580078 0)"/>
    </g>
   </g>
   <g id="text_21">
    <!-- ORBl6a -->
    <g transform="translate(186.752833 243.444138) scale(0.07 -0.07)">
     <use xlink:href="#DejaVuSans-4f"/>
     <use xlink:href="#DejaVuSans-52" transform="translate(78.710938 0)"/>
     <use xlink:href="#DejaVuSans-42" transform="translate(148.193359 0)"/>
     <use xlink:href="#DejaVuSans-6c" transform="translate(216.796875 0)"/>
     <use xlink:href="#DejaVuSans-36" transform="translate(244.580078 0)"/>
     <use xlink:href="#DejaVuSans-61" transform="translate(308.203125 0)"/>
    </g>
   </g>
   <g id="text_22">
    <!-- ORBm5 -->
    <g transform="translate(225.800776 167.553436) scale(0.07 -0.07)">
     <use xlink:href="#DejaVuSans-4f"/>
     <use xlink:href="#DejaVuSans-52" transform="translate(78.710938 0)"/>
     <use xlink:href="#DejaVuSans-42" transform="translate(148.193359 0)"/>
     <use xlink:href="#DejaVuSans-6d" transform="translate(216.796875 0)"/>
     <use xlink:href="#DejaVuSans-35" transform="translate(314.208984 0)"/>
    </g>
   </g>
   <g id="text_23">
    <!-- ORBm6a -->
    <g transform="translate(382.283363 223.145239) scale(0.07 -0.07)">
     <use xlink:href="#DejaVuSans-4f"/>
     <use xlink:href="#DejaVuSans-52" transform="translate(78.710938 0)"/>
     <use xlink:href="#DejaVuSans-42" transform="translate(148.193359 0)"/>
     <use xlink:href="#DejaVuSans-6d" transform="translate(216.796875 0)"/>
     <use xlink:href="#DejaVuSans-36" transform="translate(314.208984 0)"/>
     <use xlink:href="#DejaVuSans-61" transform="translate(377.832031 0)"/>
    </g>
   </g>
   <g id="text_24">
    <!-- ORBvl5 -->
    <g transform="translate(82.220335 122.139908) scale(0.07 -0.07)">
     <defs>
      <path id="DejaVuSans-76" d="M 191 3500 
L 800 3500 
L 1894 563 
L 2988 3500 
L 3597 3500 
L 2284 0 
L 1503 0 
L 191 3500 
z
" transform="scale(0.015625)"/>
     </defs>
     <use xlink:href="#DejaVuSans-4f"/>
     <use xlink:href="#DejaVuSans-52" transform="translate(78.710938 0)"/>
     <use xlink:href="#DejaVuSans-42" transform="translate(148.193359 0)"/>
     <use xlink:href="#DejaVuSans-76" transform="translate(216.796875 0)"/>
     <use xlink:href="#DejaVuSans-6c" transform="translate(275.976562 0)"/>
     <use xlink:href="#DejaVuSans-35" transform="translate(303.759766 0)"/>
    </g>
   </g>
   <g id="text_25">
    <!-- ORBvl6a -->
    <g transform="translate(99.821685 301.486182) scale(0.07 -0.07)">
     <use xlink:href="#DejaVuSans-4f"/>
     <use xlink:href="#DejaVuSans-52" transform="translate(78.710938 0)"/>
     <use xlink:href="#DejaVuSans-42" transform="translate(148.193359 0)"/>
     <use xlink:href="#DejaVuSans-76" transform="translate(216.796875 0)"/>
     <use xlink:href="#DejaVuSans-6c" transform="translate(275.976562 0)"/>
     <use xlink:href="#DejaVuSans-36" transform="translate(303.759766 0)"/>
     <use xlink:href="#DejaVuSans-61" transform="translate(367.382812 0)"/>
    </g>
   </g>
   <g id="text_26">
    <!-- PL5 -->
    <g transform="translate(100.072556 55.463453) scale(0.07 -0.07)">
     <use xlink:href="#DejaVuSans-50"/>
     <use xlink:href="#DejaVuSans-4c" transform="translate(60.302734 0)"/>
     <use xlink:href="#DejaVuSans-35" transform="translate(116.015625 0)"/>
    </g>
   </g>
   <g id="text_27">
    <!-- PL6a -->
    <g transform="translate(119.579601 283.155754) scale(0.07 -0.07)">
     <use xlink:href="#DejaVuSans-50"/>
     <use xlink:href="#DejaVuSans-4c" transform="translate(60.302734 0)"/>
     <use xlink:href="#DejaVuSans-36" transform="translate(116.015625 0)"/>
     <use xlink:href="#DejaVuSans-61" transform="translate(179.638672 0)"/>
    </g>
   </g>
   <g id="text_28">
    <!-- MD Projection → GABA Fraction -->
    <g transform="translate(148.210937 22.418625) scale(0.12 -0.12)">
     <defs>
      <path id="DejaVuSans-2192" d="M 5050 2147 
L 5050 1866 
L 3822 638 
L 3447 1013 
L 4175 1741 
L 366 1741 
L 366 2272 
L 4175 2272 
L 3447 3000 
L 3822 3375 
L 5050 2147 
z
" transform="scale(0.015625)"/>
      <path id="DejaVuSans-46" d="M 628 4666 
L 3309 4666 
L 3309 4134 
L 1259 4134 
L 1259 2759 
L 3109 2759 
L 3109 2228 
L 1259 2228 
L 1259 0 
L 628 0 
L 628 4666 
z
" transform="scale(0.015625)"/>
     </defs>
     <use xlink:href="#DejaVuSans-4d"/>
     <use xlink:href="#DejaVuSans-44" transform="translate(86.279297 0)"/>
     <use xlink:href="#DejaVuSans-20" transform="translate(163.28125 0)"/>
     <use xlink:href="#DejaVuSans-50" transform="translate(195.068359 0)"/>
     <use xlink:href="#DejaVuSans-72" transform="translate(253.621094 0)"/>
     <use xlink:href="#DejaVuSans-6f" transform="translate(292.484375 0)"/>
     <use xlink:href="#DejaVuSans-6a" transform="translate(353.666016 0)"/>
     <use xlink:href="#DejaVuSans-65" transform="translate(381.449219 0)"/>
     <use xlink:href="#DejaVuSans-63" transform="translate(442.972656 0)"/>
     <use xlink:href="#DejaVuSans-74" transform="translate(497.953125 0)"/>
     <use xlink:href="#DejaVuSans-69" transform="translate(537.162109 0)"/>
     <use xlink:href="#DejaVuSans-6f" transform="translate(564.945312 0)"/>
     <use xlink:href="#DejaVuSans-6e" transform="translate(626.126953 0)"/>
     <use xlink:href="#DejaVuSans-20" transform="translate(689.505859 0)"/>
     <use xlink:href="#DejaVuSans-2192" transform="translate(721.292969 0)"/>
     <use xlink:href="#DejaVuSans-20" transform="translate(805.082031 0)"/>
     <use xlink:href="#DejaVuSans-47" transform="translate(836.869141 0)"/>
     <use xlink:href="#DejaVuSans-41" transform="translate(914.359375 0)"/>
     <use xlink:href="#DejaVuSans-42" transform="translate(982.767578 0)"/>
     <use xlink:href="#DejaVuSans-41" transform="translate(1051.371094 0)"/>
     <use xlink:href="#DejaVuSans-20" transform="translate(1119.779297 0)"/>
     <use xlink:href="#DejaVuSans-46" transform="translate(1151.566406 0)"/>
     <use xlink:href="#DejaVuSans-72" transform="translate(1201.835938 0)"/>
     <use xlink:href="#DejaVuSans-61" transform="translate(1242.949219 0)"/>
     <use xlink:href="#DejaVuSans-63" transform="translate(1304.228516 0)"/>
     <use xlink:href="#DejaVuSans-74" transform="translate(1359.208984 0)"/>
     <use xlink:href="#DejaVuSans-69" transform="translate(1398.417969 0)"/>
     <use xlink:href="#DejaVuSans-6f" transform="translate(1426.201172 0)"/>
     <use xlink:href="#DejaVuSans-6e" transform="translate(1487.382812 0)"/>
    </g>
    <!-- ρ = -0.115, p = 0.751 -->
    <g transform="translate(175.621562 35.856) scale(0.12 -0.12)">
     <defs>
      <path id="DejaVuSans-3c1" d="M 863 2875 
Q 1053 3194 1525 3475 
Q 1709 3584 2278 3584 
Q 2916 3584 3314 3078 
Q 3713 2572 3713 1747 
Q 3713 922 3314 415 
Q 2916 -91 2278 -91 
Q 1894 -91 1617 61 
Q 1341 213 1159 525 
L 1159 -1331 
L 581 -1331 
L 581 1716 
Q 581 2438 863 2875 
z
M 3116 1747 
Q 3116 2381 2855 2742 
Q 2594 3103 2138 3103 
Q 1681 3103 1420 2742 
Q 1159 2381 1159 1747 
Q 1159 1113 1420 752 
Q 1681 391 2138 391 
Q 2594 391 2855 752 
Q 3116 1113 3116 1747 
z
" transform="scale(0.015625)"/>
      <path id="DejaVuSans-3d" d="M 678 2906 
L 4684 2906 
L 4684 2381 
L 678 2381 
L 678 2906 
z
M 678 1631 
L 4684 1631 
L 4684 1100 
L 678 1100 
L 678 1631 
z
" transform="scale(0.015625)"/>
      <path id="DejaVuSans-2d" d="M 313 2009 
L 1997 2009 
L 1997 1497 
L 313 1497 
L 313 2009 
z
" transform="scale(0.015625)"/>
      <path id="DejaVuSans-2c" d="M 750 794 
L 1409 794 
L 1409 256 
L 897 -744 
L 494 -744 
L 750 256 
L 750 794 
z
" transform="scale(0.015625)"/>
     </defs>
     <use xlink:href="#DejaVuSans-3c1"/>
     <use xlink:href="#DejaVuSans-20" transform="translate(63.476562 0)"/>
     <use xlink:href="#DejaVuSans-3d" transform="translate(95.263672 0)"/>
     <use xlink:href="#DejaVuSans-20" transform="translate(179.052734 0)"/>
     <use xlink:href="#DejaVuSans-2d" transform="translate(210.839844 0)"/>
     <use xlink:href="#DejaVuSans-30" transform="translate(246.923828 0)"/>
     <use xlink:href="#DejaVuSans-2e" transform="translate(310.546875 0)"/>
     <use xlink:href="#DejaVuSans-31" transform="translate(342.333984 0)"/>
     <use xlink:href="#DejaVuSans-31" transform="translate(405.957031 0)"/>
     <use xlink:href="#DejaVuSans-35" transform="translate(469.580078 0)"/>
     <use xlink:href="#DejaVuSans-2c" transform="translate(533.203125 0)"/>
     <use xlink:href="#DejaVuSans-20" transform="translate(564.990234 0)"/>
     <use xlink:href="#DejaVuSans-70" transform="translate(596.777344 0)"/>
     <use xlink:href="#DejaVuSans-20" transform="translate(660.253906 0)"/>
     <use xlink:href="#DejaVuSans-3d" transform="translate(692.041016 0)"/>
     <use xlink:href="#DejaVuSans-20" transform="translate(775.830078 0)"/>
     <use xlink:href="#DejaVuSans-30" transform="translate(807.617188 0)"/>
     <use xlink:href="#DejaVuSans-2e" transform="translate(871.240234 0)"/>
     <use xlink:href="#DejaVuSans-37" transform="translate(903.027344 0)"/>
     <use xlink:href="#DejaVuSans-35" transform="translate(966.650391 0)"/>
     <use xlink:href="#DejaVuSans-31" transform="translate(1030.273438 0)"/>
    </g>
   </g>
   <g id="PathCollection_1">
    <defs>
     <path id="maea614ba83" d="M 0 5.477226 
C 1.452577 5.477226 2.845856 4.900111 3.872983 3.872983 
C 4.900111 2.845856 5.477226 1.452577 5.477226 0 
C 5.477226 -1.452577 4.900111 -2.845856 3.872983 -3.872983 
C 2.845856 -4.900111 1.452577 -5.477226 0 -5.477226 
C -1.452577 -5.477226 -2.845856 -4.900111 -3.872983 -3.872983 
C -4.900111 -2.845856 -5.477226 -1.452577 -5.477226 0 
C -5.477226 1.452577 -4.900111 2.845856 -3.872983 3.872983 
C -2.845856 4.900111 -1.452577 5.477226 0 5.477226 
z
" style="stroke: #000000; stroke-width: 0.8"/>
    </defs>
    <g clip-path="url(#p21376b031e)">
     <use xlink:href="#maea614ba83" x="118.713123" y="54.409818" style="fill: #1f77b4; stroke: #000000; stroke-width: 0.8"/>
     <use xlink:href="#maea614ba83" x="132.880446" y="151.574608" style="fill: #1f77b4; stroke: #000000; stroke-width: 0.8"/>
     <use xlink:href="#maea614ba83" x="125.838093" y="122.662533" style="fill: #1f77b4; stroke: #000000; stroke-width: 0.8"/>
     <use xlink:href="#maea614ba83" x="180.752833" y="247.444138" style="fill: #1f77b4; stroke: #000000; stroke-width: 0.8"/>
     <use xlink:href="#maea614ba83" x="219.800776" y="171.553436" style="fill: #1f77b4; stroke: #000000; stroke-width: 0.8"/>
     <use xlink:href="#maea614ba83" x="376.283363" y="227.145239" style="fill: #1f77b4; stroke: #000000; stroke-width: 0.8"/>
     <use xlink:href="#maea614ba83" x="76.220335" y="126.139908" style="fill: #1f77b4; stroke: #000000; stroke-width: 0.8"/>
     <use xlink:href="#maea614ba83" x="93.821685" y="305.486182" style="fill: #1f77b4; stroke: #000000; stroke-width: 0.8"/>
     <use xlink:href="#maea614ba83" x="94.072556" y="59.463453" style="fill: #1f77b4; stroke: #000000; stroke-width: 0.8"/>
     <use xlink:href="#maea614ba83" x="113.579601" y="287.155754" style="fill: #1f77b4; stroke: #000000; stroke-width: 0.8"/>
    </g>
   </g>
  </g>
  <g id="axes_2">
   <g id="patch_7">
    <path d="M 482.51 318.04 
L 856.8 318.04 
L 856.8 41.856 
L 482.51 41.856 
z
" style="fill: #ffffff"/>
   </g>
   <g id="matplotlib.axis_3">
    <g id="xtick_8">
     <g id="line2d_17">
      <g>
       <use xlink:href="#m2bdbaae920" x="509.348629" y="318.04" style="stroke: #000000; stroke-width: 0.8"/>
      </g>
     </g>
     <g id="text_29">
      <!-- 0.1 -->
      <g transform="translate(501.397066 332.638438) scale(0.1 -0.1)">
       <use xlink:href="#DejaVuSans-30"/>
       <use xlink:href="#DejaVuSans-2e" transform="translate(63.623047 0)"/>
       <use xlink:href="#DejaVuSans-31" transform="translate(95.410156 0)"/>
      </g>
     </g>
    </g>
    <g id="xtick_9">
     <g id="line2d_18">
      <g>
       <use xlink:href="#m2bdbaae920" x="565.04845" y="318.04" style="stroke: #000000; stroke-width: 0.8"/>
      </g>
     </g>
     <g id="text_30">
      <!-- 0.2 -->
      <g transform="translate(557.096888 332.638438) scale(0.1 -0.1)">
       <use xlink:href="#DejaVuSans-30"/>
       <use xlink:href="#DejaVuSans-2e" transform="translate(63.623047 0)"/>
       <use xlink:href="#DejaVuSans-32" transform="translate(95.410156 0)"/>
      </g>
     </g>
    </g>
    <g id="xtick_10">
     <g id="line2d_19">
      <g>
       <use xlink:href="#m2bdbaae920" x="620.748272" y="318.04" style="stroke: #000000; stroke-width: 0.8"/>
      </g>
     </g>
     <g id="text_31">
      <!-- 0.3 -->
      <g transform="translate(612.796709 332.638438) scale(0.1 -0.1)">
       <use xlink:href="#DejaVuSans-30"/>
       <use xlink:href="#DejaVuSans-2e" transform="translate(63.623047 0)"/>
       <use xlink:href="#DejaVuSans-33" transform="translate(95.410156 0)"/>
      </g>
     </g>
    </g>
    <g id="xtick_11">
     <g id="line2d_20">
      <g>
       <use xlink:href="#m2bdbaae920" x="676.448093" y="318.04" style="stroke: #000000; stroke-width: 0.8"/>
      </g>
     </g>
     <g id="text_32">
      <!-- 0.4 -->
      <g transform="translate(668.49653 332.638438) scale(0.1 -0.1)">
       <use xlink:href="#DejaVuSans-30"/>
       <use xlink:href="#DejaVuSans-2e" transform="translate(63.623047 0)"/>
       <use xlink:href="#DejaVuSans-34" transform="translate(95.410156 0)"/>
      </g>
     </g>
    </g>
    <g id="xtick_12">
     <g id="line2d_21">
      <g>
       <use xlink:href="#m2bdbaae920" x="732.147914" y="318.04" style="stroke: #000000; stroke-width: 0.8"/>
      </g>
     </g>
     <g id="text_33">
      <!-- 0.5 -->
      <g transform="translate(724.196352 332.638438) scale(0.1 -0.1)">
       <use xlink:href="#DejaVuSans-30"/>
       <use xlink:href="#DejaVuSans-2e" transform="translate(63.623047 0)"/>
       <use xlink:href="#DejaVuSans-35" transform="translate(95.410156 0)"/>
      </g>
     </g>
    </g>
    <g id="xtick_13">
     <g id="line2d_22">
      <g>
       <use xlink:href="#m2bdbaae920" x="787.847736" y="318.04" style="stroke: #000000; stroke-width: 0.8"/>
      </g>
     </g>
     <g id="text_34">
      <!-- 0.6 -->
      <g transform="translate(779.896173 332.638438) scale(0.1 -0.1)">
       <use xlink:href="#DejaVuSans-30"/>
       <use xlink:href="#DejaVuSans-2e" transform="translate(63.623047 0)"/>
       <use xlink:href="#DejaVuSans-36" transform="translate(95.410156 0)"/>
      </g>
     </g>
    </g>
    <g id="xtick_14">
     <g id="line2d_23">
      <g>
       <use xlink:href="#m2bdbaae920" x="843.547557" y="318.04" style="stroke: #000000; stroke-width: 0.8"/>
      </g>
     </g>
     <g id="text_35">
      <!-- 0.7 -->
      <g transform="translate(835.595995 332.638438) scale(0.1 -0.1)">
       <use xlink:href="#DejaVuSans-30"/>
       <use xlink:href="#DejaVuSans-2e" transform="translate(63.623047 0)"/>
       <use xlink:href="#DejaVuSans-37" transform="translate(95.410156 0)"/>
      </g>
     </g>
    </g>
    <g id="text_36">
     <!-- MD thalamic projection (NPV) -->
     <g transform="translate(596.022969 346.316563) scale(0.1 -0.1)">
      <use xlink:href="#DejaVuSans-4d"/>
      <use xlink:href="#DejaVuSans-44" transform="translate(86.279297 0)"/>
      <use xlink:href="#DejaVuSans-20" transform="translate(163.28125 0)"/>
      <use xlink:href="#DejaVuSans-74" transform="translate(195.068359 0)"/>
      <use xlink:href="#DejaVuSans-68" transform="translate(234.277344 0)"/>
      <use xlink:href="#DejaVuSans-61" transform="translate(297.65625 0)"/>
      <use xlink:href="#DejaVuSans-6c" transform="translate(358.935547 0)"/>
      <use xlink:href="#DejaVuSans-61" transform="translate(386.71875 0)"/>
      <use xlink:href="#DejaVuSans-6d" transform="translate(447.998047 0)"/>
      <use xlink:href="#DejaVuSans-69" transform="translate(545.410156 0)"/>
      <use xlink:href="#DejaVuSans-63" transform="translate(573.193359 0)"/>
      <use xlink:href="#DejaVuSans-20" transform="translate(628.173828 0)"/>
      <use xlink:href="#DejaVuSans-70" transform="translate(659.960938 0)"/>
      <use xlink:href="#DejaVuSans-72" transform="translate(723.4375 0)"/>
      <use xlink:href="#DejaVuSans-6f" transform="translate(762.300781 0)"/>
      <use xlink:href="#DejaVuSans-6a" transform="translate(823.482422 0)"/>
      <use xlink:href="#DejaVuSans-65" transform="translate(851.265625 0)"/>
      <use xlink:href="#DejaVuSans-63" transform="translate(912.789062 0)"/>
      <use xlink:href="#DejaVuSans-74" transform="translate(967.769531 0)"/>
      <use xlink:href="#DejaVuSans-69" transform="translate(1006.978516 0)"/>
      <use xlink:href="#DejaVuSans-6f" transform="translate(1034.761719 0)"/>
      <use xlink:href="#DejaVuSans-6e" transform="translate(1095.943359 0)"/>
      <use xlink:href="#DejaVuSans-20" transform="translate(1159.322266 0)"/>
      <use xlink:href="#DejaVuSans-28" transform="translate(1191.109375 0)"/>
      <use xlink:href="#DejaVuSans-4e" transform="translate(1230.123047 0)"/>
      <use xlink:href="#DejaVuSans-50" transform="translate(1304.927734 0)"/>
      <use xlink:href="#DejaVuSans-56" transform="translate(1365.230469 0)"/>
      <use xlink:href="#DejaVuSans-29" transform="translate(1433.638672 0)"/>
     </g>
    </g>
   </g>
   <g id="matplotlib.axis_4">
    <g id="ytick_9">
     <g id="line2d_24">
      <g>
       <use xlink:href="#m18b55fa813" x="482.51" y="303.015351" style="stroke: #000000; stroke-width: 0.8"/>
      </g>
     </g>
     <g id="text_37">
      <!-- 0.04 -->
      <g transform="translate(453.244375 306.814569) scale(0.1 -0.1)">
       <use xlink:href="#DejaVuSans-30"/>
       <use xlink:href="#DejaVuSans-2e" transform="translate(63.623047 0)"/>
       <use xlink:href="#DejaVuSans-30" transform="translate(95.410156 0)"/>
       <use xlink:href="#DejaVuSans-34" transform="translate(159.033203 0)"/>
      </g>
     </g>
    </g>
    <g id="ytick_10">
     <g id="line2d_25">
      <g>
       <use xlink:href="#m18b55fa813" x="482.51" y="253.939532" style="stroke: #000000; stroke-width: 0.8"/>
      </g>
     </g>
     <g id="text_38">
      <!-- 0.05 -->
      <g transform="translate(453.244375 257.73875) scale(0.1 -0.1)">
       <use xlink:href="#DejaVuSans-30"/>
       <use xlink:href="#DejaVuSans-2e" transform="translate(63.623047 0)"/>
       <use xlink:href="#DejaVuSans-30" transform="translate(95.410156 0)"/>
       <use xlink:href="#DejaVuSans-35" transform="translate(159.033203 0)"/>
      </g>
     </g>
    </g>
    <g id="ytick_11">
     <g id="line2d_26">
      <g>
       <use xlink:href="#m18b55fa813" x="482.51" y="204.863713" style="stroke: #000000; stroke-width: 0.8"/>
      </g>
     </g>
     <g id="text_39">
      <!-- 0.06 -->
      <g transform="translate(453.244375 208.662932) scale(0.1 -0.1)">
       <use xlink:href="#DejaVuSans-30"/>
       <use xlink:href="#DejaVuSans-2e" transform="translate(63.623047 0)"/>
       <use xlink:href="#DejaVuSans-30" transform="translate(95.410156 0)"/>
       <use xlink:href="#DejaVuSans-36" transform="translate(159.033203 0)"/>
      </g>
     </g>
    </g>
    <g id="ytick_12">
     <g id="line2d_27">
      <g>
       <use xlink:href="#m18b55fa813" x="482.51" y="155.787894" style="stroke: #000000; stroke-width: 0.8"/>
      </g>
     </g>
     <g id="text_40">
      <!-- 0.07 -->
      <g transform="translate(453.244375 159.587113) scale(0.1 -0.1)">
       <use xlink:href="#DejaVuSans-30"/>
       <use xlink:href="#DejaVuSans-2e" transform="translate(63.623047 0)"/>
       <use xlink:href="#DejaVuSans-30" transform="translate(95.410156 0)"/>
       <use xlink:href="#DejaVuSans-37" transform="translate(159.033203 0)"/>
      </g>
     </g>
    </g>
    <g id="ytick_13">
     <g id="line2d_28">
      <g>
       <use xlink:href="#m18b55fa813" x="482.51" y="106.712075" style="stroke: #000000; stroke-width: 0.8"/>
      </g>
     </g>
     <g id="text_41">
      <!-- 0.08 -->
      <g transform="translate(453.244375 110.511294) scale(0.1 -0.1)">
       <defs>
        <path id="DejaVuSans-38" d="M 2034 2216 
Q 1584 2216 1326 1975 
Q 1069 1734 1069 1313 
Q 1069 891 1326 650 
Q 1584 409 2034 409 
Q 2484 409 2743 651 
Q 3003 894 3003 1313 
Q 3003 1734 2745 1975 
Q 2488 2216 2034 2216 
z
M 1403 2484 
Q 997 2584 770 2862 
Q 544 3141 544 3541 
Q 544 4100 942 4425 
Q 1341 4750 2034 4750 
Q 2731 4750 3128 4425 
Q 3525 4100 3525 3541 
Q 3525 3141 3298 2862 
Q 3072 2584 2669 2484 
Q 3125 2378 3379 2068 
Q 3634 1759 3634 1313 
Q 3634 634 3220 271 
Q 2806 -91 2034 -91 
Q 1263 -91 848 271 
Q 434 634 434 1313 
Q 434 1759 690 2068 
Q 947 2378 1403 2484 
z
M 1172 3481 
Q 1172 3119 1398 2916 
Q 1625 2713 2034 2713 
Q 2441 2713 2670 2916 
Q 2900 3119 2900 3481 
Q 2900 3844 2670 4047 
Q 2441 4250 2034 4250 
Q 1625 4250 1398 4047 
Q 1172 3844 1172 3481 
z
" transform="scale(0.015625)"/>
       </defs>
       <use xlink:href="#DejaVuSans-30"/>
       <use xlink:href="#DejaVuSans-2e" transform="translate(63.623047 0)"/>
       <use xlink:href="#DejaVuSans-30" transform="translate(95.410156 0)"/>
       <use xlink:href="#DejaVuSans-38" transform="translate(159.033203 0)"/>
      </g>
     </g>
    </g>
    <g id="ytick_14">
     <g id="line2d_29">
      <g>
       <use xlink:href="#m18b55fa813" x="482.51" y="57.636256" style="stroke: #000000; stroke-width: 0.8"/>
      </g>
     </g>
     <g id="text_42">
      <!-- 0.09 -->
      <g transform="translate(453.244375 61.435475) scale(0.1 -0.1)">
       <defs>
        <path id="DejaVuSans-39" d="M 703 97 
L 703 672 
Q 941 559 1184 500 
Q 1428 441 1663 441 
Q 2288 441 2617 861 
Q 2947 1281 2994 2138 
Q 2813 1869 2534 1725 
Q 2256 1581 1919 1581 
Q 1219 1581 811 2004 
Q 403 2428 403 3163 
Q 403 3881 828 4315 
Q 1253 4750 1959 4750 
Q 2769 4750 3195 4129 
Q 3622 3509 3622 2328 
Q 3622 1225 3098 567 
Q 2575 -91 1691 -91 
Q 1453 -91 1209 -44 
Q 966 3 703 97 
z
M 1959 2075 
Q 2384 2075 2632 2365 
Q 2881 2656 2881 3163 
Q 2881 3666 2632 3958 
Q 2384 4250 1959 4250 
Q 1534 4250 1286 3958 
Q 1038 3666 1038 3163 
Q 1038 2656 1286 2365 
Q 1534 2075 1959 2075 
z
" transform="scale(0.015625)"/>
       </defs>
       <use xlink:href="#DejaVuSans-30"/>
       <use xlink:href="#DejaVuSans-2e" transform="translate(63.623047 0)"/>
       <use xlink:href="#DejaVuSans-30" transform="translate(95.410156 0)"/>
       <use xlink:href="#DejaVuSans-39" transform="translate(159.033203 0)"/>
      </g>
     </g>
    </g>
    <g id="text_43">
     <!-- Pvalb fraction -->
     <g transform="translate(447.164688 214.344875) rotate(-90) scale(0.1 -0.1)">
      <defs>
       <path id="DejaVuSans-62" d="M 3116 1747 
Q 3116 2381 2855 2742 
Q 2594 3103 2138 3103 
Q 1681 3103 1420 2742 
Q 1159 2381 1159 1747 
Q 1159 1113 1420 752 
Q 1681 391 2138 391 
Q 2594 391 2855 752 
Q 3116 1113 3116 1747 
z
M 1159 2969 
Q 1341 3281 1617 3432 
Q 1894 3584 2278 3584 
Q 2916 3584 3314 3078 
Q 3713 2572 3713 1747 
Q 3713 922 3314 415 
Q 2916 -91 2278 -91 
Q 1894 -91 1617 61 
Q 1341 213 1159 525 
L 1159 0 
L 581 0 
L 581 4863 
L 1159 4863 
L 1159 2969 
z
" transform="scale(0.015625)"/>
      </defs>
      <use xlink:href="#DejaVuSans-50"/>
      <use xlink:href="#DejaVuSans-76" transform="translate(60.302734 0)"/>
      <use xlink:href="#DejaVuSans-61" transform="translate(119.482422 0)"/>
      <use xlink:href="#DejaVuSans-6c" transform="translate(180.761719 0)"/>
      <use xlink:href="#DejaVuSans-62" transform="translate(208.544922 0)"/>
      <use xlink:href="#DejaVuSans-20" transform="translate(272.021484 0)"/>
      <use xlink:href="#DejaVuSans-66" transform="translate(303.808594 0)"/>
      <use xlink:href="#DejaVuSans-72" transform="translate(339.013672 0)"/>
      <use xlink:href="#DejaVuSans-61" transform="translate(380.126953 0)"/>
      <use xlink:href="#DejaVuSans-63" transform="translate(441.40625 0)"/>
      <use xlink:href="#DejaVuSans-74" transform="translate(496.386719 0)"/>
      <use xlink:href="#DejaVuSans-69" transform="translate(535.595703 0)"/>
      <use xlink:href="#DejaVuSans-6f" transform="translate(563.378906 0)"/>
      <use xlink:href="#DejaVuSans-6e" transform="translate(624.560547 0)"/>
     </g>
    </g>
   </g>
   <g id="line2d_30">
    <path d="M 499.523182 155.732536 
L 502.960188 156.651979 
L 506.397195 157.571421 
L 509.834201 158.490863 
L 513.271208 159.410305 
L 516.708214 160.329747 
L 520.14522 161.249189 
L 523.582227 162.168631 
L 527.019233 163.088074 
L 530.45624 164.007516 
L 533.893246 164.926958 
L 537.330253 165.8464 
L 540.767259 166.765842 
L 544.204265 167.685284 
L 547.641272 168.604726 
L 551.078278 169.524169 
L 554.515285 170.443611 
L 557.952291 171.363053 
L 561.389298 172.282495 
L 564.826304 173.201937 
L 568.26331 174.121379 
L 571.700317 175.040821 
L 575.137323 175.960264 
L 578.57433 176.879706 
L 582.011336 177.799148 
L 585.448343 178.71859 
L 588.885349 179.638032 
L 592.322355 180.557474 
L 595.759362 181.476916 
L 599.196368 182.396359 
L 602.633375 183.315801 
L 606.070381 184.235243 
L 609.507388 185.154685 
L 612.944394 186.074127 
L 616.3814 186.993569 
L 619.818407 187.913011 
L 623.255413 188.832454 
L 626.69242 189.751896 
L 630.129426 190.671338 
L 633.566433 191.59078 
L 637.003439 192.510222 
L 640.440445 193.429664 
L 643.877452 194.349106 
L 647.314458 195.268549 
L 650.751465 196.187991 
L 654.188471 197.107433 
L 657.625478 198.026875 
L 661.062484 198.946317 
L 664.49949 199.865759 
L 667.936497 200.785201 
L 671.373503 201.704644 
L 674.81051 202.624086 
L 678.247516 203.543528 
L 681.684522 204.46297 
L 685.121529 205.382412 
L 688.558535 206.301854 
L 691.995542 207.221296 
L 695.432548 208.140739 
L 698.869555 209.060181 
L 702.306561 209.979623 
L 705.743567 210.899065 
L 709.180574 211.818507 
L 712.61758 212.737949 
L 716.054587 213.657391 
L 719.491593 214.576834 
L 722.9286 215.496276 
L 726.365606 216.415718 
L 729.802612 217.33516 
L 733.239619 218.254602 
L 736.676625 219.174044 
L 740.113632 220.093486 
L 743.550638 221.012929 
L 746.987645 221.932371 
L 750.424651 222.851813 
L 753.861657 223.771255 
L 757.298664 224.690697 
L 760.73567 225.610139 
L 764.172677 226.529581 
L 767.609683 227.449024 
L 771.04669 228.368466 
L 774.483696 229.287908 
L 777.920702 230.20735 
L 781.357709 231.126792 
L 784.794715 232.046234 
L 788.231722 232.965676 
L 791.668728 233.885119 
L 795.105735 234.804561 
L 798.542741 235.724003 
L 801.979747 236.643445 
L 805.416754 237.562887 
L 808.85376 238.482329 
L 812.290767 239.401771 
L 815.727773 240.321214 
L 819.16478 241.240656 
L 822.601786 242.160098 
L 826.038792 243.07954 
L 829.475799 243.998982 
L 832.912805 244.918424 
L 836.349812 245.837866 
L 839.786818 246.757309 
" clip-path="url(#pd63ec9d9e6)" style="fill: none; stroke-dasharray: 5.55,2.4; stroke-dashoffset: 0; stroke: #808080; stroke-opacity: 0.7; stroke-width: 1.5"/>
   </g>
   <g id="patch_8">
    <path d="M 482.51 318.04 
L 482.51 41.856 
" style="fill: none; stroke: #000000; stroke-width: 0.8; stroke-linejoin: miter; stroke-linecap: square"/>
   </g>
   <g id="patch_9">
    <path d="M 856.8 318.04 
L 856.8 41.856 
" style="fill: none; stroke: #000000; stroke-width: 0.8; stroke-linejoin: miter; stroke-linecap: square"/>
   </g>
   <g id="patch_10">
    <path d="M 482.51 318.04 
L 856.8 318.04 
" style="fill: none; stroke: #000000; stroke-width: 0.8; stroke-linejoin: miter; stroke-linecap: square"/>
   </g>
   <g id="patch_11">
    <path d="M 482.51 41.856 
L 856.8 41.856 
" style="fill: none; stroke: #000000; stroke-width: 0.8; stroke-linejoin: miter; stroke-linecap: square"/>
   </g>
   <g id="text_44">
    <!-- ILA5 -->
    <g transform="translate(553.113123 70.978839) scale(0.07 -0.07)">
     <use xlink:href="#DejaVuSans-49"/>
     <use xlink:href="#DejaVuSans-4c" transform="translate(29.492188 0)"/>
     <use xlink:href="#DejaVuSans-41" transform="translate(87.455078 0)"/>
     <use xlink:href="#DejaVuSans-35" transform="translate(155.863281 0)"/>
    </g>
   </g>
   <g id="text_45">
    <!-- ILA6a -->
    <g transform="translate(567.280446 182.196837) scale(0.07 -0.07)">
     <use xlink:href="#DejaVuSans-49"/>
     <use xlink:href="#DejaVuSans-4c" transform="translate(29.492188 0)"/>
     <use xlink:href="#DejaVuSans-41" transform="translate(87.455078 0)"/>
     <use xlink:href="#DejaVuSans-36" transform="translate(155.863281 0)"/>
     <use xlink:href="#DejaVuSans-61" transform="translate(219.486328 0)"/>
    </g>
   </g>
   <g id="text_46">
    <!-- ORBl5 -->
    <g transform="translate(560.238093 103.799628) scale(0.07 -0.07)">
     <use xlink:href="#DejaVuSans-4f"/>
     <use xlink:href="#DejaVuSans-52" transform="translate(78.710938 0)"/>
     <use xlink:href="#DejaVuSans-42" transform="translate(148.193359 0)"/>
     <use xlink:href="#DejaVuSans-6c" transform="translate(216.796875 0)"/>
     <use xlink:href="#DejaVuSans-35" transform="translate(244.580078 0)"/>
    </g>
   </g>
   <g id="text_47">
    <!-- ORBl6a -->
    <g transform="translate(615.152833 250.951702) scale(0.07 -0.07)">
     <use xlink:href="#DejaVuSans-4f"/>
     <use xlink:href="#DejaVuSans-52" transform="translate(78.710938 0)"/>
     <use xlink:href="#DejaVuSans-42" transform="translate(148.193359 0)"/>
     <use xlink:href="#DejaVuSans-6c" transform="translate(216.796875 0)"/>
     <use xlink:href="#DejaVuSans-36" transform="translate(244.580078 0)"/>
     <use xlink:href="#DejaVuSans-61" transform="translate(308.203125 0)"/>
    </g>
   </g>
   <g id="text_48">
    <!-- ORBm5 -->
    <g transform="translate(654.200776 141.908474) scale(0.07 -0.07)">
     <use xlink:href="#DejaVuSans-4f"/>
     <use xlink:href="#DejaVuSans-52" transform="translate(78.710938 0)"/>
     <use xlink:href="#DejaVuSans-42" transform="translate(148.193359 0)"/>
     <use xlink:href="#DejaVuSans-6d" transform="translate(216.796875 0)"/>
     <use xlink:href="#DejaVuSans-35" transform="translate(314.208984 0)"/>
    </g>
   </g>
   <g id="text_49">
    <!-- ORBm6a -->
    <g transform="translate(810.683363 235.301532) scale(0.07 -0.07)">
     <use xlink:href="#DejaVuSans-4f"/>
     <use xlink:href="#DejaVuSans-52" transform="translate(78.710938 0)"/>
     <use xlink:href="#DejaVuSans-42" transform="translate(148.193359 0)"/>
     <use xlink:href="#DejaVuSans-6d" transform="translate(216.796875 0)"/>
     <use xlink:href="#DejaVuSans-36" transform="translate(314.208984 0)"/>
     <use xlink:href="#DejaVuSans-61" transform="translate(377.832031 0)"/>
    </g>
   </g>
   <g id="text_50">
    <!-- ORBvl5 -->
    <g transform="translate(510.620335 113.095464) scale(0.07 -0.07)">
     <use xlink:href="#DejaVuSans-4f"/>
     <use xlink:href="#DejaVuSans-52" transform="translate(78.710938 0)"/>
     <use xlink:href="#DejaVuSans-42" transform="translate(148.193359 0)"/>
     <use xlink:href="#DejaVuSans-76" transform="translate(216.796875 0)"/>
     <use xlink:href="#DejaVuSans-6c" transform="translate(275.976562 0)"/>
     <use xlink:href="#DejaVuSans-35" transform="translate(303.759766 0)"/>
    </g>
   </g>
   <g id="text_51">
    <!-- ORBvl6a -->
    <g transform="translate(528.221685 286.752678) scale(0.07 -0.07)">
     <use xlink:href="#DejaVuSans-4f"/>
     <use xlink:href="#DejaVuSans-52" transform="translate(78.710938 0)"/>
     <use xlink:href="#DejaVuSans-42" transform="translate(148.193359 0)"/>
     <use xlink:href="#DejaVuSans-76" transform="translate(216.796875 0)"/>
     <use xlink:href="#DejaVuSans-6c" transform="translate(275.976562 0)"/>
     <use xlink:href="#DejaVuSans-36" transform="translate(303.759766 0)"/>
     <use xlink:href="#DejaVuSans-61" transform="translate(367.382812 0)"/>
    </g>
   </g>
   <g id="text_52">
    <!-- PL5 -->
    <g transform="translate(528.472556 50.409818) scale(0.07 -0.07)">
     <use xlink:href="#DejaVuSans-50"/>
     <use xlink:href="#DejaVuSans-4c" transform="translate(60.302734 0)"/>
     <use xlink:href="#DejaVuSans-35" transform="translate(116.015625 0)"/>
    </g>
   </g>
   <g id="text_53">
    <!-- PL6a -->
    <g transform="translate(547.979601 301.486182) scale(0.07 -0.07)">
     <use xlink:href="#DejaVuSans-50"/>
     <use xlink:href="#DejaVuSans-4c" transform="translate(60.302734 0)"/>
     <use xlink:href="#DejaVuSans-36" transform="translate(116.015625 0)"/>
     <use xlink:href="#DejaVuSans-61" transform="translate(179.638672 0)"/>
    </g>
   </g>
   <g id="text_54">
    <!-- MD Projection → Pvalb Fraction -->
    <g transform="translate(577.263438 22.418625) scale(0.12 -0.12)">
     <use xlink:href="#DejaVuSans-4d"/>
     <use xlink:href="#DejaVuSans-44" transform="translate(86.279297 0)"/>
     <use xlink:href="#DejaVuSans-20" transform="translate(163.28125 0)"/>
     <use xlink:href="#DejaVuSans-50" transform="translate(195.068359 0)"/>
     <use xlink:href="#DejaVuSans-72" transform="translate(253.621094 0)"/>
     <use xlink:href="#DejaVuSans-6f" transform="translate(292.484375 0)"/>
     <use xlink:href="#DejaVuSans-6a" transform="translate(353.666016 0)"/>
     <use xlink:href="#DejaVuSans-65" transform="translate(381.449219 0)"/>
     <use xlink:href="#DejaVuSans-63" transform="translate(442.972656 0)"/>
     <use xlink:href="#DejaVuSans-74" transform="translate(497.953125 0)"/>
     <use xlink:href="#DejaVuSans-69" transform="translate(537.162109 0)"/>
     <use xlink:href="#DejaVuSans-6f" transform="translate(564.945312 0)"/>
     <use xlink:href="#DejaVuSans-6e" transform="translate(626.126953 0)"/>
     <use xlink:href="#DejaVuSans-20" transform="translate(689.505859 0)"/>
     <use xlink:href="#DejaVuSans-2192" transform="translate(721.292969 0)"/>
     <use xlink:href="#DejaVuSans-20" transform="translate(805.082031 0)"/>
     <use xlink:href="#DejaVuSans-50" transform="translate(836.869141 0)"/>
     <use xlink:href="#DejaVuSans-76" transform="translate(897.171875 0)"/>
     <use xlink:href="#DejaVuSans-61" transform="translate(956.351562 0)"/>
     <use xlink:href="#DejaVuSans-6c" transform="translate(1017.630859 0)"/>
     <use xlink:href="#DejaVuSans-62" transform="translate(1045.414062 0)"/>
     <use xlink:href="#DejaVuSans-20" transform="translate(1108.890625 0)"/>
     <use xlink:href="#DejaVuSans-46" transform="translate(1140.677734 0)"/>
     <use xlink:href="#DejaVuSans-72" transform="translate(1190.947266 0)"/>
     <use xlink:href="#DejaVuSans-61" transform="translate(1232.060547 0)"/>
     <use xlink:href="#DejaVuSans-63" transform="translate(1293.339844 0)"/>
     <use xlink:href="#DejaVuSans-74" transform="translate(1348.320312 0)"/>
     <use xlink:href="#DejaVuSans-69" transform="translate(1387.529297 0)"/>
     <use xlink:href="#DejaVuSans-6f" transform="translate(1415.3125 0)"/>
     <use xlink:href="#DejaVuSans-6e" transform="translate(1476.494141 0)"/>
    </g>
    <!-- ρ = -0.139, p = 0.701 -->
    <g transform="translate(604.021562 35.856) scale(0.12 -0.12)">
     <use xlink:href="#DejaVuSans-3c1"/>
     <use xlink:href="#DejaVuSans-20" transform="translate(63.476562 0)"/>
     <use xlink:href="#DejaVuSans-3d" transform="translate(95.263672 0)"/>
     <use xlink:href="#DejaVuSans-20" transform="translate(179.052734 0)"/>
     <use xlink:href="#DejaVuSans-2d" transform="translate(210.839844 0)"/>
     <use xlink:href="#DejaVuSans-30" transform="translate(246.923828 0)"/>
     <use xlink:href="#DejaVuSans-2e" transform="translate(310.546875 0)"/>
     <use xlink:href="#DejaVuSans-31" transform="translate(342.333984 0)"/>
     <use xlink:href="#DejaVuSans-33" transform="translate(405.957031 0)"/>
     <use xlink:href="#DejaVuSans-39" transform="translate(469.580078 0)"/>
     <use xlink:href="#DejaVuSans-2c" transform="translate(533.203125 0)"/>
     <use xlink:href="#DejaVuSans-20" transform="translate(564.990234 0)"/>
     <use xlink:href="#DejaVuSans-70" transform="translate(596.777344 0)"/>
     <use xlink:href="#DejaVuSans-20" transform="translate(660.253906 0)"/>
     <use xlink:href="#DejaVuSans-3d" transform="translate(692.041016 0)"/>
     <use xlink:href="#DejaVuSans-20" transform="translate(775.830078 0)"/>
     <use xlink:href="#DejaVuSans-30" transform="translate(807.617188 0)"/>
     <use xlink:href="#DejaVuSans-2e" transform="translate(871.240234 0)"/>
     <use xlink:href="#DejaVuSans-37" transform="translate(903.027344 0)"/>
     <use xlink:href="#DejaVuSans-30" transform="translate(966.650391 0)"/>
     <use xlink:href="#DejaVuSans-31" transform="translate(1030.273438 0)"/>
    </g>
   </g>
   <g id="PathCollection_2">
    <g clip-path="url(#pd63ec9d9e6)">
     <use xlink:href="#maea614ba83" x="547.113123" y="74.978839" style="fill: #1f77b4; stroke: #000000; stroke-width: 0.8"/>
     <use xlink:href="#maea614ba83" x="561.280446" y="186.196837" style="fill: #1f77b4; stroke: #000000; stroke-width: 0.8"/>
     <use xlink:href="#maea614ba83" x="554.238093" y="107.799628" style="fill: #1f77b4; stroke: #000000; stroke-width: 0.8"/>
     <use xlink:href="#maea614ba83" x="609.152833" y="254.951702" style="fill: #1f77b4; stroke: #000000; stroke-width: 0.8"/>
     <use xlink:href="#maea614ba83" x="648.200776" y="145.908474" style="fill: #1f77b4; stroke: #000000; stroke-width: 0.8"/>
     <use xlink:href="#maea614ba83" x="804.683363" y="239.301532" style="fill: #1f77b4; stroke: #000000; stroke-width: 0.8"/>
     <use xlink:href="#maea614ba83" x="504.620335" y="117.095464" style="fill: #1f77b4; stroke: #000000; stroke-width: 0.8"/>
     <use xlink:href="#maea614ba83" x="522.221685" y="290.752678" style="fill: #1f77b4; stroke: #000000; stroke-width: 0.8"/>
     <use xlink:href="#maea614ba83" x="522.472556" y="54.409818" style="fill: #1f77b4; stroke: #000000; stroke-width: 0.8"/>
     <use xlink:href="#maea614ba83" x="541.979601" y="305.486182" style="fill: #1f77b4; stroke: #000000; stroke-width: 0.8"/>
    </g>
   </g>
  </g>
  <g id="axes_3">
   <g id="patch_12">
    <path d="M 910.91 318.04 
L 1285.2 318.04 
L 1285.2 41.856 
L 910.91 41.856 
z
" style="fill: #ffffff"/>
   </g>
   <g id="matplotlib.axis_5">
    <g id="xtick_15">
     <g id="line2d_31">
      <g>
       <use xlink:href="#m2bdbaae920" x="958.119915" y="318.04" style="stroke: #000000; stroke-width: 0.8"/>
      </g>
     </g>
     <g id="text_55">
      <!-- 0.02 -->
      <g transform="translate(946.987102 332.638438) scale(0.1 -0.1)">
       <use xlink:href="#DejaVuSans-30"/>
       <use xlink:href="#DejaVuSans-2e" transform="translate(63.623047 0)"/>
       <use xlink:href="#DejaVuSans-30" transform="translate(95.410156 0)"/>
       <use xlink:href="#DejaVuSans-32" transform="translate(159.033203 0)"/>
      </g>
     </g>
    </g>
    <g id="xtick_16">
     <g id="line2d_32">
      <g>
       <use xlink:href="#m2bdbaae920" x="1008.612754" y="318.04" style="stroke: #000000; stroke-width: 0.8"/>
      </g>
     </g>
     <g id="text_56">
      <!-- 0.04 -->
      <g transform="translate(997.479942 332.638438) scale(0.1 -0.1)">
       <use xlink:href="#DejaVuSans-30"/>
       <use xlink:href="#DejaVuSans-2e" transform="translate(63.623047 0)"/>
       <use xlink:href="#DejaVuSans-30" transform="translate(95.410156 0)"/>
       <use xlink:href="#DejaVuSans-34" transform="translate(159.033203 0)"/>
      </g>
     </g>
    </g>
    <g id="xtick_17">
     <g id="line2d_33">
      <g>
       <use xlink:href="#m2bdbaae920" x="1059.105594" y="318.04" style="stroke: #000000; stroke-width: 0.8"/>
      </g>
     </g>
     <g id="text_57">
      <!-- 0.06 -->
      <g transform="translate(1047.972781 332.638438) scale(0.1 -0.1)">
       <use xlink:href="#DejaVuSans-30"/>
       <use xlink:href="#DejaVuSans-2e" transform="translate(63.623047 0)"/>
       <use xlink:href="#DejaVuSans-30" transform="translate(95.410156 0)"/>
       <use xlink:href="#DejaVuSans-36" transform="translate(159.033203 0)"/>
      </g>
     </g>
    </g>
    <g id="xtick_18">
     <g id="line2d_34">
      <g>
       <use xlink:href="#m2bdbaae920" x="1109.598433" y="318.04" style="stroke: #000000; stroke-width: 0.8"/>
      </g>
     </g>
     <g id="text_58">
      <!-- 0.08 -->
      <g transform="translate(1098.465621 332.638438) scale(0.1 -0.1)">
       <use xlink:href="#DejaVuSans-30"/>
       <use xlink:href="#DejaVuSans-2e" transform="translate(63.623047 0)"/>
       <use xlink:href="#DejaVuSans-30" transform="translate(95.410156 0)"/>
       <use xlink:href="#DejaVuSans-38" transform="translate(159.033203 0)"/>
      </g>
     </g>
    </g>
    <g id="xtick_19">
     <g id="line2d_35">
      <g>
       <use xlink:href="#m2bdbaae920" x="1160.091273" y="318.04" style="stroke: #000000; stroke-width: 0.8"/>
      </g>
     </g>
     <g id="text_59">
      <!-- 0.10 -->
      <g transform="translate(1148.95846 332.638438) scale(0.1 -0.1)">
       <use xlink:href="#DejaVuSans-30"/>
       <use xlink:href="#DejaVuSans-2e" transform="translate(63.623047 0)"/>
       <use xlink:href="#DejaVuSans-31" transform="translate(95.410156 0)"/>
       <use xlink:href="#DejaVuSans-30" transform="translate(159.033203 0)"/>
      </g>
     </g>
    </g>
    <g id="xtick_20">
     <g id="line2d_36">
      <g>
       <use xlink:href="#m2bdbaae920" x="1210.584112" y="318.04" style="stroke: #000000; stroke-width: 0.8"/>
      </g>
     </g>
     <g id="text_60">
      <!-- 0.12 -->
      <g transform="translate(1199.4513 332.638438) scale(0.1 -0.1)">
       <use xlink:href="#DejaVuSans-30"/>
       <use xlink:href="#DejaVuSans-2e" transform="translate(63.623047 0)"/>
       <use xlink:href="#DejaVuSans-31" transform="translate(95.410156 0)"/>
       <use xlink:href="#DejaVuSans-32" transform="translate(159.033203 0)"/>
      </g>
     </g>
    </g>
    <g id="xtick_21">
     <g id="line2d_37">
      <g>
       <use xlink:href="#m2bdbaae920" x="1261.076952" y="318.04" style="stroke: #000000; stroke-width: 0.8"/>
      </g>
     </g>
     <g id="text_61">
      <!-- 0.14 -->
      <g transform="translate(1249.944139 332.638438) scale(0.1 -0.1)">
       <use xlink:href="#DejaVuSans-30"/>
       <use xlink:href="#DejaVuSans-2e" transform="translate(63.623047 0)"/>
       <use xlink:href="#DejaVuSans-31" transform="translate(95.410156 0)"/>
       <use xlink:href="#DejaVuSans-34" transform="translate(159.033203 0)"/>
      </g>
     </g>
    </g>
    <g id="text_62">
     <!-- RE thalamic projection (NPV) -->
     <g transform="translate(1025.953437 346.316563) scale(0.1 -0.1)">
      <defs>
       <path id="DejaVuSans-45" d="M 628 4666 
L 3578 4666 
L 3578 4134 
L 1259 4134 
L 1259 2753 
L 3481 2753 
L 3481 2222 
L 1259 2222 
L 1259 531 
L 3634 531 
L 3634 0 
L 628 0 
L 628 4666 
z
" transform="scale(0.015625)"/>
      </defs>
      <use xlink:href="#DejaVuSans-52"/>
      <use xlink:href="#DejaVuSans-45" transform="translate(69.482422 0)"/>
      <use xlink:href="#DejaVuSans-20" transform="translate(132.666016 0)"/>
      <use xlink:href="#DejaVuSans-74" transform="translate(164.453125 0)"/>
      <use xlink:href="#DejaVuSans-68" transform="translate(203.662109 0)"/>
      <use xlink:href="#DejaVuSans-61" transform="translate(267.041016 0)"/>
      <use xlink:href="#DejaVuSans-6c" transform="translate(328.320312 0)"/>
      <use xlink:href="#DejaVuSans-61" transform="translate(356.103516 0)"/>
      <use xlink:href="#DejaVuSans-6d" transform="translate(417.382812 0)"/>
      <use xlink:href="#DejaVuSans-69" transform="translate(514.794922 0)"/>
      <use xlink:href="#DejaVuSans-63" transform="translate(542.578125 0)"/>
      <use xlink:href="#DejaVuSans-20" transform="translate(597.558594 0)"/>
      <use xlink:href="#DejaVuSans-70" transform="translate(629.345703 0)"/>
      <use xlink:href="#DejaVuSans-72" transform="translate(692.822266 0)"/>
      <use xlink:href="#DejaVuSans-6f" transform="translate(731.685547 0)"/>
      <use xlink:href="#DejaVuSans-6a" transform="translate(792.867188 0)"/>
      <use xlink:href="#DejaVuSans-65" transform="translate(820.650391 0)"/>
      <use xlink:href="#DejaVuSans-63" transform="translate(882.173828 0)"/>
      <use xlink:href="#DejaVuSans-74" transform="translate(937.154297 0)"/>
      <use xlink:href="#DejaVuSans-69" transform="translate(976.363281 0)"/>
      <use xlink:href="#DejaVuSans-6f" transform="translate(1004.146484 0)"/>
      <use xlink:href="#DejaVuSans-6e" transform="translate(1065.328125 0)"/>
      <use xlink:href="#DejaVuSans-20" transform="translate(1128.707031 0)"/>
      <use xlink:href="#DejaVuSans-28" transform="translate(1160.494141 0)"/>
      <use xlink:href="#DejaVuSans-4e" transform="translate(1199.507812 0)"/>
      <use xlink:href="#DejaVuSans-50" transform="translate(1274.3125 0)"/>
      <use xlink:href="#DejaVuSans-56" transform="translate(1334.615234 0)"/>
      <use xlink:href="#DejaVuSans-29" transform="translate(1403.023438 0)"/>
     </g>
    </g>
   </g>
   <g id="matplotlib.axis_6">
    <g id="ytick_15">
     <g id="line2d_38">
      <g>
       <use xlink:href="#m18b55fa813" x="910.91" y="310.189222" style="stroke: #000000; stroke-width: 0.8"/>
      </g>
     </g>
     <g id="text_63">
      <!-- 0.10 -->
      <g transform="translate(881.644375 313.988441) scale(0.1 -0.1)">
       <use xlink:href="#DejaVuSans-30"/>
       <use xlink:href="#DejaVuSans-2e" transform="translate(63.623047 0)"/>
       <use xlink:href="#DejaVuSans-31" transform="translate(95.410156 0)"/>
       <use xlink:href="#DejaVuSans-30" transform="translate(159.033203 0)"/>
      </g>
     </g>
    </g>
    <g id="ytick_16">
     <g id="line2d_39">
      <g>
       <use xlink:href="#m18b55fa813" x="910.91" y="276.170562" style="stroke: #000000; stroke-width: 0.8"/>
      </g>
     </g>
     <g id="text_64">
      <!-- 0.11 -->
      <g transform="translate(881.644375 279.96978) scale(0.1 -0.1)">
       <use xlink:href="#DejaVuSans-30"/>
       <use xlink:href="#DejaVuSans-2e" transform="translate(63.623047 0)"/>
       <use xlink:href="#DejaVuSans-31" transform="translate(95.410156 0)"/>
       <use xlink:href="#DejaVuSans-31" transform="translate(159.033203 0)"/>
      </g>
     </g>
    </g>
    <g id="ytick_17">
     <g id="line2d_40">
      <g>
       <use xlink:href="#m18b55fa813" x="910.91" y="242.151901" style="stroke: #000000; stroke-width: 0.8"/>
      </g>
     </g>
     <g id="text_65">
      <!-- 0.12 -->
      <g transform="translate(881.644375 245.95112) scale(0.1 -0.1)">
       <use xlink:href="#DejaVuSans-30"/>
       <use xlink:href="#DejaVuSans-2e" transform="translate(63.623047 0)"/>
       <use xlink:href="#DejaVuSans-31" transform="translate(95.410156 0)"/>
       <use xlink:href="#DejaVuSans-32" transform="translate(159.033203 0)"/>
      </g>
     </g>
    </g>
    <g id="ytick_18">
     <g id="line2d_41">
      <g>
       <use xlink:href="#m18b55fa813" x="910.91" y="208.13324" style="stroke: #000000; stroke-width: 0.8"/>
      </g>
     </g>
     <g id="text_66">
      <!-- 0.13 -->
      <g transform="translate(881.644375 211.932459) scale(0.1 -0.1)">
       <use xlink:href="#DejaVuSans-30"/>
       <use xlink:href="#DejaVuSans-2e" transform="translate(63.623047 0)"/>
       <use xlink:href="#DejaVuSans-31" transform="translate(95.410156 0)"/>
       <use xlink:href="#DejaVuSans-33" transform="translate(159.033203 0)"/>
      </g>
     </g>
    </g>
    <g id="ytick_19">
     <g id="line2d_42">
      <g>
       <use xlink:href="#m18b55fa813" x="910.91" y="174.114579" style="stroke: #000000; stroke-width: 0.8"/>
      </g>
     </g>
     <g id="text_67">
      <!-- 0.14 -->
      <g transform="translate(881.644375 177.913798) scale(0.1 -0.1)">
       <use xlink:href="#DejaVuSans-30"/>
       <use xlink:href="#DejaVuSans-2e" transform="translate(63.623047 0)"/>
       <use xlink:href="#DejaVuSans-31" transform="translate(95.410156 0)"/>
       <use xlink:href="#DejaVuSans-34" transform="translate(159.033203 0)"/>
      </g>
     </g>
    </g>
    <g id="ytick_20">
     <g id="line2d_43">
      <g>
       <use xlink:href="#m18b55fa813" x="910.91" y="140.095919" style="stroke: #000000; stroke-width: 0.8"/>
      </g>
     </g>
     <g id="text_68">
      <!-- 0.15 -->
      <g transform="translate(881.644375 143.895137) scale(0.1 -0.1)">
       <use xlink:href="#DejaVuSans-30"/>
       <use xlink:href="#DejaVuSans-2e" transform="translate(63.623047 0)"/>
       <use xlink:href="#DejaVuSans-31" transform="translate(95.410156 0)"/>
       <use xlink:href="#DejaVuSans-35" transform="translate(159.033203 0)"/>
      </g>
     </g>
    </g>
    <g id="ytick_21">
     <g id="line2d_44">
      <g>
       <use xlink:href="#m18b55fa813" x="910.91" y="106.077258" style="stroke: #000000; stroke-width: 0.8"/>
      </g>
     </g>
     <g id="text_69">
      <!-- 0.16 -->
      <g transform="translate(881.644375 109.876477) scale(0.1 -0.1)">
       <use xlink:href="#DejaVuSans-30"/>
       <use xlink:href="#DejaVuSans-2e" transform="translate(63.623047 0)"/>
       <use xlink:href="#DejaVuSans-31" transform="translate(95.410156 0)"/>
       <use xlink:href="#DejaVuSans-36" transform="translate(159.033203 0)"/>
      </g>
     </g>
    </g>
    <g id="ytick_22">
     <g id="line2d_45">
      <g>
       <use xlink:href="#m18b55fa813" x="910.91" y="72.058597" style="stroke: #000000; stroke-width: 0.8"/>
      </g>
     </g>
     <g id="text_70">
      <!-- 0.17 -->
      <g transform="translate(881.644375 75.857816) scale(0.1 -0.1)">
       <use xlink:href="#DejaVuSans-30"/>
       <use xlink:href="#DejaVuSans-2e" transform="translate(63.623047 0)"/>
       <use xlink:href="#DejaVuSans-31" transform="translate(95.410156 0)"/>
       <use xlink:href="#DejaVuSans-37" transform="translate(159.033203 0)"/>
      </g>
     </g>
    </g>
    <g id="text_71">
     <!-- GABA fraction -->
     <g transform="translate(875.564688 214.888625) rotate(-90) scale(0.1 -0.1)">
      <use xlink:href="#DejaVuSans-47"/>
      <use xlink:href="#DejaVuSans-41" transform="translate(77.490234 0)"/>
      <use xlink:href="#DejaVuSans-42" transform="translate(145.898438 0)"/>
      <use xlink:href="#DejaVuSans-41" transform="translate(214.501953 0)"/>
      <use xlink:href="#DejaVuSans-20" transform="translate(282.910156 0)"/>
      <use xlink:href="#DejaVuSans-66" transform="translate(314.697266 0)"/>
      <use xlink:href="#DejaVuSans-72" transform="translate(349.902344 0)"/>
      <use xlink:href="#DejaVuSans-61" transform="translate(391.015625 0)"/>
      <use xlink:href="#DejaVuSans-63" transform="translate(452.294922 0)"/>
      <use xlink:href="#DejaVuSans-74" transform="translate(507.275391 0)"/>
      <use xlink:href="#DejaVuSans-69" transform="translate(546.484375 0)"/>
      <use xlink:href="#DejaVuSans-6f" transform="translate(574.267578 0)"/>
      <use xlink:href="#DejaVuSans-6e" transform="translate(635.449219 0)"/>
     </g>
    </g>
   </g>
   <g id="line2d_46">
    <path d="M 927.923182 195.025498 
L 931.360188 194.460736 
L 934.797195 193.895975 
L 938.234201 193.331213 
L 941.671208 192.766451 
L 945.108214 192.201689 
L 948.54522 191.636927 
L 951.982227 191.072165 
L 955.419233 190.507403 
L 958.85624 189.942642 
L 962.293246 189.37788 
L 965.730253 188.813118 
L 969.167259 188.248356 
L 972.604265 187.683594 
L 976.041272 187.118832 
L 979.478278 186.554071 
L 982.915285 185.989309 
L 986.352291 185.424547 
L 989.789298 184.859785 
L 993.226304 184.295023 
L 996.66331 183.730261 
L 1000.100317 183.165499 
L 1003.537323 182.600738 
L 1006.97433 182.035976 
L 1010.411336 181.471214 
L 1013.848343 180.906452 
L 1017.285349 180.34169 
L 1020.722355 179.776928 
L 1024.159362 179.212166 
L 1027.596368 178.647405 
L 1031.033375 178.082643 
L 1034.470381 177.517881 
L 1037.907388 176.953119 
L 1041.344394 176.388357 
L 1044.7814 175.823595 
L 1048.218407 175.258834 
L 1051.655413 174.694072 
L 1055.09242 174.12931 
L 1058.529426 173.564548 
L 1061.966433 172.999786 
L 1065.403439 172.435024 
L 1068.840445 171.870262 
L 1072.277452 171.305501 
L 1075.714458 170.740739 
L 1079.151465 170.175977 
L 1082.588471 169.611215 
L 1086.025478 169.046453 
L 1089.462484 168.481691 
L 1092.89949 167.916929 
L 1096.336497 167.352168 
L 1099.773503 166.787406 
L 1103.21051 166.222644 
L 1106.647516 165.657882 
L 1110.084522 165.09312 
L 1113.521529 164.528358 
L 1116.958535 163.963597 
L 1120.395542 163.398835 
L 1123.832548 162.834073 
L 1127.269555 162.269311 
L 1130.706561 161.704549 
L 1134.143567 161.139787 
L 1137.580574 160.575025 
L 1141.01758 160.010264 
L 1144.454587 159.445502 
L 1147.891593 158.88074 
L 1151.3286 158.315978 
L 1154.765606 157.751216 
L 1158.202612 157.186454 
L 1161.639619 156.621692 
L 1165.076625 156.056931 
L 1168.513632 155.492169 
L 1171.950638 154.927407 
L 1175.387645 154.362645 
L 1178.824651 153.797883 
L 1182.261657 153.233121 
L 1185.698664 152.66836 
L 1189.13567 152.103598 
L 1192.572677 151.538836 
L 1196.009683 150.974074 
L 1199.44669 150.409312 
L 1202.883696 149.84455 
L 1206.320702 149.279788 
L 1209.757709 148.715027 
L 1213.194715 148.150265 
L 1216.631722 147.585503 
L 1220.068728 147.020741 
L 1223.505735 146.455979 
L 1226.942741 145.891217 
L 1230.379747 145.326455 
L 1233.816754 144.761694 
L 1237.25376 144.196932 
L 1240.690767 143.63217 
L 1244.127773 143.067408 
L 1247.56478 142.502646 
L 1251.001786 141.937884 
L 1254.438792 141.373123 
L 1257.875799 140.808361 
L 1261.312805 140.243599 
L 1264.749812 139.678837 
L 1268.186818 139.114075 
" clip-path="url(#p3569d7bc72)" style="fill: none; stroke-dasharray: 5.55,2.4; stroke-dashoffset: 0; stroke: #808080; stroke-opacity: 0.7; stroke-width: 1.5"/>
   </g>
   <g id="patch_13">
    <path d="M 910.91 318.04 
L 910.91 41.856 
" style="fill: none; stroke: #000000; stroke-width: 0.8; stroke-linejoin: miter; stroke-linecap: square"/>
   </g>
   <g id="patch_14">
    <path d="M 1285.2 318.04 
L 1285.2 41.856 
" style="fill: none; stroke: #000000; stroke-width: 0.8; stroke-linejoin: miter; stroke-linecap: square"/>
   </g>
   <g id="patch_15">
    <path d="M 910.91 318.04 
L 1285.2 318.04 
" style="fill: none; stroke: #000000; stroke-width: 0.8; stroke-linejoin: miter; stroke-linecap: square"/>
   </g>
   <g id="patch_16">
    <path d="M 910.91 41.856 
L 1285.2 41.856 
" style="fill: none; stroke: #000000; stroke-width: 0.8; stroke-linejoin: miter; stroke-linecap: square"/>
   </g>
   <g id="text_72">
    <!-- ILA5 -->
    <g transform="translate(1197.733313 50.409818) scale(0.07 -0.07)">
     <use xlink:href="#DejaVuSans-49"/>
     <use xlink:href="#DejaVuSans-4c" transform="translate(29.492188 0)"/>
     <use xlink:href="#DejaVuSans-41" transform="translate(87.455078 0)"/>
     <use xlink:href="#DejaVuSans-35" transform="translate(155.863281 0)"/>
    </g>
   </g>
   <g id="text_73">
    <!-- ILA6a -->
    <g transform="translate(1241.40866 147.574608) scale(0.07 -0.07)">
     <use xlink:href="#DejaVuSans-49"/>
     <use xlink:href="#DejaVuSans-4c" transform="translate(29.492188 0)"/>
     <use xlink:href="#DejaVuSans-41" transform="translate(87.455078 0)"/>
     <use xlink:href="#DejaVuSans-36" transform="translate(155.863281 0)"/>
     <use xlink:href="#DejaVuSans-61" transform="translate(219.486328 0)"/>
    </g>
   </g>
   <g id="text_74">
    <!-- ORBl5 -->
    <g transform="translate(936.178305 118.662533) scale(0.07 -0.07)">
     <use xlink:href="#DejaVuSans-4f"/>
     <use xlink:href="#DejaVuSans-52" transform="translate(78.710938 0)"/>
     <use xlink:href="#DejaVuSans-42" transform="translate(148.193359 0)"/>
     <use xlink:href="#DejaVuSans-6c" transform="translate(216.796875 0)"/>
     <use xlink:href="#DejaVuSans-35" transform="translate(244.580078 0)"/>
    </g>
   </g>
   <g id="text_75">
    <!-- ORBl6a -->
    <g transform="translate(946.983404 243.444138) scale(0.07 -0.07)">
     <use xlink:href="#DejaVuSans-4f"/>
     <use xlink:href="#DejaVuSans-52" transform="translate(78.710938 0)"/>
     <use xlink:href="#DejaVuSans-42" transform="translate(148.193359 0)"/>
     <use xlink:href="#DejaVuSans-6c" transform="translate(216.796875 0)"/>
     <use xlink:href="#DejaVuSans-36" transform="translate(244.580078 0)"/>
     <use xlink:href="#DejaVuSans-61" transform="translate(308.203125 0)"/>
    </g>
   </g>
   <g id="text_76">
    <!-- ORBm5 -->
    <g transform="translate(1075.840418 167.553436) scale(0.07 -0.07)">
     <use xlink:href="#DejaVuSans-4f"/>
     <use xlink:href="#DejaVuSans-52" transform="translate(78.710938 0)"/>
     <use xlink:href="#DejaVuSans-42" transform="translate(148.193359 0)"/>
     <use xlink:href="#DejaVuSans-6d" transform="translate(216.796875 0)"/>
     <use xlink:href="#DejaVuSans-35" transform="translate(314.208984 0)"/>
    </g>
   </g>
   <g id="text_77">
    <!-- ORBm6a -->
    <g transform="translate(1189.18208 223.145239) scale(0.07 -0.07)">
     <use xlink:href="#DejaVuSans-4f"/>
     <use xlink:href="#DejaVuSans-52" transform="translate(78.710938 0)"/>
     <use xlink:href="#DejaVuSans-42" transform="translate(148.193359 0)"/>
     <use xlink:href="#DejaVuSans-6d" transform="translate(216.796875 0)"/>
     <use xlink:href="#DejaVuSans-36" transform="translate(314.208984 0)"/>
     <use xlink:href="#DejaVuSans-61" transform="translate(377.832031 0)"/>
    </g>
   </g>
   <g id="text_78">
    <!-- ORBvl5 -->
    <g transform="translate(961.227463 122.139908) scale(0.07 -0.07)">
     <use xlink:href="#DejaVuSans-4f"/>
     <use xlink:href="#DejaVuSans-52" transform="translate(78.710938 0)"/>
     <use xlink:href="#DejaVuSans-42" transform="translate(148.193359 0)"/>
     <use xlink:href="#DejaVuSans-76" transform="translate(216.796875 0)"/>
     <use xlink:href="#DejaVuSans-6c" transform="translate(275.976562 0)"/>
     <use xlink:href="#DejaVuSans-35" transform="translate(303.759766 0)"/>
    </g>
   </g>
   <g id="text_79">
    <!-- ORBvl6a -->
    <g transform="translate(972.314169 301.486182) scale(0.07 -0.07)">
     <use xlink:href="#DejaVuSans-4f"/>
     <use xlink:href="#DejaVuSans-52" transform="translate(78.710938 0)"/>
     <use xlink:href="#DejaVuSans-42" transform="translate(148.193359 0)"/>
     <use xlink:href="#DejaVuSans-76" transform="translate(216.796875 0)"/>
     <use xlink:href="#DejaVuSans-6c" transform="translate(275.976562 0)"/>
     <use xlink:href="#DejaVuSans-36" transform="translate(303.759766 0)"/>
     <use xlink:href="#DejaVuSans-61" transform="translate(367.382812 0)"/>
    </g>
   </g>
   <g id="text_80">
    <!-- PL5 -->
    <g transform="translate(997.497668 55.463453) scale(0.07 -0.07)">
     <use xlink:href="#DejaVuSans-50"/>
     <use xlink:href="#DejaVuSans-4c" transform="translate(60.302734 0)"/>
     <use xlink:href="#DejaVuSans-35" transform="translate(116.015625 0)"/>
    </g>
   </g>
   <g id="text_81">
    <!-- PL6a -->
    <g transform="translate(1021.09987 283.155754) scale(0.07 -0.07)">
     <use xlink:href="#DejaVuSans-50"/>
     <use xlink:href="#DejaVuSans-4c" transform="translate(60.302734 0)"/>
     <use xlink:href="#DejaVuSans-36" transform="translate(116.015625 0)"/>
     <use xlink:href="#DejaVuSans-61" transform="translate(179.638672 0)"/>
    </g>
   </g>
   <g id="text_82">
    <!-- RE Projection → GABA Fraction -->
    <g transform="translate(1006.8475 22.418625) scale(0.12 -0.12)">
     <use xlink:href="#DejaVuSans-52"/>
     <use xlink:href="#DejaVuSans-45" transform="translate(69.482422 0)"/>
     <use xlink:href="#DejaVuSans-20" transform="translate(132.666016 0)"/>
     <use xlink:href="#DejaVuSans-50" transform="translate(164.453125 0)"/>
     <use xlink:href="#DejaVuSans-72" transform="translate(223.005859 0)"/>
     <use xlink:href="#DejaVuSans-6f" transform="translate(261.869141 0)"/>
     <use xlink:href="#DejaVuSans-6a" transform="translate(323.050781 0)"/>
     <use xlink:href="#DejaVuSans-65" transform="translate(350.833984 0)"/>
     <use xlink:href="#DejaVuSans-63" transform="translate(412.357422 0)"/>
     <use xlink:href="#DejaVuSans-74" transform="translate(467.337891 0)"/>
     <use xlink:href="#DejaVuSans-69" transform="translate(506.546875 0)"/>
     <use xlink:href="#DejaVuSans-6f" transform="translate(534.330078 0)"/>
     <use xlink:href="#DejaVuSans-6e" transform="translate(595.511719 0)"/>
     <use xlink:href="#DejaVuSans-20" transform="translate(658.890625 0)"/>
     <use xlink:href="#DejaVuSans-2192" transform="translate(690.677734 0)"/>
     <use xlink:href="#DejaVuSans-20" transform="translate(774.466797 0)"/>
     <use xlink:href="#DejaVuSans-47" transform="translate(806.253906 0)"/>
     <use xlink:href="#DejaVuSans-41" transform="translate(883.744141 0)"/>
     <use xlink:href="#DejaVuSans-42" transform="translate(952.152344 0)"/>
     <use xlink:href="#DejaVuSans-41" transform="translate(1020.755859 0)"/>
     <use xlink:href="#DejaVuSans-20" transform="translate(1089.164062 0)"/>
     <use xlink:href="#DejaVuSans-46" transform="translate(1120.951172 0)"/>
     <use xlink:href="#DejaVuSans-72" transform="translate(1171.220703 0)"/>
     <use xlink:href="#DejaVuSans-61" transform="translate(1212.333984 0)"/>
     <use xlink:href="#DejaVuSans-63" transform="translate(1273.613281 0)"/>
     <use xlink:href="#DejaVuSans-74" transform="translate(1328.59375 0)"/>
     <use xlink:href="#DejaVuSans-69" transform="translate(1367.802734 0)"/>
     <use xlink:href="#DejaVuSans-6f" transform="translate(1395.585938 0)"/>
     <use xlink:href="#DejaVuSans-6e" transform="translate(1456.767578 0)"/>
    </g>
    <!-- ρ = 0.127, p = 0.726 -->
    <g transform="translate(1034.58625 35.856) scale(0.12 -0.12)">
     <use xlink:href="#DejaVuSans-3c1"/>
     <use xlink:href="#DejaVuSans-20" transform="translate(63.476562 0)"/>
     <use xlink:href="#DejaVuSans-3d" transform="translate(95.263672 0)"/>
     <use xlink:href="#DejaVuSans-20" transform="translate(179.052734 0)"/>
     <use xlink:href="#DejaVuSans-30" transform="translate(210.839844 0)"/>
     <use xlink:href="#DejaVuSans-2e" transform="translate(274.462891 0)"/>
     <use xlink:href="#DejaVuSans-31" transform="translate(306.25 0)"/>
     <use xlink:href="#DejaVuSans-32" transform="translate(369.873047 0)"/>
     <use xlink:href="#DejaVuSans-37" transform="translate(433.496094 0)"/>
     <use xlink:href="#DejaVuSans-2c" transform="translate(497.119141 0)"/>
     <use xlink:href="#DejaVuSans-20" transform="translate(528.90625 0)"/>
     <use xlink:href="#DejaVuSans-70" transform="translate(560.693359 0)"/>
     <use xlink:href="#DejaVuSans-20" transform="translate(624.169922 0)"/>
     <use xlink:href="#DejaVuSans-3d" transform="translate(655.957031 0)"/>
     <use xlink:href="#DejaVuSans-20" transform="translate(739.746094 0)"/>
     <use xlink:href="#DejaVuSans-30" transform="translate(771.533203 0)"/>
     <use xlink:href="#DejaVuSans-2e" transform="translate(835.15625 0)"/>
     <use xlink:href="#DejaVuSans-37" transform="translate(866.943359 0)"/>
     <use xlink:href="#DejaVuSans-32" transform="translate(930.566406 0)"/>
     <use xlink:href="#DejaVuSans-36" transform="translate(994.189453 0)"/>
    </g>
   </g>
   <g id="PathCollection_3">
    <g clip-path="url(#p3569d7bc72)">
     <use xlink:href="#maea614ba83" x="1191.733313" y="54.409818" style="fill: #1f77b4; stroke: #000000; stroke-width: 0.8"/>
     <use xlink:href="#maea614ba83" x="1235.40866" y="151.574608" style="fill: #1f77b4; stroke: #000000; stroke-width: 0.8"/>
     <use xlink:href="#maea614ba83" x="930.178305" y="122.662533" style="fill: #1f77b4; stroke: #000000; stroke-width: 0.8"/>
     <use xlink:href="#maea614ba83" x="940.983404" y="247.444138" style="fill: #1f77b4; stroke: #000000; stroke-width: 0.8"/>
     <use xlink:href="#maea614ba83" x="1069.840418" y="171.553436" style="fill: #1f77b4; stroke: #000000; stroke-width: 0.8"/>
     <use xlink:href="#maea614ba83" x="1183.18208" y="227.145239" style="fill: #1f77b4; stroke: #000000; stroke-width: 0.8"/>
     <use xlink:href="#maea614ba83" x="955.227463" y="126.139908" style="fill: #1f77b4; stroke: #000000; stroke-width: 0.8"/>
     <use xlink:href="#maea614ba83" x="966.314169" y="305.486182" style="fill: #1f77b4; stroke: #000000; stroke-width: 0.8"/>
     <use xlink:href="#maea614ba83" x="991.497668" y="59.463453" style="fill: #1f77b4; stroke: #000000; stroke-width: 0.8"/>
     <use xlink:href="#maea614ba83" x="1015.09987" y="287.155754" style="fill: #1f77b4; stroke: #000000; stroke-width: 0.8"/>
    </g>
   </g>
  </g>
 </g>
 <defs>
  <clipPath id="p21376b031e">
   <rect x="54.11" y="41.856" width="374.29" height="276.184"/>
  </clipPath>
  <clipPath id="pd63ec9d9e6">
   <rect x="482.51" y="41.856" width="374.29" height="276.184"/>
  </clipPath>
  <clipPath id="p3569d7bc72">
   <rect x="910.91" y="41.856" width="374.29" height="276.184"/>
  </clipPath>
 </defs>
</svg>
