<?xml version="1.0" encoding="utf-8" standalone="no"?>
<!DOCTYPE svg PUBLIC "-//W3C//DTD SVG 1.1//EN"
  "http://www.w3.org/Graphics/SVG/1.1/DTD/svg11.dtd">
<svg xmlns:xlink="http://www.w3.org/1999/xlink" width="1296pt" height="360pt" viewBox="0 0 1296 360" xmlns="http://www.w3.org/2000/svg" version="1.1">
 <metadata>
  <rdf:RDF xmlns:dc="http://purl.org/dc/elements/1.1/" xmlns:cc="http://creativecommons.org/ns#" xmlns:rdf="http://www.w3.org/1999/02/22-rdf-syntax-ns#">
   <cc:Work>
    <dc:type rdf:resource="http://purl.org/dc/dcmitype/StillImage"/>
    <dc:date>2026-04-20T21:32:50.974432</dc:date>
    <dc:format>image/svg+xml</dc:format>
    <dc:creator>
     <cc:Agent>
      <dc:title>Matplotlib v3.10.8, https://matplotlib.org/</dc:title>
     </cc:Agent>
    </dc:creator>
   </cc:Work>
  </rdf:RDF>
 </metadata>
 <defs>
  <style type="text/css">*{stroke-linejoin: round; stroke-linecap: butt}</style>
 </defs>
 <g id="figure_1">
  <g id="patch_1">
   <path d="M 0 360 
L 1296 360 
L 1296 0 
L 0 0 
z
" style="fill: #ffffff"/>
  </g>
  <g id="axes_1">
   <g id="patch_2">
    <path d="M 54.11 318.04 
L 422.88 318.04 
L 422.88 41.856 
L 54.11 41.856 
z
" style="fill: #ffffff"/>
   </g>
   <g id="matplotlib.axis_1">
    <g id="xtick_1">
     <g id="line2d_1">
      <defs>
       <path id="m7980bc9a4f" d="M 0 0 
L 0 3.5 
" style="stroke: #000000; stroke-width: 0.8"/>
      </defs>
      <g>
       <use xlink:href="#m7980bc9a4f" x="58.688286" y="318.04" style="stroke: #000000; stroke-width: 0.8"/>
      </g>
     </g>
     <g id="text_1">
      <!-- 0.4 -->
      <g transform="translate(50.736723 332.638438) scale(0.1 -0.1)">
       <defs>
        <path id="DejaVuSans-30" d="M 2034 4250 
Q 1547 4250 1301 3770 
Q 1056 3291 1056 2328 
Q 1056 1369 1301 889 
Q 1547 409 2034 409 
Q 2525 409 2770 889 
Q 3016 1369 3016 2328 
Q 3016 3291 2770 3770 
Q 2525 4250 2034 4250 
z
M 2034 4750 
Q 2819 4750 3233 4129 
Q 3647 3509 3647 2328 
Q 3647 1150 3233 529 
Q 2819 -91 2034 -91 
Q 1250 -91 836 529 
Q 422 1150 422 2328 
Q 422 3509 836 4129 
Q 1250 4750 2034 4750 
z
" transform="scale(0.015625)"/>
        <path id="DejaVuSans-2e" d="M 684 794 
L 1344 794 
L 1344 0 
L 684 0 
L 684 794 
z
" transform="scale(0.015625)"/>
        <path id="DejaVuSans-34" d="M 2419 4116 
L 825 1625 
L 2419 1625 
L 2419 4116 
z
M 2253 4666 
L 3047 4666 
L 3047 1625 
L 3713 1625 
L 3713 1100 
L 3047 1100 
L 3047 0 
L 2419 0 
L 2419 1100 
L 313 1100 
L 313 1709 
L 2253 4666 
z
" transform="scale(0.015625)"/>
       </defs>
       <use xlink:href="#DejaVuSans-30"/>
       <use xlink:href="#DejaVuSans-2e" transform="translate(63.623047 0)"/>
       <use xlink:href="#DejaVuSans-34" transform="translate(95.410156 0)"/>
      </g>
     </g>
    </g>
    <g id="xtick_2">
     <g id="line2d_2">
      <g>
       <use xlink:href="#m7980bc9a4f" x="124.720822" y="318.04" style="stroke: #000000; stroke-width: 0.8"/>
      </g>
     </g>
     <g id="text_2">
      <!-- 0.6 -->
      <g transform="translate(116.76926 332.638438) scale(0.1 -0.1)">
       <defs>
        <path id="DejaVuSans-36" d="M 2113 2584 
Q 1688 2584 1439 2293 
Q 1191 2003 1191 1497 
Q 1191 994 1439 701 
Q 1688 409 2113 409 
Q 2538 409 2786 701 
Q 3034 994 3034 1497 
Q 3034 2003 2786 2293 
Q 2538 2584 2113 2584 
z
M 3366 4563 
L 3366 3988 
Q 3128 4100 2886 4159 
Q 2644 4219 2406 4219 
Q 1781 4219 1451 3797 
Q 1122 3375 1075 2522 
Q 1259 2794 1537 2939 
Q 1816 3084 2150 3084 
Q 2853 3084 3261 2657 
Q 3669 2231 3669 1497 
Q 3669 778 3244 343 
Q 2819 -91 2113 -91 
Q 1303 -91 875 529 
Q 447 1150 447 2328 
Q 447 3434 972 4092 
Q 1497 4750 2381 4750 
Q 2619 4750 2861 4703 
Q 3103 4656 3366 4563 
z
" transform="scale(0.015625)"/>
       </defs>
       <use xlink:href="#DejaVuSans-30"/>
       <use xlink:href="#DejaVuSans-2e" transform="translate(63.623047 0)"/>
       <use xlink:href="#DejaVuSans-36" transform="translate(95.410156 0)"/>
      </g>
     </g>
    </g>
    <g id="xtick_3">
     <g id="line2d_3">
      <g>
       <use xlink:href="#m7980bc9a4f" x="190.753359" y="318.04" style="stroke: #000000; stroke-width: 0.8"/>
      </g>
     </g>
     <g id="text_3">
      <!-- 0.8 -->
      <g transform="translate(182.801796 332.638438) scale(0.1 -0.1)">
       <defs>
        <path id="DejaVuSans-38" d="M 2034 2216 
Q 1584 2216 1326 1975 
Q 1069 1734 1069 1313 
Q 1069 891 1326 650 
Q 1584 409 2034 409 
Q 2484 409 2743 651 
Q 3003 894 3003 1313 
Q 3003 1734 2745 1975 
Q 2488 2216 2034 2216 
z
M 1403 2484 
Q 997 2584 770 2862 
Q 544 3141 544 3541 
Q 544 4100 942 4425 
Q 1341 4750 2034 4750 
Q 2731 4750 3128 4425 
Q 3525 4100 3525 3541 
Q 3525 3141 3298 2862 
Q 3072 2584 2669 2484 
Q 3125 2378 3379 2068 
Q 3634 1759 3634 1313 
Q 3634 634 3220 271 
Q 2806 -91 2034 -91 
Q 1263 -91 848 271 
Q 434 634 434 1313 
Q 434 1759 690 2068 
Q 947 2378 1403 2484 
z
M 1172 3481 
Q 1172 3119 1398 2916 
Q 1625 2713 2034 2713 
Q 2441 2713 2670 2916 
Q 2900 3119 2900 3481 
Q 2900 3844 2670 4047 
Q 2441 4250 2034 4250 
Q 1625 4250 1398 4047 
Q 1172 3844 1172 3481 
z
" transform="scale(0.015625)"/>
       </defs>
       <use xlink:href="#DejaVuSans-30"/>
       <use xlink:href="#DejaVuSans-2e" transform="translate(63.623047 0)"/>
       <use xlink:href="#DejaVuSans-38" transform="translate(95.410156 0)"/>
      </g>
     </g>
    </g>
    <g id="xtick_4">
     <g id="line2d_4">
      <g>
       <use xlink:href="#m7980bc9a4f" x="256.785895" y="318.04" style="stroke: #000000; stroke-width: 0.8"/>
      </g>
     </g>
     <g id="text_4">
      <!-- 1.0 -->
      <g transform="translate(248.834332 332.638438) scale(0.1 -0.1)">
       <defs>
        <path id="DejaVuSans-31" d="M 794 531 
L 1825 531 
L 1825 4091 
L 703 3866 
L 703 4441 
L 1819 4666 
L 2450 4666 
L 2450 531 
L 3481 531 
L 3481 0 
L 794 0 
L 794 531 
z
" transform="scale(0.015625)"/>
       </defs>
       <use xlink:href="#DejaVuSans-31"/>
       <use xlink:href="#DejaVuSans-2e" transform="translate(63.623047 0)"/>
       <use xlink:href="#DejaVuSans-30" transform="translate(95.410156 0)"/>
      </g>
     </g>
    </g>
    <g id="xtick_5">
     <g id="line2d_5">
      <g>
       <use xlink:href="#m7980bc9a4f" x="322.818431" y="318.04" style="stroke: #000000; stroke-width: 0.8"/>
      </g>
     </g>
     <g id="text_5">
      <!-- 1.2 -->
      <g transform="translate(314.866869 332.638438) scale(0.1 -0.1)">
       <defs>
        <path id="DejaVuSans-32" d="M 1228 531 
L 3431 531 
L 3431 0 
L 469 0 
L 469 531 
Q 828 903 1448 1529 
Q 2069 2156 2228 2338 
Q 2531 2678 2651 2914 
Q 2772 3150 2772 3378 
Q 2772 3750 2511 3984 
Q 2250 4219 1831 4219 
Q 1534 4219 1204 4116 
Q 875 4013 500 3803 
L 500 4441 
Q 881 4594 1212 4672 
Q 1544 4750 1819 4750 
Q 2544 4750 2975 4387 
Q 3406 4025 3406 3419 
Q 3406 3131 3298 2873 
Q 3191 2616 2906 2266 
Q 2828 2175 2409 1742 
Q 1991 1309 1228 531 
z
" transform="scale(0.015625)"/>
       </defs>
       <use xlink:href="#DejaVuSans-31"/>
       <use xlink:href="#DejaVuSans-2e" transform="translate(63.623047 0)"/>
       <use xlink:href="#DejaVuSans-32" transform="translate(95.410156 0)"/>
      </g>
     </g>
    </g>
    <g id="xtick_6">
     <g id="line2d_6">
      <g>
       <use xlink:href="#m7980bc9a4f" x="388.850968" y="318.04" style="stroke: #000000; stroke-width: 0.8"/>
      </g>
     </g>
     <g id="text_6">
      <!-- 1.4 -->
      <g transform="translate(380.899405 332.638438) scale(0.1 -0.1)">
       <use xlink:href="#DejaVuSans-31"/>
       <use xlink:href="#DejaVuSans-2e" transform="translate(63.623047 0)"/>
       <use xlink:href="#DejaVuSans-34" transform="translate(95.410156 0)"/>
      </g>
     </g>
    </g>
    <g id="text_7">
     <!-- Striatal projection (NPV) -->
     <g transform="translate(178.214531 346.316563) scale(0.1 -0.1)">
      <defs>
       <path id="DejaVuSans-53" d="M 3425 4513 
L 3425 3897 
Q 3066 4069 2747 4153 
Q 2428 4238 2131 4238 
Q 1616 4238 1336 4038 
Q 1056 3838 1056 3469 
Q 1056 3159 1242 3001 
Q 1428 2844 1947 2747 
L 2328 2669 
Q 3034 2534 3370 2195 
Q 3706 1856 3706 1288 
Q 3706 609 3251 259 
Q 2797 -91 1919 -91 
Q 1588 -91 1214 -16 
Q 841 59 441 206 
L 441 856 
Q 825 641 1194 531 
Q 1563 422 1919 422 
Q 2459 422 2753 634 
Q 3047 847 3047 1241 
Q 3047 1584 2836 1778 
Q 2625 1972 2144 2069 
L 1759 2144 
Q 1053 2284 737 2584 
Q 422 2884 422 3419 
Q 422 4038 858 4394 
Q 1294 4750 2059 4750 
Q 2388 4750 2728 4690 
Q 3069 4631 3425 4513 
z
" transform="scale(0.015625)"/>
       <path id="DejaVuSans-74" d="M 1172 4494 
L 1172 3500 
L 2356 3500 
L 2356 3053 
L 1172 3053 
L 1172 1153 
Q 1172 725 1289 603 
Q 1406 481 1766 481 
L 2356 481 
L 2356 0 
L 1766 0 
Q 1100 0 847 248 
Q 594 497 594 1153 
L 594 3053 
L 172 3053 
L 172 3500 
L 594 3500 
L 594 4494 
L 1172 4494 
z
" transform="scale(0.015625)"/>
       <path id="DejaVuSans-72" d="M 2631 2963 
Q 2534 3019 2420 3045 
Q 2306 3072 2169 3072 
Q 1681 3072 1420 2755 
Q 1159 2438 1159 1844 
L 1159 0 
L 581 0 
L 581 3500 
L 1159 3500 
L 1159 2956 
Q 1341 3275 1631 3429 
Q 1922 3584 2338 3584 
Q 2397 3584 2469 3576 
Q 2541 3569 2628 3553 
L 2631 2963 
z
" transform="scale(0.015625)"/>
       <path id="DejaVuSans-69" d="M 603 3500 
L 1178 3500 
L 1178 0 
L 603 0 
L 603 3500 
z
M 603 4863 
L 1178 4863 
L 1178 4134 
L 603 4134 
L 603 4863 
z
" transform="scale(0.015625)"/>
       <path id="DejaVuSans-61" d="M 2194 1759 
Q 1497 1759 1228 1600 
Q 959 1441 959 1056 
Q 959 750 1161 570 
Q 1363 391 1709 391 
Q 2188 391 2477 730 
Q 2766 1069 2766 1631 
L 2766 1759 
L 2194 1759 
z
M 3341 1997 
L 3341 0 
L 2766 0 
L 2766 531 
Q 2569 213 2275 61 
Q 1981 -91 1556 -91 
Q 1019 -91 701 211 
Q 384 513 384 1019 
Q 384 1609 779 1909 
Q 1175 2209 1959 2209 
L 2766 2209 
L 2766 2266 
Q 2766 2663 2505 2880 
Q 2244 3097 1772 3097 
Q 1472 3097 1187 3025 
Q 903 2953 641 2809 
L 641 3341 
Q 956 3463 1253 3523 
Q 1550 3584 1831 3584 
Q 2591 3584 2966 3190 
Q 3341 2797 3341 1997 
z
" transform="scale(0.015625)"/>
       <path id="DejaVuSans-6c" d="M 603 4863 
L 1178 4863 
L 1178 0 
L 603 0 
L 603 4863 
z
" transform="scale(0.015625)"/>
       <path id="DejaVuSans-20" transform="scale(0.015625)"/>
       <path id="DejaVuSans-70" d="M 1159 525 
L 1159 -1331 
L 581 -1331 
L 581 3500 
L 1159 3500 
L 1159 2969 
Q 1341 3281 1617 3432 
Q 1894 3584 2278 3584 
Q 2916 3584 3314 3078 
Q 3713 2572 3713 1747 
Q 3713 922 3314 415 
Q 2916 -91 2278 -91 
Q 1894 -91 1617 61 
Q 1341 213 1159 525 
z
M 3116 1747 
Q 3116 2381 2855 2742 
Q 2594 3103 2138 3103 
Q 1681 3103 1420 2742 
Q 1159 2381 1159 1747 
Q 1159 1113 1420 752 
Q 1681 391 2138 391 
Q 2594 391 2855 752 
Q 3116 1113 3116 1747 
z
" transform="scale(0.015625)"/>
       <path id="DejaVuSans-6f" d="M 1959 3097 
Q 1497 3097 1228 2736 
Q 959 2375 959 1747 
Q 959 1119 1226 758 
Q 1494 397 1959 397 
Q 2419 397 2687 759 
Q 2956 1122 2956 1747 
Q 2956 2369 2687 2733 
Q 2419 3097 1959 3097 
z
M 1959 3584 
Q 2709 3584 3137 3096 
Q 3566 2609 3566 1747 
Q 3566 888 3137 398 
Q 2709 -91 1959 -91 
Q 1206 -91 779 398 
Q 353 888 353 1747 
Q 353 2609 779 3096 
Q 1206 3584 1959 3584 
z
" transform="scale(0.015625)"/>
       <path id="DejaVuSans-6a" d="M 603 3500 
L 1178 3500 
L 1178 -63 
Q 1178 -731 923 -1031 
Q 669 -1331 103 -1331 
L -116 -1331 
L -116 -844 
L 38 -844 
Q 366 -844 484 -692 
Q 603 -541 603 -63 
L 603 3500 
z
M 603 4863 
L 1178 4863 
L 1178 4134 
L 603 4134 
L 603 4863 
z
" transform="scale(0.015625)"/>
       <path id="DejaVuSans-65" d="M 3597 1894 
L 3597 1613 
L 953 1613 
Q 991 1019 1311 708 
Q 1631 397 2203 397 
Q 2534 397 2845 478 
Q 3156 559 3463 722 
L 3463 178 
Q 3153 47 2828 -22 
Q 2503 -91 2169 -91 
Q 1331 -91 842 396 
Q 353 884 353 1716 
Q 353 2575 817 3079 
Q 1281 3584 2069 3584 
Q 2775 3584 3186 3129 
Q 3597 2675 3597 1894 
z
M 3022 2063 
Q 3016 2534 2758 2815 
Q 2500 3097 2075 3097 
Q 1594 3097 1305 2825 
Q 1016 2553 972 2059 
L 3022 2063 
z
" transform="scale(0.015625)"/>
       <path id="DejaVuSans-63" d="M 3122 3366 
L 3122 2828 
Q 2878 2963 2633 3030 
Q 2388 3097 2138 3097 
Q 1578 3097 1268 2742 
Q 959 2388 959 1747 
Q 959 1106 1268 751 
Q 1578 397 2138 397 
Q 2388 397 2633 464 
Q 2878 531 3122 666 
L 3122 134 
Q 2881 22 2623 -34 
Q 2366 -91 2075 -91 
Q 1284 -91 818 406 
Q 353 903 353 1747 
Q 353 2603 823 3093 
Q 1294 3584 2113 3584 
Q 2378 3584 2631 3529 
Q 2884 3475 3122 3366 
z
" transform="scale(0.015625)"/>
       <path id="DejaVuSans-6e" d="M 3513 2113 
L 3513 0 
L 2938 0 
L 2938 2094 
Q 2938 2591 2744 2837 
Q 2550 3084 2163 3084 
Q 1697 3084 1428 2787 
Q 1159 2491 1159 1978 
L 1159 0 
L 581 0 
L 581 3500 
L 1159 3500 
L 1159 2956 
Q 1366 3272 1645 3428 
Q 1925 3584 2291 3584 
Q 2894 3584 3203 3211 
Q 3513 2838 3513 2113 
z
" transform="scale(0.015625)"/>
       <path id="DejaVuSans-28" d="M 1984 4856 
Q 1566 4138 1362 3434 
Q 1159 2731 1159 2009 
Q 1159 1288 1364 580 
Q 1569 -128 1984 -844 
L 1484 -844 
Q 1016 -109 783 600 
Q 550 1309 550 2009 
Q 550 2706 781 3412 
Q 1013 4119 1484 4856 
L 1984 4856 
z
" transform="scale(0.015625)"/>
       <path id="DejaVuSans-4e" d="M 628 4666 
L 1478 4666 
L 3547 763 
L 3547 4666 
L 4159 4666 
L 4159 0 
L 3309 0 
L 1241 3903 
L 1241 0 
L 628 0 
L 628 4666 
z
" transform="scale(0.015625)"/>
       <path id="DejaVuSans-50" d="M 1259 4147 
L 1259 2394 
L 2053 2394 
Q 2494 2394 2734 2622 
Q 2975 2850 2975 3272 
Q 2975 3691 2734 3919 
Q 2494 4147 2053 4147 
L 1259 4147 
z
M 628 4666 
L 2053 4666 
Q 2838 4666 3239 4311 
Q 3641 3956 3641 3272 
Q 3641 2581 3239 2228 
Q 2838 1875 2053 1875 
L 1259 1875 
L 1259 0 
L 628 0 
L 628 4666 
z
" transform="scale(0.015625)"/>
       <path id="DejaVuSans-56" d="M 1831 0 
L 50 4666 
L 709 4666 
L 2188 738 
L 3669 4666 
L 4325 4666 
L 2547 0 
L 1831 0 
z
" transform="scale(0.015625)"/>
       <path id="DejaVuSans-29" d="M 513 4856 
L 1013 4856 
Q 1481 4119 1714 3412 
Q 1947 2706 1947 2009 
Q 1947 1309 1714 600 
Q 1481 -109 1013 -844 
L 513 -844 
Q 928 -128 1133 580 
Q 1338 1288 1338 2009 
Q 1338 2731 1133 3434 
Q 928 4138 513 4856 
z
" transform="scale(0.015625)"/>
      </defs>
      <use xlink:href="#DejaVuSans-53"/>
      <use xlink:href="#DejaVuSans-74" transform="translate(63.476562 0)"/>
      <use xlink:href="#DejaVuSans-72" transform="translate(102.685547 0)"/>
      <use xlink:href="#DejaVuSans-69" transform="translate(143.798828 0)"/>
      <use xlink:href="#DejaVuSans-61" transform="translate(171.582031 0)"/>
      <use xlink:href="#DejaVuSans-74" transform="translate(232.861328 0)"/>
      <use xlink:href="#DejaVuSans-61" transform="translate(272.070312 0)"/>
      <use xlink:href="#DejaVuSans-6c" transform="translate(333.349609 0)"/>
      <use xlink:href="#DejaVuSans-20" transform="translate(361.132812 0)"/>
      <use xlink:href="#DejaVuSans-70" transform="translate(392.919922 0)"/>
      <use xlink:href="#DejaVuSans-72" transform="translate(456.396484 0)"/>
      <use xlink:href="#DejaVuSans-6f" transform="translate(495.259766 0)"/>
      <use xlink:href="#DejaVuSans-6a" transform="translate(556.441406 0)"/>
      <use xlink:href="#DejaVuSans-65" transform="translate(584.224609 0)"/>
      <use xlink:href="#DejaVuSans-63" transform="translate(645.748047 0)"/>
      <use xlink:href="#DejaVuSans-74" transform="translate(700.728516 0)"/>
      <use xlink:href="#DejaVuSans-69" transform="translate(739.9375 0)"/>
      <use xlink:href="#DejaVuSans-6f" transform="translate(767.720703 0)"/>
      <use xlink:href="#DejaVuSans-6e" transform="translate(828.902344 0)"/>
      <use xlink:href="#DejaVuSans-20" transform="translate(892.28125 0)"/>
      <use xlink:href="#DejaVuSans-28" transform="translate(924.068359 0)"/>
      <use xlink:href="#DejaVuSans-4e" transform="translate(963.082031 0)"/>
      <use xlink:href="#DejaVuSans-50" transform="translate(1037.886719 0)"/>
      <use xlink:href="#DejaVuSans-56" transform="translate(1098.189453 0)"/>
      <use xlink:href="#DejaVuSans-29" transform="translate(1166.597656 0)"/>
     </g>
    </g>
   </g>
   <g id="matplotlib.axis_2">
    <g id="ytick_1">
     <g id="line2d_7">
      <defs>
       <path id="m2e6abdc405" d="M 0 0 
L -3.5 0 
" style="stroke: #000000; stroke-width: 0.8"/>
      </defs>
      <g>
       <use xlink:href="#m2e6abdc405" x="54.11" y="310.189222" style="stroke: #000000; stroke-width: 0.8"/>
      </g>
     </g>
     <g id="text_8">
      <!-- 0.10 -->
      <g transform="translate(24.844375 313.988441) scale(0.1 -0.1)">
       <use xlink:href="#DejaVuSans-30"/>
       <use xlink:href="#DejaVuSans-2e" transform="translate(63.623047 0)"/>
       <use xlink:href="#DejaVuSans-31" transform="translate(95.410156 0)"/>
       <use xlink:href="#DejaVuSans-30" transform="translate(159.033203 0)"/>
      </g>
     </g>
    </g>
    <g id="ytick_2">
     <g id="line2d_8">
      <g>
       <use xlink:href="#m2e6abdc405" x="54.11" y="276.170562" style="stroke: #000000; stroke-width: 0.8"/>
      </g>
     </g>
     <g id="text_9">
      <!-- 0.11 -->
      <g transform="translate(24.844375 279.96978) scale(0.1 -0.1)">
       <use xlink:href="#DejaVuSans-30"/>
       <use xlink:href="#DejaVuSans-2e" transform="translate(63.623047 0)"/>
       <use xlink:href="#DejaVuSans-31" transform="translate(95.410156 0)"/>
       <use xlink:href="#DejaVuSans-31" transform="translate(159.033203 0)"/>
      </g>
     </g>
    </g>
    <g id="ytick_3">
     <g id="line2d_9">
      <g>
       <use xlink:href="#m2e6abdc405" x="54.11" y="242.151901" style="stroke: #000000; stroke-width: 0.8"/>
      </g>
     </g>
     <g id="text_10">
      <!-- 0.12 -->
      <g transform="translate(24.844375 245.95112) scale(0.1 -0.1)">
       <use xlink:href="#DejaVuSans-30"/>
       <use xlink:href="#DejaVuSans-2e" transform="translate(63.623047 0)"/>
       <use xlink:href="#DejaVuSans-31" transform="translate(95.410156 0)"/>
       <use xlink:href="#DejaVuSans-32" transform="translate(159.033203 0)"/>
      </g>
     </g>
    </g>
    <g id="ytick_4">
     <g id="line2d_10">
      <g>
       <use xlink:href="#m2e6abdc405" x="54.11" y="208.13324" style="stroke: #000000; stroke-width: 0.8"/>
      </g>
     </g>
     <g id="text_11">
      <!-- 0.13 -->
      <g transform="translate(24.844375 211.932459) scale(0.1 -0.1)">
       <defs>
        <path id="DejaVuSans-33" d="M 2597 2516 
Q 3050 2419 3304 2112 
Q 3559 1806 3559 1356 
Q 3559 666 3084 287 
Q 2609 -91 1734 -91 
Q 1441 -91 1130 -33 
Q 819 25 488 141 
L 488 750 
Q 750 597 1062 519 
Q 1375 441 1716 441 
Q 2309 441 2620 675 
Q 2931 909 2931 1356 
Q 2931 1769 2642 2001 
Q 2353 2234 1838 2234 
L 1294 2234 
L 1294 2753 
L 1863 2753 
Q 2328 2753 2575 2939 
Q 2822 3125 2822 3475 
Q 2822 3834 2567 4026 
Q 2313 4219 1838 4219 
Q 1578 4219 1281 4162 
Q 984 4106 628 3988 
L 628 4550 
Q 988 4650 1302 4700 
Q 1616 4750 1894 4750 
Q 2613 4750 3031 4423 
Q 3450 4097 3450 3541 
Q 3450 3153 3228 2886 
Q 3006 2619 2597 2516 
z
" transform="scale(0.015625)"/>
       </defs>
       <use xlink:href="#DejaVuSans-30"/>
       <use xlink:href="#DejaVuSans-2e" transform="translate(63.623047 0)"/>
       <use xlink:href="#DejaVuSans-31" transform="translate(95.410156 0)"/>
       <use xlink:href="#DejaVuSans-33" transform="translate(159.033203 0)"/>
      </g>
     </g>
    </g>
    <g id="ytick_5">
     <g id="line2d_11">
      <g>
       <use xlink:href="#m2e6abdc405" x="54.11" y="174.114579" style="stroke: #000000; stroke-width: 0.8"/>
      </g>
     </g>
     <g id="text_12">
      <!-- 0.14 -->
      <g transform="translate(24.844375 177.913798) scale(0.1 -0.1)">
       <use xlink:href="#DejaVuSans-30"/>
       <use xlink:href="#DejaVuSans-2e" transform="translate(63.623047 0)"/>
       <use xlink:href="#DejaVuSans-31" transform="translate(95.410156 0)"/>
       <use xlink:href="#DejaVuSans-34" transform="translate(159.033203 0)"/>
      </g>
     </g>
    </g>
    <g id="ytick_6">
     <g id="line2d_12">
      <g>
       <use xlink:href="#m2e6abdc405" x="54.11" y="140.095919" style="stroke: #000000; stroke-width: 0.8"/>
      </g>
     </g>
     <g id="text_13">
      <!-- 0.15 -->
      <g transform="translate(24.844375 143.895137) scale(0.1 -0.1)">
       <defs>
        <path id="DejaVuSans-35" d="M 691 4666 
L 3169 4666 
L 3169 4134 
L 1269 4134 
L 1269 2991 
Q 1406 3038 1543 3061 
Q 1681 3084 1819 3084 
Q 2600 3084 3056 2656 
Q 3513 2228 3513 1497 
Q 3513 744 3044 326 
Q 2575 -91 1722 -91 
Q 1428 -91 1123 -41 
Q 819 9 494 109 
L 494 744 
Q 775 591 1075 516 
Q 1375 441 1709 441 
Q 2250 441 2565 725 
Q 2881 1009 2881 1497 
Q 2881 1984 2565 2268 
Q 2250 2553 1709 2553 
Q 1456 2553 1204 2497 
Q 953 2441 691 2322 
L 691 4666 
z
" transform="scale(0.015625)"/>
       </defs>
       <use xlink:href="#DejaVuSans-30"/>
       <use xlink:href="#DejaVuSans-2e" transform="translate(63.623047 0)"/>
       <use xlink:href="#DejaVuSans-31" transform="translate(95.410156 0)"/>
       <use xlink:href="#DejaVuSans-35" transform="translate(159.033203 0)"/>
      </g>
     </g>
    </g>
    <g id="ytick_7">
     <g id="line2d_13">
      <g>
       <use xlink:href="#m2e6abdc405" x="54.11" y="106.077258" style="stroke: #000000; stroke-width: 0.8"/>
      </g>
     </g>
     <g id="text_14">
      <!-- 0.16 -->
      <g transform="translate(24.844375 109.876477) scale(0.1 -0.1)">
       <use xlink:href="#DejaVuSans-30"/>
       <use xlink:href="#DejaVuSans-2e" transform="translate(63.623047 0)"/>
       <use xlink:href="#DejaVuSans-31" transform="translate(95.410156 0)"/>
       <use xlink:href="#DejaVuSans-36" transform="translate(159.033203 0)"/>
      </g>
     </g>
    </g>
    <g id="ytick_8">
     <g id="line2d_14">
      <g>
       <use xlink:href="#m2e6abdc405" x="54.11" y="72.058597" style="stroke: #000000; stroke-width: 0.8"/>
      </g>
     </g>
     <g id="text_15">
      <!-- 0.17 -->
      <g transform="translate(24.844375 75.857816) scale(0.1 -0.1)">
       <defs>
        <path id="DejaVuSans-37" d="M 525 4666 
L 3525 4666 
L 3525 4397 
L 1831 0 
L 1172 0 
L 2766 4134 
L 525 4134 
L 525 4666 
z
" transform="scale(0.015625)"/>
       </defs>
       <use xlink:href="#DejaVuSans-30"/>
       <use xlink:href="#DejaVuSans-2e" transform="translate(63.623047 0)"/>
       <use xlink:href="#DejaVuSans-31" transform="translate(95.410156 0)"/>
       <use xlink:href="#DejaVuSans-37" transform="translate(159.033203 0)"/>
      </g>
     </g>
    </g>
    <g id="text_16">
     <!-- GABA fraction -->
     <g transform="translate(18.764687 214.888625) rotate(-90) scale(0.1 -0.1)">
      <defs>
       <path id="DejaVuSans-47" d="M 3809 666 
L 3809 1919 
L 2778 1919 
L 2778 2438 
L 4434 2438 
L 4434 434 
Q 4069 175 3628 42 
Q 3188 -91 2688 -91 
Q 1594 -91 976 548 
Q 359 1188 359 2328 
Q 359 3472 976 4111 
Q 1594 4750 2688 4750 
Q 3144 4750 3555 4637 
Q 3966 4525 4313 4306 
L 4313 3634 
Q 3963 3931 3569 4081 
Q 3175 4231 2741 4231 
Q 1884 4231 1454 3753 
Q 1025 3275 1025 2328 
Q 1025 1384 1454 906 
Q 1884 428 2741 428 
Q 3075 428 3337 486 
Q 3600 544 3809 666 
z
" transform="scale(0.015625)"/>
       <path id="DejaVuSans-41" d="M 2188 4044 
L 1331 1722 
L 3047 1722 
L 2188 4044 
z
M 1831 4666 
L 2547 4666 
L 4325 0 
L 3669 0 
L 3244 1197 
L 1141 1197 
L 716 0 
L 50 0 
L 1831 4666 
z
" transform="scale(0.015625)"/>
       <path id="DejaVuSans-42" d="M 1259 2228 
L 1259 519 
L 2272 519 
Q 2781 519 3026 730 
Q 3272 941 3272 1375 
Q 3272 1813 3026 2020 
Q 2781 2228 2272 2228 
L 1259 2228 
z
M 1259 4147 
L 1259 2741 
L 2194 2741 
Q 2656 2741 2882 2914 
Q 3109 3088 3109 3444 
Q 3109 3797 2882 3972 
Q 2656 4147 2194 4147 
L 1259 4147 
z
M 628 4666 
L 2241 4666 
Q 2963 4666 3353 4366 
Q 3744 4066 3744 3513 
Q 3744 3084 3544 2831 
Q 3344 2578 2956 2516 
Q 3422 2416 3680 2098 
Q 3938 1781 3938 1306 
Q 3938 681 3513 340 
Q 3088 0 2303 0 
L 628 0 
L 628 4666 
z
" transform="scale(0.015625)"/>
       <path id="DejaVuSans-66" d="M 2375 4863 
L 2375 4384 
L 1825 4384 
Q 1516 4384 1395 4259 
Q 1275 4134 1275 3809 
L 1275 3500 
L 2222 3500 
L 2222 3053 
L 1275 3053 
L 1275 0 
L 697 0 
L 697 3053 
L 147 3053 
L 147 3500 
L 697 3500 
L 697 3744 
Q 697 4328 969 4595 
Q 1241 4863 1831 4863 
L 2375 4863 
z
" transform="scale(0.015625)"/>
      </defs>
      <use xlink:href="#DejaVuSans-47"/>
      <use xlink:href="#DejaVuSans-41" transform="translate(77.490234 0)"/>
      <use xlink:href="#DejaVuSans-42" transform="translate(145.898438 0)"/>
      <use xlink:href="#DejaVuSans-41" transform="translate(214.501953 0)"/>
      <use xlink:href="#DejaVuSans-20" transform="translate(282.910156 0)"/>
      <use xlink:href="#DejaVuSans-66" transform="translate(314.697266 0)"/>
      <use xlink:href="#DejaVuSans-72" transform="translate(349.902344 0)"/>
      <use xlink:href="#DejaVuSans-61" transform="translate(391.015625 0)"/>
      <use xlink:href="#DejaVuSans-63" transform="translate(452.294922 0)"/>
      <use xlink:href="#DejaVuSans-74" transform="translate(507.275391 0)"/>
      <use xlink:href="#DejaVuSans-69" transform="translate(546.484375 0)"/>
      <use xlink:href="#DejaVuSans-6f" transform="translate(574.267578 0)"/>
      <use xlink:href="#DejaVuSans-6e" transform="translate(635.449219 0)"/>
     </g>
    </g>
   </g>
   <g id="line2d_15">
    <path d="M 70.872273 196.622081 
L 74.25859 196.096754 
L 77.644908 195.571427 
L 81.031226 195.046101 
L 84.417544 194.520774 
L 87.803861 193.995447 
L 91.190179 193.47012 
L 94.576497 192.944793 
L 97.962815 192.419467 
L 101.349132 191.89414 
L 104.73545 191.368813 
L 108.121768 190.843486 
L 111.508085 190.318159 
L 114.894403 189.792833 
L 118.280721 189.267506 
L 121.667039 188.742179 
L 125.053356 188.216852 
L 128.439674 187.691526 
L 131.825992 187.166199 
L 135.212309 186.640872 
L 138.598627 186.115545 
L 141.984945 185.590218 
L 145.371263 185.064892 
L 148.75758 184.539565 
L 152.143898 184.014238 
L 155.530216 183.488911 
L 158.916534 182.963584 
L 162.302851 182.438258 
L 165.689169 181.912931 
L 169.075487 181.387604 
L 172.461804 180.862277 
L 175.848122 180.336951 
L 179.23444 179.811624 
L 182.620758 179.286297 
L 186.007075 178.76097 
L 189.393393 178.235643 
L 192.779711 177.710317 
L 196.166028 177.18499 
L 199.552346 176.659663 
L 202.938664 176.134336 
L 206.324982 175.60901 
L 209.711299 175.083683 
L 213.097617 174.558356 
L 216.483935 174.033029 
L 219.870253 173.507702 
L 223.25657 172.982376 
L 226.642888 172.457049 
L 230.029206 171.931722 
L 233.415523 171.406395 
L 236.801841 170.881068 
L 240.188159 170.355742 
L 243.574477 169.830415 
L 246.960794 169.305088 
L 250.347112 168.779761 
L 253.73343 168.254435 
L 257.119747 167.729108 
L 260.506065 167.203781 
L 263.892383 166.678454 
L 267.278701 166.153127 
L 270.665018 165.627801 
L 274.051336 165.102474 
L 277.437654 164.577147 
L 280.823972 164.05182 
L 284.210289 163.526494 
L 287.596607 163.001167 
L 290.982925 162.47584 
L 294.369242 161.950513 
L 297.75556 161.425186 
L 301.141878 160.89986 
L 304.528196 160.374533 
L 307.914513 159.849206 
L 311.300831 159.323879 
L 314.687149 158.798552 
L 318.073466 158.273226 
L 321.459784 157.747899 
L 324.846102 157.222572 
L 328.23242 156.697245 
L 331.618737 156.171919 
L 335.005055 155.646592 
L 338.391373 155.121265 
L 341.777691 154.595938 
L 345.164008 154.070611 
L 348.550326 153.545285 
L 351.936644 153.019958 
L 355.322961 152.494631 
L 358.709279 151.969304 
L 362.095597 151.443977 
L 365.481915 150.918651 
L 368.868232 150.393324 
L 372.25455 149.867997 
L 375.640868 149.34267 
L 379.027185 148.817344 
L 382.413503 148.292017 
L 385.799821 147.76669 
L 389.186139 147.241363 
L 392.572456 146.716036 
L 395.958774 146.19071 
L 399.345092 145.665383 
L 402.73141 145.140056 
L 406.117727 144.614729 
" clip-path="url(#pad77cc5c79)" style="fill: none; stroke-dasharray: 5.55,2.4; stroke-dashoffset: 0; stroke: #808080; stroke-opacity: 0.7; stroke-width: 1.5"/>
   </g>
   <g id="patch_3">
    <path d="M 54.11 318.04 
L 54.11 41.856 
" style="fill: none; stroke: #000000; stroke-width: 0.8; stroke-linejoin: miter; stroke-linecap: square"/>
   </g>
   <g id="patch_4">
    <path d="M 422.88 318.04 
L 422.88 41.856 
" style="fill: none; stroke: #000000; stroke-width: 0.8; stroke-linejoin: miter; stroke-linecap: square"/>
   </g>
   <g id="patch_5">
    <path d="M 54.11 318.04 
L 422.88 318.04 
" style="fill: none; stroke: #000000; stroke-width: 0.8; stroke-linejoin: miter; stroke-linecap: square"/>
   </g>
   <g id="patch_6">
    <path d="M 54.11 41.856 
L 422.88 41.856 
" style="fill: none; stroke: #000000; stroke-width: 0.8; stroke-linejoin: miter; stroke-linecap: square"/>
   </g>
   <g id="text_17">
    <!-- ILA5 -->
    <g transform="translate(215.893183 50.409818) scale(0.07 -0.07)">
     <defs>
      <path id="DejaVuSans-49" d="M 628 4666 
L 1259 4666 
L 1259 0 
L 628 0 
L 628 4666 
z
" transform="scale(0.015625)"/>
      <path id="DejaVuSans-4c" d="M 628 4666 
L 1259 4666 
L 1259 531 
L 3531 531 
L 3531 0 
L 628 0 
L 628 4666 
z
" transform="scale(0.015625)"/>
     </defs>
     <use xlink:href="#DejaVuSans-49"/>
     <use xlink:href="#DejaVuSans-4c" transform="translate(29.492188 0)"/>
     <use xlink:href="#DejaVuSans-41" transform="translate(87.455078 0)"/>
     <use xlink:href="#DejaVuSans-35" transform="translate(155.863281 0)"/>
    </g>
   </g>
   <g id="text_18">
    <!-- ILA6a -->
    <g transform="translate(174.06982 147.574608) scale(0.07 -0.07)">
     <use xlink:href="#DejaVuSans-49"/>
     <use xlink:href="#DejaVuSans-4c" transform="translate(29.492188 0)"/>
     <use xlink:href="#DejaVuSans-41" transform="translate(87.455078 0)"/>
     <use xlink:href="#DejaVuSans-36" transform="translate(155.863281 0)"/>
     <use xlink:href="#DejaVuSans-61" transform="translate(219.486328 0)"/>
    </g>
   </g>
   <g id="text_19">
    <!-- ORBl5 -->
    <g transform="translate(150.15903 118.662533) scale(0.07 -0.07)">
     <defs>
      <path id="DejaVuSans-4f" d="M 2522 4238 
Q 1834 4238 1429 3725 
Q 1025 3213 1025 2328 
Q 1025 1447 1429 934 
Q 1834 422 2522 422 
Q 3209 422 3611 934 
Q 4013 1447 4013 2328 
Q 4013 3213 3611 3725 
Q 3209 4238 2522 4238 
z
M 2522 4750 
Q 3503 4750 4090 4092 
Q 4678 3434 4678 2328 
Q 4678 1225 4090 567 
Q 3503 -91 2522 -91 
Q 1538 -91 948 565 
Q 359 1222 359 2328 
Q 359 3434 948 4092 
Q 1538 4750 2522 4750 
z
" transform="scale(0.015625)"/>
      <path id="DejaVuSans-52" d="M 2841 2188 
Q 3044 2119 3236 1894 
Q 3428 1669 3622 1275 
L 4263 0 
L 3584 0 
L 2988 1197 
Q 2756 1666 2539 1819 
Q 2322 1972 1947 1972 
L 1259 1972 
L 1259 0 
L 628 0 
L 628 4666 
L 2053 4666 
Q 2853 4666 3247 4331 
Q 3641 3997 3641 3322 
Q 3641 2881 3436 2590 
Q 3231 2300 2841 2188 
z
M 1259 4147 
L 1259 2491 
L 2053 2491 
Q 2509 2491 2742 2702 
Q 2975 2913 2975 3322 
Q 2975 3731 2742 3939 
Q 2509 4147 2053 4147 
L 1259 4147 
z
" transform="scale(0.015625)"/>
     </defs>
     <use xlink:href="#DejaVuSans-4f"/>
     <use xlink:href="#DejaVuSans-52" transform="translate(78.710938 0)"/>
     <use xlink:href="#DejaVuSans-42" transform="translate(148.193359 0)"/>
     <use xlink:href="#DejaVuSans-6c" transform="translate(216.796875 0)"/>
     <use xlink:href="#DejaVuSans-35" transform="translate(244.580078 0)"/>
    </g>
   </g>
   <g id="text_20">
    <!-- ORBl6a -->
    <g transform="translate(92.899946 243.444138) scale(0.07 -0.07)">
     <use xlink:href="#DejaVuSans-4f"/>
     <use xlink:href="#DejaVuSans-52" transform="translate(78.710938 0)"/>
     <use xlink:href="#DejaVuSans-42" transform="translate(148.193359 0)"/>
     <use xlink:href="#DejaVuSans-6c" transform="translate(216.796875 0)"/>
     <use xlink:href="#DejaVuSans-36" transform="translate(244.580078 0)"/>
     <use xlink:href="#DejaVuSans-61" transform="translate(308.203125 0)"/>
    </g>
   </g>
   <g id="text_21">
    <!-- ORBm5 -->
    <g transform="translate(187.207548 167.553436) scale(0.07 -0.07)">
     <defs>
      <path id="DejaVuSans-6d" d="M 3328 2828 
Q 3544 3216 3844 3400 
Q 4144 3584 4550 3584 
Q 5097 3584 5394 3201 
Q 5691 2819 5691 2113 
L 5691 0 
L 5113 0 
L 5113 2094 
Q 5113 2597 4934 2840 
Q 4756 3084 4391 3084 
Q 3944 3084 3684 2787 
Q 3425 2491 3425 1978 
L 3425 0 
L 2847 0 
L 2847 2094 
Q 2847 2600 2669 2842 
Q 2491 3084 2119 3084 
Q 1678 3084 1418 2786 
Q 1159 2488 1159 1978 
L 1159 0 
L 581 0 
L 581 3500 
L 1159 3500 
L 1159 2956 
Q 1356 3278 1631 3431 
Q 1906 3584 2284 3584 
Q 2666 3584 2933 3390 
Q 3200 3197 3328 2828 
z
" transform="scale(0.015625)"/>
     </defs>
     <use xlink:href="#DejaVuSans-4f"/>
     <use xlink:href="#DejaVuSans-52" transform="translate(78.710938 0)"/>
     <use xlink:href="#DejaVuSans-42" transform="translate(148.193359 0)"/>
     <use xlink:href="#DejaVuSans-6d" transform="translate(216.796875 0)"/>
     <use xlink:href="#DejaVuSans-35" transform="translate(314.208984 0)"/>
    </g>
   </g>
   <g id="text_22">
    <!-- ORBm6a -->
    <g transform="translate(130.293332 223.145239) scale(0.07 -0.07)">
     <use xlink:href="#DejaVuSans-4f"/>
     <use xlink:href="#DejaVuSans-52" transform="translate(78.710938 0)"/>
     <use xlink:href="#DejaVuSans-42" transform="translate(148.193359 0)"/>
     <use xlink:href="#DejaVuSans-6d" transform="translate(216.796875 0)"/>
     <use xlink:href="#DejaVuSans-36" transform="translate(314.208984 0)"/>
     <use xlink:href="#DejaVuSans-61" transform="translate(377.832031 0)"/>
    </g>
   </g>
   <g id="text_23">
    <!-- ORBvl5 -->
    <g transform="translate(245.930525 122.139908) scale(0.07 -0.07)">
     <defs>
      <path id="DejaVuSans-76" d="M 191 3500 
L 800 3500 
L 1894 563 
L 2988 3500 
L 3597 3500 
L 2284 0 
L 1503 0 
L 191 3500 
z
" transform="scale(0.015625)"/>
     </defs>
     <use xlink:href="#DejaVuSans-4f"/>
     <use xlink:href="#DejaVuSans-52" transform="translate(78.710938 0)"/>
     <use xlink:href="#DejaVuSans-42" transform="translate(148.193359 0)"/>
     <use xlink:href="#DejaVuSans-76" transform="translate(216.796875 0)"/>
     <use xlink:href="#DejaVuSans-6c" transform="translate(275.976562 0)"/>
     <use xlink:href="#DejaVuSans-35" transform="translate(303.759766 0)"/>
    </g>
   </g>
   <g id="text_24">
    <!-- ORBvl6a -->
    <g transform="translate(218.162851 301.486182) scale(0.07 -0.07)">
     <use xlink:href="#DejaVuSans-4f"/>
     <use xlink:href="#DejaVuSans-52" transform="translate(78.710938 0)"/>
     <use xlink:href="#DejaVuSans-42" transform="translate(148.193359 0)"/>
     <use xlink:href="#DejaVuSans-76" transform="translate(216.796875 0)"/>
     <use xlink:href="#DejaVuSans-6c" transform="translate(275.976562 0)"/>
     <use xlink:href="#DejaVuSans-36" transform="translate(303.759766 0)"/>
     <use xlink:href="#DejaVuSans-61" transform="translate(367.382812 0)"/>
    </g>
   </g>
   <g id="text_25">
    <!-- PL5 -->
    <g transform="translate(368.527317 55.463453) scale(0.07 -0.07)">
     <use xlink:href="#DejaVuSans-50"/>
     <use xlink:href="#DejaVuSans-4c" transform="translate(60.302734 0)"/>
     <use xlink:href="#DejaVuSans-35" transform="translate(116.015625 0)"/>
    </g>
   </g>
   <g id="text_26">
    <!-- PL6a -->
    <g transform="translate(359.799316 283.155754) scale(0.07 -0.07)">
     <use xlink:href="#DejaVuSans-50"/>
     <use xlink:href="#DejaVuSans-4c" transform="translate(60.302734 0)"/>
     <use xlink:href="#DejaVuSans-36" transform="translate(116.015625 0)"/>
     <use xlink:href="#DejaVuSans-61" transform="translate(179.638672 0)"/>
    </g>
   </g>
   <g id="text_27">
    <!-- Connectivity → Transcriptomics -->
    <g transform="translate(145.00375 22.418625) scale(0.12 -0.12)">
     <defs>
      <path id="DejaVuSans-43" d="M 4122 4306 
L 4122 3641 
Q 3803 3938 3442 4084 
Q 3081 4231 2675 4231 
Q 1875 4231 1450 3742 
Q 1025 3253 1025 2328 
Q 1025 1406 1450 917 
Q 1875 428 2675 428 
Q 3081 428 3442 575 
Q 3803 722 4122 1019 
L 4122 359 
Q 3791 134 3420 21 
Q 3050 -91 2638 -91 
Q 1578 -91 968 557 
Q 359 1206 359 2328 
Q 359 3453 968 4101 
Q 1578 4750 2638 4750 
Q 3056 4750 3426 4639 
Q 3797 4528 4122 4306 
z
" transform="scale(0.015625)"/>
      <path id="DejaVuSans-79" d="M 2059 -325 
Q 1816 -950 1584 -1140 
Q 1353 -1331 966 -1331 
L 506 -1331 
L 506 -850 
L 844 -850 
Q 1081 -850 1212 -737 
Q 1344 -625 1503 -206 
L 1606 56 
L 191 3500 
L 800 3500 
L 1894 763 
L 2988 3500 
L 3597 3500 
L 2059 -325 
z
" transform="scale(0.015625)"/>
      <path id="DejaVuSans-2192" d="M 5050 2147 
L 5050 1866 
L 3822 638 
L 3447 1013 
L 4175 1741 
L 366 1741 
L 366 2272 
L 4175 2272 
L 3447 3000 
L 3822 3375 
L 5050 2147 
z
" transform="scale(0.015625)"/>
      <path id="DejaVuSans-54" d="M -19 4666 
L 3928 4666 
L 3928 4134 
L 2272 4134 
L 2272 0 
L 1638 0 
L 1638 4134 
L -19 4134 
L -19 4666 
z
" transform="scale(0.015625)"/>
      <path id="DejaVuSans-73" d="M 2834 3397 
L 2834 2853 
Q 2591 2978 2328 3040 
Q 2066 3103 1784 3103 
Q 1356 3103 1142 2972 
Q 928 2841 928 2578 
Q 928 2378 1081 2264 
Q 1234 2150 1697 2047 
L 1894 2003 
Q 2506 1872 2764 1633 
Q 3022 1394 3022 966 
Q 3022 478 2636 193 
Q 2250 -91 1575 -91 
Q 1294 -91 989 -36 
Q 684 19 347 128 
L 347 722 
Q 666 556 975 473 
Q 1284 391 1588 391 
Q 1994 391 2212 530 
Q 2431 669 2431 922 
Q 2431 1156 2273 1281 
Q 2116 1406 1581 1522 
L 1381 1569 
Q 847 1681 609 1914 
Q 372 2147 372 2553 
Q 372 3047 722 3315 
Q 1072 3584 1716 3584 
Q 2034 3584 2315 3537 
Q 2597 3491 2834 3397 
z
" transform="scale(0.015625)"/>
     </defs>
     <use xlink:href="#DejaVuSans-43"/>
     <use xlink:href="#DejaVuSans-6f" transform="translate(69.824219 0)"/>
     <use xlink:href="#DejaVuSans-6e" transform="translate(131.005859 0)"/>
     <use xlink:href="#DejaVuSans-6e" transform="translate(194.384766 0)"/>
     <use xlink:href="#DejaVuSans-65" transform="translate(257.763672 0)"/>
     <use xlink:href="#DejaVuSans-63" transform="translate(319.287109 0)"/>
     <use xlink:href="#DejaVuSans-74" transform="translate(374.267578 0)"/>
     <use xlink:href="#DejaVuSans-69" transform="translate(413.476562 0)"/>
     <use xlink:href="#DejaVuSans-76" transform="translate(441.259766 0)"/>
     <use xlink:href="#DejaVuSans-69" transform="translate(500.439453 0)"/>
     <use xlink:href="#DejaVuSans-74" transform="translate(528.222656 0)"/>
     <use xlink:href="#DejaVuSans-79" transform="translate(567.431641 0)"/>
     <use xlink:href="#DejaVuSans-20" transform="translate(626.611328 0)"/>
     <use xlink:href="#DejaVuSans-2192" transform="translate(658.398438 0)"/>
     <use xlink:href="#DejaVuSans-20" transform="translate(742.1875 0)"/>
     <use xlink:href="#DejaVuSans-54" transform="translate(773.974609 0)"/>
     <use xlink:href="#DejaVuSans-72" transform="translate(820.308594 0)"/>
     <use xlink:href="#DejaVuSans-61" transform="translate(861.421875 0)"/>
     <use xlink:href="#DejaVuSans-6e" transform="translate(922.701172 0)"/>
     <use xlink:href="#DejaVuSans-73" transform="translate(986.080078 0)"/>
     <use xlink:href="#DejaVuSans-63" transform="translate(1038.179688 0)"/>
     <use xlink:href="#DejaVuSans-72" transform="translate(1093.160156 0)"/>
     <use xlink:href="#DejaVuSans-69" transform="translate(1134.273438 0)"/>
     <use xlink:href="#DejaVuSans-70" transform="translate(1162.056641 0)"/>
     <use xlink:href="#DejaVuSans-74" transform="translate(1225.533203 0)"/>
     <use xlink:href="#DejaVuSans-6f" transform="translate(1264.742188 0)"/>
     <use xlink:href="#DejaVuSans-6d" transform="translate(1325.923828 0)"/>
     <use xlink:href="#DejaVuSans-69" transform="translate(1423.335938 0)"/>
     <use xlink:href="#DejaVuSans-63" transform="translate(1451.119141 0)"/>
     <use xlink:href="#DejaVuSans-73" transform="translate(1506.099609 0)"/>
    </g>
    <!-- ρ = 0.152, p = 0.676 -->
    <g transform="translate(175.02625 35.856) scale(0.12 -0.12)">
     <defs>
      <path id="DejaVuSans-3c1" d="M 863 2875 
Q 1053 3194 1525 3475 
Q 1709 3584 2278 3584 
Q 2916 3584 3314 3078 
Q 3713 2572 3713 1747 
Q 3713 922 3314 415 
Q 2916 -91 2278 -91 
Q 1894 -91 1617 61 
Q 1341 213 1159 525 
L 1159 -1331 
L 581 -1331 
L 581 1716 
Q 581 2438 863 2875 
z
M 3116 1747 
Q 3116 2381 2855 2742 
Q 2594 3103 2138 3103 
Q 1681 3103 1420 2742 
Q 1159 2381 1159 1747 
Q 1159 1113 1420 752 
Q 1681 391 2138 391 
Q 2594 391 2855 752 
Q 3116 1113 3116 1747 
z
" transform="scale(0.015625)"/>
      <path id="DejaVuSans-3d" d="M 678 2906 
L 4684 2906 
L 4684 2381 
L 678 2381 
L 678 2906 
z
M 678 1631 
L 4684 1631 
L 4684 1100 
L 678 1100 
L 678 1631 
z
" transform="scale(0.015625)"/>
      <path id="DejaVuSans-2c" d="M 750 794 
L 1409 794 
L 1409 256 
L 897 -744 
L 494 -744 
L 750 256 
L 750 794 
z
" transform="scale(0.015625)"/>
     </defs>
     <use xlink:href="#DejaVuSans-3c1"/>
     <use xlink:href="#DejaVuSans-20" transform="translate(63.476562 0)"/>
     <use xlink:href="#DejaVuSans-3d" transform="translate(95.263672 0)"/>
     <use xlink:href="#DejaVuSans-20" transform="translate(179.052734 0)"/>
     <use xlink:href="#DejaVuSans-30" transform="translate(210.839844 0)"/>
     <use xlink:href="#DejaVuSans-2e" transform="translate(274.462891 0)"/>
     <use xlink:href="#DejaVuSans-31" transform="translate(306.25 0)"/>
     <use xlink:href="#DejaVuSans-35" transform="translate(369.873047 0)"/>
     <use xlink:href="#DejaVuSans-32" transform="translate(433.496094 0)"/>
     <use xlink:href="#DejaVuSans-2c" transform="translate(497.119141 0)"/>
     <use xlink:href="#DejaVuSans-20" transform="translate(528.90625 0)"/>
     <use xlink:href="#DejaVuSans-70" transform="translate(560.693359 0)"/>
     <use xlink:href="#DejaVuSans-20" transform="translate(624.169922 0)"/>
     <use xlink:href="#DejaVuSans-3d" transform="translate(655.957031 0)"/>
     <use xlink:href="#DejaVuSans-20" transform="translate(739.746094 0)"/>
     <use xlink:href="#DejaVuSans-30" transform="translate(771.533203 0)"/>
     <use xlink:href="#DejaVuSans-2e" transform="translate(835.15625 0)"/>
     <use xlink:href="#DejaVuSans-36" transform="translate(866.943359 0)"/>
     <use xlink:href="#DejaVuSans-37" transform="translate(930.566406 0)"/>
     <use xlink:href="#DejaVuSans-36" transform="translate(994.189453 0)"/>
    </g>
   </g>
   <g id="PathCollection_1">
    <defs>
     <path id="m277c20cb89" d="M 0 5.477226 
C 1.452577 5.477226 2.845856 4.900111 3.872983 3.872983 
C 4.900111 2.845856 5.477226 1.452577 5.477226 0 
C 5.477226 -1.452577 4.900111 -2.845856 3.872983 -3.872983 
C 2.845856 -4.900111 1.452577 -5.477226 0 -5.477226 
C -1.452577 -5.477226 -2.845856 -4.900111 -3.872983 -3.872983 
C -4.900111 -2.845856 -5.477226 -1.452577 -5.477226 0 
C -5.477226 1.452577 -4.900111 2.845856 -3.872983 3.872983 
C -2.845856 4.900111 -1.452577 5.477226 0 5.477226 
z
" style="stroke: #000000; stroke-width: 0.8"/>
    </defs>
    <g clip-path="url(#pad77cc5c79)">
     <use xlink:href="#m277c20cb89" x="209.893183" y="54.409818" style="fill: #1f77b4; stroke: #000000; stroke-width: 0.8"/>
     <use xlink:href="#m277c20cb89" x="168.06982" y="151.574608" style="fill: #1f77b4; stroke: #000000; stroke-width: 0.8"/>
     <use xlink:href="#m277c20cb89" x="144.15903" y="122.662533" style="fill: #1f77b4; stroke: #000000; stroke-width: 0.8"/>
     <use xlink:href="#m277c20cb89" x="86.899946" y="247.444138" style="fill: #1f77b4; stroke: #000000; stroke-width: 0.8"/>
     <use xlink:href="#m277c20cb89" x="181.207548" y="171.553436" style="fill: #1f77b4; stroke: #000000; stroke-width: 0.8"/>
     <use xlink:href="#m277c20cb89" x="124.293332" y="227.145239" style="fill: #1f77b4; stroke: #000000; stroke-width: 0.8"/>
     <use xlink:href="#m277c20cb89" x="239.930525" y="126.139908" style="fill: #1f77b4; stroke: #000000; stroke-width: 0.8"/>
     <use xlink:href="#m277c20cb89" x="212.162851" y="305.486182" style="fill: #1f77b4; stroke: #000000; stroke-width: 0.8"/>
     <use xlink:href="#m277c20cb89" x="362.527317" y="59.463453" style="fill: #1f77b4; stroke: #000000; stroke-width: 0.8"/>
     <use xlink:href="#m277c20cb89" x="353.799316" y="287.155754" style="fill: #1f77b4; stroke: #000000; stroke-width: 0.8"/>
    </g>
   </g>
  </g>
  <g id="axes_2">
   <g id="patch_7">
    <path d="M 485.27 318.04 
L 854.04 318.04 
L 854.04 41.856 
L 485.27 41.856 
z
" style="fill: #ffffff"/>
   </g>
   <g id="matplotlib.axis_3">
    <g id="xtick_7">
     <g id="line2d_16">
      <g>
       <use xlink:href="#m7980bc9a4f" x="530.96245" y="318.04" style="stroke: #000000; stroke-width: 0.8"/>
      </g>
     </g>
     <g id="text_28">
      <!-- 0.10 -->
      <g transform="translate(519.829637 332.638438) scale(0.1 -0.1)">
       <use xlink:href="#DejaVuSans-30"/>
       <use xlink:href="#DejaVuSans-2e" transform="translate(63.623047 0)"/>
       <use xlink:href="#DejaVuSans-31" transform="translate(95.410156 0)"/>
       <use xlink:href="#DejaVuSans-30" transform="translate(159.033203 0)"/>
      </g>
     </g>
    </g>
    <g id="xtick_8">
     <g id="line2d_17">
      <g>
       <use xlink:href="#m7980bc9a4f" x="597.045064" y="318.04" style="stroke: #000000; stroke-width: 0.8"/>
      </g>
     </g>
     <g id="text_29">
      <!-- 0.12 -->
      <g transform="translate(585.912252 332.638438) scale(0.1 -0.1)">
       <use xlink:href="#DejaVuSans-30"/>
       <use xlink:href="#DejaVuSans-2e" transform="translate(63.623047 0)"/>
       <use xlink:href="#DejaVuSans-31" transform="translate(95.410156 0)"/>
       <use xlink:href="#DejaVuSans-32" transform="translate(159.033203 0)"/>
      </g>
     </g>
    </g>
    <g id="xtick_9">
     <g id="line2d_18">
      <g>
       <use xlink:href="#m7980bc9a4f" x="663.127679" y="318.04" style="stroke: #000000; stroke-width: 0.8"/>
      </g>
     </g>
     <g id="text_30">
      <!-- 0.14 -->
      <g transform="translate(651.994866 332.638438) scale(0.1 -0.1)">
       <use xlink:href="#DejaVuSans-30"/>
       <use xlink:href="#DejaVuSans-2e" transform="translate(63.623047 0)"/>
       <use xlink:href="#DejaVuSans-31" transform="translate(95.410156 0)"/>
       <use xlink:href="#DejaVuSans-34" transform="translate(159.033203 0)"/>
      </g>
     </g>
    </g>
    <g id="xtick_10">
     <g id="line2d_19">
      <g>
       <use xlink:href="#m7980bc9a4f" x="729.210294" y="318.04" style="stroke: #000000; stroke-width: 0.8"/>
      </g>
     </g>
     <g id="text_31">
      <!-- 0.16 -->
      <g transform="translate(718.077481 332.638438) scale(0.1 -0.1)">
       <use xlink:href="#DejaVuSans-30"/>
       <use xlink:href="#DejaVuSans-2e" transform="translate(63.623047 0)"/>
       <use xlink:href="#DejaVuSans-31" transform="translate(95.410156 0)"/>
       <use xlink:href="#DejaVuSans-36" transform="translate(159.033203 0)"/>
      </g>
     </g>
    </g>
    <g id="xtick_11">
     <g id="line2d_20">
      <g>
       <use xlink:href="#m7980bc9a4f" x="795.292908" y="318.04" style="stroke: #000000; stroke-width: 0.8"/>
      </g>
     </g>
     <g id="text_32">
      <!-- 0.18 -->
      <g transform="translate(784.160096 332.638438) scale(0.1 -0.1)">
       <use xlink:href="#DejaVuSans-30"/>
       <use xlink:href="#DejaVuSans-2e" transform="translate(63.623047 0)"/>
       <use xlink:href="#DejaVuSans-31" transform="translate(95.410156 0)"/>
       <use xlink:href="#DejaVuSans-38" transform="translate(159.033203 0)"/>
      </g>
     </g>
    </g>
    <g id="text_33">
     <!-- GABA fraction -->
     <g transform="translate(634.714375 346.316563) scale(0.1 -0.1)">
      <use xlink:href="#DejaVuSans-47"/>
      <use xlink:href="#DejaVuSans-41" transform="translate(77.490234 0)"/>
      <use xlink:href="#DejaVuSans-42" transform="translate(145.898438 0)"/>
      <use xlink:href="#DejaVuSans-41" transform="translate(214.501953 0)"/>
      <use xlink:href="#DejaVuSans-20" transform="translate(282.910156 0)"/>
      <use xlink:href="#DejaVuSans-66" transform="translate(314.697266 0)"/>
      <use xlink:href="#DejaVuSans-72" transform="translate(349.902344 0)"/>
      <use xlink:href="#DejaVuSans-61" transform="translate(391.015625 0)"/>
      <use xlink:href="#DejaVuSans-63" transform="translate(452.294922 0)"/>
      <use xlink:href="#DejaVuSans-74" transform="translate(507.275391 0)"/>
      <use xlink:href="#DejaVuSans-69" transform="translate(546.484375 0)"/>
      <use xlink:href="#DejaVuSans-6f" transform="translate(574.267578 0)"/>
      <use xlink:href="#DejaVuSans-6e" transform="translate(635.449219 0)"/>
     </g>
    </g>
   </g>
   <g id="matplotlib.axis_4">
    <g id="ytick_9">
     <g id="line2d_21">
      <g>
       <use xlink:href="#m2e6abdc405" x="485.27" y="298.535794" style="stroke: #000000; stroke-width: 0.8"/>
      </g>
     </g>
     <g id="text_34">
      <!-- −0.08 -->
      <g transform="translate(447.624688 302.335013) scale(0.1 -0.1)">
       <defs>
        <path id="DejaVuSans-2212" d="M 678 2272 
L 4684 2272 
L 4684 1741 
L 678 1741 
L 678 2272 
z
" transform="scale(0.015625)"/>
       </defs>
       <use xlink:href="#DejaVuSans-2212"/>
       <use xlink:href="#DejaVuSans-30" transform="translate(83.789062 0)"/>
       <use xlink:href="#DejaVuSans-2e" transform="translate(147.412109 0)"/>
       <use xlink:href="#DejaVuSans-30" transform="translate(179.199219 0)"/>
       <use xlink:href="#DejaVuSans-38" transform="translate(242.822266 0)"/>
      </g>
     </g>
    </g>
    <g id="ytick_10">
     <g id="line2d_22">
      <g>
       <use xlink:href="#m2e6abdc405" x="485.27" y="247.106681" style="stroke: #000000; stroke-width: 0.8"/>
      </g>
     </g>
     <g id="text_35">
      <!-- −0.06 -->
      <g transform="translate(447.624688 250.9059) scale(0.1 -0.1)">
       <use xlink:href="#DejaVuSans-2212"/>
       <use xlink:href="#DejaVuSans-30" transform="translate(83.789062 0)"/>
       <use xlink:href="#DejaVuSans-2e" transform="translate(147.412109 0)"/>
       <use xlink:href="#DejaVuSans-30" transform="translate(179.199219 0)"/>
       <use xlink:href="#DejaVuSans-36" transform="translate(242.822266 0)"/>
      </g>
     </g>
    </g>
    <g id="ytick_11">
     <g id="line2d_23">
      <g>
       <use xlink:href="#m2e6abdc405" x="485.27" y="195.677568" style="stroke: #000000; stroke-width: 0.8"/>
      </g>
     </g>
     <g id="text_36">
      <!-- −0.04 -->
      <g transform="translate(447.624688 199.476787) scale(0.1 -0.1)">
       <use xlink:href="#DejaVuSans-2212"/>
       <use xlink:href="#DejaVuSans-30" transform="translate(83.789062 0)"/>
       <use xlink:href="#DejaVuSans-2e" transform="translate(147.412109 0)"/>
       <use xlink:href="#DejaVuSans-30" transform="translate(179.199219 0)"/>
       <use xlink:href="#DejaVuSans-34" transform="translate(242.822266 0)"/>
      </g>
     </g>
    </g>
    <g id="ytick_12">
     <g id="line2d_24">
      <g>
       <use xlink:href="#m2e6abdc405" x="485.27" y="144.248455" style="stroke: #000000; stroke-width: 0.8"/>
      </g>
     </g>
     <g id="text_37">
      <!-- −0.02 -->
      <g transform="translate(447.624688 148.047674) scale(0.1 -0.1)">
       <use xlink:href="#DejaVuSans-2212"/>
       <use xlink:href="#DejaVuSans-30" transform="translate(83.789062 0)"/>
       <use xlink:href="#DejaVuSans-2e" transform="translate(147.412109 0)"/>
       <use xlink:href="#DejaVuSans-30" transform="translate(179.199219 0)"/>
       <use xlink:href="#DejaVuSans-32" transform="translate(242.822266 0)"/>
      </g>
     </g>
    </g>
    <g id="ytick_13">
     <g id="line2d_25">
      <g>
       <use xlink:href="#m2e6abdc405" x="485.27" y="92.819342" style="stroke: #000000; stroke-width: 0.8"/>
      </g>
     </g>
     <g id="text_38">
      <!-- 0.00 -->
      <g transform="translate(456.004375 96.618561) scale(0.1 -0.1)">
       <use xlink:href="#DejaVuSans-30"/>
       <use xlink:href="#DejaVuSans-2e" transform="translate(63.623047 0)"/>
       <use xlink:href="#DejaVuSans-30" transform="translate(95.410156 0)"/>
       <use xlink:href="#DejaVuSans-30" transform="translate(159.033203 0)"/>
      </g>
     </g>
    </g>
    <g id="text_39">
     <!-- Mean burst index -->
     <g transform="translate(441.545 223.393313) rotate(-90) scale(0.1 -0.1)">
      <defs>
       <path id="DejaVuSans-4d" d="M 628 4666 
L 1569 4666 
L 2759 1491 
L 3956 4666 
L 4897 4666 
L 4897 0 
L 4281 0 
L 4281 4097 
L 3078 897 
L 2444 897 
L 1241 4097 
L 1241 0 
L 628 0 
L 628 4666 
z
" transform="scale(0.015625)"/>
       <path id="DejaVuSans-62" d="M 3116 1747 
Q 3116 2381 2855 2742 
Q 2594 3103 2138 3103 
Q 1681 3103 1420 2742 
Q 1159 2381 1159 1747 
Q 1159 1113 1420 752 
Q 1681 391 2138 391 
Q 2594 391 2855 752 
Q 3116 1113 3116 1747 
z
M 1159 2969 
Q 1341 3281 1617 3432 
Q 1894 3584 2278 3584 
Q 2916 3584 3314 3078 
Q 3713 2572 3713 1747 
Q 3713 922 3314 415 
Q 2916 -91 2278 -91 
Q 1894 -91 1617 61 
Q 1341 213 1159 525 
L 1159 0 
L 581 0 
L 581 4863 
L 1159 4863 
L 1159 2969 
z
" transform="scale(0.015625)"/>
       <path id="DejaVuSans-75" d="M 544 1381 
L 544 3500 
L 1119 3500 
L 1119 1403 
Q 1119 906 1312 657 
Q 1506 409 1894 409 
Q 2359 409 2629 706 
Q 2900 1003 2900 1516 
L 2900 3500 
L 3475 3500 
L 3475 0 
L 2900 0 
L 2900 538 
Q 2691 219 2414 64 
Q 2138 -91 1772 -91 
Q 1169 -91 856 284 
Q 544 659 544 1381 
z
M 1991 3584 
L 1991 3584 
z
" transform="scale(0.015625)"/>
       <path id="DejaVuSans-64" d="M 2906 2969 
L 2906 4863 
L 3481 4863 
L 3481 0 
L 2906 0 
L 2906 525 
Q 2725 213 2448 61 
Q 2172 -91 1784 -91 
Q 1150 -91 751 415 
Q 353 922 353 1747 
Q 353 2572 751 3078 
Q 1150 3584 1784 3584 
Q 2172 3584 2448 3432 
Q 2725 3281 2906 2969 
z
M 947 1747 
Q 947 1113 1208 752 
Q 1469 391 1925 391 
Q 2381 391 2643 752 
Q 2906 1113 2906 1747 
Q 2906 2381 2643 2742 
Q 2381 3103 1925 3103 
Q 1469 3103 1208 2742 
Q 947 2381 947 1747 
z
" transform="scale(0.015625)"/>
       <path id="DejaVuSans-78" d="M 3513 3500 
L 2247 1797 
L 3578 0 
L 2900 0 
L 1881 1375 
L 863 0 
L 184 0 
L 1544 1831 
L 300 3500 
L 978 3500 
L 1906 2253 
L 2834 3500 
L 3513 3500 
z
" transform="scale(0.015625)"/>
      </defs>
      <use xlink:href="#DejaVuSans-4d"/>
      <use xlink:href="#DejaVuSans-65" transform="translate(86.279297 0)"/>
      <use xlink:href="#DejaVuSans-61" transform="translate(147.802734 0)"/>
      <use xlink:href="#DejaVuSans-6e" transform="translate(209.082031 0)"/>
      <use xlink:href="#DejaVuSans-20" transform="translate(272.460938 0)"/>
      <use xlink:href="#DejaVuSans-62" transform="translate(304.248047 0)"/>
      <use xlink:href="#DejaVuSans-75" transform="translate(367.724609 0)"/>
      <use xlink:href="#DejaVuSans-72" transform="translate(431.103516 0)"/>
      <use xlink:href="#DejaVuSans-73" transform="translate(472.216797 0)"/>
      <use xlink:href="#DejaVuSans-74" transform="translate(524.316406 0)"/>
      <use xlink:href="#DejaVuSans-20" transform="translate(563.525391 0)"/>
      <use xlink:href="#DejaVuSans-69" transform="translate(595.3125 0)"/>
      <use xlink:href="#DejaVuSans-6e" transform="translate(623.095703 0)"/>
      <use xlink:href="#DejaVuSans-64" transform="translate(686.474609 0)"/>
      <use xlink:href="#DejaVuSans-65" transform="translate(749.951172 0)"/>
      <use xlink:href="#DejaVuSans-78" transform="translate(809.724609 0)"/>
     </g>
    </g>
   </g>
   <g id="line2d_26">
    <path d="M 502.032273 191.001946 
L 505.41859 191.408675 
L 508.804908 191.815405 
L 512.191226 192.222134 
L 515.577544 192.628863 
L 518.963861 193.035593 
L 522.350179 193.442322 
L 525.736497 193.849052 
L 529.122815 194.255781 
L 532.509132 194.66251 
L 535.89545 195.06924 
L 539.281768 195.475969 
L 542.668085 195.882699 
L 546.054403 196.289428 
L 549.440721 196.696158 
L 552.827039 197.102887 
L 556.213356 197.509616 
L 559.599674 197.916346 
L 562.985992 198.323075 
L 566.372309 198.729805 
L 569.758627 199.136534 
L 573.144945 199.543263 
L 576.531263 199.949993 
L 579.91758 200.356722 
L 583.303898 200.763452 
L 586.690216 201.170181 
L 590.076534 201.576911 
L 593.462851 201.98364 
L 596.849169 202.390369 
L 600.235487 202.797099 
L 603.621804 203.203828 
L 607.008122 203.610558 
L 610.39444 204.017287 
L 613.780758 204.424016 
L 617.167075 204.830746 
L 620.553393 205.237475 
L 623.939711 205.644205 
L 627.326028 206.050934 
L 630.712346 206.457664 
L 634.098664 206.864393 
L 637.484982 207.271122 
L 640.871299 207.677852 
L 644.257617 208.084581 
L 647.643935 208.491311 
L 651.030253 208.89804 
L 654.41657 209.304769 
L 657.802888 209.711499 
L 661.189206 210.118228 
L 664.575523 210.524958 
L 667.961841 210.931687 
L 671.348159 211.338416 
L 674.734477 211.745146 
L 678.120794 212.151875 
L 681.507112 212.558605 
L 684.89343 212.965334 
L 688.279747 213.372064 
L 691.666065 213.778793 
L 695.052383 214.185522 
L 698.438701 214.592252 
L 701.825018 214.998981 
L 705.211336 215.405711 
L 708.597654 215.81244 
L 711.983972 216.219169 
L 715.370289 216.625899 
L 718.756607 217.032628 
L 722.142925 217.439358 
L 725.529242 217.846087 
L 728.91556 218.252817 
L 732.301878 218.659546 
L 735.688196 219.066275 
L 739.074513 219.473005 
L 742.460831 219.879734 
L 745.847149 220.286464 
L 749.233466 220.693193 
L 752.619784 221.099922 
L 756.006102 221.506652 
L 759.39242 221.913381 
L 762.778737 222.320111 
L 766.165055 222.72684 
L 769.551373 223.13357 
L 772.937691 223.540299 
L 776.324008 223.947028 
L 779.710326 224.353758 
L 783.096644 224.760487 
L 786.482961 225.167217 
L 789.869279 225.573946 
L 793.255597 225.980675 
L 796.641915 226.387405 
L 800.028232 226.794134 
L 803.41455 227.200864 
L 806.800868 227.607593 
L 810.187185 228.014323 
L 813.573503 228.421052 
L 816.959821 228.827781 
L 820.346139 229.234511 
L 823.732456 229.64124 
L 827.118774 230.04797 
L 830.505092 230.454699 
L 833.89141 230.861428 
L 837.277727 231.268158 
" clip-path="url(#p217f365fac)" style="fill: none; stroke-dasharray: 5.55,2.4; stroke-dashoffset: 0; stroke: #808080; stroke-opacity: 0.7; stroke-width: 1.5"/>
   </g>
   <g id="patch_8">
    <path d="M 485.27 318.04 
L 485.27 41.856 
" style="fill: none; stroke: #000000; stroke-width: 0.8; stroke-linejoin: miter; stroke-linecap: square"/>
   </g>
   <g id="patch_9">
    <path d="M 854.04 318.04 
L 854.04 41.856 
" style="fill: none; stroke: #000000; stroke-width: 0.8; stroke-linejoin: miter; stroke-linecap: square"/>
   </g>
   <g id="patch_10">
    <path d="M 485.27 318.04 
L 854.04 318.04 
" style="fill: none; stroke: #000000; stroke-width: 0.8; stroke-linejoin: miter; stroke-linecap: square"/>
   </g>
   <g id="patch_11">
    <path d="M 485.27 41.856 
L 854.04 41.856 
" style="fill: none; stroke: #000000; stroke-width: 0.8; stroke-linejoin: miter; stroke-linecap: square"/>
   </g>
   <g id="text_40">
    <!-- ILA5 -->
    <g transform="translate(785.393332 294.588795) scale(0.07 -0.07)">
     <use xlink:href="#DejaVuSans-49"/>
     <use xlink:href="#DejaVuSans-4c" transform="translate(29.492188 0)"/>
     <use xlink:href="#DejaVuSans-41" transform="translate(87.455078 0)"/>
     <use xlink:href="#DejaVuSans-35" transform="translate(155.863281 0)"/>
    </g>
   </g>
   <g id="text_41">
    <!-- ILA6a -->
    <g transform="translate(691.020079 301.486182) scale(0.07 -0.07)">
     <use xlink:href="#DejaVuSans-49"/>
     <use xlink:href="#DejaVuSans-4c" transform="translate(29.492188 0)"/>
     <use xlink:href="#DejaVuSans-41" transform="translate(87.455078 0)"/>
     <use xlink:href="#DejaVuSans-36" transform="translate(155.863281 0)"/>
     <use xlink:href="#DejaVuSans-61" transform="translate(219.486328 0)"/>
    </g>
   </g>
   <g id="text_42">
    <!-- ORBl5 -->
    <g transform="translate(719.101512 50.409818) scale(0.07 -0.07)">
     <use xlink:href="#DejaVuSans-4f"/>
     <use xlink:href="#DejaVuSans-52" transform="translate(78.710938 0)"/>
     <use xlink:href="#DejaVuSans-42" transform="translate(148.193359 0)"/>
     <use xlink:href="#DejaVuSans-6c" transform="translate(216.796875 0)"/>
     <use xlink:href="#DejaVuSans-35" transform="translate(244.580078 0)"/>
    </g>
   </g>
   <g id="text_43">
    <!-- ORBl6a -->
    <g transform="translate(597.904873 121.386884) scale(0.07 -0.07)">
     <use xlink:href="#DejaVuSans-4f"/>
     <use xlink:href="#DejaVuSans-52" transform="translate(78.710938 0)"/>
     <use xlink:href="#DejaVuSans-42" transform="translate(148.193359 0)"/>
     <use xlink:href="#DejaVuSans-6c" transform="translate(216.796875 0)"/>
     <use xlink:href="#DejaVuSans-36" transform="translate(244.580078 0)"/>
     <use xlink:href="#DejaVuSans-61" transform="translate(308.203125 0)"/>
    </g>
   </g>
   <g id="text_44">
    <!-- ORBm5 -->
    <g transform="translate(671.615241 184.030259) scale(0.07 -0.07)">
     <use xlink:href="#DejaVuSans-4f"/>
     <use xlink:href="#DejaVuSans-52" transform="translate(78.710938 0)"/>
     <use xlink:href="#DejaVuSans-42" transform="translate(148.193359 0)"/>
     <use xlink:href="#DejaVuSans-6d" transform="translate(216.796875 0)"/>
     <use xlink:href="#DejaVuSans-35" transform="translate(314.208984 0)"/>
    </g>
   </g>
   <g id="text_45">
    <!-- ORBm6a -->
    <g transform="translate(617.620586 218.146874) scale(0.07 -0.07)">
     <use xlink:href="#DejaVuSans-4f"/>
     <use xlink:href="#DejaVuSans-52" transform="translate(78.710938 0)"/>
     <use xlink:href="#DejaVuSans-42" transform="translate(148.193359 0)"/>
     <use xlink:href="#DejaVuSans-6d" transform="translate(216.796875 0)"/>
     <use xlink:href="#DejaVuSans-36" transform="translate(314.208984 0)"/>
     <use xlink:href="#DejaVuSans-61" transform="translate(377.832031 0)"/>
    </g>
   </g>
   <g id="text_46">
    <!-- ORBvl5 -->
    <g transform="translate(715.724042 155.251565) scale(0.07 -0.07)">
     <use xlink:href="#DejaVuSans-4f"/>
     <use xlink:href="#DejaVuSans-52" transform="translate(78.710938 0)"/>
     <use xlink:href="#DejaVuSans-42" transform="translate(148.193359 0)"/>
     <use xlink:href="#DejaVuSans-76" transform="translate(216.796875 0)"/>
     <use xlink:href="#DejaVuSans-6c" transform="translate(275.976562 0)"/>
     <use xlink:href="#DejaVuSans-35" transform="translate(303.759766 0)"/>
    </g>
   </g>
   <g id="text_47">
    <!-- ORBvl6a -->
    <g transform="translate(541.530372 244.116171) scale(0.07 -0.07)">
     <use xlink:href="#DejaVuSans-4f"/>
     <use xlink:href="#DejaVuSans-52" transform="translate(78.710938 0)"/>
     <use xlink:href="#DejaVuSans-42" transform="translate(148.193359 0)"/>
     <use xlink:href="#DejaVuSans-76" transform="translate(216.796875 0)"/>
     <use xlink:href="#DejaVuSans-6c" transform="translate(275.976562 0)"/>
     <use xlink:href="#DejaVuSans-36" transform="translate(303.759766 0)"/>
     <use xlink:href="#DejaVuSans-61" transform="translate(367.382812 0)"/>
    </g>
   </g>
   <g id="text_48">
    <!-- PL5 -->
    <g transform="translate(780.484888 270.154237) scale(0.07 -0.07)">
     <use xlink:href="#DejaVuSans-50"/>
     <use xlink:href="#DejaVuSans-4c" transform="translate(60.302734 0)"/>
     <use xlink:href="#DejaVuSans-35" transform="translate(116.015625 0)"/>
    </g>
   </g>
   <g id="text_49">
    <!-- PL6a -->
    <g transform="translate(559.334168 222.552801) scale(0.07 -0.07)">
     <use xlink:href="#DejaVuSans-50"/>
     <use xlink:href="#DejaVuSans-4c" transform="translate(60.302734 0)"/>
     <use xlink:href="#DejaVuSans-36" transform="translate(116.015625 0)"/>
     <use xlink:href="#DejaVuSans-61" transform="translate(179.638672 0)"/>
    </g>
   </g>
   <g id="text_50">
    <!-- Transcriptomics → Electrophysiology -->
    <g transform="translate(560.632187 22.418625) scale(0.12 -0.12)">
     <defs>
      <path id="DejaVuSans-45" d="M 628 4666 
L 3578 4666 
L 3578 4134 
L 1259 4134 
L 1259 2753 
L 3481 2753 
L 3481 2222 
L 1259 2222 
L 1259 531 
L 3634 531 
L 3634 0 
L 628 0 
L 628 4666 
z
" transform="scale(0.015625)"/>
      <path id="DejaVuSans-68" d="M 3513 2113 
L 3513 0 
L 2938 0 
L 2938 2094 
Q 2938 2591 2744 2837 
Q 2550 3084 2163 3084 
Q 1697 3084 1428 2787 
Q 1159 2491 1159 1978 
L 1159 0 
L 581 0 
L 581 4863 
L 1159 4863 
L 1159 2956 
Q 1366 3272 1645 3428 
Q 1925 3584 2291 3584 
Q 2894 3584 3203 3211 
Q 3513 2838 3513 2113 
z
" transform="scale(0.015625)"/>
      <path id="DejaVuSans-67" d="M 2906 1791 
Q 2906 2416 2648 2759 
Q 2391 3103 1925 3103 
Q 1463 3103 1205 2759 
Q 947 2416 947 1791 
Q 947 1169 1205 825 
Q 1463 481 1925 481 
Q 2391 481 2648 825 
Q 2906 1169 2906 1791 
z
M 3481 434 
Q 3481 -459 3084 -895 
Q 2688 -1331 1869 -1331 
Q 1566 -1331 1297 -1286 
Q 1028 -1241 775 -1147 
L 775 -588 
Q 1028 -725 1275 -790 
Q 1522 -856 1778 -856 
Q 2344 -856 2625 -561 
Q 2906 -266 2906 331 
L 2906 616 
Q 2728 306 2450 153 
Q 2172 0 1784 0 
Q 1141 0 747 490 
Q 353 981 353 1791 
Q 353 2603 747 3093 
Q 1141 3584 1784 3584 
Q 2172 3584 2450 3431 
Q 2728 3278 2906 2969 
L 2906 3500 
L 3481 3500 
L 3481 434 
z
" transform="scale(0.015625)"/>
     </defs>
     <use xlink:href="#DejaVuSans-54"/>
     <use xlink:href="#DejaVuSans-72" transform="translate(46.333984 0)"/>
     <use xlink:href="#DejaVuSans-61" transform="translate(87.447266 0)"/>
     <use xlink:href="#DejaVuSans-6e" transform="translate(148.726562 0)"/>
     <use xlink:href="#DejaVuSans-73" transform="translate(212.105469 0)"/>
     <use xlink:href="#DejaVuSans-63" transform="translate(264.205078 0)"/>
     <use xlink:href="#DejaVuSans-72" transform="translate(319.185547 0)"/>
     <use xlink:href="#DejaVuSans-69" transform="translate(360.298828 0)"/>
     <use xlink:href="#DejaVuSans-70" transform="translate(388.082031 0)"/>
     <use xlink:href="#DejaVuSans-74" transform="translate(451.558594 0)"/>
     <use xlink:href="#DejaVuSans-6f" transform="translate(490.767578 0)"/>
     <use xlink:href="#DejaVuSans-6d" transform="translate(551.949219 0)"/>
     <use xlink:href="#DejaVuSans-69" transform="translate(649.361328 0)"/>
     <use xlink:href="#DejaVuSans-63" transform="translate(677.144531 0)"/>
     <use xlink:href="#DejaVuSans-73" transform="translate(732.125 0)"/>
     <use xlink:href="#DejaVuSans-20" transform="translate(784.224609 0)"/>
     <use xlink:href="#DejaVuSans-2192" transform="translate(816.011719 0)"/>
     <use xlink:href="#DejaVuSans-20" transform="translate(899.800781 0)"/>
     <use xlink:href="#DejaVuSans-45" transform="translate(931.587891 0)"/>
     <use xlink:href="#DejaVuSans-6c" transform="translate(994.771484 0)"/>
     <use xlink:href="#DejaVuSans-65" transform="translate(1022.554688 0)"/>
     <use xlink:href="#DejaVuSans-63" transform="translate(1084.078125 0)"/>
     <use xlink:href="#DejaVuSans-74" transform="translate(1139.058594 0)"/>
     <use xlink:href="#DejaVuSans-72" transform="translate(1178.267578 0)"/>
     <use xlink:href="#DejaVuSans-6f" transform="translate(1217.130859 0)"/>
     <use xlink:href="#DejaVuSans-70" transform="translate(1278.3125 0)"/>
     <use xlink:href="#DejaVuSans-68" transform="translate(1341.789062 0)"/>
     <use xlink:href="#DejaVuSans-79" transform="translate(1405.167969 0)"/>
     <use xlink:href="#DejaVuSans-73" transform="translate(1464.347656 0)"/>
     <use xlink:href="#DejaVuSans-69" transform="translate(1516.447266 0)"/>
     <use xlink:href="#DejaVuSans-6f" transform="translate(1544.230469 0)"/>
     <use xlink:href="#DejaVuSans-6c" transform="translate(1605.412109 0)"/>
     <use xlink:href="#DejaVuSans-6f" transform="translate(1633.195312 0)"/>
     <use xlink:href="#DejaVuSans-67" transform="translate(1694.376953 0)"/>
     <use xlink:href="#DejaVuSans-79" transform="translate(1757.853516 0)"/>
    </g>
    <!-- ρ = -0.164, p = 0.651 -->
    <g transform="translate(604.021562 35.856) scale(0.12 -0.12)">
     <defs>
      <path id="DejaVuSans-2d" d="M 313 2009 
L 1997 2009 
L 1997 1497 
L 313 1497 
L 313 2009 
z
" transform="scale(0.015625)"/>
     </defs>
     <use xlink:href="#DejaVuSans-3c1"/>
     <use xlink:href="#DejaVuSans-20" transform="translate(63.476562 0)"/>
     <use xlink:href="#DejaVuSans-3d" transform="translate(95.263672 0)"/>
     <use xlink:href="#DejaVuSans-20" transform="translate(179.052734 0)"/>
     <use xlink:href="#DejaVuSans-2d" transform="translate(210.839844 0)"/>
     <use xlink:href="#DejaVuSans-30" transform="translate(246.923828 0)"/>
     <use xlink:href="#DejaVuSans-2e" transform="translate(310.546875 0)"/>
     <use xlink:href="#DejaVuSans-31" transform="translate(342.333984 0)"/>
     <use xlink:href="#DejaVuSans-36" transform="translate(405.957031 0)"/>
     <use xlink:href="#DejaVuSans-34" transform="translate(469.580078 0)"/>
     <use xlink:href="#DejaVuSans-2c" transform="translate(533.203125 0)"/>
     <use xlink:href="#DejaVuSans-20" transform="translate(564.990234 0)"/>
     <use xlink:href="#DejaVuSans-70" transform="translate(596.777344 0)"/>
     <use xlink:href="#DejaVuSans-20" transform="translate(660.253906 0)"/>
     <use xlink:href="#DejaVuSans-3d" transform="translate(692.041016 0)"/>
     <use xlink:href="#DejaVuSans-20" transform="translate(775.830078 0)"/>
     <use xlink:href="#DejaVuSans-30" transform="translate(807.617188 0)"/>
     <use xlink:href="#DejaVuSans-2e" transform="translate(871.240234 0)"/>
     <use xlink:href="#DejaVuSans-36" transform="translate(903.027344 0)"/>
     <use xlink:href="#DejaVuSans-35" transform="translate(966.650391 0)"/>
     <use xlink:href="#DejaVuSans-31" transform="translate(1030.273438 0)"/>
    </g>
   </g>
   <g id="PathCollection_2">
    <g clip-path="url(#p217f365fac)">
     <use xlink:href="#m277c20cb89" x="779.393332" y="298.588795" style="fill: #1f77b4; stroke: #000000; stroke-width: 0.8"/>
     <use xlink:href="#m277c20cb89" x="685.020079" y="305.486182" style="fill: #1f77b4; stroke: #000000; stroke-width: 0.8"/>
     <use xlink:href="#m277c20cb89" x="713.101512" y="54.409818" style="fill: #1f77b4; stroke: #000000; stroke-width: 0.8"/>
     <use xlink:href="#m277c20cb89" x="591.904873" y="125.386884" style="fill: #1f77b4; stroke: #000000; stroke-width: 0.8"/>
     <use xlink:href="#m277c20cb89" x="665.615241" y="188.030259" style="fill: #1f77b4; stroke: #000000; stroke-width: 0.8"/>
     <use xlink:href="#m277c20cb89" x="611.620586" y="222.146874" style="fill: #1f77b4; stroke: #000000; stroke-width: 0.8"/>
     <use xlink:href="#m277c20cb89" x="709.724042" y="159.251565" style="fill: #1f77b4; stroke: #000000; stroke-width: 0.8"/>
     <use xlink:href="#m277c20cb89" x="535.530372" y="248.116171" style="fill: #1f77b4; stroke: #000000; stroke-width: 0.8"/>
     <use xlink:href="#m277c20cb89" x="774.484888" y="274.154237" style="fill: #1f77b4; stroke: #000000; stroke-width: 0.8"/>
     <use xlink:href="#m277c20cb89" x="553.334168" y="226.552801" style="fill: #1f77b4; stroke: #000000; stroke-width: 0.8"/>
    </g>
   </g>
  </g>
  <g id="axes_3">
   <g id="patch_12">
    <path d="M 916.43 318.04 
L 1285.2 318.04 
L 1285.2 41.856 
L 916.43 41.856 
z
" style="fill: #ffffff"/>
   </g>
   <g id="matplotlib.axis_5">
    <g id="xtick_12">
     <g id="line2d_27">
      <g>
       <use xlink:href="#m7980bc9a4f" x="921.008286" y="318.04" style="stroke: #000000; stroke-width: 0.8"/>
      </g>
     </g>
     <g id="text_51">
      <!-- 0.4 -->
      <g transform="translate(913.056723 332.638438) scale(0.1 -0.1)">
       <use xlink:href="#DejaVuSans-30"/>
       <use xlink:href="#DejaVuSans-2e" transform="translate(63.623047 0)"/>
       <use xlink:href="#DejaVuSans-34" transform="translate(95.410156 0)"/>
      </g>
     </g>
    </g>
    <g id="xtick_13">
     <g id="line2d_28">
      <g>
       <use xlink:href="#m7980bc9a4f" x="987.040822" y="318.04" style="stroke: #000000; stroke-width: 0.8"/>
      </g>
     </g>
     <g id="text_52">
      <!-- 0.6 -->
      <g transform="translate(979.08926 332.638438) scale(0.1 -0.1)">
       <use xlink:href="#DejaVuSans-30"/>
       <use xlink:href="#DejaVuSans-2e" transform="translate(63.623047 0)"/>
       <use xlink:href="#DejaVuSans-36" transform="translate(95.410156 0)"/>
      </g>
     </g>
    </g>
    <g id="xtick_14">
     <g id="line2d_29">
      <g>
       <use xlink:href="#m7980bc9a4f" x="1053.073359" y="318.04" style="stroke: #000000; stroke-width: 0.8"/>
      </g>
     </g>
     <g id="text_53">
      <!-- 0.8 -->
      <g transform="translate(1045.121796 332.638438) scale(0.1 -0.1)">
       <use xlink:href="#DejaVuSans-30"/>
       <use xlink:href="#DejaVuSans-2e" transform="translate(63.623047 0)"/>
       <use xlink:href="#DejaVuSans-38" transform="translate(95.410156 0)"/>
      </g>
     </g>
    </g>
    <g id="xtick_15">
     <g id="line2d_30">
      <g>
       <use xlink:href="#m7980bc9a4f" x="1119.105895" y="318.04" style="stroke: #000000; stroke-width: 0.8"/>
      </g>
     </g>
     <g id="text_54">
      <!-- 1.0 -->
      <g transform="translate(1111.154332 332.638438) scale(0.1 -0.1)">
       <use xlink:href="#DejaVuSans-31"/>
       <use xlink:href="#DejaVuSans-2e" transform="translate(63.623047 0)"/>
       <use xlink:href="#DejaVuSans-30" transform="translate(95.410156 0)"/>
      </g>
     </g>
    </g>
    <g id="xtick_16">
     <g id="line2d_31">
      <g>
       <use xlink:href="#m7980bc9a4f" x="1185.138431" y="318.04" style="stroke: #000000; stroke-width: 0.8"/>
      </g>
     </g>
     <g id="text_55">
      <!-- 1.2 -->
      <g transform="translate(1177.186869 332.638438) scale(0.1 -0.1)">
       <use xlink:href="#DejaVuSans-31"/>
       <use xlink:href="#DejaVuSans-2e" transform="translate(63.623047 0)"/>
       <use xlink:href="#DejaVuSans-32" transform="translate(95.410156 0)"/>
      </g>
     </g>
    </g>
    <g id="xtick_17">
     <g id="line2d_32">
      <g>
       <use xlink:href="#m7980bc9a4f" x="1251.170968" y="318.04" style="stroke: #000000; stroke-width: 0.8"/>
      </g>
     </g>
     <g id="text_56">
      <!-- 1.4 -->
      <g transform="translate(1243.219405 332.638438) scale(0.1 -0.1)">
       <use xlink:href="#DejaVuSans-31"/>
       <use xlink:href="#DejaVuSans-2e" transform="translate(63.623047 0)"/>
       <use xlink:href="#DejaVuSans-34" transform="translate(95.410156 0)"/>
      </g>
     </g>
    </g>
    <g id="text_57">
     <!-- Striatal projection (NPV) -->
     <g transform="translate(1040.534531 346.316563) scale(0.1 -0.1)">
      <use xlink:href="#DejaVuSans-53"/>
      <use xlink:href="#DejaVuSans-74" transform="translate(63.476562 0)"/>
      <use xlink:href="#DejaVuSans-72" transform="translate(102.685547 0)"/>
      <use xlink:href="#DejaVuSans-69" transform="translate(143.798828 0)"/>
      <use xlink:href="#DejaVuSans-61" transform="translate(171.582031 0)"/>
      <use xlink:href="#DejaVuSans-74" transform="translate(232.861328 0)"/>
      <use xlink:href="#DejaVuSans-61" transform="translate(272.070312 0)"/>
      <use xlink:href="#DejaVuSans-6c" transform="translate(333.349609 0)"/>
      <use xlink:href="#DejaVuSans-20" transform="translate(361.132812 0)"/>
      <use xlink:href="#DejaVuSans-70" transform="translate(392.919922 0)"/>
      <use xlink:href="#DejaVuSans-72" transform="translate(456.396484 0)"/>
      <use xlink:href="#DejaVuSans-6f" transform="translate(495.259766 0)"/>
      <use xlink:href="#DejaVuSans-6a" transform="translate(556.441406 0)"/>
      <use xlink:href="#DejaVuSans-65" transform="translate(584.224609 0)"/>
      <use xlink:href="#DejaVuSans-63" transform="translate(645.748047 0)"/>
      <use xlink:href="#DejaVuSans-74" transform="translate(700.728516 0)"/>
      <use xlink:href="#DejaVuSans-69" transform="translate(739.9375 0)"/>
      <use xlink:href="#DejaVuSans-6f" transform="translate(767.720703 0)"/>
      <use xlink:href="#DejaVuSans-6e" transform="translate(828.902344 0)"/>
      <use xlink:href="#DejaVuSans-20" transform="translate(892.28125 0)"/>
      <use xlink:href="#DejaVuSans-28" transform="translate(924.068359 0)"/>
      <use xlink:href="#DejaVuSans-4e" transform="translate(963.082031 0)"/>
      <use xlink:href="#DejaVuSans-50" transform="translate(1037.886719 0)"/>
      <use xlink:href="#DejaVuSans-56" transform="translate(1098.189453 0)"/>
      <use xlink:href="#DejaVuSans-29" transform="translate(1166.597656 0)"/>
     </g>
    </g>
   </g>
   <g id="matplotlib.axis_6">
    <g id="ytick_14">
     <g id="line2d_33">
      <g>
       <use xlink:href="#m2e6abdc405" x="916.43" y="298.535794" style="stroke: #000000; stroke-width: 0.8"/>
      </g>
     </g>
     <g id="text_58">
      <!-- −0.08 -->
      <g transform="translate(878.784688 302.335013) scale(0.1 -0.1)">
       <use xlink:href="#DejaVuSans-2212"/>
       <use xlink:href="#DejaVuSans-30" transform="translate(83.789062 0)"/>
       <use xlink:href="#DejaVuSans-2e" transform="translate(147.412109 0)"/>
       <use xlink:href="#DejaVuSans-30" transform="translate(179.199219 0)"/>
       <use xlink:href="#DejaVuSans-38" transform="translate(242.822266 0)"/>
      </g>
     </g>
    </g>
    <g id="ytick_15">
     <g id="line2d_34">
      <g>
       <use xlink:href="#m2e6abdc405" x="916.43" y="247.106681" style="stroke: #000000; stroke-width: 0.8"/>
      </g>
     </g>
     <g id="text_59">
      <!-- −0.06 -->
      <g transform="translate(878.784688 250.9059) scale(0.1 -0.1)">
       <use xlink:href="#DejaVuSans-2212"/>
       <use xlink:href="#DejaVuSans-30" transform="translate(83.789062 0)"/>
       <use xlink:href="#DejaVuSans-2e" transform="translate(147.412109 0)"/>
       <use xlink:href="#DejaVuSans-30" transform="translate(179.199219 0)"/>
       <use xlink:href="#DejaVuSans-36" transform="translate(242.822266 0)"/>
      </g>
     </g>
    </g>
    <g id="ytick_16">
     <g id="line2d_35">
      <g>
       <use xlink:href="#m2e6abdc405" x="916.43" y="195.677568" style="stroke: #000000; stroke-width: 0.8"/>
      </g>
     </g>
     <g id="text_60">
      <!-- −0.04 -->
      <g transform="translate(878.784688 199.476787) scale(0.1 -0.1)">
       <use xlink:href="#DejaVuSans-2212"/>
       <use xlink:href="#DejaVuSans-30" transform="translate(83.789062 0)"/>
       <use xlink:href="#DejaVuSans-2e" transform="translate(147.412109 0)"/>
       <use xlink:href="#DejaVuSans-30" transform="translate(179.199219 0)"/>
       <use xlink:href="#DejaVuSans-34" transform="translate(242.822266 0)"/>
      </g>
     </g>
    </g>
    <g id="ytick_17">
     <g id="line2d_36">
      <g>
       <use xlink:href="#m2e6abdc405" x="916.43" y="144.248455" style="stroke: #000000; stroke-width: 0.8"/>
      </g>
     </g>
     <g id="text_61">
      <!-- −0.02 -->
      <g transform="translate(878.784688 148.047674) scale(0.1 -0.1)">
       <use xlink:href="#DejaVuSans-2212"/>
       <use xlink:href="#DejaVuSans-30" transform="translate(83.789062 0)"/>
       <use xlink:href="#DejaVuSans-2e" transform="translate(147.412109 0)"/>
       <use xlink:href="#DejaVuSans-30" transform="translate(179.199219 0)"/>
       <use xlink:href="#DejaVuSans-32" transform="translate(242.822266 0)"/>
      </g>
     </g>
    </g>
    <g id="ytick_18">
     <g id="line2d_37">
      <g>
       <use xlink:href="#m2e6abdc405" x="916.43" y="92.819342" style="stroke: #000000; stroke-width: 0.8"/>
      </g>
     </g>
     <g id="text_62">
      <!-- 0.00 -->
      <g transform="translate(887.164375 96.618561) scale(0.1 -0.1)">
       <use xlink:href="#DejaVuSans-30"/>
       <use xlink:href="#DejaVuSans-2e" transform="translate(63.623047 0)"/>
       <use xlink:href="#DejaVuSans-30" transform="translate(95.410156 0)"/>
       <use xlink:href="#DejaVuSans-30" transform="translate(159.033203 0)"/>
      </g>
     </g>
    </g>
    <g id="text_63">
     <!-- Mean burst index -->
     <g transform="translate(872.705 223.393313) rotate(-90) scale(0.1 -0.1)">
      <use xlink:href="#DejaVuSans-4d"/>
      <use xlink:href="#DejaVuSans-65" transform="translate(86.279297 0)"/>
      <use xlink:href="#DejaVuSans-61" transform="translate(147.802734 0)"/>
      <use xlink:href="#DejaVuSans-6e" transform="translate(209.082031 0)"/>
      <use xlink:href="#DejaVuSans-20" transform="translate(272.460938 0)"/>
      <use xlink:href="#DejaVuSans-62" transform="translate(304.248047 0)"/>
      <use xlink:href="#DejaVuSans-75" transform="translate(367.724609 0)"/>
      <use xlink:href="#DejaVuSans-72" transform="translate(431.103516 0)"/>
      <use xlink:href="#DejaVuSans-73" transform="translate(472.216797 0)"/>
      <use xlink:href="#DejaVuSans-74" transform="translate(524.316406 0)"/>
      <use xlink:href="#DejaVuSans-20" transform="translate(563.525391 0)"/>
      <use xlink:href="#DejaVuSans-69" transform="translate(595.3125 0)"/>
      <use xlink:href="#DejaVuSans-6e" transform="translate(623.095703 0)"/>
      <use xlink:href="#DejaVuSans-64" transform="translate(686.474609 0)"/>
      <use xlink:href="#DejaVuSans-65" transform="translate(749.951172 0)"/>
      <use xlink:href="#DejaVuSans-78" transform="translate(809.724609 0)"/>
     </g>
    </g>
   </g>
   <g id="line2d_38">
    <path d="M 933.192273 160.284665 
L 936.57859 161.51497 
L 939.964908 162.745275 
L 943.351226 163.975581 
L 946.737544 165.205886 
L 950.123861 166.436191 
L 953.510179 167.666497 
L 956.896497 168.896802 
L 960.282815 170.127107 
L 963.669132 171.357413 
L 967.05545 172.587718 
L 970.441768 173.818023 
L 973.828085 175.048329 
L 977.214403 176.278634 
L 980.600721 177.508939 
L 983.987039 178.739244 
L 987.373356 179.96955 
L 990.759674 181.199855 
L 994.145992 182.43016 
L 997.532309 183.660466 
L 1000.918627 184.890771 
L 1004.304945 186.121076 
L 1007.691263 187.351382 
L 1011.07758 188.581687 
L 1014.463898 189.811992 
L 1017.850216 191.042298 
L 1021.236534 192.272603 
L 1024.622851 193.502908 
L 1028.009169 194.733214 
L 1031.395487 195.963519 
L 1034.781804 197.193824 
L 1038.168122 198.42413 
L 1041.55444 199.654435 
L 1044.940758 200.88474 
L 1048.327075 202.115045 
L 1051.713393 203.345351 
L 1055.099711 204.575656 
L 1058.486028 205.805961 
L 1061.872346 207.036267 
L 1065.258664 208.266572 
L 1068.644982 209.496877 
L 1072.031299 210.727183 
L 1075.417617 211.957488 
L 1078.803935 213.187793 
L 1082.190253 214.418099 
L 1085.57657 215.648404 
L 1088.962888 216.878709 
L 1092.349206 218.109015 
L 1095.735523 219.33932 
L 1099.121841 220.569625 
L 1102.508159 221.799931 
L 1105.894477 223.030236 
L 1109.280794 224.260541 
L 1112.667112 225.490846 
L 1116.05343 226.721152 
L 1119.439747 227.951457 
L 1122.826065 229.181762 
L 1126.212383 230.412068 
L 1129.598701 231.642373 
L 1132.985018 232.872678 
L 1136.371336 234.102984 
L 1139.757654 235.333289 
L 1143.143972 236.563594 
L 1146.530289 237.7939 
L 1149.916607 239.024205 
L 1153.302925 240.25451 
L 1156.689242 241.484816 
L 1160.07556 242.715121 
L 1163.461878 243.945426 
L 1166.848196 245.175732 
L 1170.234513 246.406037 
L 1173.620831 247.636342 
L 1177.007149 248.866647 
L 1180.393466 250.096953 
L 1183.779784 251.327258 
L 1187.166102 252.557563 
L 1190.55242 253.787869 
L 1193.938737 255.018174 
L 1197.325055 256.248479 
L 1200.711373 257.478785 
L 1204.097691 258.70909 
L 1207.484008 259.939395 
L 1210.870326 261.169701 
L 1214.256644 262.400006 
L 1217.642961 263.630311 
L 1221.029279 264.860617 
L 1224.415597 266.090922 
L 1227.801915 267.321227 
L 1231.188232 268.551533 
L 1234.57455 269.781838 
L 1237.960868 271.012143 
L 1241.347185 272.242448 
L 1244.733503 273.472754 
L 1248.119821 274.703059 
L 1251.506139 275.933364 
L 1254.892456 277.16367 
L 1258.278774 278.393975 
L 1261.665092 279.62428 
L 1265.05141 280.854586 
L 1268.437727 282.084891 
" clip-path="url(#peab4e6bbf2)" style="fill: none; stroke-dasharray: 5.55,2.4; stroke-dashoffset: 0; stroke: #808080; stroke-opacity: 0.7; stroke-width: 1.5"/>
   </g>
   <g id="patch_13">
    <path d="M 916.43 318.04 
L 916.43 41.856 
" style="fill: none; stroke: #000000; stroke-width: 0.8; stroke-linejoin: miter; stroke-linecap: square"/>
   </g>
   <g id="patch_14">
    <path d="M 1285.2 318.04 
L 1285.2 41.856 
" style="fill: none; stroke: #000000; stroke-width: 0.8; stroke-linejoin: miter; stroke-linecap: square"/>
   </g>
   <g id="patch_15">
    <path d="M 916.43 318.04 
L 1285.2 318.04 
" style="fill: none; stroke: #000000; stroke-width: 0.8; stroke-linejoin: miter; stroke-linecap: square"/>
   </g>
   <g id="patch_16">
    <path d="M 916.43 41.856 
L 1285.2 41.856 
" style="fill: none; stroke: #000000; stroke-width: 0.8; stroke-linejoin: miter; stroke-linecap: square"/>
   </g>
   <g id="text_64">
    <!-- ILA5 -->
    <g transform="translate(1078.213183 294.588795) scale(0.07 -0.07)">
     <use xlink:href="#DejaVuSans-49"/>
     <use xlink:href="#DejaVuSans-4c" transform="translate(29.492188 0)"/>
     <use xlink:href="#DejaVuSans-41" transform="translate(87.455078 0)"/>
     <use xlink:href="#DejaVuSans-35" transform="translate(155.863281 0)"/>
    </g>
   </g>
   <g id="text_65">
    <!-- ILA6a -->
    <g transform="translate(1036.38982 301.486182) scale(0.07 -0.07)">
     <use xlink:href="#DejaVuSans-49"/>
     <use xlink:href="#DejaVuSans-4c" transform="translate(29.492188 0)"/>
     <use xlink:href="#DejaVuSans-41" transform="translate(87.455078 0)"/>
     <use xlink:href="#DejaVuSans-36" transform="translate(155.863281 0)"/>
     <use xlink:href="#DejaVuSans-61" transform="translate(219.486328 0)"/>
    </g>
   </g>
   <g id="text_66">
    <!-- ORBl5 -->
    <g transform="translate(1012.47903 50.409818) scale(0.07 -0.07)">
     <use xlink:href="#DejaVuSans-4f"/>
     <use xlink:href="#DejaVuSans-52" transform="translate(78.710938 0)"/>
     <use xlink:href="#DejaVuSans-42" transform="translate(148.193359 0)"/>
     <use xlink:href="#DejaVuSans-6c" transform="translate(216.796875 0)"/>
     <use xlink:href="#DejaVuSans-35" transform="translate(244.580078 0)"/>
    </g>
   </g>
   <g id="text_67">
    <!-- ORBl6a -->
    <g transform="translate(955.219946 121.386884) scale(0.07 -0.07)">
     <use xlink:href="#DejaVuSans-4f"/>
     <use xlink:href="#DejaVuSans-52" transform="translate(78.710938 0)"/>
     <use xlink:href="#DejaVuSans-42" transform="translate(148.193359 0)"/>
     <use xlink:href="#DejaVuSans-6c" transform="translate(216.796875 0)"/>
     <use xlink:href="#DejaVuSans-36" transform="translate(244.580078 0)"/>
     <use xlink:href="#DejaVuSans-61" transform="translate(308.203125 0)"/>
    </g>
   </g>
   <g id="text_68">
    <!-- ORBm5 -->
    <g transform="translate(1049.527548 184.030259) scale(0.07 -0.07)">
     <use xlink:href="#DejaVuSans-4f"/>
     <use xlink:href="#DejaVuSans-52" transform="translate(78.710938 0)"/>
     <use xlink:href="#DejaVuSans-42" transform="translate(148.193359 0)"/>
     <use xlink:href="#DejaVuSans-6d" transform="translate(216.796875 0)"/>
     <use xlink:href="#DejaVuSans-35" transform="translate(314.208984 0)"/>
    </g>
   </g>
   <g id="text_69">
    <!-- ORBm6a -->
    <g transform="translate(992.613332 218.146874) scale(0.07 -0.07)">
     <use xlink:href="#DejaVuSans-4f"/>
     <use xlink:href="#DejaVuSans-52" transform="translate(78.710938 0)"/>
     <use xlink:href="#DejaVuSans-42" transform="translate(148.193359 0)"/>
     <use xlink:href="#DejaVuSans-6d" transform="translate(216.796875 0)"/>
     <use xlink:href="#DejaVuSans-36" transform="translate(314.208984 0)"/>
     <use xlink:href="#DejaVuSans-61" transform="translate(377.832031 0)"/>
    </g>
   </g>
   <g id="text_70">
    <!-- ORBvl5 -->
    <g transform="translate(1108.250525 155.251565) scale(0.07 -0.07)">
     <use xlink:href="#DejaVuSans-4f"/>
     <use xlink:href="#DejaVuSans-52" transform="translate(78.710938 0)"/>
     <use xlink:href="#DejaVuSans-42" transform="translate(148.193359 0)"/>
     <use xlink:href="#DejaVuSans-76" transform="translate(216.796875 0)"/>
     <use xlink:href="#DejaVuSans-6c" transform="translate(275.976562 0)"/>
     <use xlink:href="#DejaVuSans-35" transform="translate(303.759766 0)"/>
    </g>
   </g>
   <g id="text_71">
    <!-- ORBvl6a -->
    <g transform="translate(1080.482851 244.116171) scale(0.07 -0.07)">
     <use xlink:href="#DejaVuSans-4f"/>
     <use xlink:href="#DejaVuSans-52" transform="translate(78.710938 0)"/>
     <use xlink:href="#DejaVuSans-42" transform="translate(148.193359 0)"/>
     <use xlink:href="#DejaVuSans-76" transform="translate(216.796875 0)"/>
     <use xlink:href="#DejaVuSans-6c" transform="translate(275.976562 0)"/>
     <use xlink:href="#DejaVuSans-36" transform="translate(303.759766 0)"/>
     <use xlink:href="#DejaVuSans-61" transform="translate(367.382812 0)"/>
    </g>
   </g>
   <g id="text_72">
    <!-- PL5 -->
    <g transform="translate(1230.847317 270.154237) scale(0.07 -0.07)">
     <use xlink:href="#DejaVuSans-50"/>
     <use xlink:href="#DejaVuSans-4c" transform="translate(60.302734 0)"/>
     <use xlink:href="#DejaVuSans-35" transform="translate(116.015625 0)"/>
    </g>
   </g>
   <g id="text_73">
    <!-- PL6a -->
    <g transform="translate(1222.119316 222.552801) scale(0.07 -0.07)">
     <use xlink:href="#DejaVuSans-50"/>
     <use xlink:href="#DejaVuSans-4c" transform="translate(60.302734 0)"/>
     <use xlink:href="#DejaVuSans-36" transform="translate(116.015625 0)"/>
     <use xlink:href="#DejaVuSans-61" transform="translate(179.638672 0)"/>
    </g>
   </g>
   <g id="text_74">
    <!-- Connectivity → Electrophysiology -->
    <g transform="translate(1001.246875 22.418625) scale(0.12 -0.12)">
     <use xlink:href="#DejaVuSans-43"/>
     <use xlink:href="#DejaVuSans-6f" transform="translate(69.824219 0)"/>
     <use xlink:href="#DejaVuSans-6e" transform="translate(131.005859 0)"/>
     <use xlink:href="#DejaVuSans-6e" transform="translate(194.384766 0)"/>
     <use xlink:href="#DejaVuSans-65" transform="translate(257.763672 0)"/>
     <use xlink:href="#DejaVuSans-63" transform="translate(319.287109 0)"/>
     <use xlink:href="#DejaVuSans-74" transform="translate(374.267578 0)"/>
     <use xlink:href="#DejaVuSans-69" transform="translate(413.476562 0)"/>
     <use xlink:href="#DejaVuSans-76" transform="translate(441.259766 0)"/>
     <use xlink:href="#DejaVuSans-69" transform="translate(500.439453 0)"/>
     <use xlink:href="#DejaVuSans-74" transform="translate(528.222656 0)"/>
     <use xlink:href="#DejaVuSans-79" transform="translate(567.431641 0)"/>
     <use xlink:href="#DejaVuSans-20" transform="translate(626.611328 0)"/>
     <use xlink:href="#DejaVuSans-2192" transform="translate(658.398438 0)"/>
     <use xlink:href="#DejaVuSans-20" transform="translate(742.1875 0)"/>
     <use xlink:href="#DejaVuSans-45" transform="translate(773.974609 0)"/>
     <use xlink:href="#DejaVuSans-6c" transform="translate(837.158203 0)"/>
     <use xlink:href="#DejaVuSans-65" transform="translate(864.941406 0)"/>
     <use xlink:href="#DejaVuSans-63" transform="translate(926.464844 0)"/>
     <use xlink:href="#DejaVuSans-74" transform="translate(981.445312 0)"/>
     <use xlink:href="#DejaVuSans-72" transform="translate(1020.654297 0)"/>
     <use xlink:href="#DejaVuSans-6f" transform="translate(1059.517578 0)"/>
     <use xlink:href="#DejaVuSans-70" transform="translate(1120.699219 0)"/>
     <use xlink:href="#DejaVuSans-68" transform="translate(1184.175781 0)"/>
     <use xlink:href="#DejaVuSans-79" transform="translate(1247.554688 0)"/>
     <use xlink:href="#DejaVuSans-73" transform="translate(1306.734375 0)"/>
     <use xlink:href="#DejaVuSans-69" transform="translate(1358.833984 0)"/>
     <use xlink:href="#DejaVuSans-6f" transform="translate(1386.617188 0)"/>
     <use xlink:href="#DejaVuSans-6c" transform="translate(1447.798828 0)"/>
     <use xlink:href="#DejaVuSans-6f" transform="translate(1475.582031 0)"/>
     <use xlink:href="#DejaVuSans-67" transform="translate(1536.763672 0)"/>
     <use xlink:href="#DejaVuSans-79" transform="translate(1600.240234 0)"/>
    </g>
    <!-- ρ = -0.406, p = 0.244 -->
    <g transform="translate(1035.181563 35.856) scale(0.12 -0.12)">
     <use xlink:href="#DejaVuSans-3c1"/>
     <use xlink:href="#DejaVuSans-20" transform="translate(63.476562 0)"/>
     <use xlink:href="#DejaVuSans-3d" transform="translate(95.263672 0)"/>
     <use xlink:href="#DejaVuSans-20" transform="translate(179.052734 0)"/>
     <use xlink:href="#DejaVuSans-2d" transform="translate(210.839844 0)"/>
     <use xlink:href="#DejaVuSans-30" transform="translate(246.923828 0)"/>
     <use xlink:href="#DejaVuSans-2e" transform="translate(310.546875 0)"/>
     <use xlink:href="#DejaVuSans-34" transform="translate(342.333984 0)"/>
     <use xlink:href="#DejaVuSans-30" transform="translate(405.957031 0)"/>
     <use xlink:href="#DejaVuSans-36" transform="translate(469.580078 0)"/>
     <use xlink:href="#DejaVuSans-2c" transform="translate(533.203125 0)"/>
     <use xlink:href="#DejaVuSans-20" transform="translate(564.990234 0)"/>
     <use xlink:href="#DejaVuSans-70" transform="translate(596.777344 0)"/>
     <use xlink:href="#DejaVuSans-20" transform="translate(660.253906 0)"/>
     <use xlink:href="#DejaVuSans-3d" transform="translate(692.041016 0)"/>
     <use xlink:href="#DejaVuSans-20" transform="translate(775.830078 0)"/>
     <use xlink:href="#DejaVuSans-30" transform="translate(807.617188 0)"/>
     <use xlink:href="#DejaVuSans-2e" transform="translate(871.240234 0)"/>
     <use xlink:href="#DejaVuSans-32" transform="translate(903.027344 0)"/>
     <use xlink:href="#DejaVuSans-34" transform="translate(966.650391 0)"/>
     <use xlink:href="#DejaVuSans-34" transform="translate(1030.273438 0)"/>
    </g>
   </g>
   <g id="PathCollection_3">
    <g clip-path="url(#peab4e6bbf2)">
     <use xlink:href="#m277c20cb89" x="1072.213183" y="298.588795" style="fill: #1f77b4; stroke: #000000; stroke-width: 0.8"/>
     <use xlink:href="#m277c20cb89" x="1030.38982" y="305.486182" style="fill: #1f77b4; stroke: #000000; stroke-width: 0.8"/>
     <use xlink:href="#m277c20cb89" x="1006.47903" y="54.409818" style="fill: #1f77b4; stroke: #000000; stroke-width: 0.8"/>
     <use xlink:href="#m277c20cb89" x="949.219946" y="125.386884" style="fill: #1f77b4; stroke: #000000; stroke-width: 0.8"/>
     <use xlink:href="#m277c20cb89" x="1043.527548" y="188.030259" style="fill: #1f77b4; stroke: #000000; stroke-width: 0.8"/>
     <use xlink:href="#m277c20cb89" x="986.613332" y="222.146874" style="fill: #1f77b4; stroke: #000000; stroke-width: 0.8"/>
     <use xlink:href="#m277c20cb89" x="1102.250525" y="159.251565" style="fill: #1f77b4; stroke: #000000; stroke-width: 0.8"/>
     <use xlink:href="#m277c20cb89" x="1074.482851" y="248.116171" style="fill: #1f77b4; stroke: #000000; stroke-width: 0.8"/>
     <use xlink:href="#m277c20cb89" x="1224.847317" y="274.154237" style="fill: #1f77b4; stroke: #000000; stroke-width: 0.8"/>
     <use xlink:href="#m277c20cb89" x="1216.119316" y="226.552801" style="fill: #1f77b4; stroke: #000000; stroke-width: 0.8"/>
    </g>
   </g>
  </g>
 </g>
 <defs>
  <clipPath id="pad77cc5c79">
   <rect x="54.11" y="41.856" width="368.77" height="276.184"/>
  </clipPath>
  <clipPath id="p217f365fac">
   <rect x="485.27" y="41.856" width="368.77" height="276.184"/>
  </clipPath>
  <clipPath id="peab4e6bbf2">
   <rect x="916.43" y="41.856" width="368.77" height="276.184"/>
  </clipPath>
 </defs>
</svg>
