<?xml version="1.0" encoding="utf-8" standalone="no"?>
<!DOCTYPE svg PUBLIC "-//W3C//DTD SVG 1.1//EN"
  "http://www.w3.org/Graphics/SVG/1.1/DTD/svg11.dtd">
<svg xmlns:xlink="http://www.w3.org/1999/xlink" width="936pt" height="360pt" viewBox="0 0 936 360" xmlns="http://www.w3.org/2000/svg" version="1.1">
 <metadata>
  <rdf:RDF xmlns:dc="http://purl.org/dc/elements/1.1/" xmlns:cc="http://creativecommons.org/ns#" xmlns:rdf="http://www.w3.org/1999/02/22-rdf-syntax-ns#">
   <cc:Work>
    <dc:type rdf:resource="http://purl.org/dc/dcmitype/StillImage"/>
    <dc:date>2026-04-20T21:30:54.747789</dc:date>
    <dc:format>image/svg+xml</dc:format>
    <dc:creator>
     <cc:Agent>
      <dc:title>Matplotlib v3.10.8, https://matplotlib.org/</dc:title>
     </cc:Agent>
    </dc:creator>
   </cc:Work>
  </rdf:RDF>
 </metadata>
 <defs>
  <style type="text/css">*{stroke-linejoin: round; stroke-linecap: butt}</style>
 </defs>
 <g id="figure_1">
  <g id="patch_1">
   <path d="M 0 360 
L 936 360 
L 936 0 
L 0 0 
z
" style="fill: #ffffff"/>
  </g>
  <g id="axes_1">
   <g id="patch_2">
    <path d="M 54.11 312.225744 
L 437.885 312.225744 
L 437.885 41.856 
L 54.11 41.856 
z
" style="fill: #ffffff"/>
   </g>
   <g id="matplotlib.axis_1">
    <g id="xtick_1">
     <g id="line2d_1">
      <defs>
       <path id="m1578d863d3" d="M 0 0 
L 0 3.5 
" style="stroke: #000000; stroke-width: 0.8"/>
      </defs>
      <g>
       <use xlink:href="#m1578d863d3" x="65.391029" y="312.225744" style="stroke: #000000; stroke-width: 0.8"/>
      </g>
     </g>
     <g id="text_1">
      <!-- 0.02 -->
      <g transform="translate(54.258217 326.824181) scale(0.1 -0.1)">
       <defs>
        <path id="DejaVuSans-30" d="M 2034 4250 
Q 1547 4250 1301 3770 
Q 1056 3291 1056 2328 
Q 1056 1369 1301 889 
Q 1547 409 2034 409 
Q 2525 409 2770 889 
Q 3016 1369 3016 2328 
Q 3016 3291 2770 3770 
Q 2525 4250 2034 4250 
z
M 2034 4750 
Q 2819 4750 3233 4129 
Q 3647 3509 3647 2328 
Q 3647 1150 3233 529 
Q 2819 -91 2034 -91 
Q 1250 -91 836 529 
Q 422 1150 422 2328 
Q 422 3509 836 4129 
Q 1250 4750 2034 4750 
z
" transform="scale(0.015625)"/>
        <path id="DejaVuSans-2e" d="M 684 794 
L 1344 794 
L 1344 0 
L 684 0 
L 684 794 
z
" transform="scale(0.015625)"/>
        <path id="DejaVuSans-32" d="M 1228 531 
L 3431 531 
L 3431 0 
L 469 0 
L 469 531 
Q 828 903 1448 1529 
Q 2069 2156 2228 2338 
Q 2531 2678 2651 2914 
Q 2772 3150 2772 3378 
Q 2772 3750 2511 3984 
Q 2250 4219 1831 4219 
Q 1534 4219 1204 4116 
Q 875 4013 500 3803 
L 500 4441 
Q 881 4594 1212 4672 
Q 1544 4750 1819 4750 
Q 2544 4750 2975 4387 
Q 3406 4025 3406 3419 
Q 3406 3131 3298 2873 
Q 3191 2616 2906 2266 
Q 2828 2175 2409 1742 
Q 1991 1309 1228 531 
z
" transform="scale(0.015625)"/>
       </defs>
       <use xlink:href="#DejaVuSans-30"/>
       <use xlink:href="#DejaVuSans-2e" transform="translate(63.623047 0)"/>
       <use xlink:href="#DejaVuSans-30" transform="translate(95.410156 0)"/>
       <use xlink:href="#DejaVuSans-32" transform="translate(159.033203 0)"/>
      </g>
     </g>
    </g>
    <g id="xtick_2">
     <g id="line2d_2">
      <g>
       <use xlink:href="#m1578d863d3" x="136.280348" y="312.225744" style="stroke: #000000; stroke-width: 0.8"/>
      </g>
     </g>
     <g id="text_2">
      <!-- 0.04 -->
      <g transform="translate(125.147536 326.824181) scale(0.1 -0.1)">
       <defs>
        <path id="DejaVuSans-34" d="M 2419 4116 
L 825 1625 
L 2419 1625 
L 2419 4116 
z
M 2253 4666 
L 3047 4666 
L 3047 1625 
L 3713 1625 
L 3713 1100 
L 3047 1100 
L 3047 0 
L 2419 0 
L 2419 1100 
L 313 1100 
L 313 1709 
L 2253 4666 
z
" transform="scale(0.015625)"/>
       </defs>
       <use xlink:href="#DejaVuSans-30"/>
       <use xlink:href="#DejaVuSans-2e" transform="translate(63.623047 0)"/>
       <use xlink:href="#DejaVuSans-30" transform="translate(95.410156 0)"/>
       <use xlink:href="#DejaVuSans-34" transform="translate(159.033203 0)"/>
      </g>
     </g>
    </g>
    <g id="xtick_3">
     <g id="line2d_3">
      <g>
       <use xlink:href="#m1578d863d3" x="207.169668" y="312.225744" style="stroke: #000000; stroke-width: 0.8"/>
      </g>
     </g>
     <g id="text_3">
      <!-- 0.06 -->
      <g transform="translate(196.036855 326.824181) scale(0.1 -0.1)">
       <defs>
        <path id="DejaVuSans-36" d="M 2113 2584 
Q 1688 2584 1439 2293 
Q 1191 2003 1191 1497 
Q 1191 994 1439 701 
Q 1688 409 2113 409 
Q 2538 409 2786 701 
Q 3034 994 3034 1497 
Q 3034 2003 2786 2293 
Q 2538 2584 2113 2584 
z
M 3366 4563 
L 3366 3988 
Q 3128 4100 2886 4159 
Q 2644 4219 2406 4219 
Q 1781 4219 1451 3797 
Q 1122 3375 1075 2522 
Q 1259 2794 1537 2939 
Q 1816 3084 2150 3084 
Q 2853 3084 3261 2657 
Q 3669 2231 3669 1497 
Q 3669 778 3244 343 
Q 2819 -91 2113 -91 
Q 1303 -91 875 529 
Q 447 1150 447 2328 
Q 447 3434 972 4092 
Q 1497 4750 2381 4750 
Q 2619 4750 2861 4703 
Q 3103 4656 3366 4563 
z
" transform="scale(0.015625)"/>
       </defs>
       <use xlink:href="#DejaVuSans-30"/>
       <use xlink:href="#DejaVuSans-2e" transform="translate(63.623047 0)"/>
       <use xlink:href="#DejaVuSans-30" transform="translate(95.410156 0)"/>
       <use xlink:href="#DejaVuSans-36" transform="translate(159.033203 0)"/>
      </g>
     </g>
    </g>
    <g id="xtick_4">
     <g id="line2d_4">
      <g>
       <use xlink:href="#m1578d863d3" x="278.058987" y="312.225744" style="stroke: #000000; stroke-width: 0.8"/>
      </g>
     </g>
     <g id="text_4">
      <!-- 0.08 -->
      <g transform="translate(266.926175 326.824181) scale(0.1 -0.1)">
       <defs>
        <path id="DejaVuSans-38" d="M 2034 2216 
Q 1584 2216 1326 1975 
Q 1069 1734 1069 1313 
Q 1069 891 1326 650 
Q 1584 409 2034 409 
Q 2484 409 2743 651 
Q 3003 894 3003 1313 
Q 3003 1734 2745 1975 
Q 2488 2216 2034 2216 
z
M 1403 2484 
Q 997 2584 770 2862 
Q 544 3141 544 3541 
Q 544 4100 942 4425 
Q 1341 4750 2034 4750 
Q 2731 4750 3128 4425 
Q 3525 4100 3525 3541 
Q 3525 3141 3298 2862 
Q 3072 2584 2669 2484 
Q 3125 2378 3379 2068 
Q 3634 1759 3634 1313 
Q 3634 634 3220 271 
Q 2806 -91 2034 -91 
Q 1263 -91 848 271 
Q 434 634 434 1313 
Q 434 1759 690 2068 
Q 947 2378 1403 2484 
z
M 1172 3481 
Q 1172 3119 1398 2916 
Q 1625 2713 2034 2713 
Q 2441 2713 2670 2916 
Q 2900 3119 2900 3481 
Q 2900 3844 2670 4047 
Q 2441 4250 2034 4250 
Q 1625 4250 1398 4047 
Q 1172 3844 1172 3481 
z
" transform="scale(0.015625)"/>
       </defs>
       <use xlink:href="#DejaVuSans-30"/>
       <use xlink:href="#DejaVuSans-2e" transform="translate(63.623047 0)"/>
       <use xlink:href="#DejaVuSans-30" transform="translate(95.410156 0)"/>
       <use xlink:href="#DejaVuSans-38" transform="translate(159.033203 0)"/>
      </g>
     </g>
    </g>
    <g id="xtick_5">
     <g id="line2d_5">
      <g>
       <use xlink:href="#m1578d863d3" x="348.948306" y="312.225744" style="stroke: #000000; stroke-width: 0.8"/>
      </g>
     </g>
     <g id="text_5">
      <!-- 0.10 -->
      <g transform="translate(337.815494 326.824181) scale(0.1 -0.1)">
       <defs>
        <path id="DejaVuSans-31" d="M 794 531 
L 1825 531 
L 1825 4091 
L 703 3866 
L 703 4441 
L 1819 4666 
L 2450 4666 
L 2450 531 
L 3481 531 
L 3481 0 
L 794 0 
L 794 531 
z
" transform="scale(0.015625)"/>
       </defs>
       <use xlink:href="#DejaVuSans-30"/>
       <use xlink:href="#DejaVuSans-2e" transform="translate(63.623047 0)"/>
       <use xlink:href="#DejaVuSans-31" transform="translate(95.410156 0)"/>
       <use xlink:href="#DejaVuSans-30" transform="translate(159.033203 0)"/>
      </g>
     </g>
    </g>
    <g id="xtick_6">
     <g id="line2d_6">
      <g>
       <use xlink:href="#m1578d863d3" x="419.837626" y="312.225744" style="stroke: #000000; stroke-width: 0.8"/>
      </g>
     </g>
     <g id="text_6">
      <!-- 0.12 -->
      <g transform="translate(408.704813 326.824181) scale(0.1 -0.1)">
       <use xlink:href="#DejaVuSans-30"/>
       <use xlink:href="#DejaVuSans-2e" transform="translate(63.623047 0)"/>
       <use xlink:href="#DejaVuSans-31" transform="translate(95.410156 0)"/>
       <use xlink:href="#DejaVuSans-32" transform="translate(159.033203 0)"/>
      </g>
     </g>
    </g>
    <g id="text_7">
     <!-- Thalamic projection strength (mean NPV) -->
     <g transform="translate(142.610781 340.502306) scale(0.1 -0.1)">
      <defs>
       <path id="DejaVuSans-54" d="M -19 4666 
L 3928 4666 
L 3928 4134 
L 2272 4134 
L 2272 0 
L 1638 0 
L 1638 4134 
L -19 4134 
L -19 4666 
z
" transform="scale(0.015625)"/>
       <path id="DejaVuSans-68" d="M 3513 2113 
L 3513 0 
L 2938 0 
L 2938 2094 
Q 2938 2591 2744 2837 
Q 2550 3084 2163 3084 
Q 1697 3084 1428 2787 
Q 1159 2491 1159 1978 
L 1159 0 
L 581 0 
L 581 4863 
L 1159 4863 
L 1159 2956 
Q 1366 3272 1645 3428 
Q 1925 3584 2291 3584 
Q 2894 3584 3203 3211 
Q 3513 2838 3513 2113 
z
" transform="scale(0.015625)"/>
       <path id="DejaVuSans-61" d="M 2194 1759 
Q 1497 1759 1228 1600 
Q 959 1441 959 1056 
Q 959 750 1161 570 
Q 1363 391 1709 391 
Q 2188 391 2477 730 
Q 2766 1069 2766 1631 
L 2766 1759 
L 2194 1759 
z
M 3341 1997 
L 3341 0 
L 2766 0 
L 2766 531 
Q 2569 213 2275 61 
Q 1981 -91 1556 -91 
Q 1019 -91 701 211 
Q 384 513 384 1019 
Q 384 1609 779 1909 
Q 1175 2209 1959 2209 
L 2766 2209 
L 2766 2266 
Q 2766 2663 2505 2880 
Q 2244 3097 1772 3097 
Q 1472 3097 1187 3025 
Q 903 2953 641 2809 
L 641 3341 
Q 956 3463 1253 3523 
Q 1550 3584 1831 3584 
Q 2591 3584 2966 3190 
Q 3341 2797 3341 1997 
z
" transform="scale(0.015625)"/>
       <path id="DejaVuSans-6c" d="M 603 4863 
L 1178 4863 
L 1178 0 
L 603 0 
L 603 4863 
z
" transform="scale(0.015625)"/>
       <path id="DejaVuSans-6d" d="M 3328 2828 
Q 3544 3216 3844 3400 
Q 4144 3584 4550 3584 
Q 5097 3584 5394 3201 
Q 5691 2819 5691 2113 
L 5691 0 
L 5113 0 
L 5113 2094 
Q 5113 2597 4934 2840 
Q 4756 3084 4391 3084 
Q 3944 3084 3684 2787 
Q 3425 2491 3425 1978 
L 3425 0 
L 2847 0 
L 2847 2094 
Q 2847 2600 2669 2842 
Q 2491 3084 2119 3084 
Q 1678 3084 1418 2786 
Q 1159 2488 1159 1978 
L 1159 0 
L 581 0 
L 581 3500 
L 1159 3500 
L 1159 2956 
Q 1356 3278 1631 3431 
Q 1906 3584 2284 3584 
Q 2666 3584 2933 3390 
Q 3200 3197 3328 2828 
z
" transform="scale(0.015625)"/>
       <path id="DejaVuSans-69" d="M 603 3500 
L 1178 3500 
L 1178 0 
L 603 0 
L 603 3500 
z
M 603 4863 
L 1178 4863 
L 1178 4134 
L 603 4134 
L 603 4863 
z
" transform="scale(0.015625)"/>
       <path id="DejaVuSans-63" d="M 3122 3366 
L 3122 2828 
Q 2878 2963 2633 3030 
Q 2388 3097 2138 3097 
Q 1578 3097 1268 2742 
Q 959 2388 959 1747 
Q 959 1106 1268 751 
Q 1578 397 2138 397 
Q 2388 397 2633 464 
Q 2878 531 3122 666 
L 3122 134 
Q 2881 22 2623 -34 
Q 2366 -91 2075 -91 
Q 1284 -91 818 406 
Q 353 903 353 1747 
Q 353 2603 823 3093 
Q 1294 3584 2113 3584 
Q 2378 3584 2631 3529 
Q 2884 3475 3122 3366 
z
" transform="scale(0.015625)"/>
       <path id="DejaVuSans-20" transform="scale(0.015625)"/>
       <path id="DejaVuSans-70" d="M 1159 525 
L 1159 -1331 
L 581 -1331 
L 581 3500 
L 1159 3500 
L 1159 2969 
Q 1341 3281 1617 3432 
Q 1894 3584 2278 3584 
Q 2916 3584 3314 3078 
Q 3713 2572 3713 1747 
Q 3713 922 3314 415 
Q 2916 -91 2278 -91 
Q 1894 -91 1617 61 
Q 1341 213 1159 525 
z
M 3116 1747 
Q 3116 2381 2855 2742 
Q 2594 3103 2138 3103 
Q 1681 3103 1420 2742 
Q 1159 2381 1159 1747 
Q 1159 1113 1420 752 
Q 1681 391 2138 391 
Q 2594 391 2855 752 
Q 3116 1113 3116 1747 
z
" transform="scale(0.015625)"/>
       <path id="DejaVuSans-72" d="M 2631 2963 
Q 2534 3019 2420 3045 
Q 2306 3072 2169 3072 
Q 1681 3072 1420 2755 
Q 1159 2438 1159 1844 
L 1159 0 
L 581 0 
L 581 3500 
L 1159 3500 
L 1159 2956 
Q 1341 3275 1631 3429 
Q 1922 3584 2338 3584 
Q 2397 3584 2469 3576 
Q 2541 3569 2628 3553 
L 2631 2963 
z
" transform="scale(0.015625)"/>
       <path id="DejaVuSans-6f" d="M 1959 3097 
Q 1497 3097 1228 2736 
Q 959 2375 959 1747 
Q 959 1119 1226 758 
Q 1494 397 1959 397 
Q 2419 397 2687 759 
Q 2956 1122 2956 1747 
Q 2956 2369 2687 2733 
Q 2419 3097 1959 3097 
z
M 1959 3584 
Q 2709 3584 3137 3096 
Q 3566 2609 3566 1747 
Q 3566 888 3137 398 
Q 2709 -91 1959 -91 
Q 1206 -91 779 398 
Q 353 888 353 1747 
Q 353 2609 779 3096 
Q 1206 3584 1959 3584 
z
" transform="scale(0.015625)"/>
       <path id="DejaVuSans-6a" d="M 603 3500 
L 1178 3500 
L 1178 -63 
Q 1178 -731 923 -1031 
Q 669 -1331 103 -1331 
L -116 -1331 
L -116 -844 
L 38 -844 
Q 366 -844 484 -692 
Q 603 -541 603 -63 
L 603 3500 
z
M 603 4863 
L 1178 4863 
L 1178 4134 
L 603 4134 
L 603 4863 
z
" transform="scale(0.015625)"/>
       <path id="DejaVuSans-65" d="M 3597 1894 
L 3597 1613 
L 953 1613 
Q 991 1019 1311 708 
Q 1631 397 2203 397 
Q 2534 397 2845 478 
Q 3156 559 3463 722 
L 3463 178 
Q 3153 47 2828 -22 
Q 2503 -91 2169 -91 
Q 1331 -91 842 396 
Q 353 884 353 1716 
Q 353 2575 817 3079 
Q 1281 3584 2069 3584 
Q 2775 3584 3186 3129 
Q 3597 2675 3597 1894 
z
M 3022 2063 
Q 3016 2534 2758 2815 
Q 2500 3097 2075 3097 
Q 1594 3097 1305 2825 
Q 1016 2553 972 2059 
L 3022 2063 
z
" transform="scale(0.015625)"/>
       <path id="DejaVuSans-74" d="M 1172 4494 
L 1172 3500 
L 2356 3500 
L 2356 3053 
L 1172 3053 
L 1172 1153 
Q 1172 725 1289 603 
Q 1406 481 1766 481 
L 2356 481 
L 2356 0 
L 1766 0 
Q 1100 0 847 248 
Q 594 497 594 1153 
L 594 3053 
L 172 3053 
L 172 3500 
L 594 3500 
L 594 4494 
L 1172 4494 
z
" transform="scale(0.015625)"/>
       <path id="DejaVuSans-6e" d="M 3513 2113 
L 3513 0 
L 2938 0 
L 2938 2094 
Q 2938 2591 2744 2837 
Q 2550 3084 2163 3084 
Q 1697 3084 1428 2787 
Q 1159 2491 1159 1978 
L 1159 0 
L 581 0 
L 581 3500 
L 1159 3500 
L 1159 2956 
Q 1366 3272 1645 3428 
Q 1925 3584 2291 3584 
Q 2894 3584 3203 3211 
Q 3513 2838 3513 2113 
z
" transform="scale(0.015625)"/>
       <path id="DejaVuSans-73" d="M 2834 3397 
L 2834 2853 
Q 2591 2978 2328 3040 
Q 2066 3103 1784 3103 
Q 1356 3103 1142 2972 
Q 928 2841 928 2578 
Q 928 2378 1081 2264 
Q 1234 2150 1697 2047 
L 1894 2003 
Q 2506 1872 2764 1633 
Q 3022 1394 3022 966 
Q 3022 478 2636 193 
Q 2250 -91 1575 -91 
Q 1294 -91 989 -36 
Q 684 19 347 128 
L 347 722 
Q 666 556 975 473 
Q 1284 391 1588 391 
Q 1994 391 2212 530 
Q 2431 669 2431 922 
Q 2431 1156 2273 1281 
Q 2116 1406 1581 1522 
L 1381 1569 
Q 847 1681 609 1914 
Q 372 2147 372 2553 
Q 372 3047 722 3315 
Q 1072 3584 1716 3584 
Q 2034 3584 2315 3537 
Q 2597 3491 2834 3397 
z
" transform="scale(0.015625)"/>
       <path id="DejaVuSans-67" d="M 2906 1791 
Q 2906 2416 2648 2759 
Q 2391 3103 1925 3103 
Q 1463 3103 1205 2759 
Q 947 2416 947 1791 
Q 947 1169 1205 825 
Q 1463 481 1925 481 
Q 2391 481 2648 825 
Q 2906 1169 2906 1791 
z
M 3481 434 
Q 3481 -459 3084 -895 
Q 2688 -1331 1869 -1331 
Q 1566 -1331 1297 -1286 
Q 1028 -1241 775 -1147 
L 775 -588 
Q 1028 -725 1275 -790 
Q 1522 -856 1778 -856 
Q 2344 -856 2625 -561 
Q 2906 -266 2906 331 
L 2906 616 
Q 2728 306 2450 153 
Q 2172 0 1784 0 
Q 1141 0 747 490 
Q 353 981 353 1791 
Q 353 2603 747 3093 
Q 1141 3584 1784 3584 
Q 2172 3584 2450 3431 
Q 2728 3278 2906 2969 
L 2906 3500 
L 3481 3500 
L 3481 434 
z
" transform="scale(0.015625)"/>
       <path id="DejaVuSans-28" d="M 1984 4856 
Q 1566 4138 1362 3434 
Q 1159 2731 1159 2009 
Q 1159 1288 1364 580 
Q 1569 -128 1984 -844 
L 1484 -844 
Q 1016 -109 783 600 
Q 550 1309 550 2009 
Q 550 2706 781 3412 
Q 1013 4119 1484 4856 
L 1984 4856 
z
" transform="scale(0.015625)"/>
       <path id="DejaVuSans-4e" d="M 628 4666 
L 1478 4666 
L 3547 763 
L 3547 4666 
L 4159 4666 
L 4159 0 
L 3309 0 
L 1241 3903 
L 1241 0 
L 628 0 
L 628 4666 
z
" transform="scale(0.015625)"/>
       <path id="DejaVuSans-50" d="M 1259 4147 
L 1259 2394 
L 2053 2394 
Q 2494 2394 2734 2622 
Q 2975 2850 2975 3272 
Q 2975 3691 2734 3919 
Q 2494 4147 2053 4147 
L 1259 4147 
z
M 628 4666 
L 2053 4666 
Q 2838 4666 3239 4311 
Q 3641 3956 3641 3272 
Q 3641 2581 3239 2228 
Q 2838 1875 2053 1875 
L 1259 1875 
L 1259 0 
L 628 0 
L 628 4666 
z
" transform="scale(0.015625)"/>
       <path id="DejaVuSans-56" d="M 1831 0 
L 50 4666 
L 709 4666 
L 2188 738 
L 3669 4666 
L 4325 4666 
L 2547 0 
L 1831 0 
z
" transform="scale(0.015625)"/>
       <path id="DejaVuSans-29" d="M 513 4856 
L 1013 4856 
Q 1481 4119 1714 3412 
Q 1947 2706 1947 2009 
Q 1947 1309 1714 600 
Q 1481 -109 1013 -844 
L 513 -844 
Q 928 -128 1133 580 
Q 1338 1288 1338 2009 
Q 1338 2731 1133 3434 
Q 928 4138 513 4856 
z
" transform="scale(0.015625)"/>
      </defs>
      <use xlink:href="#DejaVuSans-54"/>
      <use xlink:href="#DejaVuSans-68" transform="translate(61.083984 0)"/>
      <use xlink:href="#DejaVuSans-61" transform="translate(124.462891 0)"/>
      <use xlink:href="#DejaVuSans-6c" transform="translate(185.742188 0)"/>
      <use xlink:href="#DejaVuSans-61" transform="translate(213.525391 0)"/>
      <use xlink:href="#DejaVuSans-6d" transform="translate(274.804688 0)"/>
      <use xlink:href="#DejaVuSans-69" transform="translate(372.216797 0)"/>
      <use xlink:href="#DejaVuSans-63" transform="translate(400 0)"/>
      <use xlink:href="#DejaVuSans-20" transform="translate(454.980469 0)"/>
      <use xlink:href="#DejaVuSans-70" transform="translate(486.767578 0)"/>
      <use xlink:href="#DejaVuSans-72" transform="translate(550.244141 0)"/>
      <use xlink:href="#DejaVuSans-6f" transform="translate(589.107422 0)"/>
      <use xlink:href="#DejaVuSans-6a" transform="translate(650.289062 0)"/>
      <use xlink:href="#DejaVuSans-65" transform="translate(678.072266 0)"/>
      <use xlink:href="#DejaVuSans-63" transform="translate(739.595703 0)"/>
      <use xlink:href="#DejaVuSans-74" transform="translate(794.576172 0)"/>
      <use xlink:href="#DejaVuSans-69" transform="translate(833.785156 0)"/>
      <use xlink:href="#DejaVuSans-6f" transform="translate(861.568359 0)"/>
      <use xlink:href="#DejaVuSans-6e" transform="translate(922.75 0)"/>
      <use xlink:href="#DejaVuSans-20" transform="translate(986.128906 0)"/>
      <use xlink:href="#DejaVuSans-73" transform="translate(1017.916016 0)"/>
      <use xlink:href="#DejaVuSans-74" transform="translate(1070.015625 0)"/>
      <use xlink:href="#DejaVuSans-72" transform="translate(1109.224609 0)"/>
      <use xlink:href="#DejaVuSans-65" transform="translate(1148.087891 0)"/>
      <use xlink:href="#DejaVuSans-6e" transform="translate(1209.611328 0)"/>
      <use xlink:href="#DejaVuSans-67" transform="translate(1272.990234 0)"/>
      <use xlink:href="#DejaVuSans-74" transform="translate(1336.466797 0)"/>
      <use xlink:href="#DejaVuSans-68" transform="translate(1375.675781 0)"/>
      <use xlink:href="#DejaVuSans-20" transform="translate(1439.054688 0)"/>
      <use xlink:href="#DejaVuSans-28" transform="translate(1470.841797 0)"/>
      <use xlink:href="#DejaVuSans-6d" transform="translate(1509.855469 0)"/>
      <use xlink:href="#DejaVuSans-65" transform="translate(1607.267578 0)"/>
      <use xlink:href="#DejaVuSans-61" transform="translate(1668.791016 0)"/>
      <use xlink:href="#DejaVuSans-6e" transform="translate(1730.070312 0)"/>
      <use xlink:href="#DejaVuSans-20" transform="translate(1793.449219 0)"/>
      <use xlink:href="#DejaVuSans-4e" transform="translate(1825.236328 0)"/>
      <use xlink:href="#DejaVuSans-50" transform="translate(1900.041016 0)"/>
      <use xlink:href="#DejaVuSans-56" transform="translate(1960.34375 0)"/>
      <use xlink:href="#DejaVuSans-29" transform="translate(2028.751953 0)"/>
     </g>
    </g>
   </g>
   <g id="matplotlib.axis_2">
    <g id="ytick_1">
     <g id="line2d_7">
      <defs>
       <path id="m54feb5b31b" d="M 0 0 
L -3.5 0 
" style="stroke: #000000; stroke-width: 0.8"/>
      </defs>
      <g>
       <use xlink:href="#m54feb5b31b" x="54.11" y="311.637252" style="stroke: #000000; stroke-width: 0.8"/>
      </g>
     </g>
     <g id="text_8">
      <!-- 0.10 -->
      <g transform="translate(24.844375 315.43647) scale(0.1 -0.1)">
       <use xlink:href="#DejaVuSans-30"/>
       <use xlink:href="#DejaVuSans-2e" transform="translate(63.623047 0)"/>
       <use xlink:href="#DejaVuSans-31" transform="translate(95.410156 0)"/>
       <use xlink:href="#DejaVuSans-30" transform="translate(159.033203 0)"/>
      </g>
     </g>
    </g>
    <g id="ytick_2">
     <g id="line2d_8">
      <g>
       <use xlink:href="#m54feb5b31b" x="54.11" y="261.134045" style="stroke: #000000; stroke-width: 0.8"/>
      </g>
     </g>
     <g id="text_9">
      <!-- 0.12 -->
      <g transform="translate(24.844375 264.933264) scale(0.1 -0.1)">
       <use xlink:href="#DejaVuSans-30"/>
       <use xlink:href="#DejaVuSans-2e" transform="translate(63.623047 0)"/>
       <use xlink:href="#DejaVuSans-31" transform="translate(95.410156 0)"/>
       <use xlink:href="#DejaVuSans-32" transform="translate(159.033203 0)"/>
      </g>
     </g>
    </g>
    <g id="ytick_3">
     <g id="line2d_9">
      <g>
       <use xlink:href="#m54feb5b31b" x="54.11" y="210.630839" style="stroke: #000000; stroke-width: 0.8"/>
      </g>
     </g>
     <g id="text_10">
      <!-- 0.14 -->
      <g transform="translate(24.844375 214.430057) scale(0.1 -0.1)">
       <use xlink:href="#DejaVuSans-30"/>
       <use xlink:href="#DejaVuSans-2e" transform="translate(63.623047 0)"/>
       <use xlink:href="#DejaVuSans-31" transform="translate(95.410156 0)"/>
       <use xlink:href="#DejaVuSans-34" transform="translate(159.033203 0)"/>
      </g>
     </g>
    </g>
    <g id="ytick_4">
     <g id="line2d_10">
      <g>
       <use xlink:href="#m54feb5b31b" x="54.11" y="160.127632" style="stroke: #000000; stroke-width: 0.8"/>
      </g>
     </g>
     <g id="text_11">
      <!-- 0.16 -->
      <g transform="translate(24.844375 163.926851) scale(0.1 -0.1)">
       <use xlink:href="#DejaVuSans-30"/>
       <use xlink:href="#DejaVuSans-2e" transform="translate(63.623047 0)"/>
       <use xlink:href="#DejaVuSans-31" transform="translate(95.410156 0)"/>
       <use xlink:href="#DejaVuSans-36" transform="translate(159.033203 0)"/>
      </g>
     </g>
    </g>
    <g id="ytick_5">
     <g id="line2d_11">
      <g>
       <use xlink:href="#m54feb5b31b" x="54.11" y="109.624426" style="stroke: #000000; stroke-width: 0.8"/>
      </g>
     </g>
     <g id="text_12">
      <!-- 0.18 -->
      <g transform="translate(24.844375 113.423644) scale(0.1 -0.1)">
       <use xlink:href="#DejaVuSans-30"/>
       <use xlink:href="#DejaVuSans-2e" transform="translate(63.623047 0)"/>
       <use xlink:href="#DejaVuSans-31" transform="translate(95.410156 0)"/>
       <use xlink:href="#DejaVuSans-38" transform="translate(159.033203 0)"/>
      </g>
     </g>
    </g>
    <g id="ytick_6">
     <g id="line2d_12">
      <g>
       <use xlink:href="#m54feb5b31b" x="54.11" y="59.121219" style="stroke: #000000; stroke-width: 0.8"/>
      </g>
     </g>
     <g id="text_13">
      <!-- 0.20 -->
      <g transform="translate(24.844375 62.920438) scale(0.1 -0.1)">
       <use xlink:href="#DejaVuSans-30"/>
       <use xlink:href="#DejaVuSans-2e" transform="translate(63.623047 0)"/>
       <use xlink:href="#DejaVuSans-32" transform="translate(95.410156 0)"/>
       <use xlink:href="#DejaVuSans-30" transform="translate(159.033203 0)"/>
      </g>
     </g>
    </g>
    <g id="text_14">
     <!-- NW (fast-spiking) fraction -->
     <g transform="translate(18.764688 240.999466) rotate(-90) scale(0.1 -0.1)">
      <defs>
       <path id="DejaVuSans-57" d="M 213 4666 
L 850 4666 
L 1831 722 
L 2809 4666 
L 3519 4666 
L 4500 722 
L 5478 4666 
L 6119 4666 
L 4947 0 
L 4153 0 
L 3169 4050 
L 2175 0 
L 1381 0 
L 213 4666 
z
" transform="scale(0.015625)"/>
       <path id="DejaVuSans-66" d="M 2375 4863 
L 2375 4384 
L 1825 4384 
Q 1516 4384 1395 4259 
Q 1275 4134 1275 3809 
L 1275 3500 
L 2222 3500 
L 2222 3053 
L 1275 3053 
L 1275 0 
L 697 0 
L 697 3053 
L 147 3053 
L 147 3500 
L 697 3500 
L 697 3744 
Q 697 4328 969 4595 
Q 1241 4863 1831 4863 
L 2375 4863 
z
" transform="scale(0.015625)"/>
       <path id="DejaVuSans-2d" d="M 313 2009 
L 1997 2009 
L 1997 1497 
L 313 1497 
L 313 2009 
z
" transform="scale(0.015625)"/>
       <path id="DejaVuSans-6b" d="M 581 4863 
L 1159 4863 
L 1159 1991 
L 2875 3500 
L 3609 3500 
L 1753 1863 
L 3688 0 
L 2938 0 
L 1159 1709 
L 1159 0 
L 581 0 
L 581 4863 
z
" transform="scale(0.015625)"/>
      </defs>
      <use xlink:href="#DejaVuSans-4e"/>
      <use xlink:href="#DejaVuSans-57" transform="translate(74.804688 0)"/>
      <use xlink:href="#DejaVuSans-20" transform="translate(173.681641 0)"/>
      <use xlink:href="#DejaVuSans-28" transform="translate(205.46875 0)"/>
      <use xlink:href="#DejaVuSans-66" transform="translate(244.482422 0)"/>
      <use xlink:href="#DejaVuSans-61" transform="translate(279.6875 0)"/>
      <use xlink:href="#DejaVuSans-73" transform="translate(340.966797 0)"/>
      <use xlink:href="#DejaVuSans-74" transform="translate(393.066406 0)"/>
      <use xlink:href="#DejaVuSans-2d" transform="translate(432.275391 0)"/>
      <use xlink:href="#DejaVuSans-73" transform="translate(468.359375 0)"/>
      <use xlink:href="#DejaVuSans-70" transform="translate(520.458984 0)"/>
      <use xlink:href="#DejaVuSans-69" transform="translate(583.935547 0)"/>
      <use xlink:href="#DejaVuSans-6b" transform="translate(611.71875 0)"/>
      <use xlink:href="#DejaVuSans-69" transform="translate(669.628906 0)"/>
      <use xlink:href="#DejaVuSans-6e" transform="translate(697.412109 0)"/>
      <use xlink:href="#DejaVuSans-67" transform="translate(760.791016 0)"/>
      <use xlink:href="#DejaVuSans-29" transform="translate(824.267578 0)"/>
      <use xlink:href="#DejaVuSans-20" transform="translate(863.28125 0)"/>
      <use xlink:href="#DejaVuSans-66" transform="translate(895.068359 0)"/>
      <use xlink:href="#DejaVuSans-72" transform="translate(930.273438 0)"/>
      <use xlink:href="#DejaVuSans-61" transform="translate(971.386719 0)"/>
      <use xlink:href="#DejaVuSans-63" transform="translate(1032.666016 0)"/>
      <use xlink:href="#DejaVuSans-74" transform="translate(1087.646484 0)"/>
      <use xlink:href="#DejaVuSans-69" transform="translate(1126.855469 0)"/>
      <use xlink:href="#DejaVuSans-6f" transform="translate(1154.638672 0)"/>
      <use xlink:href="#DejaVuSans-6e" transform="translate(1215.820312 0)"/>
     </g>
    </g>
   </g>
   <g id="line2d_13">
    <path d="M 71.554318 192.16157 
L 75.078423 191.609332 
L 78.602528 191.057093 
L 82.126632 190.504855 
L 85.650737 189.952617 
L 89.174842 189.400379 
L 92.698946 188.84814 
L 96.223051 188.295902 
L 99.747156 187.743664 
L 103.27126 187.191426 
L 106.795365 186.639187 
L 110.31947 186.086949 
L 113.843574 185.534711 
L 117.367679 184.982473 
L 120.891784 184.430234 
L 124.415888 183.877996 
L 127.939993 183.325758 
L 131.464098 182.77352 
L 134.988202 182.221281 
L 138.512307 181.669043 
L 142.036412 181.116805 
L 145.560517 180.564567 
L 149.084621 180.012328 
L 152.608726 179.46009 
L 156.132831 178.907852 
L 159.656935 178.355614 
L 163.18104 177.803375 
L 166.705145 177.251137 
L 170.229249 176.698899 
L 173.753354 176.14666 
L 177.277459 175.594422 
L 180.801563 175.042184 
L 184.325668 174.489946 
L 187.849773 173.937707 
L 191.373877 173.385469 
L 194.897982 172.833231 
L 198.422087 172.280993 
L 201.946191 171.728754 
L 205.470296 171.176516 
L 208.994401 170.624278 
L 212.518506 170.07204 
L 216.04261 169.519801 
L 219.566715 168.967563 
L 223.09082 168.415325 
L 226.614924 167.863087 
L 230.139029 167.310848 
L 233.663134 166.75861 
L 237.187238 166.206372 
L 240.711343 165.654134 
L 244.235448 165.101895 
L 247.759552 164.549657 
L 251.283657 163.997419 
L 254.807762 163.445181 
L 258.331866 162.892942 
L 261.855971 162.340704 
L 265.380076 161.788466 
L 268.90418 161.236228 
L 272.428285 160.683989 
L 275.95239 160.131751 
L 279.476494 159.579513 
L 283.000599 159.027274 
L 286.524704 158.475036 
L 290.048809 157.922798 
L 293.572913 157.37056 
L 297.097018 156.818321 
L 300.621123 156.266083 
L 304.145227 155.713845 
L 307.669332 155.161607 
L 311.193437 154.609368 
L 314.717541 154.05713 
L 318.241646 153.504892 
L 321.765751 152.952654 
L 325.289855 152.400415 
L 328.81396 151.848177 
L 332.338065 151.295939 
L 335.862169 150.743701 
L 339.386274 150.191462 
L 342.910379 149.639224 
L 346.434483 149.086986 
L 349.958588 148.534748 
L 353.482693 147.982509 
L 357.006798 147.430271 
L 360.530902 146.878033 
L 364.055007 146.325795 
L 367.579112 145.773556 
L 371.103216 145.221318 
L 374.627321 144.66908 
L 378.151426 144.116842 
L 381.67553 143.564603 
L 385.199635 143.012365 
L 388.72374 142.460127 
L 392.247844 141.907888 
L 395.771949 141.35565 
L 399.296054 140.803412 
L 402.820158 140.251174 
L 406.344263 139.698935 
L 409.868368 139.146697 
L 413.392472 138.594459 
L 416.916577 138.042221 
L 420.440682 137.489982 
" clip-path="url(#p6519d496af)" style="fill: none; stroke-dasharray: 5.55,2.4; stroke-dashoffset: 0; stroke: #808080; stroke-opacity: 0.7; stroke-width: 1.5"/>
   </g>
   <g id="patch_3">
    <path d="M 54.11 312.225744 
L 54.11 41.856 
" style="fill: none; stroke: #000000; stroke-width: 0.8; stroke-linejoin: miter; stroke-linecap: square"/>
   </g>
   <g id="patch_4">
    <path d="M 437.885 312.225744 
L 437.885 41.856 
" style="fill: none; stroke: #000000; stroke-width: 0.8; stroke-linejoin: miter; stroke-linecap: square"/>
   </g>
   <g id="patch_5">
    <path d="M 54.11 312.225744 
L 437.885 312.225744 
" style="fill: none; stroke: #000000; stroke-width: 0.8; stroke-linejoin: miter; stroke-linecap: square"/>
   </g>
   <g id="patch_6">
    <path d="M 54.11 41.856 
L 437.885 41.856 
" style="fill: none; stroke: #000000; stroke-width: 0.8; stroke-linejoin: miter; stroke-linecap: square"/>
   </g>
   <g id="text_15">
    <!-- ILA5 -->
    <g transform="translate(205.755854 237.495957) scale(0.08 -0.08)">
     <defs>
      <path id="DejaVuSans-49" d="M 628 4666 
L 1259 4666 
L 1259 0 
L 628 0 
L 628 4666 
z
" transform="scale(0.015625)"/>
      <path id="DejaVuSans-4c" d="M 628 4666 
L 1259 4666 
L 1259 531 
L 3531 531 
L 3531 0 
L 628 0 
L 628 4666 
z
" transform="scale(0.015625)"/>
      <path id="DejaVuSans-41" d="M 2188 4044 
L 1331 1722 
L 3047 1722 
L 2188 4044 
z
M 1831 4666 
L 2547 4666 
L 4325 0 
L 3669 0 
L 3244 1197 
L 1141 1197 
L 716 0 
L 50 0 
L 1831 4666 
z
" transform="scale(0.015625)"/>
      <path id="DejaVuSans-35" d="M 691 4666 
L 3169 4666 
L 3169 4134 
L 1269 4134 
L 1269 2991 
Q 1406 3038 1543 3061 
Q 1681 3084 1819 3084 
Q 2600 3084 3056 2656 
Q 3513 2228 3513 1497 
Q 3513 744 3044 326 
Q 2575 -91 1722 -91 
Q 1428 -91 1123 -41 
Q 819 9 494 109 
L 494 744 
Q 775 591 1075 516 
Q 1375 441 1709 441 
Q 2250 441 2565 725 
Q 2881 1009 2881 1497 
Q 2881 1984 2565 2268 
Q 2250 2553 1709 2553 
Q 1456 2553 1204 2497 
Q 953 2441 691 2322 
L 691 4666 
z
" transform="scale(0.015625)"/>
     </defs>
     <use xlink:href="#DejaVuSans-49"/>
     <use xlink:href="#DejaVuSans-4c" transform="translate(29.492188 0)"/>
     <use xlink:href="#DejaVuSans-41" transform="translate(87.455078 0)"/>
     <use xlink:href="#DejaVuSans-35" transform="translate(155.863281 0)"/>
    </g>
   </g>
   <g id="text_16">
    <!-- ILA6a -->
    <g transform="translate(236.200874 89.802832) scale(0.08 -0.08)">
     <use xlink:href="#DejaVuSans-49"/>
     <use xlink:href="#DejaVuSans-4c" transform="translate(29.492188 0)"/>
     <use xlink:href="#DejaVuSans-41" transform="translate(87.455078 0)"/>
     <use xlink:href="#DejaVuSans-36" transform="translate(155.863281 0)"/>
     <use xlink:href="#DejaVuSans-61" transform="translate(219.486328 0)"/>
    </g>
   </g>
   <g id="text_17">
    <!-- ORBl5 -->
    <g transform="translate(132.088463 151.869361) scale(0.08 -0.08)">
     <defs>
      <path id="DejaVuSans-4f" d="M 2522 4238 
Q 1834 4238 1429 3725 
Q 1025 3213 1025 2328 
Q 1025 1447 1429 934 
Q 1834 422 2522 422 
Q 3209 422 3611 934 
Q 4013 1447 4013 2328 
Q 4013 3213 3611 3725 
Q 3209 4238 2522 4238 
z
M 2522 4750 
Q 3503 4750 4090 4092 
Q 4678 3434 4678 2328 
Q 4678 1225 4090 567 
Q 3503 -91 2522 -91 
Q 1538 -91 948 565 
Q 359 1222 359 2328 
Q 359 3434 948 4092 
Q 1538 4750 2522 4750 
z
" transform="scale(0.015625)"/>
      <path id="DejaVuSans-52" d="M 2841 2188 
Q 3044 2119 3236 1894 
Q 3428 1669 3622 1275 
L 4263 0 
L 3584 0 
L 2988 1197 
Q 2756 1666 2539 1819 
Q 2322 1972 1947 1972 
L 1259 1972 
L 1259 0 
L 628 0 
L 628 4666 
L 2053 4666 
Q 2853 4666 3247 4331 
Q 3641 3997 3641 3322 
Q 3641 2881 3436 2590 
Q 3231 2300 2841 2188 
z
M 1259 4147 
L 1259 2491 
L 2053 2491 
Q 2509 2491 2742 2702 
Q 2975 2913 2975 3322 
Q 2975 3731 2742 3939 
Q 2509 4147 2053 4147 
L 1259 4147 
z
" transform="scale(0.015625)"/>
      <path id="DejaVuSans-42" d="M 1259 2228 
L 1259 519 
L 2272 519 
Q 2781 519 3026 730 
Q 3272 941 3272 1375 
Q 3272 1813 3026 2020 
Q 2781 2228 2272 2228 
L 1259 2228 
z
M 1259 4147 
L 1259 2741 
L 2194 2741 
Q 2656 2741 2882 2914 
Q 3109 3088 3109 3444 
Q 3109 3797 2882 3972 
Q 2656 4147 2194 4147 
L 1259 4147 
z
M 628 4666 
L 2241 4666 
Q 2963 4666 3353 4366 
Q 3744 4066 3744 3513 
Q 3744 3084 3544 2831 
Q 3344 2578 2956 2516 
Q 3422 2416 3680 2098 
Q 3938 1781 3938 1306 
Q 3938 681 3513 340 
Q 3088 0 2303 0 
L 628 0 
L 628 4666 
z
" transform="scale(0.015625)"/>
     </defs>
     <use xlink:href="#DejaVuSans-4f"/>
     <use xlink:href="#DejaVuSans-52" transform="translate(78.710938 0)"/>
     <use xlink:href="#DejaVuSans-42" transform="translate(148.193359 0)"/>
     <use xlink:href="#DejaVuSans-6c" transform="translate(216.796875 0)"/>
     <use xlink:href="#DejaVuSans-35" transform="translate(244.580078 0)"/>
    </g>
   </g>
   <g id="text_18">
    <!-- ORBl6a -->
    <g transform="translate(196.789613 49.145534) scale(0.08 -0.08)">
     <use xlink:href="#DejaVuSans-4f"/>
     <use xlink:href="#DejaVuSans-52" transform="translate(78.710938 0)"/>
     <use xlink:href="#DejaVuSans-42" transform="translate(148.193359 0)"/>
     <use xlink:href="#DejaVuSans-6c" transform="translate(216.796875 0)"/>
     <use xlink:href="#DejaVuSans-36" transform="translate(244.580078 0)"/>
     <use xlink:href="#DejaVuSans-61" transform="translate(308.203125 0)"/>
    </g>
   </g>
   <g id="text_19">
    <!-- ORBm5 -->
    <g transform="translate(223.34132 294.93621) scale(0.08 -0.08)">
     <use xlink:href="#DejaVuSans-4f"/>
     <use xlink:href="#DejaVuSans-52" transform="translate(78.710938 0)"/>
     <use xlink:href="#DejaVuSans-42" transform="translate(148.193359 0)"/>
     <use xlink:href="#DejaVuSans-6d" transform="translate(216.796875 0)"/>
     <use xlink:href="#DejaVuSans-35" transform="translate(314.208984 0)"/>
    </g>
   </g>
   <g id="text_20">
    <!-- ORBm6a -->
    <g transform="translate(389.718957 137.687676) scale(0.08 -0.08)">
     <use xlink:href="#DejaVuSans-4f"/>
     <use xlink:href="#DejaVuSans-52" transform="translate(78.710938 0)"/>
     <use xlink:href="#DejaVuSans-42" transform="translate(148.193359 0)"/>
     <use xlink:href="#DejaVuSans-6d" transform="translate(216.796875 0)"/>
     <use xlink:href="#DejaVuSans-36" transform="translate(314.208984 0)"/>
     <use xlink:href="#DejaVuSans-61" transform="translate(377.832031 0)"/>
    </g>
   </g>
   <g id="text_21">
    <!-- ORBvl5 -->
    <g transform="translate(88.115719 143.521305) scale(0.08 -0.08)">
     <defs>
      <path id="DejaVuSans-76" d="M 191 3500 
L 800 3500 
L 1894 563 
L 2988 3500 
L 3597 3500 
L 2284 0 
L 1503 0 
L 191 3500 
z
" transform="scale(0.015625)"/>
     </defs>
     <use xlink:href="#DejaVuSans-4f"/>
     <use xlink:href="#DejaVuSans-52" transform="translate(78.710938 0)"/>
     <use xlink:href="#DejaVuSans-42" transform="translate(148.193359 0)"/>
     <use xlink:href="#DejaVuSans-76" transform="translate(216.796875 0)"/>
     <use xlink:href="#DejaVuSans-6c" transform="translate(275.976562 0)"/>
     <use xlink:href="#DejaVuSans-35" transform="translate(303.759766 0)"/>
    </g>
   </g>
   <g id="text_22">
    <!-- ORBvl6a -->
    <g transform="translate(109.775925 193.731196) scale(0.08 -0.08)">
     <use xlink:href="#DejaVuSans-4f"/>
     <use xlink:href="#DejaVuSans-52" transform="translate(78.710938 0)"/>
     <use xlink:href="#DejaVuSans-42" transform="translate(148.193359 0)"/>
     <use xlink:href="#DejaVuSans-76" transform="translate(216.796875 0)"/>
     <use xlink:href="#DejaVuSans-6c" transform="translate(275.976562 0)"/>
     <use xlink:href="#DejaVuSans-36" transform="translate(303.759766 0)"/>
     <use xlink:href="#DejaVuSans-61" transform="translate(367.382812 0)"/>
    </g>
   </g>
   <g id="text_23">
    <!-- PL5 -->
    <g transform="translate(99.967504 291.425442) scale(0.08 -0.08)">
     <use xlink:href="#DejaVuSans-50"/>
     <use xlink:href="#DejaVuSans-4c" transform="translate(60.302734 0)"/>
     <use xlink:href="#DejaVuSans-35" transform="translate(116.015625 0)"/>
    </g>
   </g>
   <g id="text_24">
    <!-- PL6a -->
    <g transform="translate(126.171586 123.356652) scale(0.08 -0.08)">
     <use xlink:href="#DejaVuSans-50"/>
     <use xlink:href="#DejaVuSans-4c" transform="translate(60.302734 0)"/>
     <use xlink:href="#DejaVuSans-36" transform="translate(116.015625 0)"/>
     <use xlink:href="#DejaVuSans-61" transform="translate(179.638672 0)"/>
    </g>
   </g>
   <g id="text_25">
    <!-- Thalamic Projection vs NW Fraction -->
    <g transform="translate(140.35625 22.418625) scale(0.12 -0.12)">
     <defs>
      <path id="DejaVuSans-46" d="M 628 4666 
L 3309 4666 
L 3309 4134 
L 1259 4134 
L 1259 2759 
L 3109 2759 
L 3109 2228 
L 1259 2228 
L 1259 0 
L 628 0 
L 628 4666 
z
" transform="scale(0.015625)"/>
     </defs>
     <use xlink:href="#DejaVuSans-54"/>
     <use xlink:href="#DejaVuSans-68" transform="translate(61.083984 0)"/>
     <use xlink:href="#DejaVuSans-61" transform="translate(124.462891 0)"/>
     <use xlink:href="#DejaVuSans-6c" transform="translate(185.742188 0)"/>
     <use xlink:href="#DejaVuSans-61" transform="translate(213.525391 0)"/>
     <use xlink:href="#DejaVuSans-6d" transform="translate(274.804688 0)"/>
     <use xlink:href="#DejaVuSans-69" transform="translate(372.216797 0)"/>
     <use xlink:href="#DejaVuSans-63" transform="translate(400 0)"/>
     <use xlink:href="#DejaVuSans-20" transform="translate(454.980469 0)"/>
     <use xlink:href="#DejaVuSans-50" transform="translate(486.767578 0)"/>
     <use xlink:href="#DejaVuSans-72" transform="translate(545.320312 0)"/>
     <use xlink:href="#DejaVuSans-6f" transform="translate(584.183594 0)"/>
     <use xlink:href="#DejaVuSans-6a" transform="translate(645.365234 0)"/>
     <use xlink:href="#DejaVuSans-65" transform="translate(673.148438 0)"/>
     <use xlink:href="#DejaVuSans-63" transform="translate(734.671875 0)"/>
     <use xlink:href="#DejaVuSans-74" transform="translate(789.652344 0)"/>
     <use xlink:href="#DejaVuSans-69" transform="translate(828.861328 0)"/>
     <use xlink:href="#DejaVuSans-6f" transform="translate(856.644531 0)"/>
     <use xlink:href="#DejaVuSans-6e" transform="translate(917.826172 0)"/>
     <use xlink:href="#DejaVuSans-20" transform="translate(981.205078 0)"/>
     <use xlink:href="#DejaVuSans-76" transform="translate(1012.992188 0)"/>
     <use xlink:href="#DejaVuSans-73" transform="translate(1072.171875 0)"/>
     <use xlink:href="#DejaVuSans-20" transform="translate(1124.271484 0)"/>
     <use xlink:href="#DejaVuSans-4e" transform="translate(1156.058594 0)"/>
     <use xlink:href="#DejaVuSans-57" transform="translate(1230.863281 0)"/>
     <use xlink:href="#DejaVuSans-20" transform="translate(1329.740234 0)"/>
     <use xlink:href="#DejaVuSans-46" transform="translate(1361.527344 0)"/>
     <use xlink:href="#DejaVuSans-72" transform="translate(1411.796875 0)"/>
     <use xlink:href="#DejaVuSans-61" transform="translate(1452.910156 0)"/>
     <use xlink:href="#DejaVuSans-63" transform="translate(1514.189453 0)"/>
     <use xlink:href="#DejaVuSans-74" transform="translate(1569.169922 0)"/>
     <use xlink:href="#DejaVuSans-69" transform="translate(1608.378906 0)"/>
     <use xlink:href="#DejaVuSans-6f" transform="translate(1636.162109 0)"/>
     <use xlink:href="#DejaVuSans-6e" transform="translate(1697.34375 0)"/>
    </g>
    <!-- Spearman ρ = 0.200, p = 0.580 -->
    <g transform="translate(149.949688 35.856) scale(0.12 -0.12)">
     <defs>
      <path id="DejaVuSans-53" d="M 3425 4513 
L 3425 3897 
Q 3066 4069 2747 4153 
Q 2428 4238 2131 4238 
Q 1616 4238 1336 4038 
Q 1056 3838 1056 3469 
Q 1056 3159 1242 3001 
Q 1428 2844 1947 2747 
L 2328 2669 
Q 3034 2534 3370 2195 
Q 3706 1856 3706 1288 
Q 3706 609 3251 259 
Q 2797 -91 1919 -91 
Q 1588 -91 1214 -16 
Q 841 59 441 206 
L 441 856 
Q 825 641 1194 531 
Q 1563 422 1919 422 
Q 2459 422 2753 634 
Q 3047 847 3047 1241 
Q 3047 1584 2836 1778 
Q 2625 1972 2144 2069 
L 1759 2144 
Q 1053 2284 737 2584 
Q 422 2884 422 3419 
Q 422 4038 858 4394 
Q 1294 4750 2059 4750 
Q 2388 4750 2728 4690 
Q 3069 4631 3425 4513 
z
" transform="scale(0.015625)"/>
      <path id="DejaVuSans-3c1" d="M 863 2875 
Q 1053 3194 1525 3475 
Q 1709 3584 2278 3584 
Q 2916 3584 3314 3078 
Q 3713 2572 3713 1747 
Q 3713 922 3314 415 
Q 2916 -91 2278 -91 
Q 1894 -91 1617 61 
Q 1341 213 1159 525 
L 1159 -1331 
L 581 -1331 
L 581 1716 
Q 581 2438 863 2875 
z
M 3116 1747 
Q 3116 2381 2855 2742 
Q 2594 3103 2138 3103 
Q 1681 3103 1420 2742 
Q 1159 2381 1159 1747 
Q 1159 1113 1420 752 
Q 1681 391 2138 391 
Q 2594 391 2855 752 
Q 3116 1113 3116 1747 
z
" transform="scale(0.015625)"/>
      <path id="DejaVuSans-3d" d="M 678 2906 
L 4684 2906 
L 4684 2381 
L 678 2381 
L 678 2906 
z
M 678 1631 
L 4684 1631 
L 4684 1100 
L 678 1100 
L 678 1631 
z
" transform="scale(0.015625)"/>
      <path id="DejaVuSans-2c" d="M 750 794 
L 1409 794 
L 1409 256 
L 897 -744 
L 494 -744 
L 750 256 
L 750 794 
z
" transform="scale(0.015625)"/>
     </defs>
     <use xlink:href="#DejaVuSans-53"/>
     <use xlink:href="#DejaVuSans-70" transform="translate(63.476562 0)"/>
     <use xlink:href="#DejaVuSans-65" transform="translate(126.953125 0)"/>
     <use xlink:href="#DejaVuSans-61" transform="translate(188.476562 0)"/>
     <use xlink:href="#DejaVuSans-72" transform="translate(249.755859 0)"/>
     <use xlink:href="#DejaVuSans-6d" transform="translate(289.119141 0)"/>
     <use xlink:href="#DejaVuSans-61" transform="translate(386.53125 0)"/>
     <use xlink:href="#DejaVuSans-6e" transform="translate(447.810547 0)"/>
     <use xlink:href="#DejaVuSans-20" transform="translate(511.189453 0)"/>
     <use xlink:href="#DejaVuSans-3c1" transform="translate(542.976562 0)"/>
     <use xlink:href="#DejaVuSans-20" transform="translate(606.453125 0)"/>
     <use xlink:href="#DejaVuSans-3d" transform="translate(638.240234 0)"/>
     <use xlink:href="#DejaVuSans-20" transform="translate(722.029297 0)"/>
     <use xlink:href="#DejaVuSans-30" transform="translate(753.816406 0)"/>
     <use xlink:href="#DejaVuSans-2e" transform="translate(817.439453 0)"/>
     <use xlink:href="#DejaVuSans-32" transform="translate(849.226562 0)"/>
     <use xlink:href="#DejaVuSans-30" transform="translate(912.849609 0)"/>
     <use xlink:href="#DejaVuSans-30" transform="translate(976.472656 0)"/>
     <use xlink:href="#DejaVuSans-2c" transform="translate(1040.095703 0)"/>
     <use xlink:href="#DejaVuSans-20" transform="translate(1071.882812 0)"/>
     <use xlink:href="#DejaVuSans-70" transform="translate(1103.669922 0)"/>
     <use xlink:href="#DejaVuSans-20" transform="translate(1167.146484 0)"/>
     <use xlink:href="#DejaVuSans-3d" transform="translate(1198.933594 0)"/>
     <use xlink:href="#DejaVuSans-20" transform="translate(1282.722656 0)"/>
     <use xlink:href="#DejaVuSans-30" transform="translate(1314.509766 0)"/>
     <use xlink:href="#DejaVuSans-2e" transform="translate(1378.132812 0)"/>
     <use xlink:href="#DejaVuSans-35" transform="translate(1409.919922 0)"/>
     <use xlink:href="#DejaVuSans-38" transform="translate(1473.542969 0)"/>
     <use xlink:href="#DejaVuSans-30" transform="translate(1537.166016 0)"/>
    </g>
   </g>
   <g id="PathCollection_1">
    <defs>
     <path id="mbda8d31d34" d="M 0 5.477226 
C 1.452577 5.477226 2.845856 4.900111 3.872983 3.872983 
C 4.900111 2.845856 5.477226 1.452577 5.477226 0 
C 5.477226 -1.452577 4.900111 -2.845856 3.872983 -3.872983 
C 2.845856 -4.900111 1.452577 -5.477226 0 -5.477226 
C -1.452577 -5.477226 -2.845856 -4.900111 -3.872983 -3.872983 
C -4.900111 -2.845856 -5.477226 -1.452577 -5.477226 0 
C -5.477226 1.452577 -4.900111 2.845856 -3.872983 3.872983 
C -2.845856 4.900111 -1.452577 5.477226 0 5.477226 
z
" style="stroke: #000000; stroke-width: 0.8"/>
    </defs>
    <g clip-path="url(#p6519d496af)">
     <use xlink:href="#mbda8d31d34" x="197.755854" y="242.495957" style="fill: #1f77b4; stroke: #000000; stroke-width: 0.8"/>
     <use xlink:href="#mbda8d31d34" x="228.200874" y="94.802832" style="fill: #1f77b4; stroke: #000000; stroke-width: 0.8"/>
     <use xlink:href="#mbda8d31d34" x="124.088463" y="156.869361" style="fill: #1f77b4; stroke: #000000; stroke-width: 0.8"/>
     <use xlink:href="#mbda8d31d34" x="188.789613" y="54.145534" style="fill: #1f77b4; stroke: #000000; stroke-width: 0.8"/>
     <use xlink:href="#mbda8d31d34" x="215.34132" y="299.93621" style="fill: #1f77b4; stroke: #000000; stroke-width: 0.8"/>
     <use xlink:href="#mbda8d31d34" x="381.718957" y="142.687676" style="fill: #1f77b4; stroke: #000000; stroke-width: 0.8"/>
     <use xlink:href="#mbda8d31d34" x="80.115719" y="148.521305" style="fill: #1f77b4; stroke: #000000; stroke-width: 0.8"/>
     <use xlink:href="#mbda8d31d34" x="101.775925" y="198.731196" style="fill: #1f77b4; stroke: #000000; stroke-width: 0.8"/>
     <use xlink:href="#mbda8d31d34" x="91.967504" y="296.425442" style="fill: #1f77b4; stroke: #000000; stroke-width: 0.8"/>
     <use xlink:href="#mbda8d31d34" x="118.171586" y="128.356652" style="fill: #1f77b4; stroke: #000000; stroke-width: 0.8"/>
    </g>
   </g>
  </g>
  <g id="axes_2">
   <g id="patch_7">
    <path d="M 491.905 312.225744 
L 875.68 312.225744 
L 875.68 41.856 
L 491.905 41.856 
z
" style="fill: #ffffff"/>
   </g>
   <g id="patch_8">
    <path d="M 509.349318 312.225744 
L 521.938001 312.225744 
L 521.938001 177.064087 
L 509.349318 177.064087 
z
" clip-path="url(#p237e2f0fcf)" style="fill: #8172b2; stroke: #000000; stroke-linejoin: miter"/>
   </g>
   <g id="patch_9">
    <path d="M 545.316985 312.225744 
L 557.905668 312.225744 
L 557.905668 156.8185 
L 545.316985 156.8185 
z
" clip-path="url(#p237e2f0fcf)" style="fill: #8172b2; stroke: #000000; stroke-linejoin: miter"/>
   </g>
   <g id="patch_10">
    <path d="M 581.284651 312.225744 
L 593.873334 312.225744 
L 593.873334 226.052051 
L 581.284651 226.052051 
z
" clip-path="url(#p237e2f0fcf)" style="fill: #8172b2; stroke: #000000; stroke-linejoin: miter"/>
   </g>
   <g id="patch_11">
    <path d="M 617.252317 312.225744 
L 629.841 312.225744 
L 629.841 183.026533 
L 617.252317 183.026533 
z
" clip-path="url(#p237e2f0fcf)" style="fill: #8172b2; stroke: #000000; stroke-linejoin: miter"/>
   </g>
   <g id="patch_12">
    <path d="M 653.219984 312.225744 
L 665.808667 312.225744 
L 665.808667 165.369955 
L 653.219984 165.369955 
z
" clip-path="url(#p237e2f0fcf)" style="fill: #8172b2; stroke: #000000; stroke-linejoin: miter"/>
   </g>
   <g id="patch_13">
    <path d="M 689.18765 312.225744 
L 701.776333 312.225744 
L 701.776333 54.73075 
L 689.18765 54.73075 
z
" clip-path="url(#p237e2f0fcf)" style="fill: #8172b2; stroke: #000000; stroke-linejoin: miter"/>
   </g>
   <g id="patch_14">
    <path d="M 725.155316 312.225744 
L 737.744 312.225744 
L 737.744 255.293417 
L 725.155316 255.293417 
z
" clip-path="url(#p237e2f0fcf)" style="fill: #8172b2; stroke: #000000; stroke-linejoin: miter"/>
   </g>
   <g id="patch_15">
    <path d="M 761.122983 312.225744 
L 773.711666 312.225744 
L 773.711666 240.88963 
L 761.122983 240.88963 
z
" clip-path="url(#p237e2f0fcf)" style="fill: #8172b2; stroke: #000000; stroke-linejoin: miter"/>
   </g>
   <g id="patch_16">
    <path d="M 797.090649 312.225744 
L 809.679332 312.225744 
L 809.679332 247.412117 
L 797.090649 247.412117 
z
" clip-path="url(#p237e2f0fcf)" style="fill: #8172b2; stroke: #000000; stroke-linejoin: miter"/>
   </g>
   <g id="patch_17">
    <path d="M 833.058315 312.225744 
L 845.646999 312.225744 
L 845.646999 229.986705 
L 833.058315 229.986705 
z
" clip-path="url(#p237e2f0fcf)" style="fill: #8172b2; stroke: #000000; stroke-linejoin: miter"/>
   </g>
   <g id="matplotlib.axis_3">
    <g id="xtick_7">
     <g id="line2d_14">
      <g>
       <use xlink:href="#m1578d863d3" x="521.938001" y="312.225744" style="stroke: #000000; stroke-width: 0.8"/>
      </g>
     </g>
     <g id="text_26">
      <!-- ILA5 -->
      <g transform="translate(508.344757 335.940864) rotate(-45) scale(0.08 -0.08)">
       <use xlink:href="#DejaVuSans-49"/>
       <use xlink:href="#DejaVuSans-4c" transform="translate(29.492188 0)"/>
       <use xlink:href="#DejaVuSans-41" transform="translate(87.455078 0)"/>
       <use xlink:href="#DejaVuSans-35" transform="translate(155.863281 0)"/>
      </g>
     </g>
    </g>
    <g id="xtick_8">
     <g id="line2d_15">
      <g>
       <use xlink:href="#m1578d863d3" x="557.905668" y="312.225744" style="stroke: #000000; stroke-width: 0.8"/>
      </g>
     </g>
     <g id="text_27">
      <!-- ILA6a -->
      <g transform="translate(540.845833 339.407455) rotate(-45) scale(0.08 -0.08)">
       <use xlink:href="#DejaVuSans-49"/>
       <use xlink:href="#DejaVuSans-4c" transform="translate(29.492188 0)"/>
       <use xlink:href="#DejaVuSans-41" transform="translate(87.455078 0)"/>
       <use xlink:href="#DejaVuSans-36" transform="translate(155.863281 0)"/>
       <use xlink:href="#DejaVuSans-61" transform="translate(219.486328 0)"/>
      </g>
     </g>
    </g>
    <g id="xtick_9">
     <g id="line2d_16">
      <g>
       <use xlink:href="#m1578d863d3" x="593.873334" y="312.225744" style="stroke: #000000; stroke-width: 0.8"/>
      </g>
     </g>
     <g id="text_28">
      <!-- ORBl5 -->
      <g transform="translate(575.2614 340.959554) rotate(-45) scale(0.08 -0.08)">
       <use xlink:href="#DejaVuSans-4f"/>
       <use xlink:href="#DejaVuSans-52" transform="translate(78.710938 0)"/>
       <use xlink:href="#DejaVuSans-42" transform="translate(148.193359 0)"/>
       <use xlink:href="#DejaVuSans-6c" transform="translate(216.796875 0)"/>
       <use xlink:href="#DejaVuSans-35" transform="translate(244.580078 0)"/>
      </g>
     </g>
    </g>
    <g id="xtick_10">
     <g id="line2d_17">
      <g>
       <use xlink:href="#m1578d863d3" x="629.841" y="312.225744" style="stroke: #000000; stroke-width: 0.8"/>
      </g>
     </g>
     <g id="text_29">
      <!-- ORBl6a -->
      <g transform="translate(607.762475 344.426145) rotate(-45) scale(0.08 -0.08)">
       <use xlink:href="#DejaVuSans-4f"/>
       <use xlink:href="#DejaVuSans-52" transform="translate(78.710938 0)"/>
       <use xlink:href="#DejaVuSans-42" transform="translate(148.193359 0)"/>
       <use xlink:href="#DejaVuSans-6c" transform="translate(216.796875 0)"/>
       <use xlink:href="#DejaVuSans-36" transform="translate(244.580078 0)"/>
       <use xlink:href="#DejaVuSans-61" transform="translate(308.203125 0)"/>
      </g>
     </g>
    </g>
    <g id="xtick_11">
     <g id="line2d_18">
      <g>
       <use xlink:href="#m1578d863d3" x="665.808667" y="312.225744" style="stroke: #000000; stroke-width: 0.8"/>
      </g>
     </g>
     <g id="text_30">
      <!-- ORBm5 -->
      <g transform="translate(643.258148 344.898139) rotate(-45) scale(0.08 -0.08)">
       <use xlink:href="#DejaVuSans-4f"/>
       <use xlink:href="#DejaVuSans-52" transform="translate(78.710938 0)"/>
       <use xlink:href="#DejaVuSans-42" transform="translate(148.193359 0)"/>
       <use xlink:href="#DejaVuSans-6d" transform="translate(216.796875 0)"/>
       <use xlink:href="#DejaVuSans-35" transform="translate(314.208984 0)"/>
      </g>
     </g>
    </g>
    <g id="xtick_12">
     <g id="line2d_19">
      <g>
       <use xlink:href="#m1578d863d3" x="701.776333" y="312.225744" style="stroke: #000000; stroke-width: 0.8"/>
      </g>
     </g>
     <g id="text_31">
      <!-- ORBm6a -->
      <g transform="translate(675.759223 348.36473) rotate(-45) scale(0.08 -0.08)">
       <use xlink:href="#DejaVuSans-4f"/>
       <use xlink:href="#DejaVuSans-52" transform="translate(78.710938 0)"/>
       <use xlink:href="#DejaVuSans-42" transform="translate(148.193359 0)"/>
       <use xlink:href="#DejaVuSans-6d" transform="translate(216.796875 0)"/>
       <use xlink:href="#DejaVuSans-36" transform="translate(314.208984 0)"/>
       <use xlink:href="#DejaVuSans-61" transform="translate(377.832031 0)"/>
      </g>
     </g>
    </g>
    <g id="xtick_13">
     <g id="line2d_20">
      <g>
       <use xlink:href="#m1578d863d3" x="737.744" y="312.225744" style="stroke: #000000; stroke-width: 0.8"/>
      </g>
     </g>
     <g id="text_32">
      <!-- ORBvl5 -->
      <g transform="translate(715.783915 344.307705) rotate(-45) scale(0.08 -0.08)">
       <use xlink:href="#DejaVuSans-4f"/>
       <use xlink:href="#DejaVuSans-52" transform="translate(78.710938 0)"/>
       <use xlink:href="#DejaVuSans-42" transform="translate(148.193359 0)"/>
       <use xlink:href="#DejaVuSans-76" transform="translate(216.796875 0)"/>
       <use xlink:href="#DejaVuSans-6c" transform="translate(275.976562 0)"/>
       <use xlink:href="#DejaVuSans-35" transform="translate(303.759766 0)"/>
      </g>
     </g>
    </g>
    <g id="xtick_14">
     <g id="line2d_21">
      <g>
       <use xlink:href="#m1578d863d3" x="773.711666" y="312.225744" style="stroke: #000000; stroke-width: 0.8"/>
      </g>
     </g>
     <g id="text_33">
      <!-- ORBvl6a -->
      <g transform="translate(748.28499 347.774296) rotate(-45) scale(0.08 -0.08)">
       <use xlink:href="#DejaVuSans-4f"/>
       <use xlink:href="#DejaVuSans-52" transform="translate(78.710938 0)"/>
       <use xlink:href="#DejaVuSans-42" transform="translate(148.193359 0)"/>
       <use xlink:href="#DejaVuSans-76" transform="translate(216.796875 0)"/>
       <use xlink:href="#DejaVuSans-6c" transform="translate(275.976562 0)"/>
       <use xlink:href="#DejaVuSans-36" transform="translate(303.759766 0)"/>
       <use xlink:href="#DejaVuSans-61" transform="translate(367.382812 0)"/>
      </g>
     </g>
    </g>
    <g id="xtick_15">
     <g id="line2d_22">
      <g>
       <use xlink:href="#m1578d863d3" x="809.679332" y="312.225744" style="stroke: #000000; stroke-width: 0.8"/>
      </g>
     </g>
     <g id="text_34">
      <!-- PL5 -->
      <g transform="translate(798.340875 333.686077) rotate(-45) scale(0.08 -0.08)">
       <use xlink:href="#DejaVuSans-50"/>
       <use xlink:href="#DejaVuSans-4c" transform="translate(60.302734 0)"/>
       <use xlink:href="#DejaVuSans-35" transform="translate(116.015625 0)"/>
      </g>
     </g>
    </g>
    <g id="xtick_16">
     <g id="line2d_23">
      <g>
       <use xlink:href="#m1578d863d3" x="845.646999" y="312.225744" style="stroke: #000000; stroke-width: 0.8"/>
      </g>
     </g>
     <g id="text_35">
      <!-- PL6a -->
      <g transform="translate(830.84195 337.152668) rotate(-45) scale(0.08 -0.08)">
       <use xlink:href="#DejaVuSans-50"/>
       <use xlink:href="#DejaVuSans-4c" transform="translate(60.302734 0)"/>
       <use xlink:href="#DejaVuSans-36" transform="translate(116.015625 0)"/>
       <use xlink:href="#DejaVuSans-61" transform="translate(179.638672 0)"/>
      </g>
     </g>
    </g>
   </g>
   <g id="matplotlib.axis_4">
    <g id="ytick_7">
     <g id="line2d_24">
      <g>
       <use xlink:href="#m54feb5b31b" x="491.905" y="312.225744" style="stroke: #000000; stroke-width: 0.8"/>
      </g>
     </g>
     <g id="text_36">
      <!-- 0.00 -->
      <g transform="translate(462.639375 316.024962) scale(0.1 -0.1)">
       <use xlink:href="#DejaVuSans-30"/>
       <use xlink:href="#DejaVuSans-2e" transform="translate(63.623047 0)"/>
       <use xlink:href="#DejaVuSans-30" transform="translate(95.410156 0)"/>
       <use xlink:href="#DejaVuSans-30" transform="translate(159.033203 0)"/>
      </g>
     </g>
    </g>
    <g id="ytick_8">
     <g id="line2d_25">
      <g>
       <use xlink:href="#m54feb5b31b" x="491.905" y="265.085166" style="stroke: #000000; stroke-width: 0.8"/>
      </g>
     </g>
     <g id="text_37">
      <!-- 0.02 -->
      <g transform="translate(462.639375 268.884384) scale(0.1 -0.1)">
       <use xlink:href="#DejaVuSans-30"/>
       <use xlink:href="#DejaVuSans-2e" transform="translate(63.623047 0)"/>
       <use xlink:href="#DejaVuSans-30" transform="translate(95.410156 0)"/>
       <use xlink:href="#DejaVuSans-32" transform="translate(159.033203 0)"/>
      </g>
     </g>
    </g>
    <g id="ytick_9">
     <g id="line2d_26">
      <g>
       <use xlink:href="#m54feb5b31b" x="491.905" y="217.944588" style="stroke: #000000; stroke-width: 0.8"/>
      </g>
     </g>
     <g id="text_38">
      <!-- 0.04 -->
      <g transform="translate(462.639375 221.743806) scale(0.1 -0.1)">
       <use xlink:href="#DejaVuSans-30"/>
       <use xlink:href="#DejaVuSans-2e" transform="translate(63.623047 0)"/>
       <use xlink:href="#DejaVuSans-30" transform="translate(95.410156 0)"/>
       <use xlink:href="#DejaVuSans-34" transform="translate(159.033203 0)"/>
      </g>
     </g>
    </g>
    <g id="ytick_10">
     <g id="line2d_27">
      <g>
       <use xlink:href="#m54feb5b31b" x="491.905" y="170.80401" style="stroke: #000000; stroke-width: 0.8"/>
      </g>
     </g>
     <g id="text_39">
      <!-- 0.06 -->
      <g transform="translate(462.639375 174.603228) scale(0.1 -0.1)">
       <use xlink:href="#DejaVuSans-30"/>
       <use xlink:href="#DejaVuSans-2e" transform="translate(63.623047 0)"/>
       <use xlink:href="#DejaVuSans-30" transform="translate(95.410156 0)"/>
       <use xlink:href="#DejaVuSans-36" transform="translate(159.033203 0)"/>
      </g>
     </g>
    </g>
    <g id="ytick_11">
     <g id="line2d_28">
      <g>
       <use xlink:href="#m54feb5b31b" x="491.905" y="123.663432" style="stroke: #000000; stroke-width: 0.8"/>
      </g>
     </g>
     <g id="text_40">
      <!-- 0.08 -->
      <g transform="translate(462.639375 127.46265) scale(0.1 -0.1)">
       <use xlink:href="#DejaVuSans-30"/>
       <use xlink:href="#DejaVuSans-2e" transform="translate(63.623047 0)"/>
       <use xlink:href="#DejaVuSans-30" transform="translate(95.410156 0)"/>
       <use xlink:href="#DejaVuSans-38" transform="translate(159.033203 0)"/>
      </g>
     </g>
    </g>
    <g id="ytick_12">
     <g id="line2d_29">
      <g>
       <use xlink:href="#m54feb5b31b" x="491.905" y="76.522854" style="stroke: #000000; stroke-width: 0.8"/>
      </g>
     </g>
     <g id="text_41">
      <!-- 0.10 -->
      <g transform="translate(462.639375 80.322072) scale(0.1 -0.1)">
       <use xlink:href="#DejaVuSans-30"/>
       <use xlink:href="#DejaVuSans-2e" transform="translate(63.623047 0)"/>
       <use xlink:href="#DejaVuSans-31" transform="translate(95.410156 0)"/>
       <use xlink:href="#DejaVuSans-30" transform="translate(159.033203 0)"/>
      </g>
     </g>
    </g>
    <g id="text_42">
     <!-- Thalamic projection (NPV) -->
     <g style="fill: #8172b2" transform="translate(456.559688 242.013528) rotate(-90) scale(0.1 -0.1)">
      <use xlink:href="#DejaVuSans-54"/>
      <use xlink:href="#DejaVuSans-68" transform="translate(61.083984 0)"/>
      <use xlink:href="#DejaVuSans-61" transform="translate(124.462891 0)"/>
      <use xlink:href="#DejaVuSans-6c" transform="translate(185.742188 0)"/>
      <use xlink:href="#DejaVuSans-61" transform="translate(213.525391 0)"/>
      <use xlink:href="#DejaVuSans-6d" transform="translate(274.804688 0)"/>
      <use xlink:href="#DejaVuSans-69" transform="translate(372.216797 0)"/>
      <use xlink:href="#DejaVuSans-63" transform="translate(400 0)"/>
      <use xlink:href="#DejaVuSans-20" transform="translate(454.980469 0)"/>
      <use xlink:href="#DejaVuSans-70" transform="translate(486.767578 0)"/>
      <use xlink:href="#DejaVuSans-72" transform="translate(550.244141 0)"/>
      <use xlink:href="#DejaVuSans-6f" transform="translate(589.107422 0)"/>
      <use xlink:href="#DejaVuSans-6a" transform="translate(650.289062 0)"/>
      <use xlink:href="#DejaVuSans-65" transform="translate(678.072266 0)"/>
      <use xlink:href="#DejaVuSans-63" transform="translate(739.595703 0)"/>
      <use xlink:href="#DejaVuSans-74" transform="translate(794.576172 0)"/>
      <use xlink:href="#DejaVuSans-69" transform="translate(833.785156 0)"/>
      <use xlink:href="#DejaVuSans-6f" transform="translate(861.568359 0)"/>
      <use xlink:href="#DejaVuSans-6e" transform="translate(922.75 0)"/>
      <use xlink:href="#DejaVuSans-20" transform="translate(986.128906 0)"/>
      <use xlink:href="#DejaVuSans-28" transform="translate(1017.916016 0)"/>
      <use xlink:href="#DejaVuSans-4e" transform="translate(1056.929688 0)"/>
      <use xlink:href="#DejaVuSans-50" transform="translate(1131.734375 0)"/>
      <use xlink:href="#DejaVuSans-56" transform="translate(1192.037109 0)"/>
      <use xlink:href="#DejaVuSans-29" transform="translate(1260.445312 0)"/>
     </g>
    </g>
   </g>
   <g id="patch_18">
    <path d="M 491.905 312.225744 
L 491.905 41.856 
" style="fill: none; stroke: #000000; stroke-width: 0.8; stroke-linejoin: miter; stroke-linecap: square"/>
   </g>
   <g id="patch_19">
    <path d="M 875.68 312.225744 
L 875.68 41.856 
" style="fill: none; stroke: #000000; stroke-width: 0.8; stroke-linejoin: miter; stroke-linecap: square"/>
   </g>
   <g id="patch_20">
    <path d="M 491.905 312.225744 
L 875.68 312.225744 
" style="fill: none; stroke: #000000; stroke-width: 0.8; stroke-linejoin: miter; stroke-linecap: square"/>
   </g>
   <g id="patch_21">
    <path d="M 491.905 41.856 
L 875.68 41.856 
" style="fill: none; stroke: #000000; stroke-width: 0.8; stroke-linejoin: miter; stroke-linecap: square"/>
   </g>
   <g id="text_43">
    <!-- Thalamic Projection &amp; NW Fraction -->
    <g transform="translate(580.149063 22.418625) scale(0.12 -0.12)">
     <defs>
      <path id="DejaVuSans-26" d="M 1556 2509 
Q 1272 2256 1139 2004 
Q 1006 1753 1006 1478 
Q 1006 1022 1337 719 
Q 1669 416 2169 416 
Q 2466 416 2725 514 
Q 2984 613 3213 813 
L 1556 2509 
z
M 1997 2859 
L 3584 1234 
Q 3769 1513 3872 1830 
Q 3975 2147 3994 2503 
L 4575 2503 
Q 4538 2091 4375 1687 
Q 4213 1284 3922 891 
L 4794 0 
L 4006 0 
L 3559 459 
Q 3234 181 2878 45 
Q 2522 -91 2113 -91 
Q 1359 -91 881 339 
Q 403 769 403 1441 
Q 403 1841 612 2192 
Q 822 2544 1241 2853 
Q 1091 3050 1012 3245 
Q 934 3441 934 3628 
Q 934 4134 1281 4442 
Q 1628 4750 2203 4750 
Q 2463 4750 2720 4694 
Q 2978 4638 3244 4525 
L 3244 3956 
Q 2972 4103 2725 4179 
Q 2478 4256 2266 4256 
Q 1938 4256 1733 4082 
Q 1528 3909 1528 3634 
Q 1528 3475 1620 3314 
Q 1713 3153 1997 2859 
z
" transform="scale(0.015625)"/>
     </defs>
     <use xlink:href="#DejaVuSans-54"/>
     <use xlink:href="#DejaVuSans-68" transform="translate(61.083984 0)"/>
     <use xlink:href="#DejaVuSans-61" transform="translate(124.462891 0)"/>
     <use xlink:href="#DejaVuSans-6c" transform="translate(185.742188 0)"/>
     <use xlink:href="#DejaVuSans-61" transform="translate(213.525391 0)"/>
     <use xlink:href="#DejaVuSans-6d" transform="translate(274.804688 0)"/>
     <use xlink:href="#DejaVuSans-69" transform="translate(372.216797 0)"/>
     <use xlink:href="#DejaVuSans-63" transform="translate(400 0)"/>
     <use xlink:href="#DejaVuSans-20" transform="translate(454.980469 0)"/>
     <use xlink:href="#DejaVuSans-50" transform="translate(486.767578 0)"/>
     <use xlink:href="#DejaVuSans-72" transform="translate(545.320312 0)"/>
     <use xlink:href="#DejaVuSans-6f" transform="translate(584.183594 0)"/>
     <use xlink:href="#DejaVuSans-6a" transform="translate(645.365234 0)"/>
     <use xlink:href="#DejaVuSans-65" transform="translate(673.148438 0)"/>
     <use xlink:href="#DejaVuSans-63" transform="translate(734.671875 0)"/>
     <use xlink:href="#DejaVuSans-74" transform="translate(789.652344 0)"/>
     <use xlink:href="#DejaVuSans-69" transform="translate(828.861328 0)"/>
     <use xlink:href="#DejaVuSans-6f" transform="translate(856.644531 0)"/>
     <use xlink:href="#DejaVuSans-6e" transform="translate(917.826172 0)"/>
     <use xlink:href="#DejaVuSans-20" transform="translate(981.205078 0)"/>
     <use xlink:href="#DejaVuSans-26" transform="translate(1012.992188 0)"/>
     <use xlink:href="#DejaVuSans-20" transform="translate(1090.970703 0)"/>
     <use xlink:href="#DejaVuSans-4e" transform="translate(1122.757812 0)"/>
     <use xlink:href="#DejaVuSans-57" transform="translate(1197.5625 0)"/>
     <use xlink:href="#DejaVuSans-20" transform="translate(1296.439453 0)"/>
     <use xlink:href="#DejaVuSans-46" transform="translate(1328.226562 0)"/>
     <use xlink:href="#DejaVuSans-72" transform="translate(1378.496094 0)"/>
     <use xlink:href="#DejaVuSans-61" transform="translate(1419.609375 0)"/>
     <use xlink:href="#DejaVuSans-63" transform="translate(1480.888672 0)"/>
     <use xlink:href="#DejaVuSans-74" transform="translate(1535.869141 0)"/>
     <use xlink:href="#DejaVuSans-69" transform="translate(1575.078125 0)"/>
     <use xlink:href="#DejaVuSans-6f" transform="translate(1602.861328 0)"/>
     <use xlink:href="#DejaVuSans-6e" transform="translate(1664.042969 0)"/>
    </g>
    <!-- by PFC Subregion -->
    <g transform="translate(630.96625 35.856) scale(0.12 -0.12)">
     <defs>
      <path id="DejaVuSans-62" d="M 3116 1747 
Q 3116 2381 2855 2742 
Q 2594 3103 2138 3103 
Q 1681 3103 1420 2742 
Q 1159 2381 1159 1747 
Q 1159 1113 1420 752 
Q 1681 391 2138 391 
Q 2594 391 2855 752 
Q 3116 1113 3116 1747 
z
M 1159 2969 
Q 1341 3281 1617 3432 
Q 1894 3584 2278 3584 
Q 2916 3584 3314 3078 
Q 3713 2572 3713 1747 
Q 3713 922 3314 415 
Q 2916 -91 2278 -91 
Q 1894 -91 1617 61 
Q 1341 213 1159 525 
L 1159 0 
L 581 0 
L 581 4863 
L 1159 4863 
L 1159 2969 
z
" transform="scale(0.015625)"/>
      <path id="DejaVuSans-79" d="M 2059 -325 
Q 1816 -950 1584 -1140 
Q 1353 -1331 966 -1331 
L 506 -1331 
L 506 -850 
L 844 -850 
Q 1081 -850 1212 -737 
Q 1344 -625 1503 -206 
L 1606 56 
L 191 3500 
L 800 3500 
L 1894 763 
L 2988 3500 
L 3597 3500 
L 2059 -325 
z
" transform="scale(0.015625)"/>
      <path id="DejaVuSans-43" d="M 4122 4306 
L 4122 3641 
Q 3803 3938 3442 4084 
Q 3081 4231 2675 4231 
Q 1875 4231 1450 3742 
Q 1025 3253 1025 2328 
Q 1025 1406 1450 917 
Q 1875 428 2675 428 
Q 3081 428 3442 575 
Q 3803 722 4122 1019 
L 4122 359 
Q 3791 134 3420 21 
Q 3050 -91 2638 -91 
Q 1578 -91 968 557 
Q 359 1206 359 2328 
Q 359 3453 968 4101 
Q 1578 4750 2638 4750 
Q 3056 4750 3426 4639 
Q 3797 4528 4122 4306 
z
" transform="scale(0.015625)"/>
      <path id="DejaVuSans-75" d="M 544 1381 
L 544 3500 
L 1119 3500 
L 1119 1403 
Q 1119 906 1312 657 
Q 1506 409 1894 409 
Q 2359 409 2629 706 
Q 2900 1003 2900 1516 
L 2900 3500 
L 3475 3500 
L 3475 0 
L 2900 0 
L 2900 538 
Q 2691 219 2414 64 
Q 2138 -91 1772 -91 
Q 1169 -91 856 284 
Q 544 659 544 1381 
z
M 1991 3584 
L 1991 3584 
z
" transform="scale(0.015625)"/>
     </defs>
     <use xlink:href="#DejaVuSans-62"/>
     <use xlink:href="#DejaVuSans-79" transform="translate(63.476562 0)"/>
     <use xlink:href="#DejaVuSans-20" transform="translate(122.65625 0)"/>
     <use xlink:href="#DejaVuSans-50" transform="translate(154.443359 0)"/>
     <use xlink:href="#DejaVuSans-46" transform="translate(214.746094 0)"/>
     <use xlink:href="#DejaVuSans-43" transform="translate(272.265625 0)"/>
     <use xlink:href="#DejaVuSans-20" transform="translate(342.089844 0)"/>
     <use xlink:href="#DejaVuSans-53" transform="translate(373.876953 0)"/>
     <use xlink:href="#DejaVuSans-75" transform="translate(437.353516 0)"/>
     <use xlink:href="#DejaVuSans-62" transform="translate(500.732422 0)"/>
     <use xlink:href="#DejaVuSans-72" transform="translate(564.208984 0)"/>
     <use xlink:href="#DejaVuSans-65" transform="translate(603.072266 0)"/>
     <use xlink:href="#DejaVuSans-67" transform="translate(664.595703 0)"/>
     <use xlink:href="#DejaVuSans-69" transform="translate(728.072266 0)"/>
     <use xlink:href="#DejaVuSans-6f" transform="translate(755.855469 0)"/>
     <use xlink:href="#DejaVuSans-6e" transform="translate(817.037109 0)"/>
    </g>
   </g>
   <g id="legend_1">
    <g id="patch_22">
     <path d="M 498.905 79.21225 
L 599.931563 79.21225 
Q 601.931563 79.21225 601.931563 77.21225 
L 601.931563 48.856 
Q 601.931563 46.856 599.931563 46.856 
L 498.905 46.856 
Q 496.905 46.856 496.905 48.856 
L 496.905 77.21225 
Q 496.905 79.21225 498.905 79.21225 
z
" style="fill: #ffffff; opacity: 0.8; stroke: #cccccc; stroke-linejoin: miter"/>
    </g>
    <g id="patch_23">
     <path d="M 500.905 58.454438 
L 520.905 58.454438 
L 520.905 51.454438 
L 500.905 51.454438 
z
" style="fill: #8172b2; stroke: #000000; stroke-linejoin: miter"/>
    </g>
    <g id="text_44">
     <!-- Thalamic NPV -->
     <g transform="translate(528.905 58.454438) scale(0.1 -0.1)">
      <use xlink:href="#DejaVuSans-54"/>
      <use xlink:href="#DejaVuSans-68" transform="translate(61.083984 0)"/>
      <use xlink:href="#DejaVuSans-61" transform="translate(124.462891 0)"/>
      <use xlink:href="#DejaVuSans-6c" transform="translate(185.742188 0)"/>
      <use xlink:href="#DejaVuSans-61" transform="translate(213.525391 0)"/>
      <use xlink:href="#DejaVuSans-6d" transform="translate(274.804688 0)"/>
      <use xlink:href="#DejaVuSans-69" transform="translate(372.216797 0)"/>
      <use xlink:href="#DejaVuSans-63" transform="translate(400 0)"/>
      <use xlink:href="#DejaVuSans-20" transform="translate(454.980469 0)"/>
      <use xlink:href="#DejaVuSans-4e" transform="translate(486.767578 0)"/>
      <use xlink:href="#DejaVuSans-50" transform="translate(561.572266 0)"/>
      <use xlink:href="#DejaVuSans-56" transform="translate(621.875 0)"/>
     </g>
    </g>
    <g id="patch_24">
     <path d="M 500.905 73.132563 
L 520.905 73.132563 
L 520.905 66.132563 
L 500.905 66.132563 
z
" style="fill: #c44e52; opacity: 0.8; stroke: #000000; stroke-linejoin: miter"/>
    </g>
    <g id="text_45">
     <!-- NW fraction -->
     <g transform="translate(528.905 73.132563) scale(0.1 -0.1)">
      <use xlink:href="#DejaVuSans-4e"/>
      <use xlink:href="#DejaVuSans-57" transform="translate(74.804688 0)"/>
      <use xlink:href="#DejaVuSans-20" transform="translate(173.681641 0)"/>
      <use xlink:href="#DejaVuSans-66" transform="translate(205.46875 0)"/>
      <use xlink:href="#DejaVuSans-72" transform="translate(240.673828 0)"/>
      <use xlink:href="#DejaVuSans-61" transform="translate(281.787109 0)"/>
      <use xlink:href="#DejaVuSans-63" transform="translate(343.066406 0)"/>
      <use xlink:href="#DejaVuSans-74" transform="translate(398.046875 0)"/>
      <use xlink:href="#DejaVuSans-69" transform="translate(437.255859 0)"/>
      <use xlink:href="#DejaVuSans-6f" transform="translate(465.039062 0)"/>
      <use xlink:href="#DejaVuSans-6e" transform="translate(526.220703 0)"/>
     </g>
    </g>
   </g>
  </g>
  <g id="axes_3">
   <g id="patch_25">
    <path d="M 521.938001 312.225744 
L 534.526685 312.225744 
L 534.526685 149.825954 
L 521.938001 149.825954 
z
" clip-path="url(#p237e2f0fcf)" style="fill: #c44e52; opacity: 0.8; stroke: #000000; stroke-linejoin: miter"/>
   </g>
   <g id="patch_26">
    <path d="M 557.905668 312.225744 
L 570.494351 312.225744 
L 570.494351 75.257988 
L 557.905668 75.257988 
z
" clip-path="url(#p237e2f0fcf)" style="fill: #c44e52; opacity: 0.8; stroke: #000000; stroke-linejoin: miter"/>
   </g>
   <g id="patch_27">
    <path d="M 593.873334 312.225744 
L 606.462017 312.225744 
L 606.462017 106.594415 
L 593.873334 106.594415 
z
" clip-path="url(#p237e2f0fcf)" style="fill: #c44e52; opacity: 0.8; stroke: #000000; stroke-linejoin: miter"/>
   </g>
   <g id="patch_28">
    <path d="M 629.841 312.225744 
L 642.429684 312.225744 
L 642.429684 54.73075 
L 629.841 54.73075 
z
" clip-path="url(#p237e2f0fcf)" style="fill: #c44e52; opacity: 0.8; stroke: #000000; stroke-linejoin: miter"/>
   </g>
   <g id="patch_29">
    <path d="M 665.808667 312.225744 
L 678.39735 312.225744 
L 678.39735 178.826645 
L 665.808667 178.826645 
z
" clip-path="url(#p237e2f0fcf)" style="fill: #c44e52; opacity: 0.8; stroke: #000000; stroke-linejoin: miter"/>
   </g>
   <g id="patch_30">
    <path d="M 701.776333 312.225744 
L 714.365016 312.225744 
L 714.365016 99.434302 
L 701.776333 99.434302 
z
" clip-path="url(#p237e2f0fcf)" style="fill: #c44e52; opacity: 0.8; stroke: #000000; stroke-linejoin: miter"/>
   </g>
   <g id="patch_31">
    <path d="M 737.744 312.225744 
L 750.332683 312.225744 
L 750.332683 102.379611 
L 737.744 102.379611 
z
" clip-path="url(#p237e2f0fcf)" style="fill: #c44e52; opacity: 0.8; stroke: #000000; stroke-linejoin: miter"/>
   </g>
   <g id="patch_32">
    <path d="M 773.711666 312.225744 
L 786.300349 312.225744 
L 786.300349 127.729806 
L 773.711666 127.729806 
z
" clip-path="url(#p237e2f0fcf)" style="fill: #c44e52; opacity: 0.8; stroke: #000000; stroke-linejoin: miter"/>
   </g>
   <g id="patch_33">
    <path d="M 809.679332 312.225744 
L 822.268015 312.225744 
L 822.268015 177.054114 
L 809.679332 177.054114 
z
" clip-path="url(#p237e2f0fcf)" style="fill: #c44e52; opacity: 0.8; stroke: #000000; stroke-linejoin: miter"/>
   </g>
   <g id="patch_34">
    <path d="M 845.646999 312.225744 
L 858.235682 312.225744 
L 858.235682 92.198791 
L 845.646999 92.198791 
z
" clip-path="url(#p237e2f0fcf)" style="fill: #c44e52; opacity: 0.8; stroke: #000000; stroke-linejoin: miter"/>
   </g>
   <g id="matplotlib.axis_5">
    <g id="ytick_13">
     <g id="line2d_30">
      <defs>
       <path id="ma2339638f2" d="M 0 0 
L 3.5 0 
" style="stroke: #000000; stroke-width: 0.8"/>
      </defs>
      <g>
       <use xlink:href="#ma2339638f2" x="875.68" y="312.225744" style="stroke: #000000; stroke-width: 0.8"/>
      </g>
     </g>
     <g id="text_46">
      <!-- 0.000 -->
      <g transform="translate(882.68 316.024962) scale(0.1 -0.1)">
       <use xlink:href="#DejaVuSans-30"/>
       <use xlink:href="#DejaVuSans-2e" transform="translate(63.623047 0)"/>
       <use xlink:href="#DejaVuSans-30" transform="translate(95.410156 0)"/>
       <use xlink:href="#DejaVuSans-30" transform="translate(159.033203 0)"/>
       <use xlink:href="#DejaVuSans-30" transform="translate(222.65625 0)"/>
      </g>
     </g>
    </g>
    <g id="ytick_14">
     <g id="line2d_31">
      <g>
       <use xlink:href="#ma2339638f2" x="875.68" y="280.352888" style="stroke: #000000; stroke-width: 0.8"/>
      </g>
     </g>
     <g id="text_47">
      <!-- 0.025 -->
      <g transform="translate(882.68 284.152106) scale(0.1 -0.1)">
       <use xlink:href="#DejaVuSans-30"/>
       <use xlink:href="#DejaVuSans-2e" transform="translate(63.623047 0)"/>
       <use xlink:href="#DejaVuSans-30" transform="translate(95.410156 0)"/>
       <use xlink:href="#DejaVuSans-32" transform="translate(159.033203 0)"/>
       <use xlink:href="#DejaVuSans-35" transform="translate(222.65625 0)"/>
      </g>
     </g>
    </g>
    <g id="ytick_15">
     <g id="line2d_32">
      <g>
       <use xlink:href="#ma2339638f2" x="875.68" y="248.480032" style="stroke: #000000; stroke-width: 0.8"/>
      </g>
     </g>
     <g id="text_48">
      <!-- 0.050 -->
      <g transform="translate(882.68 252.27925) scale(0.1 -0.1)">
       <use xlink:href="#DejaVuSans-30"/>
       <use xlink:href="#DejaVuSans-2e" transform="translate(63.623047 0)"/>
       <use xlink:href="#DejaVuSans-30" transform="translate(95.410156 0)"/>
       <use xlink:href="#DejaVuSans-35" transform="translate(159.033203 0)"/>
       <use xlink:href="#DejaVuSans-30" transform="translate(222.65625 0)"/>
      </g>
     </g>
    </g>
    <g id="ytick_16">
     <g id="line2d_33">
      <g>
       <use xlink:href="#ma2339638f2" x="875.68" y="216.607176" style="stroke: #000000; stroke-width: 0.8"/>
      </g>
     </g>
     <g id="text_49">
      <!-- 0.075 -->
      <g transform="translate(882.68 220.406394) scale(0.1 -0.1)">
       <defs>
        <path id="DejaVuSans-37" d="M 525 4666 
L 3525 4666 
L 3525 4397 
L 1831 0 
L 1172 0 
L 2766 4134 
L 525 4134 
L 525 4666 
z
" transform="scale(0.015625)"/>
       </defs>
       <use xlink:href="#DejaVuSans-30"/>
       <use xlink:href="#DejaVuSans-2e" transform="translate(63.623047 0)"/>
       <use xlink:href="#DejaVuSans-30" transform="translate(95.410156 0)"/>
       <use xlink:href="#DejaVuSans-37" transform="translate(159.033203 0)"/>
       <use xlink:href="#DejaVuSans-35" transform="translate(222.65625 0)"/>
      </g>
     </g>
    </g>
    <g id="ytick_17">
     <g id="line2d_34">
      <g>
       <use xlink:href="#ma2339638f2" x="875.68" y="184.73432" style="stroke: #000000; stroke-width: 0.8"/>
      </g>
     </g>
     <g id="text_50">
      <!-- 0.100 -->
      <g transform="translate(882.68 188.533539) scale(0.1 -0.1)">
       <use xlink:href="#DejaVuSans-30"/>
       <use xlink:href="#DejaVuSans-2e" transform="translate(63.623047 0)"/>
       <use xlink:href="#DejaVuSans-31" transform="translate(95.410156 0)"/>
       <use xlink:href="#DejaVuSans-30" transform="translate(159.033203 0)"/>
       <use xlink:href="#DejaVuSans-30" transform="translate(222.65625 0)"/>
      </g>
     </g>
    </g>
    <g id="ytick_18">
     <g id="line2d_35">
      <g>
       <use xlink:href="#ma2339638f2" x="875.68" y="152.861464" style="stroke: #000000; stroke-width: 0.8"/>
      </g>
     </g>
     <g id="text_51">
      <!-- 0.125 -->
      <g transform="translate(882.68 156.660683) scale(0.1 -0.1)">
       <use xlink:href="#DejaVuSans-30"/>
       <use xlink:href="#DejaVuSans-2e" transform="translate(63.623047 0)"/>
       <use xlink:href="#DejaVuSans-31" transform="translate(95.410156 0)"/>
       <use xlink:href="#DejaVuSans-32" transform="translate(159.033203 0)"/>
       <use xlink:href="#DejaVuSans-35" transform="translate(222.65625 0)"/>
      </g>
     </g>
    </g>
    <g id="ytick_19">
     <g id="line2d_36">
      <g>
       <use xlink:href="#ma2339638f2" x="875.68" y="120.988608" style="stroke: #000000; stroke-width: 0.8"/>
      </g>
     </g>
     <g id="text_52">
      <!-- 0.150 -->
      <g transform="translate(882.68 124.787827) scale(0.1 -0.1)">
       <use xlink:href="#DejaVuSans-30"/>
       <use xlink:href="#DejaVuSans-2e" transform="translate(63.623047 0)"/>
       <use xlink:href="#DejaVuSans-31" transform="translate(95.410156 0)"/>
       <use xlink:href="#DejaVuSans-35" transform="translate(159.033203 0)"/>
       <use xlink:href="#DejaVuSans-30" transform="translate(222.65625 0)"/>
      </g>
     </g>
    </g>
    <g id="ytick_20">
     <g id="line2d_37">
      <g>
       <use xlink:href="#ma2339638f2" x="875.68" y="89.115752" style="stroke: #000000; stroke-width: 0.8"/>
      </g>
     </g>
     <g id="text_53">
      <!-- 0.175 -->
      <g transform="translate(882.68 92.914971) scale(0.1 -0.1)">
       <use xlink:href="#DejaVuSans-30"/>
       <use xlink:href="#DejaVuSans-2e" transform="translate(63.623047 0)"/>
       <use xlink:href="#DejaVuSans-31" transform="translate(95.410156 0)"/>
       <use xlink:href="#DejaVuSans-37" transform="translate(159.033203 0)"/>
       <use xlink:href="#DejaVuSans-35" transform="translate(222.65625 0)"/>
      </g>
     </g>
    </g>
    <g id="ytick_21">
     <g id="line2d_38">
      <g>
       <use xlink:href="#ma2339638f2" x="875.68" y="57.242896" style="stroke: #000000; stroke-width: 0.8"/>
      </g>
     </g>
     <g id="text_54">
      <!-- 0.200 -->
      <g transform="translate(882.68 61.042115) scale(0.1 -0.1)">
       <use xlink:href="#DejaVuSans-30"/>
       <use xlink:href="#DejaVuSans-2e" transform="translate(63.623047 0)"/>
       <use xlink:href="#DejaVuSans-32" transform="translate(95.410156 0)"/>
       <use xlink:href="#DejaVuSans-30" transform="translate(159.033203 0)"/>
       <use xlink:href="#DejaVuSans-30" transform="translate(222.65625 0)"/>
      </g>
     </g>
    </g>
    <g id="text_55">
     <!-- NW fraction -->
     <g style="fill: #c44e52" transform="translate(922.906563 206.520559) rotate(-90) scale(0.1 -0.1)">
      <use xlink:href="#DejaVuSans-4e"/>
      <use xlink:href="#DejaVuSans-57" transform="translate(74.804688 0)"/>
      <use xlink:href="#DejaVuSans-20" transform="translate(173.681641 0)"/>
      <use xlink:href="#DejaVuSans-66" transform="translate(205.46875 0)"/>
      <use xlink:href="#DejaVuSans-72" transform="translate(240.673828 0)"/>
      <use xlink:href="#DejaVuSans-61" transform="translate(281.787109 0)"/>
      <use xlink:href="#DejaVuSans-63" transform="translate(343.066406 0)"/>
      <use xlink:href="#DejaVuSans-74" transform="translate(398.046875 0)"/>
      <use xlink:href="#DejaVuSans-69" transform="translate(437.255859 0)"/>
      <use xlink:href="#DejaVuSans-6f" transform="translate(465.039062 0)"/>
      <use xlink:href="#DejaVuSans-6e" transform="translate(526.220703 0)"/>
     </g>
    </g>
   </g>
   <g id="patch_35">
    <path d="M 491.905 312.225744 
L 491.905 41.856 
" style="fill: none; stroke: #000000; stroke-width: 0.8; stroke-linejoin: miter; stroke-linecap: square"/>
   </g>
   <g id="patch_36">
    <path d="M 875.68 312.225744 
L 875.68 41.856 
" style="fill: none; stroke: #000000; stroke-width: 0.8; stroke-linejoin: miter; stroke-linecap: square"/>
   </g>
   <g id="patch_37">
    <path d="M 491.905 312.225744 
L 875.68 312.225744 
" style="fill: none; stroke: #000000; stroke-width: 0.8; stroke-linejoin: miter; stroke-linecap: square"/>
   </g>
   <g id="patch_38">
    <path d="M 491.905 41.856 
L 875.68 41.856 
" style="fill: none; stroke: #000000; stroke-width: 0.8; stroke-linejoin: miter; stroke-linecap: square"/>
   </g>
  </g>
 </g>
 <defs>
  <clipPath id="p6519d496af">
   <rect x="54.11" y="41.856" width="383.775" height="270.369744"/>
  </clipPath>
  <clipPath id="p237e2f0fcf">
   <rect x="491.905" y="41.856" width="383.775" height="270.369744"/>
  </clipPath>
 </defs>
</svg>
