<?xml version="1.0" encoding="utf-8" standalone="no"?>
<!DOCTYPE svg PUBLIC "-//W3C//DTD SVG 1.1//EN"
  "http://www.w3.org/Graphics/SVG/1.1/DTD/svg11.dtd">
<svg xmlns:xlink="http://www.w3.org/1999/xlink" width="864pt" height="360pt" viewBox="0 0 864 360" xmlns="http://www.w3.org/2000/svg" version="1.1">
 <metadata>
  <rdf:RDF xmlns:dc="http://purl.org/dc/elements/1.1/" xmlns:cc="http://creativecommons.org/ns#" xmlns:rdf="http://www.w3.org/1999/02/22-rdf-syntax-ns#">
   <cc:Work>
    <dc:type rdf:resource="http://purl.org/dc/dcmitype/StillImage"/>
    <dc:date>2026-04-20T21:12:57.604561</dc:date>
    <dc:format>image/svg+xml</dc:format>
    <dc:creator>
     <cc:Agent>
      <dc:title>Matplotlib v3.10.8, https://matplotlib.org/</dc:title>
     </cc:Agent>
    </dc:creator>
   </cc:Work>
  </rdf:RDF>
 </metadata>
 <defs>
  <style type="text/css">*{stroke-linejoin: round; stroke-linecap: butt}</style>
 </defs>
 <g id="figure_1">
  <g id="patch_1">
   <path d="M 0 360 
L 864 360 
L 864 0 
L 0 0 
z
" style="fill: #ffffff"/>
  </g>
  <g id="axes_1">
   <g id="patch_2">
    <path d="M 56.19125 314.007653 
L 423.500625 314.007653 
L 423.500625 41.856 
L 56.19125 41.856 
z
" style="fill: #ffffff"/>
   </g>
   <g id="matplotlib.axis_1">
    <g id="xtick_1">
     <g id="line2d_1">
      <defs>
       <path id="m9aea0bd24b" d="M 0 0 
L 0 3.5 
" style="stroke: #000000; stroke-width: 0.8"/>
      </defs>
      <g>
       <use xlink:href="#m9aea0bd24b" x="148.018594" y="314.007653" style="stroke: #000000; stroke-width: 0.8"/>
      </g>
     </g>
     <g id="text_1">
      <!-- Narrow-width -->
      <g transform="translate(114.569375 328.60609) scale(0.1 -0.1)">
       <defs>
        <path id="DejaVuSans-4e" d="M 628 4666 
L 1478 4666 
L 3547 763 
L 3547 4666 
L 4159 4666 
L 4159 0 
L 3309 0 
L 1241 3903 
L 1241 0 
L 628 0 
L 628 4666 
z
" transform="scale(0.015625)"/>
        <path id="DejaVuSans-61" d="M 2194 1759 
Q 1497 1759 1228 1600 
Q 959 1441 959 1056 
Q 959 750 1161 570 
Q 1363 391 1709 391 
Q 2188 391 2477 730 
Q 2766 1069 2766 1631 
L 2766 1759 
L 2194 1759 
z
M 3341 1997 
L 3341 0 
L 2766 0 
L 2766 531 
Q 2569 213 2275 61 
Q 1981 -91 1556 -91 
Q 1019 -91 701 211 
Q 384 513 384 1019 
Q 384 1609 779 1909 
Q 1175 2209 1959 2209 
L 2766 2209 
L 2766 2266 
Q 2766 2663 2505 2880 
Q 2244 3097 1772 3097 
Q 1472 3097 1187 3025 
Q 903 2953 641 2809 
L 641 3341 
Q 956 3463 1253 3523 
Q 1550 3584 1831 3584 
Q 2591 3584 2966 3190 
Q 3341 2797 3341 1997 
z
" transform="scale(0.015625)"/>
        <path id="DejaVuSans-72" d="M 2631 2963 
Q 2534 3019 2420 3045 
Q 2306 3072 2169 3072 
Q 1681 3072 1420 2755 
Q 1159 2438 1159 1844 
L 1159 0 
L 581 0 
L 581 3500 
L 1159 3500 
L 1159 2956 
Q 1341 3275 1631 3429 
Q 1922 3584 2338 3584 
Q 2397 3584 2469 3576 
Q 2541 3569 2628 3553 
L 2631 2963 
z
" transform="scale(0.015625)"/>
        <path id="DejaVuSans-6f" d="M 1959 3097 
Q 1497 3097 1228 2736 
Q 959 2375 959 1747 
Q 959 1119 1226 758 
Q 1494 397 1959 397 
Q 2419 397 2687 759 
Q 2956 1122 2956 1747 
Q 2956 2369 2687 2733 
Q 2419 3097 1959 3097 
z
M 1959 3584 
Q 2709 3584 3137 3096 
Q 3566 2609 3566 1747 
Q 3566 888 3137 398 
Q 2709 -91 1959 -91 
Q 1206 -91 779 398 
Q 353 888 353 1747 
Q 353 2609 779 3096 
Q 1206 3584 1959 3584 
z
" transform="scale(0.015625)"/>
        <path id="DejaVuSans-77" d="M 269 3500 
L 844 3500 
L 1563 769 
L 2278 3500 
L 2956 3500 
L 3675 769 
L 4391 3500 
L 4966 3500 
L 4050 0 
L 3372 0 
L 2619 2869 
L 1863 0 
L 1184 0 
L 269 3500 
z
" transform="scale(0.015625)"/>
        <path id="DejaVuSans-2d" d="M 313 2009 
L 1997 2009 
L 1997 1497 
L 313 1497 
L 313 2009 
z
" transform="scale(0.015625)"/>
        <path id="DejaVuSans-69" d="M 603 3500 
L 1178 3500 
L 1178 0 
L 603 0 
L 603 3500 
z
M 603 4863 
L 1178 4863 
L 1178 4134 
L 603 4134 
L 603 4863 
z
" transform="scale(0.015625)"/>
        <path id="DejaVuSans-64" d="M 2906 2969 
L 2906 4863 
L 3481 4863 
L 3481 0 
L 2906 0 
L 2906 525 
Q 2725 213 2448 61 
Q 2172 -91 1784 -91 
Q 1150 -91 751 415 
Q 353 922 353 1747 
Q 353 2572 751 3078 
Q 1150 3584 1784 3584 
Q 2172 3584 2448 3432 
Q 2725 3281 2906 2969 
z
M 947 1747 
Q 947 1113 1208 752 
Q 1469 391 1925 391 
Q 2381 391 2643 752 
Q 2906 1113 2906 1747 
Q 2906 2381 2643 2742 
Q 2381 3103 1925 3103 
Q 1469 3103 1208 2742 
Q 947 2381 947 1747 
z
" transform="scale(0.015625)"/>
        <path id="DejaVuSans-74" d="M 1172 4494 
L 1172 3500 
L 2356 3500 
L 2356 3053 
L 1172 3053 
L 1172 1153 
Q 1172 725 1289 603 
Q 1406 481 1766 481 
L 2356 481 
L 2356 0 
L 1766 0 
Q 1100 0 847 248 
Q 594 497 594 1153 
L 594 3053 
L 172 3053 
L 172 3500 
L 594 3500 
L 594 4494 
L 1172 4494 
z
" transform="scale(0.015625)"/>
        <path id="DejaVuSans-68" d="M 3513 2113 
L 3513 0 
L 2938 0 
L 2938 2094 
Q 2938 2591 2744 2837 
Q 2550 3084 2163 3084 
Q 1697 3084 1428 2787 
Q 1159 2491 1159 1978 
L 1159 0 
L 581 0 
L 581 4863 
L 1159 4863 
L 1159 2956 
Q 1366 3272 1645 3428 
Q 1925 3584 2291 3584 
Q 2894 3584 3203 3211 
Q 3513 2838 3513 2113 
z
" transform="scale(0.015625)"/>
       </defs>
       <use xlink:href="#DejaVuSans-4e"/>
       <use xlink:href="#DejaVuSans-61" transform="translate(74.804688 0)"/>
       <use xlink:href="#DejaVuSans-72" transform="translate(136.083984 0)"/>
       <use xlink:href="#DejaVuSans-72" transform="translate(175.447266 0)"/>
       <use xlink:href="#DejaVuSans-6f" transform="translate(214.310547 0)"/>
       <use xlink:href="#DejaVuSans-77" transform="translate(275.492188 0)"/>
       <use xlink:href="#DejaVuSans-2d" transform="translate(357.279297 0)"/>
       <use xlink:href="#DejaVuSans-77" transform="translate(393.363281 0)"/>
       <use xlink:href="#DejaVuSans-69" transform="translate(475.150391 0)"/>
       <use xlink:href="#DejaVuSans-64" transform="translate(502.933594 0)"/>
       <use xlink:href="#DejaVuSans-74" transform="translate(566.410156 0)"/>
       <use xlink:href="#DejaVuSans-68" transform="translate(605.619141 0)"/>
      </g>
      <!-- (fast-spiking) -->
      <g transform="translate(115.12875 339.803903) scale(0.1 -0.1)">
       <defs>
        <path id="DejaVuSans-28" d="M 1984 4856 
Q 1566 4138 1362 3434 
Q 1159 2731 1159 2009 
Q 1159 1288 1364 580 
Q 1569 -128 1984 -844 
L 1484 -844 
Q 1016 -109 783 600 
Q 550 1309 550 2009 
Q 550 2706 781 3412 
Q 1013 4119 1484 4856 
L 1984 4856 
z
" transform="scale(0.015625)"/>
        <path id="DejaVuSans-66" d="M 2375 4863 
L 2375 4384 
L 1825 4384 
Q 1516 4384 1395 4259 
Q 1275 4134 1275 3809 
L 1275 3500 
L 2222 3500 
L 2222 3053 
L 1275 3053 
L 1275 0 
L 697 0 
L 697 3053 
L 147 3053 
L 147 3500 
L 697 3500 
L 697 3744 
Q 697 4328 969 4595 
Q 1241 4863 1831 4863 
L 2375 4863 
z
" transform="scale(0.015625)"/>
        <path id="DejaVuSans-73" d="M 2834 3397 
L 2834 2853 
Q 2591 2978 2328 3040 
Q 2066 3103 1784 3103 
Q 1356 3103 1142 2972 
Q 928 2841 928 2578 
Q 928 2378 1081 2264 
Q 1234 2150 1697 2047 
L 1894 2003 
Q 2506 1872 2764 1633 
Q 3022 1394 3022 966 
Q 3022 478 2636 193 
Q 2250 -91 1575 -91 
Q 1294 -91 989 -36 
Q 684 19 347 128 
L 347 722 
Q 666 556 975 473 
Q 1284 391 1588 391 
Q 1994 391 2212 530 
Q 2431 669 2431 922 
Q 2431 1156 2273 1281 
Q 2116 1406 1581 1522 
L 1381 1569 
Q 847 1681 609 1914 
Q 372 2147 372 2553 
Q 372 3047 722 3315 
Q 1072 3584 1716 3584 
Q 2034 3584 2315 3537 
Q 2597 3491 2834 3397 
z
" transform="scale(0.015625)"/>
        <path id="DejaVuSans-70" d="M 1159 525 
L 1159 -1331 
L 581 -1331 
L 581 3500 
L 1159 3500 
L 1159 2969 
Q 1341 3281 1617 3432 
Q 1894 3584 2278 3584 
Q 2916 3584 3314 3078 
Q 3713 2572 3713 1747 
Q 3713 922 3314 415 
Q 2916 -91 2278 -91 
Q 1894 -91 1617 61 
Q 1341 213 1159 525 
z
M 3116 1747 
Q 3116 2381 2855 2742 
Q 2594 3103 2138 3103 
Q 1681 3103 1420 2742 
Q 1159 2381 1159 1747 
Q 1159 1113 1420 752 
Q 1681 391 2138 391 
Q 2594 391 2855 752 
Q 3116 1113 3116 1747 
z
" transform="scale(0.015625)"/>
        <path id="DejaVuSans-6b" d="M 581 4863 
L 1159 4863 
L 1159 1991 
L 2875 3500 
L 3609 3500 
L 1753 1863 
L 3688 0 
L 2938 0 
L 1159 1709 
L 1159 0 
L 581 0 
L 581 4863 
z
" transform="scale(0.015625)"/>
        <path id="DejaVuSans-6e" d="M 3513 2113 
L 3513 0 
L 2938 0 
L 2938 2094 
Q 2938 2591 2744 2837 
Q 2550 3084 2163 3084 
Q 1697 3084 1428 2787 
Q 1159 2491 1159 1978 
L 1159 0 
L 581 0 
L 581 3500 
L 1159 3500 
L 1159 2956 
Q 1366 3272 1645 3428 
Q 1925 3584 2291 3584 
Q 2894 3584 3203 3211 
Q 3513 2838 3513 2113 
z
" transform="scale(0.015625)"/>
        <path id="DejaVuSans-67" d="M 2906 1791 
Q 2906 2416 2648 2759 
Q 2391 3103 1925 3103 
Q 1463 3103 1205 2759 
Q 947 2416 947 1791 
Q 947 1169 1205 825 
Q 1463 481 1925 481 
Q 2391 481 2648 825 
Q 2906 1169 2906 1791 
z
M 3481 434 
Q 3481 -459 3084 -895 
Q 2688 -1331 1869 -1331 
Q 1566 -1331 1297 -1286 
Q 1028 -1241 775 -1147 
L 775 -588 
Q 1028 -725 1275 -790 
Q 1522 -856 1778 -856 
Q 2344 -856 2625 -561 
Q 2906 -266 2906 331 
L 2906 616 
Q 2728 306 2450 153 
Q 2172 0 1784 0 
Q 1141 0 747 490 
Q 353 981 353 1791 
Q 353 2603 747 3093 
Q 1141 3584 1784 3584 
Q 2172 3584 2450 3431 
Q 2728 3278 2906 2969 
L 2906 3500 
L 3481 3500 
L 3481 434 
z
" transform="scale(0.015625)"/>
        <path id="DejaVuSans-29" d="M 513 4856 
L 1013 4856 
Q 1481 4119 1714 3412 
Q 1947 2706 1947 2009 
Q 1947 1309 1714 600 
Q 1481 -109 1013 -844 
L 513 -844 
Q 928 -128 1133 580 
Q 1338 1288 1338 2009 
Q 1338 2731 1133 3434 
Q 928 4138 513 4856 
z
" transform="scale(0.015625)"/>
       </defs>
       <use xlink:href="#DejaVuSans-28"/>
       <use xlink:href="#DejaVuSans-66" transform="translate(39.013672 0)"/>
       <use xlink:href="#DejaVuSans-61" transform="translate(74.21875 0)"/>
       <use xlink:href="#DejaVuSans-73" transform="translate(135.498047 0)"/>
       <use xlink:href="#DejaVuSans-74" transform="translate(187.597656 0)"/>
       <use xlink:href="#DejaVuSans-2d" transform="translate(226.806641 0)"/>
       <use xlink:href="#DejaVuSans-73" transform="translate(262.890625 0)"/>
       <use xlink:href="#DejaVuSans-70" transform="translate(314.990234 0)"/>
       <use xlink:href="#DejaVuSans-69" transform="translate(378.466797 0)"/>
       <use xlink:href="#DejaVuSans-6b" transform="translate(406.25 0)"/>
       <use xlink:href="#DejaVuSans-69" transform="translate(464.160156 0)"/>
       <use xlink:href="#DejaVuSans-6e" transform="translate(491.943359 0)"/>
       <use xlink:href="#DejaVuSans-67" transform="translate(555.322266 0)"/>
       <use xlink:href="#DejaVuSans-29" transform="translate(618.798828 0)"/>
      </g>
     </g>
    </g>
    <g id="xtick_2">
     <g id="line2d_2">
      <g>
       <use xlink:href="#m9aea0bd24b" x="331.673281" y="314.007653" style="stroke: #000000; stroke-width: 0.8"/>
      </g>
     </g>
     <g id="text_2">
      <!-- Wide-width -->
      <g transform="translate(303.617031 328.60609) scale(0.1 -0.1)">
       <defs>
        <path id="DejaVuSans-57" d="M 213 4666 
L 850 4666 
L 1831 722 
L 2809 4666 
L 3519 4666 
L 4500 722 
L 5478 4666 
L 6119 4666 
L 4947 0 
L 4153 0 
L 3169 4050 
L 2175 0 
L 1381 0 
L 213 4666 
z
" transform="scale(0.015625)"/>
        <path id="DejaVuSans-65" d="M 3597 1894 
L 3597 1613 
L 953 1613 
Q 991 1019 1311 708 
Q 1631 397 2203 397 
Q 2534 397 2845 478 
Q 3156 559 3463 722 
L 3463 178 
Q 3153 47 2828 -22 
Q 2503 -91 2169 -91 
Q 1331 -91 842 396 
Q 353 884 353 1716 
Q 353 2575 817 3079 
Q 1281 3584 2069 3584 
Q 2775 3584 3186 3129 
Q 3597 2675 3597 1894 
z
M 3022 2063 
Q 3016 2534 2758 2815 
Q 2500 3097 2075 3097 
Q 1594 3097 1305 2825 
Q 1016 2553 972 2059 
L 3022 2063 
z
" transform="scale(0.015625)"/>
       </defs>
       <use xlink:href="#DejaVuSans-57"/>
       <use xlink:href="#DejaVuSans-69" transform="translate(96.626953 0)"/>
       <use xlink:href="#DejaVuSans-64" transform="translate(124.410156 0)"/>
       <use xlink:href="#DejaVuSans-65" transform="translate(187.886719 0)"/>
       <use xlink:href="#DejaVuSans-2d" transform="translate(249.410156 0)"/>
       <use xlink:href="#DejaVuSans-77" transform="translate(285.494141 0)"/>
       <use xlink:href="#DejaVuSans-69" transform="translate(367.28125 0)"/>
       <use xlink:href="#DejaVuSans-64" transform="translate(395.064453 0)"/>
       <use xlink:href="#DejaVuSans-74" transform="translate(458.541016 0)"/>
       <use xlink:href="#DejaVuSans-68" transform="translate(497.75 0)"/>
      </g>
      <!-- (regular-spiking) -->
      <g transform="translate(290.620156 339.803903) scale(0.1 -0.1)">
       <defs>
        <path id="DejaVuSans-75" d="M 544 1381 
L 544 3500 
L 1119 3500 
L 1119 1403 
Q 1119 906 1312 657 
Q 1506 409 1894 409 
Q 2359 409 2629 706 
Q 2900 1003 2900 1516 
L 2900 3500 
L 3475 3500 
L 3475 0 
L 2900 0 
L 2900 538 
Q 2691 219 2414 64 
Q 2138 -91 1772 -91 
Q 1169 -91 856 284 
Q 544 659 544 1381 
z
M 1991 3584 
L 1991 3584 
z
" transform="scale(0.015625)"/>
        <path id="DejaVuSans-6c" d="M 603 4863 
L 1178 4863 
L 1178 0 
L 603 0 
L 603 4863 
z
" transform="scale(0.015625)"/>
       </defs>
       <use xlink:href="#DejaVuSans-28"/>
       <use xlink:href="#DejaVuSans-72" transform="translate(39.013672 0)"/>
       <use xlink:href="#DejaVuSans-65" transform="translate(77.876953 0)"/>
       <use xlink:href="#DejaVuSans-67" transform="translate(139.400391 0)"/>
       <use xlink:href="#DejaVuSans-75" transform="translate(202.876953 0)"/>
       <use xlink:href="#DejaVuSans-6c" transform="translate(266.255859 0)"/>
       <use xlink:href="#DejaVuSans-61" transform="translate(294.039062 0)"/>
       <use xlink:href="#DejaVuSans-72" transform="translate(355.318359 0)"/>
       <use xlink:href="#DejaVuSans-2d" transform="translate(390.056641 0)"/>
       <use xlink:href="#DejaVuSans-73" transform="translate(426.140625 0)"/>
       <use xlink:href="#DejaVuSans-70" transform="translate(478.240234 0)"/>
       <use xlink:href="#DejaVuSans-69" transform="translate(541.716797 0)"/>
       <use xlink:href="#DejaVuSans-6b" transform="translate(569.5 0)"/>
       <use xlink:href="#DejaVuSans-69" transform="translate(627.410156 0)"/>
       <use xlink:href="#DejaVuSans-6e" transform="translate(655.193359 0)"/>
       <use xlink:href="#DejaVuSans-67" transform="translate(718.572266 0)"/>
       <use xlink:href="#DejaVuSans-29" transform="translate(782.048828 0)"/>
      </g>
     </g>
    </g>
   </g>
   <g id="matplotlib.axis_2">
    <g id="ytick_1">
     <g id="line2d_3">
      <defs>
       <path id="m2be88247dc" d="M 0 0 
L -3.5 0 
" style="stroke: #000000; stroke-width: 0.8"/>
      </defs>
      <g>
       <use xlink:href="#m2be88247dc" x="56.19125" y="312.336133" style="stroke: #000000; stroke-width: 0.8"/>
      </g>
     </g>
     <g id="text_3">
      <!-- −0.6 -->
      <g transform="translate(24.908438 316.135352) scale(0.1 -0.1)">
       <defs>
        <path id="DejaVuSans-2212" d="M 678 2272 
L 4684 2272 
L 4684 1741 
L 678 1741 
L 678 2272 
z
" transform="scale(0.015625)"/>
        <path id="DejaVuSans-30" d="M 2034 4250 
Q 1547 4250 1301 3770 
Q 1056 3291 1056 2328 
Q 1056 1369 1301 889 
Q 1547 409 2034 409 
Q 2525 409 2770 889 
Q 3016 1369 3016 2328 
Q 3016 3291 2770 3770 
Q 2525 4250 2034 4250 
z
M 2034 4750 
Q 2819 4750 3233 4129 
Q 3647 3509 3647 2328 
Q 3647 1150 3233 529 
Q 2819 -91 2034 -91 
Q 1250 -91 836 529 
Q 422 1150 422 2328 
Q 422 3509 836 4129 
Q 1250 4750 2034 4750 
z
" transform="scale(0.015625)"/>
        <path id="DejaVuSans-2e" d="M 684 794 
L 1344 794 
L 1344 0 
L 684 0 
L 684 794 
z
" transform="scale(0.015625)"/>
        <path id="DejaVuSans-36" d="M 2113 2584 
Q 1688 2584 1439 2293 
Q 1191 2003 1191 1497 
Q 1191 994 1439 701 
Q 1688 409 2113 409 
Q 2538 409 2786 701 
Q 3034 994 3034 1497 
Q 3034 2003 2786 2293 
Q 2538 2584 2113 2584 
z
M 3366 4563 
L 3366 3988 
Q 3128 4100 2886 4159 
Q 2644 4219 2406 4219 
Q 1781 4219 1451 3797 
Q 1122 3375 1075 2522 
Q 1259 2794 1537 2939 
Q 1816 3084 2150 3084 
Q 2853 3084 3261 2657 
Q 3669 2231 3669 1497 
Q 3669 778 3244 343 
Q 2819 -91 2113 -91 
Q 1303 -91 875 529 
Q 447 1150 447 2328 
Q 447 3434 972 4092 
Q 1497 4750 2381 4750 
Q 2619 4750 2861 4703 
Q 3103 4656 3366 4563 
z
" transform="scale(0.015625)"/>
       </defs>
       <use xlink:href="#DejaVuSans-2212"/>
       <use xlink:href="#DejaVuSans-30" transform="translate(83.789062 0)"/>
       <use xlink:href="#DejaVuSans-2e" transform="translate(147.412109 0)"/>
       <use xlink:href="#DejaVuSans-36" transform="translate(179.199219 0)"/>
      </g>
     </g>
    </g>
    <g id="ytick_2">
     <g id="line2d_4">
      <g>
       <use xlink:href="#m2be88247dc" x="56.19125" y="262.829421" style="stroke: #000000; stroke-width: 0.8"/>
      </g>
     </g>
     <g id="text_4">
      <!-- −0.4 -->
      <g transform="translate(24.908438 266.62864) scale(0.1 -0.1)">
       <defs>
        <path id="DejaVuSans-34" d="M 2419 4116 
L 825 1625 
L 2419 1625 
L 2419 4116 
z
M 2253 4666 
L 3047 4666 
L 3047 1625 
L 3713 1625 
L 3713 1100 
L 3047 1100 
L 3047 0 
L 2419 0 
L 2419 1100 
L 313 1100 
L 313 1709 
L 2253 4666 
z
" transform="scale(0.015625)"/>
       </defs>
       <use xlink:href="#DejaVuSans-2212"/>
       <use xlink:href="#DejaVuSans-30" transform="translate(83.789062 0)"/>
       <use xlink:href="#DejaVuSans-2e" transform="translate(147.412109 0)"/>
       <use xlink:href="#DejaVuSans-34" transform="translate(179.199219 0)"/>
      </g>
     </g>
    </g>
    <g id="ytick_3">
     <g id="line2d_5">
      <g>
       <use xlink:href="#m2be88247dc" x="56.19125" y="213.322709" style="stroke: #000000; stroke-width: 0.8"/>
      </g>
     </g>
     <g id="text_5">
      <!-- −0.2 -->
      <g transform="translate(24.908438 217.121927) scale(0.1 -0.1)">
       <defs>
        <path id="DejaVuSans-32" d="M 1228 531 
L 3431 531 
L 3431 0 
L 469 0 
L 469 531 
Q 828 903 1448 1529 
Q 2069 2156 2228 2338 
Q 2531 2678 2651 2914 
Q 2772 3150 2772 3378 
Q 2772 3750 2511 3984 
Q 2250 4219 1831 4219 
Q 1534 4219 1204 4116 
Q 875 4013 500 3803 
L 500 4441 
Q 881 4594 1212 4672 
Q 1544 4750 1819 4750 
Q 2544 4750 2975 4387 
Q 3406 4025 3406 3419 
Q 3406 3131 3298 2873 
Q 3191 2616 2906 2266 
Q 2828 2175 2409 1742 
Q 1991 1309 1228 531 
z
" transform="scale(0.015625)"/>
       </defs>
       <use xlink:href="#DejaVuSans-2212"/>
       <use xlink:href="#DejaVuSans-30" transform="translate(83.789062 0)"/>
       <use xlink:href="#DejaVuSans-2e" transform="translate(147.412109 0)"/>
       <use xlink:href="#DejaVuSans-32" transform="translate(179.199219 0)"/>
      </g>
     </g>
    </g>
    <g id="ytick_4">
     <g id="line2d_6">
      <g>
       <use xlink:href="#m2be88247dc" x="56.19125" y="163.815996" style="stroke: #000000; stroke-width: 0.8"/>
      </g>
     </g>
     <g id="text_6">
      <!-- 0.0 -->
      <g transform="translate(33.288125 167.615215) scale(0.1 -0.1)">
       <use xlink:href="#DejaVuSans-30"/>
       <use xlink:href="#DejaVuSans-2e" transform="translate(63.623047 0)"/>
       <use xlink:href="#DejaVuSans-30" transform="translate(95.410156 0)"/>
      </g>
     </g>
    </g>
    <g id="ytick_5">
     <g id="line2d_7">
      <g>
       <use xlink:href="#m2be88247dc" x="56.19125" y="114.309284" style="stroke: #000000; stroke-width: 0.8"/>
      </g>
     </g>
     <g id="text_7">
      <!-- 0.2 -->
      <g transform="translate(33.288125 118.108503) scale(0.1 -0.1)">
       <use xlink:href="#DejaVuSans-30"/>
       <use xlink:href="#DejaVuSans-2e" transform="translate(63.623047 0)"/>
       <use xlink:href="#DejaVuSans-32" transform="translate(95.410156 0)"/>
      </g>
     </g>
    </g>
    <g id="ytick_6">
     <g id="line2d_8">
      <g>
       <use xlink:href="#m2be88247dc" x="56.19125" y="64.802571" style="stroke: #000000; stroke-width: 0.8"/>
      </g>
     </g>
     <g id="text_8">
      <!-- 0.4 -->
      <g transform="translate(33.288125 68.60179) scale(0.1 -0.1)">
       <use xlink:href="#DejaVuSans-30"/>
       <use xlink:href="#DejaVuSans-2e" transform="translate(63.623047 0)"/>
       <use xlink:href="#DejaVuSans-34" transform="translate(95.410156 0)"/>
      </g>
     </g>
    </g>
    <g id="text_9">
     <!-- Burst index (B_mean) -->
     <g transform="translate(18.550625 232.02167) rotate(-90) scale(0.1 -0.1)">
      <defs>
       <path id="DejaVuSans-42" d="M 1259 2228 
L 1259 519 
L 2272 519 
Q 2781 519 3026 730 
Q 3272 941 3272 1375 
Q 3272 1813 3026 2020 
Q 2781 2228 2272 2228 
L 1259 2228 
z
M 1259 4147 
L 1259 2741 
L 2194 2741 
Q 2656 2741 2882 2914 
Q 3109 3088 3109 3444 
Q 3109 3797 2882 3972 
Q 2656 4147 2194 4147 
L 1259 4147 
z
M 628 4666 
L 2241 4666 
Q 2963 4666 3353 4366 
Q 3744 4066 3744 3513 
Q 3744 3084 3544 2831 
Q 3344 2578 2956 2516 
Q 3422 2416 3680 2098 
Q 3938 1781 3938 1306 
Q 3938 681 3513 340 
Q 3088 0 2303 0 
L 628 0 
L 628 4666 
z
" transform="scale(0.015625)"/>
       <path id="DejaVuSans-20" transform="scale(0.015625)"/>
       <path id="DejaVuSans-78" d="M 3513 3500 
L 2247 1797 
L 3578 0 
L 2900 0 
L 1881 1375 
L 863 0 
L 184 0 
L 1544 1831 
L 300 3500 
L 978 3500 
L 1906 2253 
L 2834 3500 
L 3513 3500 
z
" transform="scale(0.015625)"/>
       <path id="DejaVuSans-5f" d="M 3263 -1063 
L 3263 -1509 
L -63 -1509 
L -63 -1063 
L 3263 -1063 
z
" transform="scale(0.015625)"/>
       <path id="DejaVuSans-6d" d="M 3328 2828 
Q 3544 3216 3844 3400 
Q 4144 3584 4550 3584 
Q 5097 3584 5394 3201 
Q 5691 2819 5691 2113 
L 5691 0 
L 5113 0 
L 5113 2094 
Q 5113 2597 4934 2840 
Q 4756 3084 4391 3084 
Q 3944 3084 3684 2787 
Q 3425 2491 3425 1978 
L 3425 0 
L 2847 0 
L 2847 2094 
Q 2847 2600 2669 2842 
Q 2491 3084 2119 3084 
Q 1678 3084 1418 2786 
Q 1159 2488 1159 1978 
L 1159 0 
L 581 0 
L 581 3500 
L 1159 3500 
L 1159 2956 
Q 1356 3278 1631 3431 
Q 1906 3584 2284 3584 
Q 2666 3584 2933 3390 
Q 3200 3197 3328 2828 
z
" transform="scale(0.015625)"/>
      </defs>
      <use xlink:href="#DejaVuSans-42"/>
      <use xlink:href="#DejaVuSans-75" transform="translate(68.603516 0)"/>
      <use xlink:href="#DejaVuSans-72" transform="translate(131.982422 0)"/>
      <use xlink:href="#DejaVuSans-73" transform="translate(173.095703 0)"/>
      <use xlink:href="#DejaVuSans-74" transform="translate(225.195312 0)"/>
      <use xlink:href="#DejaVuSans-20" transform="translate(264.404297 0)"/>
      <use xlink:href="#DejaVuSans-69" transform="translate(296.191406 0)"/>
      <use xlink:href="#DejaVuSans-6e" transform="translate(323.974609 0)"/>
      <use xlink:href="#DejaVuSans-64" transform="translate(387.353516 0)"/>
      <use xlink:href="#DejaVuSans-65" transform="translate(450.830078 0)"/>
      <use xlink:href="#DejaVuSans-78" transform="translate(510.603516 0)"/>
      <use xlink:href="#DejaVuSans-20" transform="translate(569.783203 0)"/>
      <use xlink:href="#DejaVuSans-28" transform="translate(601.570312 0)"/>
      <use xlink:href="#DejaVuSans-42" transform="translate(640.583984 0)"/>
      <use xlink:href="#DejaVuSans-5f" transform="translate(709.1875 0)"/>
      <use xlink:href="#DejaVuSans-6d" transform="translate(759.1875 0)"/>
      <use xlink:href="#DejaVuSans-65" transform="translate(856.599609 0)"/>
      <use xlink:href="#DejaVuSans-61" transform="translate(918.123047 0)"/>
      <use xlink:href="#DejaVuSans-6e" transform="translate(979.402344 0)"/>
      <use xlink:href="#DejaVuSans-29" transform="translate(1042.78125 0)"/>
     </g>
    </g>
   </g>
   <g id="patch_3">
    <path d="M 134.244492 177.481104 
L 161.792695 177.481104 
L 161.792695 143.130605 
L 134.244492 143.130605 
L 134.244492 177.481104 
z
" clip-path="url(#p7e853ed697)" style="fill: #dd8452; opacity: 0.7; stroke: #000000; stroke-linejoin: miter"/>
   </g>
   <g id="line2d_9">
    <path d="M 148.018594 177.481104 
L 148.018594 228.711749 
" clip-path="url(#p7e853ed697)" style="fill: none; stroke: #000000; stroke-linecap: square"/>
   </g>
   <g id="line2d_10">
    <path d="M 148.018594 143.130605 
L 148.018594 93.795271 
" clip-path="url(#p7e853ed697)" style="fill: none; stroke: #000000; stroke-linecap: square"/>
   </g>
   <g id="line2d_11">
    <path d="M 141.131543 228.711749 
L 154.905645 228.711749 
" clip-path="url(#p7e853ed697)" style="fill: none; stroke: #000000; stroke-linecap: square"/>
   </g>
   <g id="line2d_12">
    <path d="M 141.131543 93.795271 
L 154.905645 93.795271 
" clip-path="url(#p7e853ed697)" style="fill: none; stroke: #000000; stroke-linecap: square"/>
   </g>
   <g id="line2d_13">
    <defs>
     <path id="m15d35f88f2" d="M 0 3 
C 0.795609 3 1.55874 2.683901 2.12132 2.12132 
C 2.683901 1.55874 3 0.795609 3 0 
C 3 -0.795609 2.683901 -1.55874 2.12132 -2.12132 
C 1.55874 -2.683901 0.795609 -3 0 -3 
C -0.795609 -3 -1.55874 -2.683901 -2.12132 -2.12132 
C -2.683901 -1.55874 -3 -0.795609 -3 0 
C -3 0.795609 -2.683901 1.55874 -2.12132 2.12132 
C -1.55874 2.683901 -0.795609 3 0 3 
z
" style="stroke: #000000"/>
    </defs>
    <g clip-path="url(#p7e853ed697)">
     <use xlink:href="#m15d35f88f2" x="148.018594" y="229.595139" style="fill-opacity: 0; stroke: #000000"/>
     <use xlink:href="#m15d35f88f2" x="148.018594" y="236.377341" style="fill-opacity: 0; stroke: #000000"/>
     <use xlink:href="#m15d35f88f2" x="148.018594" y="250.207321" style="fill-opacity: 0; stroke: #000000"/>
     <use xlink:href="#m15d35f88f2" x="148.018594" y="233.174746" style="fill-opacity: 0; stroke: #000000"/>
     <use xlink:href="#m15d35f88f2" x="148.018594" y="243.607598" style="fill-opacity: 0; stroke: #000000"/>
     <use xlink:href="#m15d35f88f2" x="148.018594" y="239.426013" style="fill-opacity: 0; stroke: #000000"/>
     <use xlink:href="#m15d35f88f2" x="148.018594" y="241.445119" style="fill-opacity: 0; stroke: #000000"/>
     <use xlink:href="#m15d35f88f2" x="148.018594" y="240.222678" style="fill-opacity: 0; stroke: #000000"/>
     <use xlink:href="#m15d35f88f2" x="148.018594" y="268.736158" style="fill-opacity: 0; stroke: #000000"/>
     <use xlink:href="#m15d35f88f2" x="148.018594" y="234.238816" style="fill-opacity: 0; stroke: #000000"/>
     <use xlink:href="#m15d35f88f2" x="148.018594" y="253.207607" style="fill-opacity: 0; stroke: #000000"/>
     <use xlink:href="#m15d35f88f2" x="148.018594" y="255.524547" style="fill-opacity: 0; stroke: #000000"/>
     <use xlink:href="#m15d35f88f2" x="148.018594" y="241.146414" style="fill-opacity: 0; stroke: #000000"/>
     <use xlink:href="#m15d35f88f2" x="148.018594" y="236.506883" style="fill-opacity: 0; stroke: #000000"/>
     <use xlink:href="#m15d35f88f2" x="148.018594" y="277.66531" style="fill-opacity: 0; stroke: #000000"/>
     <use xlink:href="#m15d35f88f2" x="148.018594" y="243.350197" style="fill-opacity: 0; stroke: #000000"/>
     <use xlink:href="#m15d35f88f2" x="148.018594" y="232.370276" style="fill-opacity: 0; stroke: #000000"/>
     <use xlink:href="#m15d35f88f2" x="148.018594" y="235.522773" style="fill-opacity: 0; stroke: #000000"/>
     <use xlink:href="#m15d35f88f2" x="148.018594" y="239.891927" style="fill-opacity: 0; stroke: #000000"/>
     <use xlink:href="#m15d35f88f2" x="148.018594" y="231.58526" style="fill-opacity: 0; stroke: #000000"/>
     <use xlink:href="#m15d35f88f2" x="148.018594" y="246.299197" style="fill-opacity: 0; stroke: #000000"/>
     <use xlink:href="#m15d35f88f2" x="148.018594" y="275.261837" style="fill-opacity: 0; stroke: #000000"/>
     <use xlink:href="#m15d35f88f2" x="148.018594" y="263.244884" style="fill-opacity: 0; stroke: #000000"/>
     <use xlink:href="#m15d35f88f2" x="148.018594" y="89.374906" style="fill-opacity: 0; stroke: #000000"/>
     <use xlink:href="#m15d35f88f2" x="148.018594" y="91.302528" style="fill-opacity: 0; stroke: #000000"/>
     <use xlink:href="#m15d35f88f2" x="148.018594" y="83.417748" style="fill-opacity: 0; stroke: #000000"/>
     <use xlink:href="#m15d35f88f2" x="148.018594" y="88.098362" style="fill-opacity: 0; stroke: #000000"/>
     <use xlink:href="#m15d35f88f2" x="148.018594" y="83.663029" style="fill-opacity: 0; stroke: #000000"/>
     <use xlink:href="#m15d35f88f2" x="148.018594" y="87.548866" style="fill-opacity: 0; stroke: #000000"/>
     <use xlink:href="#m15d35f88f2" x="148.018594" y="90.097874" style="fill-opacity: 0; stroke: #000000"/>
     <use xlink:href="#m15d35f88f2" x="148.018594" y="89.718265" style="fill-opacity: 0; stroke: #000000"/>
     <use xlink:href="#m15d35f88f2" x="148.018594" y="76.46408" style="fill-opacity: 0; stroke: #000000"/>
     <use xlink:href="#m15d35f88f2" x="148.018594" y="88.569359" style="fill-opacity: 0; stroke: #000000"/>
     <use xlink:href="#m15d35f88f2" x="148.018594" y="73.864901" style="fill-opacity: 0; stroke: #000000"/>
     <use xlink:href="#m15d35f88f2" x="148.018594" y="78.842885" style="fill-opacity: 0; stroke: #000000"/>
     <use xlink:href="#m15d35f88f2" x="148.018594" y="79.12325" style="fill-opacity: 0; stroke: #000000"/>
     <use xlink:href="#m15d35f88f2" x="148.018594" y="89.164372" style="fill-opacity: 0; stroke: #000000"/>
    </g>
   </g>
   <g id="patch_4">
    <path d="M 317.89918 198.239151 
L 345.447383 198.239151 
L 345.447383 158.099187 
L 317.89918 158.099187 
L 317.89918 198.239151 
z
" clip-path="url(#p7e853ed697)" style="fill: #4c72b0; opacity: 0.7; stroke: #000000; stroke-linejoin: miter"/>
   </g>
   <g id="line2d_14">
    <path d="M 331.673281 198.239151 
L 331.673281 257.983555 
" clip-path="url(#p7e853ed697)" style="fill: none; stroke: #000000; stroke-linecap: square"/>
   </g>
   <g id="line2d_15">
    <path d="M 331.673281 158.099187 
L 331.673281 98.159099 
" clip-path="url(#p7e853ed697)" style="fill: none; stroke: #000000; stroke-linecap: square"/>
   </g>
   <g id="line2d_16">
    <path d="M 324.78623 257.983555 
L 338.560332 257.983555 
" clip-path="url(#p7e853ed697)" style="fill: none; stroke: #000000; stroke-linecap: square"/>
   </g>
   <g id="line2d_17">
    <path d="M 324.78623 98.159099 
L 338.560332 98.159099 
" clip-path="url(#p7e853ed697)" style="fill: none; stroke: #000000; stroke-linecap: square"/>
   </g>
   <g id="line2d_18">
    <g clip-path="url(#p7e853ed697)">
     <use xlink:href="#m15d35f88f2" x="331.673281" y="265.904423" style="fill-opacity: 0; stroke: #000000"/>
     <use xlink:href="#m15d35f88f2" x="331.673281" y="289.652002" style="fill-opacity: 0; stroke: #000000"/>
     <use xlink:href="#m15d35f88f2" x="331.673281" y="259.788681" style="fill-opacity: 0; stroke: #000000"/>
     <use xlink:href="#m15d35f88f2" x="331.673281" y="263.191703" style="fill-opacity: 0; stroke: #000000"/>
     <use xlink:href="#m15d35f88f2" x="331.673281" y="259.265498" style="fill-opacity: 0; stroke: #000000"/>
     <use xlink:href="#m15d35f88f2" x="331.673281" y="267.049058" style="fill-opacity: 0; stroke: #000000"/>
     <use xlink:href="#m15d35f88f2" x="331.673281" y="262.317977" style="fill-opacity: 0; stroke: #000000"/>
     <use xlink:href="#m15d35f88f2" x="331.673281" y="265.858412" style="fill-opacity: 0; stroke: #000000"/>
     <use xlink:href="#m15d35f88f2" x="331.673281" y="260.339291" style="fill-opacity: 0; stroke: #000000"/>
     <use xlink:href="#m15d35f88f2" x="331.673281" y="258.529274" style="fill-opacity: 0; stroke: #000000"/>
     <use xlink:href="#m15d35f88f2" x="331.673281" y="275.418556" style="fill-opacity: 0; stroke: #000000"/>
     <use xlink:href="#m15d35f88f2" x="331.673281" y="283.029846" style="fill-opacity: 0; stroke: #000000"/>
     <use xlink:href="#m15d35f88f2" x="331.673281" y="259.270633" style="fill-opacity: 0; stroke: #000000"/>
     <use xlink:href="#m15d35f88f2" x="331.673281" y="270.041989" style="fill-opacity: 0; stroke: #000000"/>
     <use xlink:href="#m15d35f88f2" x="331.673281" y="266.445399" style="fill-opacity: 0; stroke: #000000"/>
     <use xlink:href="#m15d35f88f2" x="331.673281" y="261.850027" style="fill-opacity: 0; stroke: #000000"/>
     <use xlink:href="#m15d35f88f2" x="331.673281" y="262.15695" style="fill-opacity: 0; stroke: #000000"/>
     <use xlink:href="#m15d35f88f2" x="331.673281" y="261.457818" style="fill-opacity: 0; stroke: #000000"/>
     <use xlink:href="#m15d35f88f2" x="331.673281" y="273.146638" style="fill-opacity: 0; stroke: #000000"/>
     <use xlink:href="#m15d35f88f2" x="331.673281" y="259.937484" style="fill-opacity: 0; stroke: #000000"/>
     <use xlink:href="#m15d35f88f2" x="331.673281" y="262.888387" style="fill-opacity: 0; stroke: #000000"/>
     <use xlink:href="#m15d35f88f2" x="331.673281" y="301.637123" style="fill-opacity: 0; stroke: #000000"/>
     <use xlink:href="#m15d35f88f2" x="331.673281" y="283.034958" style="fill-opacity: 0; stroke: #000000"/>
     <use xlink:href="#m15d35f88f2" x="331.673281" y="259.650242" style="fill-opacity: 0; stroke: #000000"/>
     <use xlink:href="#m15d35f88f2" x="331.673281" y="261.888978" style="fill-opacity: 0; stroke: #000000"/>
     <use xlink:href="#m15d35f88f2" x="331.673281" y="291.660618" style="fill-opacity: 0; stroke: #000000"/>
     <use xlink:href="#m15d35f88f2" x="331.673281" y="277.040819" style="fill-opacity: 0; stroke: #000000"/>
     <use xlink:href="#m15d35f88f2" x="331.673281" y="258.770135" style="fill-opacity: 0; stroke: #000000"/>
     <use xlink:href="#m15d35f88f2" x="331.673281" y="262.837928" style="fill-opacity: 0; stroke: #000000"/>
     <use xlink:href="#m15d35f88f2" x="331.673281" y="97.67987" style="fill-opacity: 0; stroke: #000000"/>
     <use xlink:href="#m15d35f88f2" x="331.673281" y="96.838839" style="fill-opacity: 0; stroke: #000000"/>
     <use xlink:href="#m15d35f88f2" x="331.673281" y="84.320813" style="fill-opacity: 0; stroke: #000000"/>
     <use xlink:href="#m15d35f88f2" x="331.673281" y="97.752696" style="fill-opacity: 0; stroke: #000000"/>
     <use xlink:href="#m15d35f88f2" x="331.673281" y="93.058862" style="fill-opacity: 0; stroke: #000000"/>
     <use xlink:href="#m15d35f88f2" x="331.673281" y="91.407357" style="fill-opacity: 0; stroke: #000000"/>
     <use xlink:href="#m15d35f88f2" x="331.673281" y="77.243483" style="fill-opacity: 0; stroke: #000000"/>
     <use xlink:href="#m15d35f88f2" x="331.673281" y="96.573146" style="fill-opacity: 0; stroke: #000000"/>
     <use xlink:href="#m15d35f88f2" x="331.673281" y="88.590568" style="fill-opacity: 0; stroke: #000000"/>
     <use xlink:href="#m15d35f88f2" x="331.673281" y="84.412053" style="fill-opacity: 0; stroke: #000000"/>
     <use xlink:href="#m15d35f88f2" x="331.673281" y="96.693407" style="fill-opacity: 0; stroke: #000000"/>
     <use xlink:href="#m15d35f88f2" x="331.673281" y="85.259937" style="fill-opacity: 0; stroke: #000000"/>
     <use xlink:href="#m15d35f88f2" x="331.673281" y="93.033138" style="fill-opacity: 0; stroke: #000000"/>
     <use xlink:href="#m15d35f88f2" x="331.673281" y="86.753706" style="fill-opacity: 0; stroke: #000000"/>
     <use xlink:href="#m15d35f88f2" x="331.673281" y="81.159589" style="fill-opacity: 0; stroke: #000000"/>
     <use xlink:href="#m15d35f88f2" x="331.673281" y="88.3351" style="fill-opacity: 0; stroke: #000000"/>
     <use xlink:href="#m15d35f88f2" x="331.673281" y="95.975418" style="fill-opacity: 0; stroke: #000000"/>
     <use xlink:href="#m15d35f88f2" x="331.673281" y="69.340128" style="fill-opacity: 0; stroke: #000000"/>
     <use xlink:href="#m15d35f88f2" x="331.673281" y="87.733123" style="fill-opacity: 0; stroke: #000000"/>
     <use xlink:href="#m15d35f88f2" x="331.673281" y="84.817755" style="fill-opacity: 0; stroke: #000000"/>
     <use xlink:href="#m15d35f88f2" x="331.673281" y="97.724943" style="fill-opacity: 0; stroke: #000000"/>
     <use xlink:href="#m15d35f88f2" x="331.673281" y="95.040883" style="fill-opacity: 0; stroke: #000000"/>
     <use xlink:href="#m15d35f88f2" x="331.673281" y="82.518948" style="fill-opacity: 0; stroke: #000000"/>
     <use xlink:href="#m15d35f88f2" x="331.673281" y="79.936595" style="fill-opacity: 0; stroke: #000000"/>
     <use xlink:href="#m15d35f88f2" x="331.673281" y="92.200805" style="fill-opacity: 0; stroke: #000000"/>
     <use xlink:href="#m15d35f88f2" x="331.673281" y="56.624123" style="fill-opacity: 0; stroke: #000000"/>
     <use xlink:href="#m15d35f88f2" x="331.673281" y="93.758843" style="fill-opacity: 0; stroke: #000000"/>
     <use xlink:href="#m15d35f88f2" x="331.673281" y="82.72482" style="fill-opacity: 0; stroke: #000000"/>
     <use xlink:href="#m15d35f88f2" x="331.673281" y="91.110363" style="fill-opacity: 0; stroke: #000000"/>
     <use xlink:href="#m15d35f88f2" x="331.673281" y="94.798104" style="fill-opacity: 0; stroke: #000000"/>
     <use xlink:href="#m15d35f88f2" x="331.673281" y="95.916564" style="fill-opacity: 0; stroke: #000000"/>
     <use xlink:href="#m15d35f88f2" x="331.673281" y="97.720879" style="fill-opacity: 0; stroke: #000000"/>
     <use xlink:href="#m15d35f88f2" x="331.673281" y="95.827464" style="fill-opacity: 0; stroke: #000000"/>
     <use xlink:href="#m15d35f88f2" x="331.673281" y="95.411131" style="fill-opacity: 0; stroke: #000000"/>
     <use xlink:href="#m15d35f88f2" x="331.673281" y="92.994888" style="fill-opacity: 0; stroke: #000000"/>
     <use xlink:href="#m15d35f88f2" x="331.673281" y="96.805871" style="fill-opacity: 0; stroke: #000000"/>
     <use xlink:href="#m15d35f88f2" x="331.673281" y="82.088916" style="fill-opacity: 0; stroke: #000000"/>
     <use xlink:href="#m15d35f88f2" x="331.673281" y="54.22653" style="fill-opacity: 0; stroke: #000000"/>
     <use xlink:href="#m15d35f88f2" x="331.673281" y="97.421642" style="fill-opacity: 0; stroke: #000000"/>
     <use xlink:href="#m15d35f88f2" x="331.673281" y="93.944915" style="fill-opacity: 0; stroke: #000000"/>
     <use xlink:href="#m15d35f88f2" x="331.673281" y="94.038966" style="fill-opacity: 0; stroke: #000000"/>
     <use xlink:href="#m15d35f88f2" x="331.673281" y="66.26208" style="fill-opacity: 0; stroke: #000000"/>
     <use xlink:href="#m15d35f88f2" x="331.673281" y="88.149847" style="fill-opacity: 0; stroke: #000000"/>
     <use xlink:href="#m15d35f88f2" x="331.673281" y="92.910133" style="fill-opacity: 0; stroke: #000000"/>
     <use xlink:href="#m15d35f88f2" x="331.673281" y="84.966897" style="fill-opacity: 0; stroke: #000000"/>
     <use xlink:href="#m15d35f88f2" x="331.673281" y="93.706452" style="fill-opacity: 0; stroke: #000000"/>
     <use xlink:href="#m15d35f88f2" x="331.673281" y="95.122238" style="fill-opacity: 0; stroke: #000000"/>
     <use xlink:href="#m15d35f88f2" x="331.673281" y="97.551228" style="fill-opacity: 0; stroke: #000000"/>
     <use xlink:href="#m15d35f88f2" x="331.673281" y="92.369585" style="fill-opacity: 0; stroke: #000000"/>
     <use xlink:href="#m15d35f88f2" x="331.673281" y="75.636904" style="fill-opacity: 0; stroke: #000000"/>
     <use xlink:href="#m15d35f88f2" x="331.673281" y="90.550708" style="fill-opacity: 0; stroke: #000000"/>
     <use xlink:href="#m15d35f88f2" x="331.673281" y="87.563687" style="fill-opacity: 0; stroke: #000000"/>
    </g>
   </g>
   <g id="line2d_19">
    <path d="M 134.244492 161.846852 
L 161.792695 161.846852 
" clip-path="url(#p7e853ed697)" style="fill: none; stroke: #ff7f0e"/>
   </g>
   <g id="line2d_20">
    <path d="M 317.89918 179.375211 
L 345.447383 179.375211 
" clip-path="url(#p7e853ed697)" style="fill: none; stroke: #ff7f0e"/>
   </g>
   <g id="patch_5">
    <path d="M 56.19125 314.007653 
L 56.19125 41.856 
" style="fill: none; stroke: #000000; stroke-width: 0.8; stroke-linejoin: miter; stroke-linecap: square"/>
   </g>
   <g id="patch_6">
    <path d="M 423.500625 314.007653 
L 423.500625 41.856 
" style="fill: none; stroke: #000000; stroke-width: 0.8; stroke-linejoin: miter; stroke-linecap: square"/>
   </g>
   <g id="patch_7">
    <path d="M 56.19125 314.007653 
L 423.500625 314.007653 
" style="fill: none; stroke: #000000; stroke-width: 0.8; stroke-linejoin: miter; stroke-linecap: square"/>
   </g>
   <g id="patch_8">
    <path d="M 56.19125 41.856 
L 423.500625 41.856 
" style="fill: none; stroke: #000000; stroke-width: 0.8; stroke-linejoin: miter; stroke-linecap: square"/>
   </g>
   <g id="text_10">
    <!-- Burst Index by Subtype -->
    <g transform="translate(169.556875 22.418625) scale(0.12 -0.12)">
     <defs>
      <path id="DejaVuSans-49" d="M 628 4666 
L 1259 4666 
L 1259 0 
L 628 0 
L 628 4666 
z
" transform="scale(0.015625)"/>
      <path id="DejaVuSans-62" d="M 3116 1747 
Q 3116 2381 2855 2742 
Q 2594 3103 2138 3103 
Q 1681 3103 1420 2742 
Q 1159 2381 1159 1747 
Q 1159 1113 1420 752 
Q 1681 391 2138 391 
Q 2594 391 2855 752 
Q 3116 1113 3116 1747 
z
M 1159 2969 
Q 1341 3281 1617 3432 
Q 1894 3584 2278 3584 
Q 2916 3584 3314 3078 
Q 3713 2572 3713 1747 
Q 3713 922 3314 415 
Q 2916 -91 2278 -91 
Q 1894 -91 1617 61 
Q 1341 213 1159 525 
L 1159 0 
L 581 0 
L 581 4863 
L 1159 4863 
L 1159 2969 
z
" transform="scale(0.015625)"/>
      <path id="DejaVuSans-79" d="M 2059 -325 
Q 1816 -950 1584 -1140 
Q 1353 -1331 966 -1331 
L 506 -1331 
L 506 -850 
L 844 -850 
Q 1081 -850 1212 -737 
Q 1344 -625 1503 -206 
L 1606 56 
L 191 3500 
L 800 3500 
L 1894 763 
L 2988 3500 
L 3597 3500 
L 2059 -325 
z
" transform="scale(0.015625)"/>
      <path id="DejaVuSans-53" d="M 3425 4513 
L 3425 3897 
Q 3066 4069 2747 4153 
Q 2428 4238 2131 4238 
Q 1616 4238 1336 4038 
Q 1056 3838 1056 3469 
Q 1056 3159 1242 3001 
Q 1428 2844 1947 2747 
L 2328 2669 
Q 3034 2534 3370 2195 
Q 3706 1856 3706 1288 
Q 3706 609 3251 259 
Q 2797 -91 1919 -91 
Q 1588 -91 1214 -16 
Q 841 59 441 206 
L 441 856 
Q 825 641 1194 531 
Q 1563 422 1919 422 
Q 2459 422 2753 634 
Q 3047 847 3047 1241 
Q 3047 1584 2836 1778 
Q 2625 1972 2144 2069 
L 1759 2144 
Q 1053 2284 737 2584 
Q 422 2884 422 3419 
Q 422 4038 858 4394 
Q 1294 4750 2059 4750 
Q 2388 4750 2728 4690 
Q 3069 4631 3425 4513 
z
" transform="scale(0.015625)"/>
     </defs>
     <use xlink:href="#DejaVuSans-42"/>
     <use xlink:href="#DejaVuSans-75" transform="translate(68.603516 0)"/>
     <use xlink:href="#DejaVuSans-72" transform="translate(131.982422 0)"/>
     <use xlink:href="#DejaVuSans-73" transform="translate(173.095703 0)"/>
     <use xlink:href="#DejaVuSans-74" transform="translate(225.195312 0)"/>
     <use xlink:href="#DejaVuSans-20" transform="translate(264.404297 0)"/>
     <use xlink:href="#DejaVuSans-49" transform="translate(296.191406 0)"/>
     <use xlink:href="#DejaVuSans-6e" transform="translate(325.683594 0)"/>
     <use xlink:href="#DejaVuSans-64" transform="translate(389.0625 0)"/>
     <use xlink:href="#DejaVuSans-65" transform="translate(452.539062 0)"/>
     <use xlink:href="#DejaVuSans-78" transform="translate(512.3125 0)"/>
     <use xlink:href="#DejaVuSans-20" transform="translate(571.492188 0)"/>
     <use xlink:href="#DejaVuSans-62" transform="translate(603.279297 0)"/>
     <use xlink:href="#DejaVuSans-79" transform="translate(666.755859 0)"/>
     <use xlink:href="#DejaVuSans-20" transform="translate(725.935547 0)"/>
     <use xlink:href="#DejaVuSans-53" transform="translate(757.722656 0)"/>
     <use xlink:href="#DejaVuSans-75" transform="translate(821.199219 0)"/>
     <use xlink:href="#DejaVuSans-62" transform="translate(884.578125 0)"/>
     <use xlink:href="#DejaVuSans-74" transform="translate(948.054688 0)"/>
     <use xlink:href="#DejaVuSans-79" transform="translate(987.263672 0)"/>
     <use xlink:href="#DejaVuSans-70" transform="translate(1046.443359 0)"/>
     <use xlink:href="#DejaVuSans-65" transform="translate(1109.919922 0)"/>
    </g>
    <!-- p = 3.77e-91 -->
    <g transform="translate(200.344375 35.856) scale(0.12 -0.12)">
     <defs>
      <path id="DejaVuSans-3d" d="M 678 2906 
L 4684 2906 
L 4684 2381 
L 678 2381 
L 678 2906 
z
M 678 1631 
L 4684 1631 
L 4684 1100 
L 678 1100 
L 678 1631 
z
" transform="scale(0.015625)"/>
      <path id="DejaVuSans-33" d="M 2597 2516 
Q 3050 2419 3304 2112 
Q 3559 1806 3559 1356 
Q 3559 666 3084 287 
Q 2609 -91 1734 -91 
Q 1441 -91 1130 -33 
Q 819 25 488 141 
L 488 750 
Q 750 597 1062 519 
Q 1375 441 1716 441 
Q 2309 441 2620 675 
Q 2931 909 2931 1356 
Q 2931 1769 2642 2001 
Q 2353 2234 1838 2234 
L 1294 2234 
L 1294 2753 
L 1863 2753 
Q 2328 2753 2575 2939 
Q 2822 3125 2822 3475 
Q 2822 3834 2567 4026 
Q 2313 4219 1838 4219 
Q 1578 4219 1281 4162 
Q 984 4106 628 3988 
L 628 4550 
Q 988 4650 1302 4700 
Q 1616 4750 1894 4750 
Q 2613 4750 3031 4423 
Q 3450 4097 3450 3541 
Q 3450 3153 3228 2886 
Q 3006 2619 2597 2516 
z
" transform="scale(0.015625)"/>
      <path id="DejaVuSans-37" d="M 525 4666 
L 3525 4666 
L 3525 4397 
L 1831 0 
L 1172 0 
L 2766 4134 
L 525 4134 
L 525 4666 
z
" transform="scale(0.015625)"/>
      <path id="DejaVuSans-39" d="M 703 97 
L 703 672 
Q 941 559 1184 500 
Q 1428 441 1663 441 
Q 2288 441 2617 861 
Q 2947 1281 2994 2138 
Q 2813 1869 2534 1725 
Q 2256 1581 1919 1581 
Q 1219 1581 811 2004 
Q 403 2428 403 3163 
Q 403 3881 828 4315 
Q 1253 4750 1959 4750 
Q 2769 4750 3195 4129 
Q 3622 3509 3622 2328 
Q 3622 1225 3098 567 
Q 2575 -91 1691 -91 
Q 1453 -91 1209 -44 
Q 966 3 703 97 
z
M 1959 2075 
Q 2384 2075 2632 2365 
Q 2881 2656 2881 3163 
Q 2881 3666 2632 3958 
Q 2384 4250 1959 4250 
Q 1534 4250 1286 3958 
Q 1038 3666 1038 3163 
Q 1038 2656 1286 2365 
Q 1534 2075 1959 2075 
z
" transform="scale(0.015625)"/>
      <path id="DejaVuSans-31" d="M 794 531 
L 1825 531 
L 1825 4091 
L 703 3866 
L 703 4441 
L 1819 4666 
L 2450 4666 
L 2450 531 
L 3481 531 
L 3481 0 
L 794 0 
L 794 531 
z
" transform="scale(0.015625)"/>
     </defs>
     <use xlink:href="#DejaVuSans-70"/>
     <use xlink:href="#DejaVuSans-20" transform="translate(63.476562 0)"/>
     <use xlink:href="#DejaVuSans-3d" transform="translate(95.263672 0)"/>
     <use xlink:href="#DejaVuSans-20" transform="translate(179.052734 0)"/>
     <use xlink:href="#DejaVuSans-33" transform="translate(210.839844 0)"/>
     <use xlink:href="#DejaVuSans-2e" transform="translate(274.462891 0)"/>
     <use xlink:href="#DejaVuSans-37" transform="translate(306.25 0)"/>
     <use xlink:href="#DejaVuSans-37" transform="translate(369.873047 0)"/>
     <use xlink:href="#DejaVuSans-65" transform="translate(433.496094 0)"/>
     <use xlink:href="#DejaVuSans-2d" transform="translate(495.019531 0)"/>
     <use xlink:href="#DejaVuSans-39" transform="translate(531.103516 0)"/>
     <use xlink:href="#DejaVuSans-31" transform="translate(594.726562 0)"/>
    </g>
   </g>
  </g>
  <g id="axes_2">
   <g id="patch_9">
    <path d="M 485.890625 314.007653 
L 853.2 314.007653 
L 853.2 41.856 
L 485.890625 41.856 
z
" style="fill: #ffffff"/>
   </g>
   <g id="patch_10">
    <path d="M 502.586506 207.11318 
L 509.584779 207.11318 
L 509.584779 188.414889 
L 502.586506 188.414889 
z
" clip-path="url(#p8f0e6cda9a)" style="fill: #dd8452; stroke: #000000; stroke-linejoin: miter"/>
   </g>
   <g id="patch_11">
    <path d="M 522.581572 207.11318 
L 529.579846 207.11318 
L 529.579846 188.156714 
L 522.581572 188.156714 
z
" clip-path="url(#p8f0e6cda9a)" style="fill: #dd8452; stroke: #000000; stroke-linejoin: miter"/>
   </g>
   <g id="patch_12">
    <path d="M 542.576639 207.11318 
L 549.574912 207.11318 
L 549.574912 192.32229 
L 542.576639 192.32229 
z
" clip-path="url(#p8f0e6cda9a)" style="fill: #dd8452; stroke: #000000; stroke-linejoin: miter"/>
   </g>
   <g id="patch_13">
    <path d="M 562.571706 207.11318 
L 569.569979 207.11318 
L 569.569979 92.888954 
L 562.571706 92.888954 
z
" clip-path="url(#p8f0e6cda9a)" style="fill: #dd8452; stroke: #000000; stroke-linejoin: miter"/>
   </g>
   <g id="patch_14">
    <path d="M 582.566772 207.11318 
L 589.565046 207.11318 
L 589.565046 236.609799 
L 582.566772 236.609799 
z
" clip-path="url(#p8f0e6cda9a)" style="fill: #dd8452; stroke: #000000; stroke-linejoin: miter"/>
   </g>
   <g id="patch_15">
    <path d="M 602.561839 207.11318 
L 609.560112 207.11318 
L 609.560112 163.563145 
L 602.561839 163.563145 
z
" clip-path="url(#p8f0e6cda9a)" style="fill: #dd8452; stroke: #000000; stroke-linejoin: miter"/>
   </g>
   <g id="patch_16">
    <path d="M 622.556906 207.11318 
L 629.555179 207.11318 
L 629.555179 218.803493 
L 622.556906 218.803493 
z
" clip-path="url(#p8f0e6cda9a)" style="fill: #dd8452; stroke: #000000; stroke-linejoin: miter"/>
   </g>
   <g id="patch_17">
    <path d="M 642.551972 207.11318 
L 649.550246 207.11318 
L 649.550246 54.22653 
L 642.551972 54.22653 
z
" clip-path="url(#p8f0e6cda9a)" style="fill: #dd8452; stroke: #000000; stroke-linejoin: miter"/>
   </g>
   <g id="patch_18">
    <path d="M 662.547039 207.11318 
L 669.545312 207.11318 
L 669.545312 173.235225 
L 662.547039 173.235225 
z
" clip-path="url(#p8f0e6cda9a)" style="fill: #dd8452; stroke: #000000; stroke-linejoin: miter"/>
   </g>
   <g id="patch_19">
    <path d="M 682.542106 207.11318 
L 689.540379 207.11318 
L 689.540379 201.629088 
L 682.542106 201.629088 
z
" clip-path="url(#p8f0e6cda9a)" style="fill: #dd8452; stroke: #000000; stroke-linejoin: miter"/>
   </g>
   <g id="patch_20">
    <path d="M 702.537173 207.11318 
L 709.535446 207.11318 
L 709.535446 206.562498 
L 702.537173 206.562498 
z
" clip-path="url(#p8f0e6cda9a)" style="fill: #dd8452; stroke: #000000; stroke-linejoin: miter"/>
   </g>
   <g id="patch_21">
    <path d="M 722.532239 207.11318 
L 729.530513 207.11318 
L 729.530513 218.613538 
L 722.532239 218.613538 
z
" clip-path="url(#p8f0e6cda9a)" style="fill: #dd8452; stroke: #000000; stroke-linejoin: miter"/>
   </g>
   <g id="patch_22">
    <path d="M 742.527306 207.11318 
L 749.525579 207.11318 
L 749.525579 220.375949 
L 742.527306 220.375949 
z
" clip-path="url(#p8f0e6cda9a)" style="fill: #dd8452; stroke: #000000; stroke-linejoin: miter"/>
   </g>
   <g id="patch_23">
    <path d="M 762.522373 207.11318 
L 769.520646 207.11318 
L 769.520646 156.965936 
L 762.522373 156.965936 
z
" clip-path="url(#p8f0e6cda9a)" style="fill: #dd8452; stroke: #000000; stroke-linejoin: miter"/>
   </g>
   <g id="patch_24">
    <path d="M 782.517439 207.11318 
L 789.515713 207.11318 
L 789.515713 221.385067 
L 782.517439 221.385067 
z
" clip-path="url(#p8f0e6cda9a)" style="fill: #dd8452; stroke: #000000; stroke-linejoin: miter"/>
   </g>
   <g id="patch_25">
    <path d="M 802.512506 207.11318 
L 809.510779 207.11318 
L 809.510779 219.054849 
L 802.512506 219.054849 
z
" clip-path="url(#p8f0e6cda9a)" style="fill: #dd8452; stroke: #000000; stroke-linejoin: miter"/>
   </g>
   <g id="patch_26">
    <path d="M 822.507573 207.11318 
L 829.505846 207.11318 
L 829.505846 209.876506 
L 822.507573 209.876506 
z
" clip-path="url(#p8f0e6cda9a)" style="fill: #dd8452; stroke: #000000; stroke-linejoin: miter"/>
   </g>
   <g id="patch_27">
    <path d="M 509.584779 207.11318 
L 516.583052 207.11318 
L 516.583052 217.795459 
L 509.584779 217.795459 
z
" clip-path="url(#p8f0e6cda9a)" style="fill: #4c72b0; stroke: #000000; stroke-linejoin: miter"/>
   </g>
   <g id="patch_28">
    <path d="M 529.579846 207.11318 
L 536.578119 207.11318 
L 536.578119 240.917474 
L 529.579846 240.917474 
z
" clip-path="url(#p8f0e6cda9a)" style="fill: #4c72b0; stroke: #000000; stroke-linejoin: miter"/>
   </g>
   <g id="patch_29">
    <path d="M 549.574912 207.11318 
L 556.573186 207.11318 
L 556.573186 268.349477 
L 549.574912 268.349477 
z
" clip-path="url(#p8f0e6cda9a)" style="fill: #4c72b0; stroke: #000000; stroke-linejoin: miter"/>
   </g>
   <g id="patch_30">
    <path d="M 569.569979 207.11318 
L 576.568252 207.11318 
L 576.568252 181.530802 
L 569.569979 181.530802 
z
" clip-path="url(#p8f0e6cda9a)" style="fill: #4c72b0; stroke: #000000; stroke-linejoin: miter"/>
   </g>
   <g id="patch_31">
    <path d="M 589.565046 207.11318 
L 596.563319 207.11318 
L 596.563319 278.130231 
L 589.565046 278.130231 
z
" clip-path="url(#p8f0e6cda9a)" style="fill: #4c72b0; stroke: #000000; stroke-linejoin: miter"/>
   </g>
   <g id="patch_32">
    <path d="M 609.560112 207.11318 
L 616.558386 207.11318 
L 616.558386 253.72975 
L 609.560112 253.72975 
z
" clip-path="url(#p8f0e6cda9a)" style="fill: #4c72b0; stroke: #000000; stroke-linejoin: miter"/>
   </g>
   <g id="patch_33">
    <path d="M 629.555179 207.11318 
L 636.553452 207.11318 
L 636.553452 264.865325 
L 629.555179 264.865325 
z
" clip-path="url(#p8f0e6cda9a)" style="fill: #4c72b0; stroke: #000000; stroke-linejoin: miter"/>
   </g>
   <g id="patch_34">
    <path d="M 649.550246 207.11318 
L 656.548519 207.11318 
L 656.548519 129.245611 
L 649.550246 129.245611 
z
" clip-path="url(#p8f0e6cda9a)" style="fill: #4c72b0; stroke: #000000; stroke-linejoin: miter"/>
   </g>
   <g id="patch_35">
    <path d="M 669.545312 207.11318 
L 676.543586 207.11318 
L 676.543586 251.668567 
L 669.545312 251.668567 
z
" clip-path="url(#p8f0e6cda9a)" style="fill: #4c72b0; stroke: #000000; stroke-linejoin: miter"/>
   </g>
   <g id="patch_36">
    <path d="M 689.540379 207.11318 
L 696.538653 207.11318 
L 696.538653 229.660844 
L 689.540379 229.660844 
z
" clip-path="url(#p8f0e6cda9a)" style="fill: #4c72b0; stroke: #000000; stroke-linejoin: miter"/>
   </g>
   <g id="patch_37">
    <path d="M 709.535446 207.11318 
L 716.533719 207.11318 
L 716.533719 281.948983 
L 709.535446 281.948983 
z
" clip-path="url(#p8f0e6cda9a)" style="fill: #4c72b0; stroke: #000000; stroke-linejoin: miter"/>
   </g>
   <g id="patch_38">
    <path d="M 729.530513 207.11318 
L 736.528786 207.11318 
L 736.528786 218.367128 
L 729.530513 218.367128 
z
" clip-path="url(#p8f0e6cda9a)" style="fill: #4c72b0; stroke: #000000; stroke-linejoin: miter"/>
   </g>
   <g id="patch_39">
    <path d="M 749.525579 207.11318 
L 756.523853 207.11318 
L 756.523853 269.894487 
L 749.525579 269.894487 
z
" clip-path="url(#p8f0e6cda9a)" style="fill: #4c72b0; stroke: #000000; stroke-linejoin: miter"/>
   </g>
   <g id="patch_40">
    <path d="M 769.520646 207.11318 
L 776.518919 207.11318 
L 776.518919 198.9755 
L 769.520646 198.9755 
z
" clip-path="url(#p8f0e6cda9a)" style="fill: #4c72b0; stroke: #000000; stroke-linejoin: miter"/>
   </g>
   <g id="patch_41">
    <path d="M 789.515713 207.11318 
L 796.513986 207.11318 
L 796.513986 301.637123 
L 789.515713 301.637123 
z
" clip-path="url(#p8f0e6cda9a)" style="fill: #4c72b0; stroke: #000000; stroke-linejoin: miter"/>
   </g>
   <g id="patch_42">
    <path d="M 809.510779 207.11318 
L 816.509053 207.11318 
L 816.509053 229.368914 
L 809.510779 229.368914 
z
" clip-path="url(#p8f0e6cda9a)" style="fill: #4c72b0; stroke: #000000; stroke-linejoin: miter"/>
   </g>
   <g id="patch_43">
    <path d="M 829.505846 207.11318 
L 836.504119 207.11318 
L 836.504119 292.113228 
L 829.505846 292.113228 
z
" clip-path="url(#p8f0e6cda9a)" style="fill: #4c72b0; stroke: #000000; stroke-linejoin: miter"/>
   </g>
   <g id="matplotlib.axis_3">
    <g id="xtick_3">
     <g id="line2d_21">
      <g>
       <use xlink:href="#m9aea0bd24b" x="509.584779" y="314.007653" style="stroke: #000000; stroke-width: 0.8"/>
      </g>
     </g>
     <g id="text_11">
      <!-- ILA2/3 -->
      <g transform="translate(492.873968 340.450106) rotate(-45) scale(0.07 -0.07)">
       <defs>
        <path id="DejaVuSans-4c" d="M 628 4666 
L 1259 4666 
L 1259 531 
L 3531 531 
L 3531 0 
L 628 0 
L 628 4666 
z
" transform="scale(0.015625)"/>
        <path id="DejaVuSans-41" d="M 2188 4044 
L 1331 1722 
L 3047 1722 
L 2188 4044 
z
M 1831 4666 
L 2547 4666 
L 4325 0 
L 3669 0 
L 3244 1197 
L 1141 1197 
L 716 0 
L 50 0 
L 1831 4666 
z
" transform="scale(0.015625)"/>
        <path id="DejaVuSans-2f" d="M 1625 4666 
L 2156 4666 
L 531 -594 
L 0 -594 
L 1625 4666 
z
" transform="scale(0.015625)"/>
       </defs>
       <use xlink:href="#DejaVuSans-49"/>
       <use xlink:href="#DejaVuSans-4c" transform="translate(29.492188 0)"/>
       <use xlink:href="#DejaVuSans-41" transform="translate(87.455078 0)"/>
       <use xlink:href="#DejaVuSans-32" transform="translate(155.863281 0)"/>
       <use xlink:href="#DejaVuSans-2f" transform="translate(219.486328 0)"/>
       <use xlink:href="#DejaVuSans-33" transform="translate(253.177734 0)"/>
      </g>
     </g>
    </g>
    <g id="xtick_4">
     <g id="line2d_22">
      <g>
       <use xlink:href="#m9aea0bd24b" x="529.579846" y="314.007653" style="stroke: #000000; stroke-width: 0.8"/>
      </g>
     </g>
     <g id="text_12">
      <!-- ORBvl5 -->
      <g transform="translate(510.364771 342.954369) rotate(-45) scale(0.07 -0.07)">
       <defs>
        <path id="DejaVuSans-4f" d="M 2522 4238 
Q 1834 4238 1429 3725 
Q 1025 3213 1025 2328 
Q 1025 1447 1429 934 
Q 1834 422 2522 422 
Q 3209 422 3611 934 
Q 4013 1447 4013 2328 
Q 4013 3213 3611 3725 
Q 3209 4238 2522 4238 
z
M 2522 4750 
Q 3503 4750 4090 4092 
Q 4678 3434 4678 2328 
Q 4678 1225 4090 567 
Q 3503 -91 2522 -91 
Q 1538 -91 948 565 
Q 359 1222 359 2328 
Q 359 3434 948 4092 
Q 1538 4750 2522 4750 
z
" transform="scale(0.015625)"/>
        <path id="DejaVuSans-52" d="M 2841 2188 
Q 3044 2119 3236 1894 
Q 3428 1669 3622 1275 
L 4263 0 
L 3584 0 
L 2988 1197 
Q 2756 1666 2539 1819 
Q 2322 1972 1947 1972 
L 1259 1972 
L 1259 0 
L 628 0 
L 628 4666 
L 2053 4666 
Q 2853 4666 3247 4331 
Q 3641 3997 3641 3322 
Q 3641 2881 3436 2590 
Q 3231 2300 2841 2188 
z
M 1259 4147 
L 1259 2491 
L 2053 2491 
Q 2509 2491 2742 2702 
Q 2975 2913 2975 3322 
Q 2975 3731 2742 3939 
Q 2509 4147 2053 4147 
L 1259 4147 
z
" transform="scale(0.015625)"/>
        <path id="DejaVuSans-76" d="M 191 3500 
L 800 3500 
L 1894 563 
L 2988 3500 
L 3597 3500 
L 2284 0 
L 1503 0 
L 191 3500 
z
" transform="scale(0.015625)"/>
        <path id="DejaVuSans-35" d="M 691 4666 
L 3169 4666 
L 3169 4134 
L 1269 4134 
L 1269 2991 
Q 1406 3038 1543 3061 
Q 1681 3084 1819 3084 
Q 2600 3084 3056 2656 
Q 3513 2228 3513 1497 
Q 3513 744 3044 326 
Q 2575 -91 1722 -91 
Q 1428 -91 1123 -41 
Q 819 9 494 109 
L 494 744 
Q 775 591 1075 516 
Q 1375 441 1709 441 
Q 2250 441 2565 725 
Q 2881 1009 2881 1497 
Q 2881 1984 2565 2268 
Q 2250 2553 1709 2553 
Q 1456 2553 1204 2497 
Q 953 2441 691 2322 
L 691 4666 
z
" transform="scale(0.015625)"/>
       </defs>
       <use xlink:href="#DejaVuSans-4f"/>
       <use xlink:href="#DejaVuSans-52" transform="translate(78.710938 0)"/>
       <use xlink:href="#DejaVuSans-42" transform="translate(148.193359 0)"/>
       <use xlink:href="#DejaVuSans-76" transform="translate(216.796875 0)"/>
       <use xlink:href="#DejaVuSans-6c" transform="translate(275.976562 0)"/>
       <use xlink:href="#DejaVuSans-35" transform="translate(303.759766 0)"/>
      </g>
     </g>
    </g>
    <g id="xtick_5">
     <g id="line2d_23">
      <g>
       <use xlink:href="#m9aea0bd24b" x="549.574912" y="314.007653" style="stroke: #000000; stroke-width: 0.8"/>
      </g>
     </g>
     <g id="text_13">
      <!-- ORBm6a -->
      <g transform="translate(526.809941 346.504266) rotate(-45) scale(0.07 -0.07)">
       <use xlink:href="#DejaVuSans-4f"/>
       <use xlink:href="#DejaVuSans-52" transform="translate(78.710938 0)"/>
       <use xlink:href="#DejaVuSans-42" transform="translate(148.193359 0)"/>
       <use xlink:href="#DejaVuSans-6d" transform="translate(216.796875 0)"/>
       <use xlink:href="#DejaVuSans-36" transform="translate(314.208984 0)"/>
       <use xlink:href="#DejaVuSans-61" transform="translate(377.832031 0)"/>
      </g>
     </g>
    </g>
    <g id="xtick_6">
     <g id="line2d_24">
      <g>
       <use xlink:href="#m9aea0bd24b" x="569.569979" y="314.007653" style="stroke: #000000; stroke-width: 0.8"/>
      </g>
     </g>
     <g id="text_14">
      <!-- ORBl2/3 -->
      <g transform="translate(548.467814 344.84146) rotate(-45) scale(0.07 -0.07)">
       <use xlink:href="#DejaVuSans-4f"/>
       <use xlink:href="#DejaVuSans-52" transform="translate(78.710938 0)"/>
       <use xlink:href="#DejaVuSans-42" transform="translate(148.193359 0)"/>
       <use xlink:href="#DejaVuSans-6c" transform="translate(216.796875 0)"/>
       <use xlink:href="#DejaVuSans-32" transform="translate(244.580078 0)"/>
       <use xlink:href="#DejaVuSans-2f" transform="translate(308.203125 0)"/>
       <use xlink:href="#DejaVuSans-33" transform="translate(341.894531 0)"/>
      </g>
     </g>
    </g>
    <g id="xtick_7">
     <g id="line2d_25">
      <g>
       <use xlink:href="#m9aea0bd24b" x="589.565046" y="314.007653" style="stroke: #000000; stroke-width: 0.8"/>
      </g>
     </g>
     <g id="text_15">
      <!-- PL6b -->
      <g transform="translate(576.501579 336.802761) rotate(-45) scale(0.07 -0.07)">
       <defs>
        <path id="DejaVuSans-50" d="M 1259 4147 
L 1259 2394 
L 2053 2394 
Q 2494 2394 2734 2622 
Q 2975 2850 2975 3272 
Q 2975 3691 2734 3919 
Q 2494 4147 2053 4147 
L 1259 4147 
z
M 628 4666 
L 2053 4666 
Q 2838 4666 3239 4311 
Q 3641 3956 3641 3272 
Q 3641 2581 3239 2228 
Q 2838 1875 2053 1875 
L 1259 1875 
L 1259 0 
L 628 0 
L 628 4666 
z
" transform="scale(0.015625)"/>
       </defs>
       <use xlink:href="#DejaVuSans-50"/>
       <use xlink:href="#DejaVuSans-4c" transform="translate(60.302734 0)"/>
       <use xlink:href="#DejaVuSans-36" transform="translate(116.015625 0)"/>
       <use xlink:href="#DejaVuSans-62" transform="translate(179.638672 0)"/>
      </g>
     </g>
    </g>
    <g id="xtick_8">
     <g id="line2d_26">
      <g>
       <use xlink:href="#m9aea0bd24b" x="609.560112" y="314.007653" style="stroke: #000000; stroke-width: 0.8"/>
      </g>
     </g>
     <g id="text_16">
      <!-- ORBvl1 -->
      <g transform="translate(590.345038 342.954369) rotate(-45) scale(0.07 -0.07)">
       <use xlink:href="#DejaVuSans-4f"/>
       <use xlink:href="#DejaVuSans-52" transform="translate(78.710938 0)"/>
       <use xlink:href="#DejaVuSans-42" transform="translate(148.193359 0)"/>
       <use xlink:href="#DejaVuSans-76" transform="translate(216.796875 0)"/>
       <use xlink:href="#DejaVuSans-6c" transform="translate(275.976562 0)"/>
       <use xlink:href="#DejaVuSans-31" transform="translate(303.759766 0)"/>
      </g>
     </g>
    </g>
    <g id="xtick_9">
     <g id="line2d_27">
      <g>
       <use xlink:href="#m9aea0bd24b" x="629.555179" y="314.007653" style="stroke: #000000; stroke-width: 0.8"/>
      </g>
     </g>
     <g id="text_17">
      <!-- PL6a -->
      <g transform="translate(616.600762 336.693712) rotate(-45) scale(0.07 -0.07)">
       <use xlink:href="#DejaVuSans-50"/>
       <use xlink:href="#DejaVuSans-4c" transform="translate(60.302734 0)"/>
       <use xlink:href="#DejaVuSans-36" transform="translate(116.015625 0)"/>
       <use xlink:href="#DejaVuSans-61" transform="translate(179.638672 0)"/>
      </g>
     </g>
    </g>
    <g id="xtick_10">
     <g id="line2d_28">
      <g>
       <use xlink:href="#m9aea0bd24b" x="649.550246" y="314.007653" style="stroke: #000000; stroke-width: 0.8"/>
      </g>
     </g>
     <g id="text_18">
      <!-- VPL -->
      <g transform="translate(639.392436 333.897104) rotate(-45) scale(0.07 -0.07)">
       <defs>
        <path id="DejaVuSans-56" d="M 1831 0 
L 50 4666 
L 709 4666 
L 2188 738 
L 3669 4666 
L 4325 4666 
L 2547 0 
L 1831 0 
z
" transform="scale(0.015625)"/>
       </defs>
       <use xlink:href="#DejaVuSans-56"/>
       <use xlink:href="#DejaVuSans-50" transform="translate(68.408203 0)"/>
       <use xlink:href="#DejaVuSans-4c" transform="translate(128.710938 0)"/>
      </g>
     </g>
    </g>
    <g id="xtick_11">
     <g id="line2d_29">
      <g>
       <use xlink:href="#m9aea0bd24b" x="669.545312" y="314.007653" style="stroke: #000000; stroke-width: 0.8"/>
      </g>
     </g>
     <g id="text_19">
      <!-- ORBm5 -->
      <g transform="translate(649.813608 343.470999) rotate(-45) scale(0.07 -0.07)">
       <use xlink:href="#DejaVuSans-4f"/>
       <use xlink:href="#DejaVuSans-52" transform="translate(78.710938 0)"/>
       <use xlink:href="#DejaVuSans-42" transform="translate(148.193359 0)"/>
       <use xlink:href="#DejaVuSans-6d" transform="translate(216.796875 0)"/>
       <use xlink:href="#DejaVuSans-35" transform="translate(314.208984 0)"/>
      </g>
     </g>
    </g>
    <g id="xtick_12">
     <g id="line2d_30">
      <g>
       <use xlink:href="#m9aea0bd24b" x="689.540379" y="314.007653" style="stroke: #000000; stroke-width: 0.8"/>
      </g>
     </g>
     <g id="text_20">
      <!-- PL2/3 -->
      <g transform="translate(674.802506 338.477168) rotate(-45) scale(0.07 -0.07)">
       <use xlink:href="#DejaVuSans-50"/>
       <use xlink:href="#DejaVuSans-4c" transform="translate(60.302734 0)"/>
       <use xlink:href="#DejaVuSans-32" transform="translate(116.015625 0)"/>
       <use xlink:href="#DejaVuSans-2f" transform="translate(179.638672 0)"/>
       <use xlink:href="#DejaVuSans-33" transform="translate(213.330078 0)"/>
      </g>
     </g>
    </g>
    <g id="xtick_13">
     <g id="line2d_31">
      <g>
       <use xlink:href="#m9aea0bd24b" x="709.535446" y="314.007653" style="stroke: #000000; stroke-width: 0.8"/>
      </g>
     </g>
     <g id="text_21">
      <!-- PL5 -->
      <g transform="translate(699.614296 333.660445) rotate(-45) scale(0.07 -0.07)">
       <use xlink:href="#DejaVuSans-50"/>
       <use xlink:href="#DejaVuSans-4c" transform="translate(60.302734 0)"/>
       <use xlink:href="#DejaVuSans-35" transform="translate(116.015625 0)"/>
      </g>
     </g>
    </g>
    <g id="xtick_14">
     <g id="line2d_32">
      <g>
       <use xlink:href="#m9aea0bd24b" x="729.530513" y="314.007653" style="stroke: #000000; stroke-width: 0.8"/>
      </g>
     </g>
     <g id="text_22">
      <!-- ORBl6a -->
      <g transform="translate(710.211803 343.058004) rotate(-45) scale(0.07 -0.07)">
       <use xlink:href="#DejaVuSans-4f"/>
       <use xlink:href="#DejaVuSans-52" transform="translate(78.710938 0)"/>
       <use xlink:href="#DejaVuSans-42" transform="translate(148.193359 0)"/>
       <use xlink:href="#DejaVuSans-6c" transform="translate(216.796875 0)"/>
       <use xlink:href="#DejaVuSans-36" transform="translate(244.580078 0)"/>
       <use xlink:href="#DejaVuSans-61" transform="translate(308.203125 0)"/>
      </g>
     </g>
    </g>
    <g id="xtick_15">
     <g id="line2d_33">
      <g>
       <use xlink:href="#m9aea0bd24b" x="749.525579" y="314.007653" style="stroke: #000000; stroke-width: 0.8"/>
      </g>
     </g>
     <g id="text_23">
      <!-- ORBvl6a -->
      <g transform="translate(727.277238 345.987636) rotate(-45) scale(0.07 -0.07)">
       <use xlink:href="#DejaVuSans-4f"/>
       <use xlink:href="#DejaVuSans-52" transform="translate(78.710938 0)"/>
       <use xlink:href="#DejaVuSans-42" transform="translate(148.193359 0)"/>
       <use xlink:href="#DejaVuSans-76" transform="translate(216.796875 0)"/>
       <use xlink:href="#DejaVuSans-6c" transform="translate(275.976562 0)"/>
       <use xlink:href="#DejaVuSans-36" transform="translate(303.759766 0)"/>
       <use xlink:href="#DejaVuSans-61" transform="translate(367.382812 0)"/>
      </g>
     </g>
    </g>
    <g id="xtick_16">
     <g id="line2d_34">
      <g>
       <use xlink:href="#m9aea0bd24b" x="769.520646" y="314.007653" style="stroke: #000000; stroke-width: 0.8"/>
      </g>
     </g>
     <g id="text_24">
      <!-- ORBl5 -->
      <g transform="translate(753.235203 340.024737) rotate(-45) scale(0.07 -0.07)">
       <use xlink:href="#DejaVuSans-4f"/>
       <use xlink:href="#DejaVuSans-52" transform="translate(78.710938 0)"/>
       <use xlink:href="#DejaVuSans-42" transform="translate(148.193359 0)"/>
       <use xlink:href="#DejaVuSans-6c" transform="translate(216.796875 0)"/>
       <use xlink:href="#DejaVuSans-35" transform="translate(244.580078 0)"/>
      </g>
     </g>
    </g>
    <g id="xtick_17">
     <g id="line2d_35">
      <g>
       <use xlink:href="#m9aea0bd24b" x="789.515713" y="314.007653" style="stroke: #000000; stroke-width: 0.8"/>
      </g>
     </g>
     <g id="text_25">
      <!-- ILA6a -->
      <g transform="translate(774.588357 338.66665) rotate(-45) scale(0.07 -0.07)">
       <use xlink:href="#DejaVuSans-49"/>
       <use xlink:href="#DejaVuSans-4c" transform="translate(29.492188 0)"/>
       <use xlink:href="#DejaVuSans-41" transform="translate(87.455078 0)"/>
       <use xlink:href="#DejaVuSans-36" transform="translate(155.863281 0)"/>
       <use xlink:href="#DejaVuSans-61" transform="translate(219.486328 0)"/>
      </g>
     </g>
    </g>
    <g id="xtick_18">
     <g id="line2d_36">
      <g>
       <use xlink:href="#m9aea0bd24b" x="809.510779" y="314.007653" style="stroke: #000000; stroke-width: 0.8"/>
      </g>
     </g>
     <g id="text_26">
      <!-- ORBvl2/3 -->
      <g transform="translate(785.478982 347.771092) rotate(-45) scale(0.07 -0.07)">
       <use xlink:href="#DejaVuSans-4f"/>
       <use xlink:href="#DejaVuSans-52" transform="translate(78.710938 0)"/>
       <use xlink:href="#DejaVuSans-42" transform="translate(148.193359 0)"/>
       <use xlink:href="#DejaVuSans-76" transform="translate(216.796875 0)"/>
       <use xlink:href="#DejaVuSans-6c" transform="translate(275.976562 0)"/>
       <use xlink:href="#DejaVuSans-32" transform="translate(303.759766 0)"/>
       <use xlink:href="#DejaVuSans-2f" transform="translate(367.382812 0)"/>
       <use xlink:href="#DejaVuSans-33" transform="translate(401.074219 0)"/>
      </g>
     </g>
    </g>
    <g id="xtick_19">
     <g id="line2d_37">
      <g>
       <use xlink:href="#m9aea0bd24b" x="829.505846" y="314.007653" style="stroke: #000000; stroke-width: 0.8"/>
      </g>
     </g>
     <g id="text_27">
      <!-- ILA5 -->
      <g transform="translate(817.611757 335.633383) rotate(-45) scale(0.07 -0.07)">
       <use xlink:href="#DejaVuSans-49"/>
       <use xlink:href="#DejaVuSans-4c" transform="translate(29.492188 0)"/>
       <use xlink:href="#DejaVuSans-41" transform="translate(87.455078 0)"/>
       <use xlink:href="#DejaVuSans-35" transform="translate(155.863281 0)"/>
      </g>
     </g>
    </g>
   </g>
   <g id="matplotlib.axis_4">
    <g id="ytick_7">
     <g id="line2d_38">
      <g>
       <use xlink:href="#m2be88247dc" x="485.890625" y="299.179467" style="stroke: #000000; stroke-width: 0.8"/>
      </g>
     </g>
     <g id="text_28">
      <!-- −0.10 -->
      <g transform="translate(448.245312 302.978686) scale(0.1 -0.1)">
       <use xlink:href="#DejaVuSans-2212"/>
       <use xlink:href="#DejaVuSans-30" transform="translate(83.789062 0)"/>
       <use xlink:href="#DejaVuSans-2e" transform="translate(147.412109 0)"/>
       <use xlink:href="#DejaVuSans-31" transform="translate(179.199219 0)"/>
       <use xlink:href="#DejaVuSans-30" transform="translate(242.822266 0)"/>
      </g>
     </g>
    </g>
    <g id="ytick_8">
     <g id="line2d_39">
      <g>
       <use xlink:href="#m2be88247dc" x="485.890625" y="253.146324" style="stroke: #000000; stroke-width: 0.8"/>
      </g>
     </g>
     <g id="text_29">
      <!-- −0.05 -->
      <g transform="translate(448.245312 256.945543) scale(0.1 -0.1)">
       <use xlink:href="#DejaVuSans-2212"/>
       <use xlink:href="#DejaVuSans-30" transform="translate(83.789062 0)"/>
       <use xlink:href="#DejaVuSans-2e" transform="translate(147.412109 0)"/>
       <use xlink:href="#DejaVuSans-30" transform="translate(179.199219 0)"/>
       <use xlink:href="#DejaVuSans-35" transform="translate(242.822266 0)"/>
      </g>
     </g>
    </g>
    <g id="ytick_9">
     <g id="line2d_40">
      <g>
       <use xlink:href="#m2be88247dc" x="485.890625" y="207.11318" style="stroke: #000000; stroke-width: 0.8"/>
      </g>
     </g>
     <g id="text_30">
      <!-- 0.00 -->
      <g transform="translate(456.625 210.912399) scale(0.1 -0.1)">
       <use xlink:href="#DejaVuSans-30"/>
       <use xlink:href="#DejaVuSans-2e" transform="translate(63.623047 0)"/>
       <use xlink:href="#DejaVuSans-30" transform="translate(95.410156 0)"/>
       <use xlink:href="#DejaVuSans-30" transform="translate(159.033203 0)"/>
      </g>
     </g>
    </g>
    <g id="ytick_10">
     <g id="line2d_41">
      <g>
       <use xlink:href="#m2be88247dc" x="485.890625" y="161.080037" style="stroke: #000000; stroke-width: 0.8"/>
      </g>
     </g>
     <g id="text_31">
      <!-- 0.05 -->
      <g transform="translate(456.625 164.879256) scale(0.1 -0.1)">
       <use xlink:href="#DejaVuSans-30"/>
       <use xlink:href="#DejaVuSans-2e" transform="translate(63.623047 0)"/>
       <use xlink:href="#DejaVuSans-30" transform="translate(95.410156 0)"/>
       <use xlink:href="#DejaVuSans-35" transform="translate(159.033203 0)"/>
      </g>
     </g>
    </g>
    <g id="ytick_11">
     <g id="line2d_42">
      <g>
       <use xlink:href="#m2be88247dc" x="485.890625" y="115.046893" style="stroke: #000000; stroke-width: 0.8"/>
      </g>
     </g>
     <g id="text_32">
      <!-- 0.10 -->
      <g transform="translate(456.625 118.846112) scale(0.1 -0.1)">
       <use xlink:href="#DejaVuSans-30"/>
       <use xlink:href="#DejaVuSans-2e" transform="translate(63.623047 0)"/>
       <use xlink:href="#DejaVuSans-31" transform="translate(95.410156 0)"/>
       <use xlink:href="#DejaVuSans-30" transform="translate(159.033203 0)"/>
      </g>
     </g>
    </g>
    <g id="ytick_12">
     <g id="line2d_43">
      <g>
       <use xlink:href="#m2be88247dc" x="485.890625" y="69.01375" style="stroke: #000000; stroke-width: 0.8"/>
      </g>
     </g>
     <g id="text_33">
      <!-- 0.15 -->
      <g transform="translate(456.625 72.812969) scale(0.1 -0.1)">
       <use xlink:href="#DejaVuSans-30"/>
       <use xlink:href="#DejaVuSans-2e" transform="translate(63.623047 0)"/>
       <use xlink:href="#DejaVuSans-31" transform="translate(95.410156 0)"/>
       <use xlink:href="#DejaVuSans-35" transform="translate(159.033203 0)"/>
      </g>
     </g>
    </g>
    <g id="text_34">
     <!-- Mean burst index -->
     <g transform="translate(442.165625 221.377139) rotate(-90) scale(0.1 -0.1)">
      <defs>
       <path id="DejaVuSans-4d" d="M 628 4666 
L 1569 4666 
L 2759 1491 
L 3956 4666 
L 4897 4666 
L 4897 0 
L 4281 0 
L 4281 4097 
L 3078 897 
L 2444 897 
L 1241 4097 
L 1241 0 
L 628 0 
L 628 4666 
z
" transform="scale(0.015625)"/>
      </defs>
      <use xlink:href="#DejaVuSans-4d"/>
      <use xlink:href="#DejaVuSans-65" transform="translate(86.279297 0)"/>
      <use xlink:href="#DejaVuSans-61" transform="translate(147.802734 0)"/>
      <use xlink:href="#DejaVuSans-6e" transform="translate(209.082031 0)"/>
      <use xlink:href="#DejaVuSans-20" transform="translate(272.460938 0)"/>
      <use xlink:href="#DejaVuSans-62" transform="translate(304.248047 0)"/>
      <use xlink:href="#DejaVuSans-75" transform="translate(367.724609 0)"/>
      <use xlink:href="#DejaVuSans-72" transform="translate(431.103516 0)"/>
      <use xlink:href="#DejaVuSans-73" transform="translate(472.216797 0)"/>
      <use xlink:href="#DejaVuSans-74" transform="translate(524.316406 0)"/>
      <use xlink:href="#DejaVuSans-20" transform="translate(563.525391 0)"/>
      <use xlink:href="#DejaVuSans-69" transform="translate(595.3125 0)"/>
      <use xlink:href="#DejaVuSans-6e" transform="translate(623.095703 0)"/>
      <use xlink:href="#DejaVuSans-64" transform="translate(686.474609 0)"/>
      <use xlink:href="#DejaVuSans-65" transform="translate(749.951172 0)"/>
      <use xlink:href="#DejaVuSans-78" transform="translate(809.724609 0)"/>
     </g>
    </g>
   </g>
   <g id="line2d_44">
    <path d="M 485.890625 207.11318 
L 853.2 207.11318 
" clip-path="url(#p8f0e6cda9a)" style="fill: none; stroke-dasharray: 5.55,2.4; stroke-dashoffset: 0; stroke: #000000; stroke-opacity: 0.5; stroke-width: 1.5"/>
   </g>
   <g id="patch_44">
    <path d="M 485.890625 314.007653 
L 485.890625 41.856 
" style="fill: none; stroke: #000000; stroke-width: 0.8; stroke-linejoin: miter; stroke-linecap: square"/>
   </g>
   <g id="patch_45">
    <path d="M 853.2 314.007653 
L 853.2 41.856 
" style="fill: none; stroke: #000000; stroke-width: 0.8; stroke-linejoin: miter; stroke-linecap: square"/>
   </g>
   <g id="patch_46">
    <path d="M 485.890625 314.007653 
L 853.2 314.007653 
" style="fill: none; stroke: #000000; stroke-width: 0.8; stroke-linejoin: miter; stroke-linecap: square"/>
   </g>
   <g id="patch_47">
    <path d="M 485.890625 41.856 
L 853.2 41.856 
" style="fill: none; stroke: #000000; stroke-width: 0.8; stroke-linejoin: miter; stroke-linecap: square"/>
   </g>
   <g id="text_35">
    <!-- Burst Index by Region and Subtype -->
    <g transform="translate(563.613437 35.856) scale(0.12 -0.12)">
     <use xlink:href="#DejaVuSans-42"/>
     <use xlink:href="#DejaVuSans-75" transform="translate(68.603516 0)"/>
     <use xlink:href="#DejaVuSans-72" transform="translate(131.982422 0)"/>
     <use xlink:href="#DejaVuSans-73" transform="translate(173.095703 0)"/>
     <use xlink:href="#DejaVuSans-74" transform="translate(225.195312 0)"/>
     <use xlink:href="#DejaVuSans-20" transform="translate(264.404297 0)"/>
     <use xlink:href="#DejaVuSans-49" transform="translate(296.191406 0)"/>
     <use xlink:href="#DejaVuSans-6e" transform="translate(325.683594 0)"/>
     <use xlink:href="#DejaVuSans-64" transform="translate(389.0625 0)"/>
     <use xlink:href="#DejaVuSans-65" transform="translate(452.539062 0)"/>
     <use xlink:href="#DejaVuSans-78" transform="translate(512.3125 0)"/>
     <use xlink:href="#DejaVuSans-20" transform="translate(571.492188 0)"/>
     <use xlink:href="#DejaVuSans-62" transform="translate(603.279297 0)"/>
     <use xlink:href="#DejaVuSans-79" transform="translate(666.755859 0)"/>
     <use xlink:href="#DejaVuSans-20" transform="translate(725.935547 0)"/>
     <use xlink:href="#DejaVuSans-52" transform="translate(757.722656 0)"/>
     <use xlink:href="#DejaVuSans-65" transform="translate(822.705078 0)"/>
     <use xlink:href="#DejaVuSans-67" transform="translate(884.228516 0)"/>
     <use xlink:href="#DejaVuSans-69" transform="translate(947.705078 0)"/>
     <use xlink:href="#DejaVuSans-6f" transform="translate(975.488281 0)"/>
     <use xlink:href="#DejaVuSans-6e" transform="translate(1036.669922 0)"/>
     <use xlink:href="#DejaVuSans-20" transform="translate(1100.048828 0)"/>
     <use xlink:href="#DejaVuSans-61" transform="translate(1131.835938 0)"/>
     <use xlink:href="#DejaVuSans-6e" transform="translate(1193.115234 0)"/>
     <use xlink:href="#DejaVuSans-64" transform="translate(1256.494141 0)"/>
     <use xlink:href="#DejaVuSans-20" transform="translate(1319.970703 0)"/>
     <use xlink:href="#DejaVuSans-53" transform="translate(1351.757812 0)"/>
     <use xlink:href="#DejaVuSans-75" transform="translate(1415.234375 0)"/>
     <use xlink:href="#DejaVuSans-62" transform="translate(1478.613281 0)"/>
     <use xlink:href="#DejaVuSans-74" transform="translate(1542.089844 0)"/>
     <use xlink:href="#DejaVuSans-79" transform="translate(1581.298828 0)"/>
     <use xlink:href="#DejaVuSans-70" transform="translate(1640.478516 0)"/>
     <use xlink:href="#DejaVuSans-65" transform="translate(1703.955078 0)"/>
    </g>
   </g>
   <g id="legend_1">
    <g id="patch_48">
     <path d="M 794.425 79.21225 
L 846.2 79.21225 
Q 848.2 79.21225 848.2 77.21225 
L 848.2 48.856 
Q 848.2 46.856 846.2 46.856 
L 794.425 46.856 
Q 792.425 46.856 792.425 48.856 
L 792.425 77.21225 
Q 792.425 79.21225 794.425 79.21225 
z
" style="fill: #ffffff; opacity: 0.8; stroke: #cccccc; stroke-linejoin: miter"/>
    </g>
    <g id="patch_49">
     <path d="M 796.425 58.454438 
L 816.425 58.454438 
L 816.425 51.454438 
L 796.425 51.454438 
z
" style="fill: #dd8452; stroke: #000000; stroke-linejoin: miter"/>
    </g>
    <g id="text_36">
     <!-- NW -->
     <g transform="translate(824.425 58.454438) scale(0.1 -0.1)">
      <use xlink:href="#DejaVuSans-4e"/>
      <use xlink:href="#DejaVuSans-57" transform="translate(74.804688 0)"/>
     </g>
    </g>
    <g id="patch_50">
     <path d="M 796.425 73.132563 
L 816.425 73.132563 
L 816.425 66.132563 
L 796.425 66.132563 
z
" style="fill: #4c72b0; stroke: #000000; stroke-linejoin: miter"/>
    </g>
    <g id="text_37">
     <!-- WW -->
     <g transform="translate(824.425 73.132563) scale(0.1 -0.1)">
      <use xlink:href="#DejaVuSans-57"/>
      <use xlink:href="#DejaVuSans-57" transform="translate(98.876953 0)"/>
     </g>
    </g>
   </g>
  </g>
 </g>
 <defs>
  <clipPath id="p7e853ed697">
   <rect x="56.19125" y="41.856" width="367.309375" height="272.151653"/>
  </clipPath>
  <clipPath id="p8f0e6cda9a">
   <rect x="485.890625" y="41.856" width="367.309375" height="272.151653"/>
  </clipPath>
 </defs>
</svg>
