<?xml version="1.0" encoding="utf-8" standalone="no"?>
<!DOCTYPE svg PUBLIC "-//W3C//DTD SVG 1.1//EN"
  "http://www.w3.org/Graphics/SVG/1.1/DTD/svg11.dtd">
<svg xmlns:xlink="http://www.w3.org/1999/xlink" width="936pt" height="360pt" viewBox="0 0 936 360" xmlns="http://www.w3.org/2000/svg" version="1.1">
 <metadata>
  <rdf:RDF xmlns:dc="http://purl.org/dc/elements/1.1/" xmlns:cc="http://creativecommons.org/ns#" xmlns:rdf="http://www.w3.org/1999/02/22-rdf-syntax-ns#">
   <cc:Work>
    <dc:type rdf:resource="http://purl.org/dc/dcmitype/StillImage"/>
    <dc:date>2026-04-20T21:24:58.713266</dc:date>
    <dc:format>image/svg+xml</dc:format>
    <dc:creator>
     <cc:Agent>
      <dc:title>Matplotlib v3.10.8, https://matplotlib.org/</dc:title>
     </cc:Agent>
    </dc:creator>
   </cc:Work>
  </rdf:RDF>
 </metadata>
 <defs>
  <style type="text/css">*{stroke-linejoin: round; stroke-linecap: butt}</style>
 </defs>
 <g id="figure_1">
  <g id="patch_1">
   <path d="M 0 360 
L 936 360 
L 936 0 
L 0 0 
z
" style="fill: #ffffff"/>
  </g>
  <g id="axes_1">
   <g id="patch_2">
    <path d="M 54.11 312.86214 
L 443.324417 312.86214 
L 443.324417 41.856 
L 54.11 41.856 
z
" style="fill: #ffffff"/>
   </g>
   <g id="matplotlib.axis_1">
    <g id="xtick_1">
     <g id="line2d_1">
      <defs>
       <path id="m4acaeae58a" d="M 0 0 
L 0 3.5 
" style="stroke: #000000; stroke-width: 0.8"/>
      </defs>
      <g>
       <use xlink:href="#m4acaeae58a" x="104.545584" y="312.86214" style="stroke: #000000; stroke-width: 0.8"/>
      </g>
     </g>
     <g id="text_1">
      <!-- 3.70 -->
      <g transform="translate(93.412771 327.460577) scale(0.1 -0.1)">
       <defs>
        <path id="DejaVuSans-33" d="M 2597 2516 
Q 3050 2419 3304 2112 
Q 3559 1806 3559 1356 
Q 3559 666 3084 287 
Q 2609 -91 1734 -91 
Q 1441 -91 1130 -33 
Q 819 25 488 141 
L 488 750 
Q 750 597 1062 519 
Q 1375 441 1716 441 
Q 2309 441 2620 675 
Q 2931 909 2931 1356 
Q 2931 1769 2642 2001 
Q 2353 2234 1838 2234 
L 1294 2234 
L 1294 2753 
L 1863 2753 
Q 2328 2753 2575 2939 
Q 2822 3125 2822 3475 
Q 2822 3834 2567 4026 
Q 2313 4219 1838 4219 
Q 1578 4219 1281 4162 
Q 984 4106 628 3988 
L 628 4550 
Q 988 4650 1302 4700 
Q 1616 4750 1894 4750 
Q 2613 4750 3031 4423 
Q 3450 4097 3450 3541 
Q 3450 3153 3228 2886 
Q 3006 2619 2597 2516 
z
" transform="scale(0.015625)"/>
        <path id="DejaVuSans-2e" d="M 684 794 
L 1344 794 
L 1344 0 
L 684 0 
L 684 794 
z
" transform="scale(0.015625)"/>
        <path id="DejaVuSans-37" d="M 525 4666 
L 3525 4666 
L 3525 4397 
L 1831 0 
L 1172 0 
L 2766 4134 
L 525 4134 
L 525 4666 
z
" transform="scale(0.015625)"/>
        <path id="DejaVuSans-30" d="M 2034 4250 
Q 1547 4250 1301 3770 
Q 1056 3291 1056 2328 
Q 1056 1369 1301 889 
Q 1547 409 2034 409 
Q 2525 409 2770 889 
Q 3016 1369 3016 2328 
Q 3016 3291 2770 3770 
Q 2525 4250 2034 4250 
z
M 2034 4750 
Q 2819 4750 3233 4129 
Q 3647 3509 3647 2328 
Q 3647 1150 3233 529 
Q 2819 -91 2034 -91 
Q 1250 -91 836 529 
Q 422 1150 422 2328 
Q 422 3509 836 4129 
Q 1250 4750 2034 4750 
z
" transform="scale(0.015625)"/>
       </defs>
       <use xlink:href="#DejaVuSans-33"/>
       <use xlink:href="#DejaVuSans-2e" transform="translate(63.623047 0)"/>
       <use xlink:href="#DejaVuSans-37" transform="translate(95.410156 0)"/>
       <use xlink:href="#DejaVuSans-30" transform="translate(159.033203 0)"/>
      </g>
     </g>
    </g>
    <g id="xtick_2">
     <g id="line2d_2">
      <g>
       <use xlink:href="#m4acaeae58a" x="159.178328" y="312.86214" style="stroke: #000000; stroke-width: 0.8"/>
      </g>
     </g>
     <g id="text_2">
      <!-- 3.75 -->
      <g transform="translate(148.045516 327.460577) scale(0.1 -0.1)">
       <defs>
        <path id="DejaVuSans-35" d="M 691 4666 
L 3169 4666 
L 3169 4134 
L 1269 4134 
L 1269 2991 
Q 1406 3038 1543 3061 
Q 1681 3084 1819 3084 
Q 2600 3084 3056 2656 
Q 3513 2228 3513 1497 
Q 3513 744 3044 326 
Q 2575 -91 1722 -91 
Q 1428 -91 1123 -41 
Q 819 9 494 109 
L 494 744 
Q 775 591 1075 516 
Q 1375 441 1709 441 
Q 2250 441 2565 725 
Q 2881 1009 2881 1497 
Q 2881 1984 2565 2268 
Q 2250 2553 1709 2553 
Q 1456 2553 1204 2497 
Q 953 2441 691 2322 
L 691 4666 
z
" transform="scale(0.015625)"/>
       </defs>
       <use xlink:href="#DejaVuSans-33"/>
       <use xlink:href="#DejaVuSans-2e" transform="translate(63.623047 0)"/>
       <use xlink:href="#DejaVuSans-37" transform="translate(95.410156 0)"/>
       <use xlink:href="#DejaVuSans-35" transform="translate(159.033203 0)"/>
      </g>
     </g>
    </g>
    <g id="xtick_3">
     <g id="line2d_3">
      <g>
       <use xlink:href="#m4acaeae58a" x="213.811072" y="312.86214" style="stroke: #000000; stroke-width: 0.8"/>
      </g>
     </g>
     <g id="text_3">
      <!-- 3.80 -->
      <g transform="translate(202.67826 327.460577) scale(0.1 -0.1)">
       <defs>
        <path id="DejaVuSans-38" d="M 2034 2216 
Q 1584 2216 1326 1975 
Q 1069 1734 1069 1313 
Q 1069 891 1326 650 
Q 1584 409 2034 409 
Q 2484 409 2743 651 
Q 3003 894 3003 1313 
Q 3003 1734 2745 1975 
Q 2488 2216 2034 2216 
z
M 1403 2484 
Q 997 2584 770 2862 
Q 544 3141 544 3541 
Q 544 4100 942 4425 
Q 1341 4750 2034 4750 
Q 2731 4750 3128 4425 
Q 3525 4100 3525 3541 
Q 3525 3141 3298 2862 
Q 3072 2584 2669 2484 
Q 3125 2378 3379 2068 
Q 3634 1759 3634 1313 
Q 3634 634 3220 271 
Q 2806 -91 2034 -91 
Q 1263 -91 848 271 
Q 434 634 434 1313 
Q 434 1759 690 2068 
Q 947 2378 1403 2484 
z
M 1172 3481 
Q 1172 3119 1398 2916 
Q 1625 2713 2034 2713 
Q 2441 2713 2670 2916 
Q 2900 3119 2900 3481 
Q 2900 3844 2670 4047 
Q 2441 4250 2034 4250 
Q 1625 4250 1398 4047 
Q 1172 3844 1172 3481 
z
" transform="scale(0.015625)"/>
       </defs>
       <use xlink:href="#DejaVuSans-33"/>
       <use xlink:href="#DejaVuSans-2e" transform="translate(63.623047 0)"/>
       <use xlink:href="#DejaVuSans-38" transform="translate(95.410156 0)"/>
       <use xlink:href="#DejaVuSans-30" transform="translate(159.033203 0)"/>
      </g>
     </g>
    </g>
    <g id="xtick_4">
     <g id="line2d_4">
      <g>
       <use xlink:href="#m4acaeae58a" x="268.443816" y="312.86214" style="stroke: #000000; stroke-width: 0.8"/>
      </g>
     </g>
     <g id="text_4">
      <!-- 3.85 -->
      <g transform="translate(257.311004 327.460577) scale(0.1 -0.1)">
       <use xlink:href="#DejaVuSans-33"/>
       <use xlink:href="#DejaVuSans-2e" transform="translate(63.623047 0)"/>
       <use xlink:href="#DejaVuSans-38" transform="translate(95.410156 0)"/>
       <use xlink:href="#DejaVuSans-35" transform="translate(159.033203 0)"/>
      </g>
     </g>
    </g>
    <g id="xtick_5">
     <g id="line2d_5">
      <g>
       <use xlink:href="#m4acaeae58a" x="323.076561" y="312.86214" style="stroke: #000000; stroke-width: 0.8"/>
      </g>
     </g>
     <g id="text_5">
      <!-- 3.90 -->
      <g transform="translate(311.943748 327.460577) scale(0.1 -0.1)">
       <defs>
        <path id="DejaVuSans-39" d="M 703 97 
L 703 672 
Q 941 559 1184 500 
Q 1428 441 1663 441 
Q 2288 441 2617 861 
Q 2947 1281 2994 2138 
Q 2813 1869 2534 1725 
Q 2256 1581 1919 1581 
Q 1219 1581 811 2004 
Q 403 2428 403 3163 
Q 403 3881 828 4315 
Q 1253 4750 1959 4750 
Q 2769 4750 3195 4129 
Q 3622 3509 3622 2328 
Q 3622 1225 3098 567 
Q 2575 -91 1691 -91 
Q 1453 -91 1209 -44 
Q 966 3 703 97 
z
M 1959 2075 
Q 2384 2075 2632 2365 
Q 2881 2656 2881 3163 
Q 2881 3666 2632 3958 
Q 2384 4250 1959 4250 
Q 1534 4250 1286 3958 
Q 1038 3666 1038 3163 
Q 1038 2656 1286 2365 
Q 1534 2075 1959 2075 
z
" transform="scale(0.015625)"/>
       </defs>
       <use xlink:href="#DejaVuSans-33"/>
       <use xlink:href="#DejaVuSans-2e" transform="translate(63.623047 0)"/>
       <use xlink:href="#DejaVuSans-39" transform="translate(95.410156 0)"/>
       <use xlink:href="#DejaVuSans-30" transform="translate(159.033203 0)"/>
      </g>
     </g>
    </g>
    <g id="xtick_6">
     <g id="line2d_6">
      <g>
       <use xlink:href="#m4acaeae58a" x="377.709305" y="312.86214" style="stroke: #000000; stroke-width: 0.8"/>
      </g>
     </g>
     <g id="text_6">
      <!-- 3.95 -->
      <g transform="translate(366.576492 327.460577) scale(0.1 -0.1)">
       <use xlink:href="#DejaVuSans-33"/>
       <use xlink:href="#DejaVuSans-2e" transform="translate(63.623047 0)"/>
       <use xlink:href="#DejaVuSans-39" transform="translate(95.410156 0)"/>
       <use xlink:href="#DejaVuSans-35" transform="translate(159.033203 0)"/>
      </g>
     </g>
    </g>
    <g id="xtick_7">
     <g id="line2d_7">
      <g>
       <use xlink:href="#m4acaeae58a" x="432.342049" y="312.86214" style="stroke: #000000; stroke-width: 0.8"/>
      </g>
     </g>
     <g id="text_7">
      <!-- 4.00 -->
      <g transform="translate(421.209236 327.460577) scale(0.1 -0.1)">
       <defs>
        <path id="DejaVuSans-34" d="M 2419 4116 
L 825 1625 
L 2419 1625 
L 2419 4116 
z
M 2253 4666 
L 3047 4666 
L 3047 1625 
L 3713 1625 
L 3713 1100 
L 3047 1100 
L 3047 0 
L 2419 0 
L 2419 1100 
L 313 1100 
L 313 1709 
L 2253 4666 
z
" transform="scale(0.015625)"/>
       </defs>
       <use xlink:href="#DejaVuSans-34"/>
       <use xlink:href="#DejaVuSans-2e" transform="translate(63.623047 0)"/>
       <use xlink:href="#DejaVuSans-30" transform="translate(95.410156 0)"/>
       <use xlink:href="#DejaVuSans-30" transform="translate(159.033203 0)"/>
      </g>
     </g>
    </g>
    <g id="text_8">
     <!-- Subclass Shannon entropy (bits) -->
     <g transform="translate(167.677365 341.138702) scale(0.1 -0.1)">
      <defs>
       <path id="DejaVuSans-53" d="M 3425 4513 
L 3425 3897 
Q 3066 4069 2747 4153 
Q 2428 4238 2131 4238 
Q 1616 4238 1336 4038 
Q 1056 3838 1056 3469 
Q 1056 3159 1242 3001 
Q 1428 2844 1947 2747 
L 2328 2669 
Q 3034 2534 3370 2195 
Q 3706 1856 3706 1288 
Q 3706 609 3251 259 
Q 2797 -91 1919 -91 
Q 1588 -91 1214 -16 
Q 841 59 441 206 
L 441 856 
Q 825 641 1194 531 
Q 1563 422 1919 422 
Q 2459 422 2753 634 
Q 3047 847 3047 1241 
Q 3047 1584 2836 1778 
Q 2625 1972 2144 2069 
L 1759 2144 
Q 1053 2284 737 2584 
Q 422 2884 422 3419 
Q 422 4038 858 4394 
Q 1294 4750 2059 4750 
Q 2388 4750 2728 4690 
Q 3069 4631 3425 4513 
z
" transform="scale(0.015625)"/>
       <path id="DejaVuSans-75" d="M 544 1381 
L 544 3500 
L 1119 3500 
L 1119 1403 
Q 1119 906 1312 657 
Q 1506 409 1894 409 
Q 2359 409 2629 706 
Q 2900 1003 2900 1516 
L 2900 3500 
L 3475 3500 
L 3475 0 
L 2900 0 
L 2900 538 
Q 2691 219 2414 64 
Q 2138 -91 1772 -91 
Q 1169 -91 856 284 
Q 544 659 544 1381 
z
M 1991 3584 
L 1991 3584 
z
" transform="scale(0.015625)"/>
       <path id="DejaVuSans-62" d="M 3116 1747 
Q 3116 2381 2855 2742 
Q 2594 3103 2138 3103 
Q 1681 3103 1420 2742 
Q 1159 2381 1159 1747 
Q 1159 1113 1420 752 
Q 1681 391 2138 391 
Q 2594 391 2855 752 
Q 3116 1113 3116 1747 
z
M 1159 2969 
Q 1341 3281 1617 3432 
Q 1894 3584 2278 3584 
Q 2916 3584 3314 3078 
Q 3713 2572 3713 1747 
Q 3713 922 3314 415 
Q 2916 -91 2278 -91 
Q 1894 -91 1617 61 
Q 1341 213 1159 525 
L 1159 0 
L 581 0 
L 581 4863 
L 1159 4863 
L 1159 2969 
z
" transform="scale(0.015625)"/>
       <path id="DejaVuSans-63" d="M 3122 3366 
L 3122 2828 
Q 2878 2963 2633 3030 
Q 2388 3097 2138 3097 
Q 1578 3097 1268 2742 
Q 959 2388 959 1747 
Q 959 1106 1268 751 
Q 1578 397 2138 397 
Q 2388 397 2633 464 
Q 2878 531 3122 666 
L 3122 134 
Q 2881 22 2623 -34 
Q 2366 -91 2075 -91 
Q 1284 -91 818 406 
Q 353 903 353 1747 
Q 353 2603 823 3093 
Q 1294 3584 2113 3584 
Q 2378 3584 2631 3529 
Q 2884 3475 3122 3366 
z
" transform="scale(0.015625)"/>
       <path id="DejaVuSans-6c" d="M 603 4863 
L 1178 4863 
L 1178 0 
L 603 0 
L 603 4863 
z
" transform="scale(0.015625)"/>
       <path id="DejaVuSans-61" d="M 2194 1759 
Q 1497 1759 1228 1600 
Q 959 1441 959 1056 
Q 959 750 1161 570 
Q 1363 391 1709 391 
Q 2188 391 2477 730 
Q 2766 1069 2766 1631 
L 2766 1759 
L 2194 1759 
z
M 3341 1997 
L 3341 0 
L 2766 0 
L 2766 531 
Q 2569 213 2275 61 
Q 1981 -91 1556 -91 
Q 1019 -91 701 211 
Q 384 513 384 1019 
Q 384 1609 779 1909 
Q 1175 2209 1959 2209 
L 2766 2209 
L 2766 2266 
Q 2766 2663 2505 2880 
Q 2244 3097 1772 3097 
Q 1472 3097 1187 3025 
Q 903 2953 641 2809 
L 641 3341 
Q 956 3463 1253 3523 
Q 1550 3584 1831 3584 
Q 2591 3584 2966 3190 
Q 3341 2797 3341 1997 
z
" transform="scale(0.015625)"/>
       <path id="DejaVuSans-73" d="M 2834 3397 
L 2834 2853 
Q 2591 2978 2328 3040 
Q 2066 3103 1784 3103 
Q 1356 3103 1142 2972 
Q 928 2841 928 2578 
Q 928 2378 1081 2264 
Q 1234 2150 1697 2047 
L 1894 2003 
Q 2506 1872 2764 1633 
Q 3022 1394 3022 966 
Q 3022 478 2636 193 
Q 2250 -91 1575 -91 
Q 1294 -91 989 -36 
Q 684 19 347 128 
L 347 722 
Q 666 556 975 473 
Q 1284 391 1588 391 
Q 1994 391 2212 530 
Q 2431 669 2431 922 
Q 2431 1156 2273 1281 
Q 2116 1406 1581 1522 
L 1381 1569 
Q 847 1681 609 1914 
Q 372 2147 372 2553 
Q 372 3047 722 3315 
Q 1072 3584 1716 3584 
Q 2034 3584 2315 3537 
Q 2597 3491 2834 3397 
z
" transform="scale(0.015625)"/>
       <path id="DejaVuSans-20" transform="scale(0.015625)"/>
       <path id="DejaVuSans-68" d="M 3513 2113 
L 3513 0 
L 2938 0 
L 2938 2094 
Q 2938 2591 2744 2837 
Q 2550 3084 2163 3084 
Q 1697 3084 1428 2787 
Q 1159 2491 1159 1978 
L 1159 0 
L 581 0 
L 581 4863 
L 1159 4863 
L 1159 2956 
Q 1366 3272 1645 3428 
Q 1925 3584 2291 3584 
Q 2894 3584 3203 3211 
Q 3513 2838 3513 2113 
z
" transform="scale(0.015625)"/>
       <path id="DejaVuSans-6e" d="M 3513 2113 
L 3513 0 
L 2938 0 
L 2938 2094 
Q 2938 2591 2744 2837 
Q 2550 3084 2163 3084 
Q 1697 3084 1428 2787 
Q 1159 2491 1159 1978 
L 1159 0 
L 581 0 
L 581 3500 
L 1159 3500 
L 1159 2956 
Q 1366 3272 1645 3428 
Q 1925 3584 2291 3584 
Q 2894 3584 3203 3211 
Q 3513 2838 3513 2113 
z
" transform="scale(0.015625)"/>
       <path id="DejaVuSans-6f" d="M 1959 3097 
Q 1497 3097 1228 2736 
Q 959 2375 959 1747 
Q 959 1119 1226 758 
Q 1494 397 1959 397 
Q 2419 397 2687 759 
Q 2956 1122 2956 1747 
Q 2956 2369 2687 2733 
Q 2419 3097 1959 3097 
z
M 1959 3584 
Q 2709 3584 3137 3096 
Q 3566 2609 3566 1747 
Q 3566 888 3137 398 
Q 2709 -91 1959 -91 
Q 1206 -91 779 398 
Q 353 888 353 1747 
Q 353 2609 779 3096 
Q 1206 3584 1959 3584 
z
" transform="scale(0.015625)"/>
       <path id="DejaVuSans-65" d="M 3597 1894 
L 3597 1613 
L 953 1613 
Q 991 1019 1311 708 
Q 1631 397 2203 397 
Q 2534 397 2845 478 
Q 3156 559 3463 722 
L 3463 178 
Q 3153 47 2828 -22 
Q 2503 -91 2169 -91 
Q 1331 -91 842 396 
Q 353 884 353 1716 
Q 353 2575 817 3079 
Q 1281 3584 2069 3584 
Q 2775 3584 3186 3129 
Q 3597 2675 3597 1894 
z
M 3022 2063 
Q 3016 2534 2758 2815 
Q 2500 3097 2075 3097 
Q 1594 3097 1305 2825 
Q 1016 2553 972 2059 
L 3022 2063 
z
" transform="scale(0.015625)"/>
       <path id="DejaVuSans-74" d="M 1172 4494 
L 1172 3500 
L 2356 3500 
L 2356 3053 
L 1172 3053 
L 1172 1153 
Q 1172 725 1289 603 
Q 1406 481 1766 481 
L 2356 481 
L 2356 0 
L 1766 0 
Q 1100 0 847 248 
Q 594 497 594 1153 
L 594 3053 
L 172 3053 
L 172 3500 
L 594 3500 
L 594 4494 
L 1172 4494 
z
" transform="scale(0.015625)"/>
       <path id="DejaVuSans-72" d="M 2631 2963 
Q 2534 3019 2420 3045 
Q 2306 3072 2169 3072 
Q 1681 3072 1420 2755 
Q 1159 2438 1159 1844 
L 1159 0 
L 581 0 
L 581 3500 
L 1159 3500 
L 1159 2956 
Q 1341 3275 1631 3429 
Q 1922 3584 2338 3584 
Q 2397 3584 2469 3576 
Q 2541 3569 2628 3553 
L 2631 2963 
z
" transform="scale(0.015625)"/>
       <path id="DejaVuSans-70" d="M 1159 525 
L 1159 -1331 
L 581 -1331 
L 581 3500 
L 1159 3500 
L 1159 2969 
Q 1341 3281 1617 3432 
Q 1894 3584 2278 3584 
Q 2916 3584 3314 3078 
Q 3713 2572 3713 1747 
Q 3713 922 3314 415 
Q 2916 -91 2278 -91 
Q 1894 -91 1617 61 
Q 1341 213 1159 525 
z
M 3116 1747 
Q 3116 2381 2855 2742 
Q 2594 3103 2138 3103 
Q 1681 3103 1420 2742 
Q 1159 2381 1159 1747 
Q 1159 1113 1420 752 
Q 1681 391 2138 391 
Q 2594 391 2855 752 
Q 3116 1113 3116 1747 
z
" transform="scale(0.015625)"/>
       <path id="DejaVuSans-79" d="M 2059 -325 
Q 1816 -950 1584 -1140 
Q 1353 -1331 966 -1331 
L 506 -1331 
L 506 -850 
L 844 -850 
Q 1081 -850 1212 -737 
Q 1344 -625 1503 -206 
L 1606 56 
L 191 3500 
L 800 3500 
L 1894 763 
L 2988 3500 
L 3597 3500 
L 2059 -325 
z
" transform="scale(0.015625)"/>
       <path id="DejaVuSans-28" d="M 1984 4856 
Q 1566 4138 1362 3434 
Q 1159 2731 1159 2009 
Q 1159 1288 1364 580 
Q 1569 -128 1984 -844 
L 1484 -844 
Q 1016 -109 783 600 
Q 550 1309 550 2009 
Q 550 2706 781 3412 
Q 1013 4119 1484 4856 
L 1984 4856 
z
" transform="scale(0.015625)"/>
       <path id="DejaVuSans-69" d="M 603 3500 
L 1178 3500 
L 1178 0 
L 603 0 
L 603 3500 
z
M 603 4863 
L 1178 4863 
L 1178 4134 
L 603 4134 
L 603 4863 
z
" transform="scale(0.015625)"/>
       <path id="DejaVuSans-29" d="M 513 4856 
L 1013 4856 
Q 1481 4119 1714 3412 
Q 1947 2706 1947 2009 
Q 1947 1309 1714 600 
Q 1481 -109 1013 -844 
L 513 -844 
Q 928 -128 1133 580 
Q 1338 1288 1338 2009 
Q 1338 2731 1133 3434 
Q 928 4138 513 4856 
z
" transform="scale(0.015625)"/>
      </defs>
      <use xlink:href="#DejaVuSans-53"/>
      <use xlink:href="#DejaVuSans-75" transform="translate(63.476562 0)"/>
      <use xlink:href="#DejaVuSans-62" transform="translate(126.855469 0)"/>
      <use xlink:href="#DejaVuSans-63" transform="translate(190.332031 0)"/>
      <use xlink:href="#DejaVuSans-6c" transform="translate(245.3125 0)"/>
      <use xlink:href="#DejaVuSans-61" transform="translate(273.095703 0)"/>
      <use xlink:href="#DejaVuSans-73" transform="translate(334.375 0)"/>
      <use xlink:href="#DejaVuSans-73" transform="translate(386.474609 0)"/>
      <use xlink:href="#DejaVuSans-20" transform="translate(438.574219 0)"/>
      <use xlink:href="#DejaVuSans-53" transform="translate(470.361328 0)"/>
      <use xlink:href="#DejaVuSans-68" transform="translate(533.837891 0)"/>
      <use xlink:href="#DejaVuSans-61" transform="translate(597.216797 0)"/>
      <use xlink:href="#DejaVuSans-6e" transform="translate(658.496094 0)"/>
      <use xlink:href="#DejaVuSans-6e" transform="translate(721.875 0)"/>
      <use xlink:href="#DejaVuSans-6f" transform="translate(785.253906 0)"/>
      <use xlink:href="#DejaVuSans-6e" transform="translate(846.435547 0)"/>
      <use xlink:href="#DejaVuSans-20" transform="translate(909.814453 0)"/>
      <use xlink:href="#DejaVuSans-65" transform="translate(941.601562 0)"/>
      <use xlink:href="#DejaVuSans-6e" transform="translate(1003.125 0)"/>
      <use xlink:href="#DejaVuSans-74" transform="translate(1066.503906 0)"/>
      <use xlink:href="#DejaVuSans-72" transform="translate(1105.712891 0)"/>
      <use xlink:href="#DejaVuSans-6f" transform="translate(1144.576172 0)"/>
      <use xlink:href="#DejaVuSans-70" transform="translate(1205.757812 0)"/>
      <use xlink:href="#DejaVuSans-79" transform="translate(1269.234375 0)"/>
      <use xlink:href="#DejaVuSans-20" transform="translate(1328.414062 0)"/>
      <use xlink:href="#DejaVuSans-28" transform="translate(1360.201172 0)"/>
      <use xlink:href="#DejaVuSans-62" transform="translate(1399.214844 0)"/>
      <use xlink:href="#DejaVuSans-69" transform="translate(1462.691406 0)"/>
      <use xlink:href="#DejaVuSans-74" transform="translate(1490.474609 0)"/>
      <use xlink:href="#DejaVuSans-73" transform="translate(1529.683594 0)"/>
      <use xlink:href="#DejaVuSans-29" transform="translate(1581.783203 0)"/>
     </g>
    </g>
   </g>
   <g id="matplotlib.axis_2">
    <g id="ytick_1">
     <g id="line2d_8">
      <defs>
       <path id="m502ba8f64d" d="M 0 0 
L -3.5 0 
" style="stroke: #000000; stroke-width: 0.8"/>
      </defs>
      <g>
       <use xlink:href="#m502ba8f64d" x="54.11" y="310.984872" style="stroke: #000000; stroke-width: 0.8"/>
      </g>
     </g>
     <g id="text_9">
      <!-- 0.18 -->
      <g transform="translate(24.844375 314.784091) scale(0.1 -0.1)">
       <defs>
        <path id="DejaVuSans-31" d="M 794 531 
L 1825 531 
L 1825 4091 
L 703 3866 
L 703 4441 
L 1819 4666 
L 2450 4666 
L 2450 531 
L 3481 531 
L 3481 0 
L 794 0 
L 794 531 
z
" transform="scale(0.015625)"/>
       </defs>
       <use xlink:href="#DejaVuSans-30"/>
       <use xlink:href="#DejaVuSans-2e" transform="translate(63.623047 0)"/>
       <use xlink:href="#DejaVuSans-31" transform="translate(95.410156 0)"/>
       <use xlink:href="#DejaVuSans-38" transform="translate(159.033203 0)"/>
      </g>
     </g>
    </g>
    <g id="ytick_2">
     <g id="line2d_9">
      <g>
       <use xlink:href="#m502ba8f64d" x="54.11" y="274.454386" style="stroke: #000000; stroke-width: 0.8"/>
      </g>
     </g>
     <g id="text_10">
      <!-- 0.20 -->
      <g transform="translate(24.844375 278.253605) scale(0.1 -0.1)">
       <defs>
        <path id="DejaVuSans-32" d="M 1228 531 
L 3431 531 
L 3431 0 
L 469 0 
L 469 531 
Q 828 903 1448 1529 
Q 2069 2156 2228 2338 
Q 2531 2678 2651 2914 
Q 2772 3150 2772 3378 
Q 2772 3750 2511 3984 
Q 2250 4219 1831 4219 
Q 1534 4219 1204 4116 
Q 875 4013 500 3803 
L 500 4441 
Q 881 4594 1212 4672 
Q 1544 4750 1819 4750 
Q 2544 4750 2975 4387 
Q 3406 4025 3406 3419 
Q 3406 3131 3298 2873 
Q 3191 2616 2906 2266 
Q 2828 2175 2409 1742 
Q 1991 1309 1228 531 
z
" transform="scale(0.015625)"/>
       </defs>
       <use xlink:href="#DejaVuSans-30"/>
       <use xlink:href="#DejaVuSans-2e" transform="translate(63.623047 0)"/>
       <use xlink:href="#DejaVuSans-32" transform="translate(95.410156 0)"/>
       <use xlink:href="#DejaVuSans-30" transform="translate(159.033203 0)"/>
      </g>
     </g>
    </g>
    <g id="ytick_3">
     <g id="line2d_10">
      <g>
       <use xlink:href="#m502ba8f64d" x="54.11" y="237.923901" style="stroke: #000000; stroke-width: 0.8"/>
      </g>
     </g>
     <g id="text_11">
      <!-- 0.22 -->
      <g transform="translate(24.844375 241.72312) scale(0.1 -0.1)">
       <use xlink:href="#DejaVuSans-30"/>
       <use xlink:href="#DejaVuSans-2e" transform="translate(63.623047 0)"/>
       <use xlink:href="#DejaVuSans-32" transform="translate(95.410156 0)"/>
       <use xlink:href="#DejaVuSans-32" transform="translate(159.033203 0)"/>
      </g>
     </g>
    </g>
    <g id="ytick_4">
     <g id="line2d_11">
      <g>
       <use xlink:href="#m502ba8f64d" x="54.11" y="201.393415" style="stroke: #000000; stroke-width: 0.8"/>
      </g>
     </g>
     <g id="text_12">
      <!-- 0.24 -->
      <g transform="translate(24.844375 205.192634) scale(0.1 -0.1)">
       <use xlink:href="#DejaVuSans-30"/>
       <use xlink:href="#DejaVuSans-2e" transform="translate(63.623047 0)"/>
       <use xlink:href="#DejaVuSans-32" transform="translate(95.410156 0)"/>
       <use xlink:href="#DejaVuSans-34" transform="translate(159.033203 0)"/>
      </g>
     </g>
    </g>
    <g id="ytick_5">
     <g id="line2d_12">
      <g>
       <use xlink:href="#m502ba8f64d" x="54.11" y="164.86293" style="stroke: #000000; stroke-width: 0.8"/>
      </g>
     </g>
     <g id="text_13">
      <!-- 0.26 -->
      <g transform="translate(24.844375 168.662148) scale(0.1 -0.1)">
       <defs>
        <path id="DejaVuSans-36" d="M 2113 2584 
Q 1688 2584 1439 2293 
Q 1191 2003 1191 1497 
Q 1191 994 1439 701 
Q 1688 409 2113 409 
Q 2538 409 2786 701 
Q 3034 994 3034 1497 
Q 3034 2003 2786 2293 
Q 2538 2584 2113 2584 
z
M 3366 4563 
L 3366 3988 
Q 3128 4100 2886 4159 
Q 2644 4219 2406 4219 
Q 1781 4219 1451 3797 
Q 1122 3375 1075 2522 
Q 1259 2794 1537 2939 
Q 1816 3084 2150 3084 
Q 2853 3084 3261 2657 
Q 3669 2231 3669 1497 
Q 3669 778 3244 343 
Q 2819 -91 2113 -91 
Q 1303 -91 875 529 
Q 447 1150 447 2328 
Q 447 3434 972 4092 
Q 1497 4750 2381 4750 
Q 2619 4750 2861 4703 
Q 3103 4656 3366 4563 
z
" transform="scale(0.015625)"/>
       </defs>
       <use xlink:href="#DejaVuSans-30"/>
       <use xlink:href="#DejaVuSans-2e" transform="translate(63.623047 0)"/>
       <use xlink:href="#DejaVuSans-32" transform="translate(95.410156 0)"/>
       <use xlink:href="#DejaVuSans-36" transform="translate(159.033203 0)"/>
      </g>
     </g>
    </g>
    <g id="ytick_6">
     <g id="line2d_13">
      <g>
       <use xlink:href="#m502ba8f64d" x="54.11" y="128.332444" style="stroke: #000000; stroke-width: 0.8"/>
      </g>
     </g>
     <g id="text_14">
      <!-- 0.28 -->
      <g transform="translate(24.844375 132.131663) scale(0.1 -0.1)">
       <use xlink:href="#DejaVuSans-30"/>
       <use xlink:href="#DejaVuSans-2e" transform="translate(63.623047 0)"/>
       <use xlink:href="#DejaVuSans-32" transform="translate(95.410156 0)"/>
       <use xlink:href="#DejaVuSans-38" transform="translate(159.033203 0)"/>
      </g>
     </g>
    </g>
    <g id="ytick_7">
     <g id="line2d_14">
      <g>
       <use xlink:href="#m502ba8f64d" x="54.11" y="91.801958" style="stroke: #000000; stroke-width: 0.8"/>
      </g>
     </g>
     <g id="text_15">
      <!-- 0.30 -->
      <g transform="translate(24.844375 95.601177) scale(0.1 -0.1)">
       <use xlink:href="#DejaVuSans-30"/>
       <use xlink:href="#DejaVuSans-2e" transform="translate(63.623047 0)"/>
       <use xlink:href="#DejaVuSans-33" transform="translate(95.410156 0)"/>
       <use xlink:href="#DejaVuSans-30" transform="translate(159.033203 0)"/>
      </g>
     </g>
    </g>
    <g id="ytick_8">
     <g id="line2d_15">
      <g>
       <use xlink:href="#m502ba8f64d" x="54.11" y="55.271473" style="stroke: #000000; stroke-width: 0.8"/>
      </g>
     </g>
     <g id="text_16">
      <!-- 0.32 -->
      <g transform="translate(24.844375 59.070691) scale(0.1 -0.1)">
       <use xlink:href="#DejaVuSans-30"/>
       <use xlink:href="#DejaVuSans-2e" transform="translate(63.623047 0)"/>
       <use xlink:href="#DejaVuSans-33" transform="translate(95.410156 0)"/>
       <use xlink:href="#DejaVuSans-32" transform="translate(159.033203 0)"/>
      </g>
     </g>
    </g>
    <g id="text_17">
     <!-- Mean firing rate (Hz) -->
     <g transform="translate(18.764688 229.128601) rotate(-90) scale(0.1 -0.1)">
      <defs>
       <path id="DejaVuSans-4d" d="M 628 4666 
L 1569 4666 
L 2759 1491 
L 3956 4666 
L 4897 4666 
L 4897 0 
L 4281 0 
L 4281 4097 
L 3078 897 
L 2444 897 
L 1241 4097 
L 1241 0 
L 628 0 
L 628 4666 
z
" transform="scale(0.015625)"/>
       <path id="DejaVuSans-66" d="M 2375 4863 
L 2375 4384 
L 1825 4384 
Q 1516 4384 1395 4259 
Q 1275 4134 1275 3809 
L 1275 3500 
L 2222 3500 
L 2222 3053 
L 1275 3053 
L 1275 0 
L 697 0 
L 697 3053 
L 147 3053 
L 147 3500 
L 697 3500 
L 697 3744 
Q 697 4328 969 4595 
Q 1241 4863 1831 4863 
L 2375 4863 
z
" transform="scale(0.015625)"/>
       <path id="DejaVuSans-67" d="M 2906 1791 
Q 2906 2416 2648 2759 
Q 2391 3103 1925 3103 
Q 1463 3103 1205 2759 
Q 947 2416 947 1791 
Q 947 1169 1205 825 
Q 1463 481 1925 481 
Q 2391 481 2648 825 
Q 2906 1169 2906 1791 
z
M 3481 434 
Q 3481 -459 3084 -895 
Q 2688 -1331 1869 -1331 
Q 1566 -1331 1297 -1286 
Q 1028 -1241 775 -1147 
L 775 -588 
Q 1028 -725 1275 -790 
Q 1522 -856 1778 -856 
Q 2344 -856 2625 -561 
Q 2906 -266 2906 331 
L 2906 616 
Q 2728 306 2450 153 
Q 2172 0 1784 0 
Q 1141 0 747 490 
Q 353 981 353 1791 
Q 353 2603 747 3093 
Q 1141 3584 1784 3584 
Q 2172 3584 2450 3431 
Q 2728 3278 2906 2969 
L 2906 3500 
L 3481 3500 
L 3481 434 
z
" transform="scale(0.015625)"/>
       <path id="DejaVuSans-48" d="M 628 4666 
L 1259 4666 
L 1259 2753 
L 3553 2753 
L 3553 4666 
L 4184 4666 
L 4184 0 
L 3553 0 
L 3553 2222 
L 1259 2222 
L 1259 0 
L 628 0 
L 628 4666 
z
" transform="scale(0.015625)"/>
       <path id="DejaVuSans-7a" d="M 353 3500 
L 3084 3500 
L 3084 2975 
L 922 459 
L 3084 459 
L 3084 0 
L 275 0 
L 275 525 
L 2438 3041 
L 353 3041 
L 353 3500 
z
" transform="scale(0.015625)"/>
      </defs>
      <use xlink:href="#DejaVuSans-4d"/>
      <use xlink:href="#DejaVuSans-65" transform="translate(86.279297 0)"/>
      <use xlink:href="#DejaVuSans-61" transform="translate(147.802734 0)"/>
      <use xlink:href="#DejaVuSans-6e" transform="translate(209.082031 0)"/>
      <use xlink:href="#DejaVuSans-20" transform="translate(272.460938 0)"/>
      <use xlink:href="#DejaVuSans-66" transform="translate(304.248047 0)"/>
      <use xlink:href="#DejaVuSans-69" transform="translate(339.453125 0)"/>
      <use xlink:href="#DejaVuSans-72" transform="translate(367.236328 0)"/>
      <use xlink:href="#DejaVuSans-69" transform="translate(408.349609 0)"/>
      <use xlink:href="#DejaVuSans-6e" transform="translate(436.132812 0)"/>
      <use xlink:href="#DejaVuSans-67" transform="translate(499.511719 0)"/>
      <use xlink:href="#DejaVuSans-20" transform="translate(562.988281 0)"/>
      <use xlink:href="#DejaVuSans-72" transform="translate(594.775391 0)"/>
      <use xlink:href="#DejaVuSans-61" transform="translate(635.888672 0)"/>
      <use xlink:href="#DejaVuSans-74" transform="translate(697.167969 0)"/>
      <use xlink:href="#DejaVuSans-65" transform="translate(736.376953 0)"/>
      <use xlink:href="#DejaVuSans-20" transform="translate(797.900391 0)"/>
      <use xlink:href="#DejaVuSans-28" transform="translate(829.6875 0)"/>
      <use xlink:href="#DejaVuSans-48" transform="translate(868.701172 0)"/>
      <use xlink:href="#DejaVuSans-7a" transform="translate(943.896484 0)"/>
      <use xlink:href="#DejaVuSans-29" transform="translate(996.386719 0)"/>
     </g>
    </g>
   </g>
   <g id="line2d_16">
    <path d="M 71.801564 62.297289 
L 75.375618 63.828067 
L 78.949671 65.358846 
L 82.523725 66.889624 
L 86.097778 68.420403 
L 89.671831 69.951181 
L 93.245885 71.481959 
L 96.819938 73.012738 
L 100.393992 74.543516 
L 103.968045 76.074294 
L 107.542099 77.605073 
L 111.116152 79.135851 
L 114.690205 80.66663 
L 118.264259 82.197408 
L 121.838312 83.728186 
L 125.412366 85.258965 
L 128.986419 86.789743 
L 132.560472 88.320521 
L 136.134526 89.8513 
L 139.708579 91.382078 
L 143.282633 92.912856 
L 146.856686 94.443635 
L 150.43074 95.974413 
L 154.004793 97.505192 
L 157.578846 99.03597 
L 161.1529 100.566748 
L 164.726953 102.097527 
L 168.301007 103.628305 
L 171.87506 105.159083 
L 175.449113 106.689862 
L 179.023167 108.22064 
L 182.59722 109.751419 
L 186.171274 111.282197 
L 189.745327 112.812975 
L 193.319381 114.343754 
L 196.893434 115.874532 
L 200.467487 117.40531 
L 204.041541 118.936089 
L 207.615594 120.466867 
L 211.189648 121.997646 
L 214.763701 123.528424 
L 218.337754 125.059202 
L 221.911808 126.589981 
L 225.485861 128.120759 
L 229.059915 129.651537 
L 232.633968 131.182316 
L 236.208021 132.713094 
L 239.782075 134.243872 
L 243.356128 135.774651 
L 246.930182 137.305429 
L 250.504235 138.836208 
L 254.078289 140.366986 
L 257.652342 141.897764 
L 261.226395 143.428543 
L 264.800449 144.959321 
L 268.374502 146.490099 
L 271.948556 148.020878 
L 275.522609 149.551656 
L 279.096662 151.082435 
L 282.670716 152.613213 
L 286.244769 154.143991 
L 289.818823 155.67477 
L 293.392876 157.205548 
L 296.96693 158.736326 
L 300.540983 160.267105 
L 304.115036 161.797883 
L 307.68909 163.328662 
L 311.263143 164.85944 
L 314.837197 166.390218 
L 318.41125 167.920997 
L 321.985303 169.451775 
L 325.559357 170.982553 
L 329.13341 172.513332 
L 332.707464 174.04411 
L 336.281517 175.574888 
L 339.855571 177.105667 
L 343.429624 178.636445 
L 347.003677 180.167224 
L 350.577731 181.698002 
L 354.151784 183.22878 
L 357.725838 184.759559 
L 361.299891 186.290337 
L 364.873944 187.821115 
L 368.447998 189.351894 
L 372.022051 190.882672 
L 375.596105 192.413451 
L 379.170158 193.944229 
L 382.744212 195.475007 
L 386.318265 197.005786 
L 389.892318 198.536564 
L 393.466372 200.067342 
L 397.040425 201.598121 
L 400.614479 203.128899 
L 404.188532 204.659678 
L 407.762585 206.190456 
L 411.336639 207.721234 
L 414.910692 209.252013 
L 418.484746 210.782791 
L 422.058799 212.313569 
L 425.632852 213.844348 
" clip-path="url(#pf1fe924e1b)" style="fill: none; stroke-dasharray: 5.55,2.4; stroke-dashoffset: 0; stroke: #808080; stroke-opacity: 0.7; stroke-width: 1.5"/>
   </g>
   <g id="patch_3">
    <path d="M 54.11 312.86214 
L 54.11 41.856 
" style="fill: none; stroke: #000000; stroke-width: 0.8; stroke-linejoin: miter; stroke-linecap: square"/>
   </g>
   <g id="patch_4">
    <path d="M 443.324417 312.86214 
L 443.324417 41.856 
" style="fill: none; stroke: #000000; stroke-width: 0.8; stroke-linejoin: miter; stroke-linecap: square"/>
   </g>
   <g id="patch_5">
    <path d="M 54.11 312.86214 
L 443.324417 312.86214 
" style="fill: none; stroke: #000000; stroke-width: 0.8; stroke-linejoin: miter; stroke-linecap: square"/>
   </g>
   <g id="patch_6">
    <path d="M 54.11 41.856 
L 443.324417 41.856 
" style="fill: none; stroke: #000000; stroke-width: 0.8; stroke-linejoin: miter; stroke-linecap: square"/>
   </g>
   <g id="text_18">
    <!-- ACAd -->
    <g transform="translate(368.444477 102.919085) scale(0.09 -0.09)">
     <defs>
      <path id="DejaVuSans-41" d="M 2188 4044 
L 1331 1722 
L 3047 1722 
L 2188 4044 
z
M 1831 4666 
L 2547 4666 
L 4325 0 
L 3669 0 
L 3244 1197 
L 1141 1197 
L 716 0 
L 50 0 
L 1831 4666 
z
" transform="scale(0.015625)"/>
      <path id="DejaVuSans-43" d="M 4122 4306 
L 4122 3641 
Q 3803 3938 3442 4084 
Q 3081 4231 2675 4231 
Q 1875 4231 1450 3742 
Q 1025 3253 1025 2328 
Q 1025 1406 1450 917 
Q 1875 428 2675 428 
Q 3081 428 3442 575 
Q 3803 722 4122 1019 
L 4122 359 
Q 3791 134 3420 21 
Q 3050 -91 2638 -91 
Q 1578 -91 968 557 
Q 359 1206 359 2328 
Q 359 3453 968 4101 
Q 1578 4750 2638 4750 
Q 3056 4750 3426 4639 
Q 3797 4528 4122 4306 
z
" transform="scale(0.015625)"/>
      <path id="DejaVuSans-64" d="M 2906 2969 
L 2906 4863 
L 3481 4863 
L 3481 0 
L 2906 0 
L 2906 525 
Q 2725 213 2448 61 
Q 2172 -91 1784 -91 
Q 1150 -91 751 415 
Q 353 922 353 1747 
Q 353 2572 751 3078 
Q 1150 3584 1784 3584 
Q 2172 3584 2448 3432 
Q 2725 3281 2906 2969 
z
M 947 1747 
Q 947 1113 1208 752 
Q 1469 391 1925 391 
Q 2381 391 2643 752 
Q 2906 1113 2906 1747 
Q 2906 2381 2643 2742 
Q 2381 3103 1925 3103 
Q 1469 3103 1208 2742 
Q 947 2381 947 1747 
z
" transform="scale(0.015625)"/>
     </defs>
     <use xlink:href="#DejaVuSans-41"/>
     <use xlink:href="#DejaVuSans-43" transform="translate(66.658203 0)"/>
     <use xlink:href="#DejaVuSans-41" transform="translate(136.482422 0)"/>
     <use xlink:href="#DejaVuSans-64" transform="translate(203.140625 0)"/>
    </g>
   </g>
   <g id="text_19">
    <!-- ACAv -->
    <g transform="translate(370.941074 247.275695) scale(0.09 -0.09)">
     <defs>
      <path id="DejaVuSans-76" d="M 191 3500 
L 800 3500 
L 1894 563 
L 2988 3500 
L 3597 3500 
L 2284 0 
L 1503 0 
L 191 3500 
z
" transform="scale(0.015625)"/>
     </defs>
     <use xlink:href="#DejaVuSans-41"/>
     <use xlink:href="#DejaVuSans-43" transform="translate(66.658203 0)"/>
     <use xlink:href="#DejaVuSans-41" transform="translate(136.482422 0)"/>
     <use xlink:href="#DejaVuSans-76" transform="translate(199.015625 0)"/>
    </g>
   </g>
   <g id="text_20">
    <!-- FRP -->
    <g transform="translate(134.434309 128.656365) scale(0.09 -0.09)">
     <defs>
      <path id="DejaVuSans-46" d="M 628 4666 
L 3309 4666 
L 3309 4134 
L 1259 4134 
L 1259 2759 
L 3109 2759 
L 3109 2228 
L 1259 2228 
L 1259 0 
L 628 0 
L 628 4666 
z
" transform="scale(0.015625)"/>
      <path id="DejaVuSans-52" d="M 2841 2188 
Q 3044 2119 3236 1894 
Q 3428 1669 3622 1275 
L 4263 0 
L 3584 0 
L 2988 1197 
Q 2756 1666 2539 1819 
Q 2322 1972 1947 1972 
L 1259 1972 
L 1259 0 
L 628 0 
L 628 4666 
L 2053 4666 
Q 2853 4666 3247 4331 
Q 3641 3997 3641 3322 
Q 3641 2881 3436 2590 
Q 3231 2300 2841 2188 
z
M 1259 4147 
L 1259 2491 
L 2053 2491 
Q 2509 2491 2742 2702 
Q 2975 2913 2975 3322 
Q 2975 3731 2742 3939 
Q 2509 4147 2053 4147 
L 1259 4147 
z
" transform="scale(0.015625)"/>
      <path id="DejaVuSans-50" d="M 1259 4147 
L 1259 2394 
L 2053 2394 
Q 2494 2394 2734 2622 
Q 2975 2850 2975 3272 
Q 2975 3691 2734 3919 
Q 2494 4147 2053 4147 
L 1259 4147 
z
M 628 4666 
L 2053 4666 
Q 2838 4666 3239 4311 
Q 3641 3956 3641 3272 
Q 3641 2581 3239 2228 
Q 2838 1875 2053 1875 
L 1259 1875 
L 1259 0 
L 628 0 
L 628 4666 
z
" transform="scale(0.015625)"/>
     </defs>
     <use xlink:href="#DejaVuSans-46"/>
     <use xlink:href="#DejaVuSans-52" transform="translate(57.519531 0)"/>
     <use xlink:href="#DejaVuSans-50" transform="translate(127.001953 0)"/>
    </g>
   </g>
   <g id="text_21">
    <!-- ILA -->
    <g transform="translate(379.000108 295.543679) scale(0.09 -0.09)">
     <defs>
      <path id="DejaVuSans-49" d="M 628 4666 
L 1259 4666 
L 1259 0 
L 628 0 
L 628 4666 
z
" transform="scale(0.015625)"/>
      <path id="DejaVuSans-4c" d="M 628 4666 
L 1259 4666 
L 1259 531 
L 3531 531 
L 3531 0 
L 628 0 
L 628 4666 
z
" transform="scale(0.015625)"/>
     </defs>
     <use xlink:href="#DejaVuSans-49"/>
     <use xlink:href="#DejaVuSans-4c" transform="translate(29.492188 0)"/>
     <use xlink:href="#DejaVuSans-41" transform="translate(87.455078 0)"/>
    </g>
   </g>
   <g id="text_22">
    <!-- ORBl -->
    <g transform="translate(158.19373 81.968979) scale(0.09 -0.09)">
     <defs>
      <path id="DejaVuSans-4f" d="M 2522 4238 
Q 1834 4238 1429 3725 
Q 1025 3213 1025 2328 
Q 1025 1447 1429 934 
Q 1834 422 2522 422 
Q 3209 422 3611 934 
Q 4013 1447 4013 2328 
Q 4013 3213 3611 3725 
Q 3209 4238 2522 4238 
z
M 2522 4750 
Q 3503 4750 4090 4092 
Q 4678 3434 4678 2328 
Q 4678 1225 4090 567 
Q 3503 -91 2522 -91 
Q 1538 -91 948 565 
Q 359 1222 359 2328 
Q 359 3434 948 4092 
Q 1538 4750 2522 4750 
z
" transform="scale(0.015625)"/>
      <path id="DejaVuSans-42" d="M 1259 2228 
L 1259 519 
L 2272 519 
Q 2781 519 3026 730 
Q 3272 941 3272 1375 
Q 3272 1813 3026 2020 
Q 2781 2228 2272 2228 
L 1259 2228 
z
M 1259 4147 
L 1259 2741 
L 2194 2741 
Q 2656 2741 2882 2914 
Q 3109 3088 3109 3444 
Q 3109 3797 2882 3972 
Q 2656 4147 2194 4147 
L 1259 4147 
z
M 628 4666 
L 2241 4666 
Q 2963 4666 3353 4366 
Q 3744 4066 3744 3513 
Q 3744 3084 3544 2831 
Q 3344 2578 2956 2516 
Q 3422 2416 3680 2098 
Q 3938 1781 3938 1306 
Q 3938 681 3513 340 
Q 3088 0 2303 0 
L 628 0 
L 628 4666 
z
" transform="scale(0.015625)"/>
     </defs>
     <use xlink:href="#DejaVuSans-4f"/>
     <use xlink:href="#DejaVuSans-52" transform="translate(78.710938 0)"/>
     <use xlink:href="#DejaVuSans-42" transform="translate(148.193359 0)"/>
     <use xlink:href="#DejaVuSans-6c" transform="translate(216.796875 0)"/>
    </g>
   </g>
   <g id="text_23">
    <!-- ORBm -->
    <g transform="translate(375.171542 83.054673) scale(0.09 -0.09)">
     <defs>
      <path id="DejaVuSans-6d" d="M 3328 2828 
Q 3544 3216 3844 3400 
Q 4144 3584 4550 3584 
Q 5097 3584 5394 3201 
Q 5691 2819 5691 2113 
L 5691 0 
L 5113 0 
L 5113 2094 
Q 5113 2597 4934 2840 
Q 4756 3084 4391 3084 
Q 3944 3084 3684 2787 
Q 3425 2491 3425 1978 
L 3425 0 
L 2847 0 
L 2847 2094 
Q 2847 2600 2669 2842 
Q 2491 3084 2119 3084 
Q 1678 3084 1418 2786 
Q 1159 2488 1159 1978 
L 1159 0 
L 581 0 
L 581 3500 
L 1159 3500 
L 1159 2956 
Q 1356 3278 1631 3431 
Q 1906 3584 2284 3584 
Q 2666 3584 2933 3390 
Q 3200 3197 3328 2828 
z
" transform="scale(0.015625)"/>
     </defs>
     <use xlink:href="#DejaVuSans-4f"/>
     <use xlink:href="#DejaVuSans-52" transform="translate(78.710938 0)"/>
     <use xlink:href="#DejaVuSans-42" transform="translate(148.193359 0)"/>
     <use xlink:href="#DejaVuSans-6d" transform="translate(216.796875 0)"/>
    </g>
   </g>
   <g id="text_24">
    <!-- ORBvl -->
    <g transform="translate(160.934751 49.174461) scale(0.09 -0.09)">
     <use xlink:href="#DejaVuSans-4f"/>
     <use xlink:href="#DejaVuSans-52" transform="translate(78.710938 0)"/>
     <use xlink:href="#DejaVuSans-42" transform="translate(148.193359 0)"/>
     <use xlink:href="#DejaVuSans-76" transform="translate(216.796875 0)"/>
     <use xlink:href="#DejaVuSans-6c" transform="translate(275.976562 0)"/>
    </g>
   </g>
   <g id="text_25">
    <!-- PL -->
    <g transform="translate(341.627925 176.629242) scale(0.09 -0.09)">
     <use xlink:href="#DejaVuSans-50"/>
     <use xlink:href="#DejaVuSans-4c" transform="translate(60.302734 0)"/>
    </g>
   </g>
   <g id="text_26">
    <!-- Transcriptomic Diversity vs Firing Rate -->
    <g transform="translate(133.610958 22.418625) scale(0.12 -0.12)">
     <defs>
      <path id="DejaVuSans-54" d="M -19 4666 
L 3928 4666 
L 3928 4134 
L 2272 4134 
L 2272 0 
L 1638 0 
L 1638 4134 
L -19 4134 
L -19 4666 
z
" transform="scale(0.015625)"/>
      <path id="DejaVuSans-44" d="M 1259 4147 
L 1259 519 
L 2022 519 
Q 2988 519 3436 956 
Q 3884 1394 3884 2338 
Q 3884 3275 3436 3711 
Q 2988 4147 2022 4147 
L 1259 4147 
z
M 628 4666 
L 1925 4666 
Q 3281 4666 3915 4102 
Q 4550 3538 4550 2338 
Q 4550 1131 3912 565 
Q 3275 0 1925 0 
L 628 0 
L 628 4666 
z
" transform="scale(0.015625)"/>
     </defs>
     <use xlink:href="#DejaVuSans-54"/>
     <use xlink:href="#DejaVuSans-72" transform="translate(46.333984 0)"/>
     <use xlink:href="#DejaVuSans-61" transform="translate(87.447266 0)"/>
     <use xlink:href="#DejaVuSans-6e" transform="translate(148.726562 0)"/>
     <use xlink:href="#DejaVuSans-73" transform="translate(212.105469 0)"/>
     <use xlink:href="#DejaVuSans-63" transform="translate(264.205078 0)"/>
     <use xlink:href="#DejaVuSans-72" transform="translate(319.185547 0)"/>
     <use xlink:href="#DejaVuSans-69" transform="translate(360.298828 0)"/>
     <use xlink:href="#DejaVuSans-70" transform="translate(388.082031 0)"/>
     <use xlink:href="#DejaVuSans-74" transform="translate(451.558594 0)"/>
     <use xlink:href="#DejaVuSans-6f" transform="translate(490.767578 0)"/>
     <use xlink:href="#DejaVuSans-6d" transform="translate(551.949219 0)"/>
     <use xlink:href="#DejaVuSans-69" transform="translate(649.361328 0)"/>
     <use xlink:href="#DejaVuSans-63" transform="translate(677.144531 0)"/>
     <use xlink:href="#DejaVuSans-20" transform="translate(732.125 0)"/>
     <use xlink:href="#DejaVuSans-44" transform="translate(763.912109 0)"/>
     <use xlink:href="#DejaVuSans-69" transform="translate(840.914062 0)"/>
     <use xlink:href="#DejaVuSans-76" transform="translate(868.697266 0)"/>
     <use xlink:href="#DejaVuSans-65" transform="translate(927.876953 0)"/>
     <use xlink:href="#DejaVuSans-72" transform="translate(989.400391 0)"/>
     <use xlink:href="#DejaVuSans-73" transform="translate(1030.513672 0)"/>
     <use xlink:href="#DejaVuSans-69" transform="translate(1082.613281 0)"/>
     <use xlink:href="#DejaVuSans-74" transform="translate(1110.396484 0)"/>
     <use xlink:href="#DejaVuSans-79" transform="translate(1149.605469 0)"/>
     <use xlink:href="#DejaVuSans-20" transform="translate(1208.785156 0)"/>
     <use xlink:href="#DejaVuSans-76" transform="translate(1240.572266 0)"/>
     <use xlink:href="#DejaVuSans-73" transform="translate(1299.751953 0)"/>
     <use xlink:href="#DejaVuSans-20" transform="translate(1351.851562 0)"/>
     <use xlink:href="#DejaVuSans-46" transform="translate(1383.638672 0)"/>
     <use xlink:href="#DejaVuSans-69" transform="translate(1433.908203 0)"/>
     <use xlink:href="#DejaVuSans-72" transform="translate(1461.691406 0)"/>
     <use xlink:href="#DejaVuSans-69" transform="translate(1502.804688 0)"/>
     <use xlink:href="#DejaVuSans-6e" transform="translate(1530.587891 0)"/>
     <use xlink:href="#DejaVuSans-67" transform="translate(1593.966797 0)"/>
     <use xlink:href="#DejaVuSans-20" transform="translate(1657.443359 0)"/>
     <use xlink:href="#DejaVuSans-52" transform="translate(1689.230469 0)"/>
     <use xlink:href="#DejaVuSans-61" transform="translate(1756.462891 0)"/>
     <use xlink:href="#DejaVuSans-74" transform="translate(1817.742188 0)"/>
     <use xlink:href="#DejaVuSans-65" transform="translate(1856.951172 0)"/>
    </g>
    <!-- Spearman ρ = -0.500, p = 0.207 -->
    <g transform="translate(150.504708 35.856) scale(0.12 -0.12)">
     <defs>
      <path id="DejaVuSans-3c1" d="M 863 2875 
Q 1053 3194 1525 3475 
Q 1709 3584 2278 3584 
Q 2916 3584 3314 3078 
Q 3713 2572 3713 1747 
Q 3713 922 3314 415 
Q 2916 -91 2278 -91 
Q 1894 -91 1617 61 
Q 1341 213 1159 525 
L 1159 -1331 
L 581 -1331 
L 581 1716 
Q 581 2438 863 2875 
z
M 3116 1747 
Q 3116 2381 2855 2742 
Q 2594 3103 2138 3103 
Q 1681 3103 1420 2742 
Q 1159 2381 1159 1747 
Q 1159 1113 1420 752 
Q 1681 391 2138 391 
Q 2594 391 2855 752 
Q 3116 1113 3116 1747 
z
" transform="scale(0.015625)"/>
      <path id="DejaVuSans-3d" d="M 678 2906 
L 4684 2906 
L 4684 2381 
L 678 2381 
L 678 2906 
z
M 678 1631 
L 4684 1631 
L 4684 1100 
L 678 1100 
L 678 1631 
z
" transform="scale(0.015625)"/>
      <path id="DejaVuSans-2d" d="M 313 2009 
L 1997 2009 
L 1997 1497 
L 313 1497 
L 313 2009 
z
" transform="scale(0.015625)"/>
      <path id="DejaVuSans-2c" d="M 750 794 
L 1409 794 
L 1409 256 
L 897 -744 
L 494 -744 
L 750 256 
L 750 794 
z
" transform="scale(0.015625)"/>
     </defs>
     <use xlink:href="#DejaVuSans-53"/>
     <use xlink:href="#DejaVuSans-70" transform="translate(63.476562 0)"/>
     <use xlink:href="#DejaVuSans-65" transform="translate(126.953125 0)"/>
     <use xlink:href="#DejaVuSans-61" transform="translate(188.476562 0)"/>
     <use xlink:href="#DejaVuSans-72" transform="translate(249.755859 0)"/>
     <use xlink:href="#DejaVuSans-6d" transform="translate(289.119141 0)"/>
     <use xlink:href="#DejaVuSans-61" transform="translate(386.53125 0)"/>
     <use xlink:href="#DejaVuSans-6e" transform="translate(447.810547 0)"/>
     <use xlink:href="#DejaVuSans-20" transform="translate(511.189453 0)"/>
     <use xlink:href="#DejaVuSans-3c1" transform="translate(542.976562 0)"/>
     <use xlink:href="#DejaVuSans-20" transform="translate(606.453125 0)"/>
     <use xlink:href="#DejaVuSans-3d" transform="translate(638.240234 0)"/>
     <use xlink:href="#DejaVuSans-20" transform="translate(722.029297 0)"/>
     <use xlink:href="#DejaVuSans-2d" transform="translate(753.816406 0)"/>
     <use xlink:href="#DejaVuSans-30" transform="translate(789.900391 0)"/>
     <use xlink:href="#DejaVuSans-2e" transform="translate(853.523438 0)"/>
     <use xlink:href="#DejaVuSans-35" transform="translate(885.310547 0)"/>
     <use xlink:href="#DejaVuSans-30" transform="translate(948.933594 0)"/>
     <use xlink:href="#DejaVuSans-30" transform="translate(1012.556641 0)"/>
     <use xlink:href="#DejaVuSans-2c" transform="translate(1076.179688 0)"/>
     <use xlink:href="#DejaVuSans-20" transform="translate(1107.966797 0)"/>
     <use xlink:href="#DejaVuSans-70" transform="translate(1139.753906 0)"/>
     <use xlink:href="#DejaVuSans-20" transform="translate(1203.230469 0)"/>
     <use xlink:href="#DejaVuSans-3d" transform="translate(1235.017578 0)"/>
     <use xlink:href="#DejaVuSans-20" transform="translate(1318.806641 0)"/>
     <use xlink:href="#DejaVuSans-30" transform="translate(1350.59375 0)"/>
     <use xlink:href="#DejaVuSans-2e" transform="translate(1414.216797 0)"/>
     <use xlink:href="#DejaVuSans-32" transform="translate(1446.003906 0)"/>
     <use xlink:href="#DejaVuSans-30" transform="translate(1509.626953 0)"/>
     <use xlink:href="#DejaVuSans-37" transform="translate(1573.25 0)"/>
    </g>
   </g>
   <g id="PathCollection_1">
    <defs>
     <path id="ma94ec60e08" d="M 0 5.477226 
C 1.452577 5.477226 2.845856 4.900111 3.872983 3.872983 
C 4.900111 2.845856 5.477226 1.452577 5.477226 0 
C 5.477226 -1.452577 4.900111 -2.845856 3.872983 -3.872983 
C 2.845856 -4.900111 1.452577 -5.477226 0 -5.477226 
C -1.452577 -5.477226 -2.845856 -4.900111 -3.872983 -3.872983 
C -4.900111 -2.845856 -5.477226 -1.452577 -5.477226 0 
C -5.477226 1.452577 -4.900111 2.845856 -3.872983 3.872983 
C -2.845856 4.900111 -1.452577 5.477226 0 5.477226 
z
" style="stroke: #000000; stroke-width: 0.8"/>
    </defs>
    <g clip-path="url(#pf1fe924e1b)">
     <use xlink:href="#ma94ec60e08" x="360.444477" y="107.919085" style="fill: #1f77b4; stroke: #000000; stroke-width: 0.8"/>
     <use xlink:href="#ma94ec60e08" x="362.941074" y="252.275695" style="fill: #1f77b4; stroke: #000000; stroke-width: 0.8"/>
     <use xlink:href="#ma94ec60e08" x="126.434309" y="133.656365" style="fill: #1f77b4; stroke: #000000; stroke-width: 0.8"/>
     <use xlink:href="#ma94ec60e08" x="371.000108" y="300.543679" style="fill: #1f77b4; stroke: #000000; stroke-width: 0.8"/>
     <use xlink:href="#ma94ec60e08" x="150.19373" y="86.968979" style="fill: #1f77b4; stroke: #000000; stroke-width: 0.8"/>
     <use xlink:href="#ma94ec60e08" x="367.171542" y="88.054673" style="fill: #1f77b4; stroke: #000000; stroke-width: 0.8"/>
     <use xlink:href="#ma94ec60e08" x="152.934751" y="54.174461" style="fill: #1f77b4; stroke: #000000; stroke-width: 0.8"/>
     <use xlink:href="#ma94ec60e08" x="333.627925" y="181.629242" style="fill: #1f77b4; stroke: #000000; stroke-width: 0.8"/>
    </g>
   </g>
  </g>
  <g id="axes_2">
   <g id="patch_7">
    <path d="M 492.765583 312.86214 
L 881.98 312.86214 
L 881.98 41.856 
L 492.765583 41.856 
z
" style="fill: #ffffff"/>
   </g>
   <g id="patch_8">
    <path d="M 510.457148 312.86214 
L 526.540388 312.86214 
L 526.540388 55.393276 
L 510.457148 55.393276 
z
" clip-path="url(#p45816f4085)" style="fill: #55a868; stroke: #000000; stroke-linejoin: miter"/>
   </g>
   <g id="patch_9">
    <path d="M 556.409263 312.86214 
L 572.492503 312.86214 
L 572.492503 55.243744 
L 556.409263 55.243744 
z
" clip-path="url(#p45816f4085)" style="fill: #55a868; stroke: #000000; stroke-linejoin: miter"/>
   </g>
   <g id="patch_10">
    <path d="M 602.361378 312.86214 
L 618.444619 312.86214 
L 618.444619 69.409147 
L 602.361378 69.409147 
z
" clip-path="url(#p45816f4085)" style="fill: #55a868; stroke: #000000; stroke-linejoin: miter"/>
   </g>
   <g id="patch_11">
    <path d="M 648.313494 312.86214 
L 664.396734 312.86214 
L 664.396734 54.761054 
L 648.313494 54.761054 
z
" clip-path="url(#p45816f4085)" style="fill: #55a868; stroke: #000000; stroke-linejoin: miter"/>
   </g>
   <g id="patch_12">
    <path d="M 694.265609 312.86214 
L 710.348849 312.86214 
L 710.348849 67.986094 
L 694.265609 67.986094 
z
" clip-path="url(#p45816f4085)" style="fill: #55a868; stroke: #000000; stroke-linejoin: miter"/>
   </g>
   <g id="patch_13">
    <path d="M 740.217724 312.86214 
L 756.300965 312.86214 
L 756.300965 54.990364 
L 740.217724 54.990364 
z
" clip-path="url(#p45816f4085)" style="fill: #55a868; stroke: #000000; stroke-linejoin: miter"/>
   </g>
   <g id="patch_14">
    <path d="M 786.16984 312.86214 
L 802.25308 312.86214 
L 802.25308 67.821922 
L 786.16984 67.821922 
z
" clip-path="url(#p45816f4085)" style="fill: #55a868; stroke: #000000; stroke-linejoin: miter"/>
   </g>
   <g id="patch_15">
    <path d="M 832.121955 312.86214 
L 848.205195 312.86214 
L 848.205195 56.999434 
L 832.121955 56.999434 
z
" clip-path="url(#p45816f4085)" style="fill: #55a868; stroke: #000000; stroke-linejoin: miter"/>
   </g>
   <g id="matplotlib.axis_3">
    <g id="xtick_8">
     <g id="line2d_17">
      <g>
       <use xlink:href="#m4acaeae58a" x="526.540388" y="312.86214" style="stroke: #000000; stroke-width: 0.8"/>
      </g>
     </g>
     <g id="text_27">
      <!-- ACAd -->
      <g transform="translate(506.216592 344.088281) rotate(-45) scale(0.1 -0.1)">
       <use xlink:href="#DejaVuSans-41"/>
       <use xlink:href="#DejaVuSans-43" transform="translate(66.658203 0)"/>
       <use xlink:href="#DejaVuSans-41" transform="translate(136.482422 0)"/>
       <use xlink:href="#DejaVuSans-64" transform="translate(203.140625 0)"/>
      </g>
     </g>
    </g>
    <g id="xtick_9">
     <g id="line2d_18">
      <g>
       <use xlink:href="#m4acaeae58a" x="572.492503" y="312.86214" style="stroke: #000000; stroke-width: 0.8"/>
      </g>
     </g>
     <g id="text_28">
      <!-- ACAv -->
      <g transform="translate(552.764224 343.492764) rotate(-45) scale(0.1 -0.1)">
       <use xlink:href="#DejaVuSans-41"/>
       <use xlink:href="#DejaVuSans-43" transform="translate(66.658203 0)"/>
       <use xlink:href="#DejaVuSans-41" transform="translate(136.482422 0)"/>
       <use xlink:href="#DejaVuSans-76" transform="translate(199.015625 0)"/>
      </g>
     </g>
    </g>
    <g id="xtick_10">
     <g id="line2d_19">
      <g>
       <use xlink:href="#m4acaeae58a" x="618.444619" y="312.86214" style="stroke: #000000; stroke-width: 0.8"/>
      </g>
     </g>
     <g id="text_29">
      <!-- FRP -->
      <g transform="translate(603.730168 338.478935) rotate(-45) scale(0.1 -0.1)">
       <use xlink:href="#DejaVuSans-46"/>
       <use xlink:href="#DejaVuSans-52" transform="translate(57.519531 0)"/>
       <use xlink:href="#DejaVuSans-50" transform="translate(127.001953 0)"/>
      </g>
     </g>
    </g>
    <g id="xtick_11">
     <g id="line2d_20">
      <g>
       <use xlink:href="#m4acaeae58a" x="664.396734" y="312.86214" style="stroke: #000000; stroke-width: 0.8"/>
      </g>
     </g>
     <g id="text_30">
      <!-- ILA -->
      <g transform="translate(651.904146 336.257073) rotate(-45) scale(0.1 -0.1)">
       <use xlink:href="#DejaVuSans-49"/>
       <use xlink:href="#DejaVuSans-4c" transform="translate(29.492188 0)"/>
       <use xlink:href="#DejaVuSans-41" transform="translate(87.455078 0)"/>
      </g>
     </g>
    </g>
    <g id="xtick_12">
     <g id="line2d_21">
      <g>
       <use xlink:href="#m4acaeae58a" x="710.348849" y="312.86214" style="stroke: #000000; stroke-width: 0.8"/>
      </g>
     </g>
     <g id="text_31">
      <!-- ORBl -->
      <g transform="translate(691.582898 342.530436) rotate(-45) scale(0.1 -0.1)">
       <use xlink:href="#DejaVuSans-4f"/>
       <use xlink:href="#DejaVuSans-52" transform="translate(78.710938 0)"/>
       <use xlink:href="#DejaVuSans-42" transform="translate(148.193359 0)"/>
       <use xlink:href="#DejaVuSans-6c" transform="translate(216.796875 0)"/>
      </g>
     </g>
    </g>
    <g id="xtick_13">
     <g id="line2d_22">
      <g>
       <use xlink:href="#m4acaeae58a" x="756.300965" y="312.86214" style="stroke: #000000; stroke-width: 0.8"/>
      </g>
     </g>
     <g id="text_32">
      <!-- ORBm -->
      <g transform="translate(732.611783 347.453667) rotate(-45) scale(0.1 -0.1)">
       <use xlink:href="#DejaVuSans-4f"/>
       <use xlink:href="#DejaVuSans-52" transform="translate(78.710938 0)"/>
       <use xlink:href="#DejaVuSans-42" transform="translate(148.193359 0)"/>
       <use xlink:href="#DejaVuSans-6d" transform="translate(216.796875 0)"/>
      </g>
     </g>
    </g>
    <g id="xtick_14">
     <g id="line2d_23">
      <g>
       <use xlink:href="#m4acaeae58a" x="802.25308" y="312.86214" style="stroke: #000000; stroke-width: 0.8"/>
      </g>
     </g>
     <g id="text_33">
      <!-- ORBvl -->
      <g transform="translate(779.301941 346.715625) rotate(-45) scale(0.1 -0.1)">
       <use xlink:href="#DejaVuSans-4f"/>
       <use xlink:href="#DejaVuSans-52" transform="translate(78.710938 0)"/>
       <use xlink:href="#DejaVuSans-42" transform="translate(148.193359 0)"/>
       <use xlink:href="#DejaVuSans-76" transform="translate(216.796875 0)"/>
       <use xlink:href="#DejaVuSans-6c" transform="translate(275.976562 0)"/>
      </g>
     </g>
    </g>
    <g id="xtick_15">
     <g id="line2d_24">
      <g>
       <use xlink:href="#m4acaeae58a" x="848.205195" y="312.86214" style="stroke: #000000; stroke-width: 0.8"/>
      </g>
     </g>
     <g id="text_34">
      <!-- PL -->
      <g transform="translate(838.531091 333.43859) rotate(-45) scale(0.1 -0.1)">
       <use xlink:href="#DejaVuSans-50"/>
       <use xlink:href="#DejaVuSans-4c" transform="translate(60.302734 0)"/>
      </g>
     </g>
    </g>
   </g>
   <g id="matplotlib.axis_4">
    <g id="ytick_9">
     <g id="line2d_25">
      <g>
       <use xlink:href="#m502ba8f64d" x="492.765583" y="312.86214" style="stroke: #000000; stroke-width: 0.8"/>
      </g>
     </g>
     <g id="text_35">
      <!-- 0.0 -->
      <g transform="translate(469.862458 316.661358) scale(0.1 -0.1)">
       <use xlink:href="#DejaVuSans-30"/>
       <use xlink:href="#DejaVuSans-2e" transform="translate(63.623047 0)"/>
       <use xlink:href="#DejaVuSans-30" transform="translate(95.410156 0)"/>
      </g>
     </g>
    </g>
    <g id="ytick_10">
     <g id="line2d_26">
      <g>
       <use xlink:href="#m502ba8f64d" x="492.765583" y="280.14025" style="stroke: #000000; stroke-width: 0.8"/>
      </g>
     </g>
     <g id="text_36">
      <!-- 0.5 -->
      <g transform="translate(469.862458 283.939469) scale(0.1 -0.1)">
       <use xlink:href="#DejaVuSans-30"/>
       <use xlink:href="#DejaVuSans-2e" transform="translate(63.623047 0)"/>
       <use xlink:href="#DejaVuSans-35" transform="translate(95.410156 0)"/>
      </g>
     </g>
    </g>
    <g id="ytick_11">
     <g id="line2d_27">
      <g>
       <use xlink:href="#m502ba8f64d" x="492.765583" y="247.41836" style="stroke: #000000; stroke-width: 0.8"/>
      </g>
     </g>
     <g id="text_37">
      <!-- 1.0 -->
      <g transform="translate(469.862458 251.217579) scale(0.1 -0.1)">
       <use xlink:href="#DejaVuSans-31"/>
       <use xlink:href="#DejaVuSans-2e" transform="translate(63.623047 0)"/>
       <use xlink:href="#DejaVuSans-30" transform="translate(95.410156 0)"/>
      </g>
     </g>
    </g>
    <g id="ytick_12">
     <g id="line2d_28">
      <g>
       <use xlink:href="#m502ba8f64d" x="492.765583" y="214.696471" style="stroke: #000000; stroke-width: 0.8"/>
      </g>
     </g>
     <g id="text_38">
      <!-- 1.5 -->
      <g transform="translate(469.862458 218.49569) scale(0.1 -0.1)">
       <use xlink:href="#DejaVuSans-31"/>
       <use xlink:href="#DejaVuSans-2e" transform="translate(63.623047 0)"/>
       <use xlink:href="#DejaVuSans-35" transform="translate(95.410156 0)"/>
      </g>
     </g>
    </g>
    <g id="ytick_13">
     <g id="line2d_29">
      <g>
       <use xlink:href="#m502ba8f64d" x="492.765583" y="181.974581" style="stroke: #000000; stroke-width: 0.8"/>
      </g>
     </g>
     <g id="text_39">
      <!-- 2.0 -->
      <g transform="translate(469.862458 185.7738) scale(0.1 -0.1)">
       <use xlink:href="#DejaVuSans-32"/>
       <use xlink:href="#DejaVuSans-2e" transform="translate(63.623047 0)"/>
       <use xlink:href="#DejaVuSans-30" transform="translate(95.410156 0)"/>
      </g>
     </g>
    </g>
    <g id="ytick_14">
     <g id="line2d_30">
      <g>
       <use xlink:href="#m502ba8f64d" x="492.765583" y="149.252692" style="stroke: #000000; stroke-width: 0.8"/>
      </g>
     </g>
     <g id="text_40">
      <!-- 2.5 -->
      <g transform="translate(469.862458 153.05191) scale(0.1 -0.1)">
       <use xlink:href="#DejaVuSans-32"/>
       <use xlink:href="#DejaVuSans-2e" transform="translate(63.623047 0)"/>
       <use xlink:href="#DejaVuSans-35" transform="translate(95.410156 0)"/>
      </g>
     </g>
    </g>
    <g id="ytick_15">
     <g id="line2d_31">
      <g>
       <use xlink:href="#m502ba8f64d" x="492.765583" y="116.530802" style="stroke: #000000; stroke-width: 0.8"/>
      </g>
     </g>
     <g id="text_41">
      <!-- 3.0 -->
      <g transform="translate(469.862458 120.330021) scale(0.1 -0.1)">
       <use xlink:href="#DejaVuSans-33"/>
       <use xlink:href="#DejaVuSans-2e" transform="translate(63.623047 0)"/>
       <use xlink:href="#DejaVuSans-30" transform="translate(95.410156 0)"/>
      </g>
     </g>
    </g>
    <g id="ytick_16">
     <g id="line2d_32">
      <g>
       <use xlink:href="#m502ba8f64d" x="492.765583" y="83.808912" style="stroke: #000000; stroke-width: 0.8"/>
      </g>
     </g>
     <g id="text_42">
      <!-- 3.5 -->
      <g transform="translate(469.862458 87.608131) scale(0.1 -0.1)">
       <use xlink:href="#DejaVuSans-33"/>
       <use xlink:href="#DejaVuSans-2e" transform="translate(63.623047 0)"/>
       <use xlink:href="#DejaVuSans-35" transform="translate(95.410156 0)"/>
      </g>
     </g>
    </g>
    <g id="ytick_17">
     <g id="line2d_33">
      <g>
       <use xlink:href="#m502ba8f64d" x="492.765583" y="51.087023" style="stroke: #000000; stroke-width: 0.8"/>
      </g>
     </g>
     <g id="text_43">
      <!-- 4.0 -->
      <g transform="translate(469.862458 54.886242) scale(0.1 -0.1)">
       <use xlink:href="#DejaVuSans-34"/>
       <use xlink:href="#DejaVuSans-2e" transform="translate(63.623047 0)"/>
       <use xlink:href="#DejaVuSans-30" transform="translate(95.410156 0)"/>
      </g>
     </g>
    </g>
    <g id="text_44">
     <!-- Shannon entropy (bits) -->
     <g style="fill: #55a868" transform="translate(463.782771 234.880945) rotate(-90) scale(0.1 -0.1)">
      <use xlink:href="#DejaVuSans-53"/>
      <use xlink:href="#DejaVuSans-68" transform="translate(63.476562 0)"/>
      <use xlink:href="#DejaVuSans-61" transform="translate(126.855469 0)"/>
      <use xlink:href="#DejaVuSans-6e" transform="translate(188.134766 0)"/>
      <use xlink:href="#DejaVuSans-6e" transform="translate(251.513672 0)"/>
      <use xlink:href="#DejaVuSans-6f" transform="translate(314.892578 0)"/>
      <use xlink:href="#DejaVuSans-6e" transform="translate(376.074219 0)"/>
      <use xlink:href="#DejaVuSans-20" transform="translate(439.453125 0)"/>
      <use xlink:href="#DejaVuSans-65" transform="translate(471.240234 0)"/>
      <use xlink:href="#DejaVuSans-6e" transform="translate(532.763672 0)"/>
      <use xlink:href="#DejaVuSans-74" transform="translate(596.142578 0)"/>
      <use xlink:href="#DejaVuSans-72" transform="translate(635.351562 0)"/>
      <use xlink:href="#DejaVuSans-6f" transform="translate(674.214844 0)"/>
      <use xlink:href="#DejaVuSans-70" transform="translate(735.396484 0)"/>
      <use xlink:href="#DejaVuSans-79" transform="translate(798.873047 0)"/>
      <use xlink:href="#DejaVuSans-20" transform="translate(858.052734 0)"/>
      <use xlink:href="#DejaVuSans-28" transform="translate(889.839844 0)"/>
      <use xlink:href="#DejaVuSans-62" transform="translate(928.853516 0)"/>
      <use xlink:href="#DejaVuSans-69" transform="translate(992.330078 0)"/>
      <use xlink:href="#DejaVuSans-74" transform="translate(1020.113281 0)"/>
      <use xlink:href="#DejaVuSans-73" transform="translate(1059.322266 0)"/>
      <use xlink:href="#DejaVuSans-29" transform="translate(1111.421875 0)"/>
     </g>
    </g>
   </g>
   <g id="patch_16">
    <path d="M 492.765583 312.86214 
L 492.765583 41.856 
" style="fill: none; stroke: #000000; stroke-width: 0.8; stroke-linejoin: miter; stroke-linecap: square"/>
   </g>
   <g id="patch_17">
    <path d="M 881.98 312.86214 
L 881.98 41.856 
" style="fill: none; stroke: #000000; stroke-width: 0.8; stroke-linejoin: miter; stroke-linecap: square"/>
   </g>
   <g id="patch_18">
    <path d="M 492.765583 312.86214 
L 881.98 312.86214 
" style="fill: none; stroke: #000000; stroke-width: 0.8; stroke-linejoin: miter; stroke-linecap: square"/>
   </g>
   <g id="patch_19">
    <path d="M 492.765583 41.856 
L 881.98 41.856 
" style="fill: none; stroke: #000000; stroke-width: 0.8; stroke-linejoin: miter; stroke-linecap: square"/>
   </g>
   <g id="text_45">
    <!-- Entropy &amp; Firing Rate by Parent Region -->
    <g transform="translate(570.656854 35.856) scale(0.12 -0.12)">
     <defs>
      <path id="DejaVuSans-45" d="M 628 4666 
L 3578 4666 
L 3578 4134 
L 1259 4134 
L 1259 2753 
L 3481 2753 
L 3481 2222 
L 1259 2222 
L 1259 531 
L 3634 531 
L 3634 0 
L 628 0 
L 628 4666 
z
" transform="scale(0.015625)"/>
      <path id="DejaVuSans-26" d="M 1556 2509 
Q 1272 2256 1139 2004 
Q 1006 1753 1006 1478 
Q 1006 1022 1337 719 
Q 1669 416 2169 416 
Q 2466 416 2725 514 
Q 2984 613 3213 813 
L 1556 2509 
z
M 1997 2859 
L 3584 1234 
Q 3769 1513 3872 1830 
Q 3975 2147 3994 2503 
L 4575 2503 
Q 4538 2091 4375 1687 
Q 4213 1284 3922 891 
L 4794 0 
L 4006 0 
L 3559 459 
Q 3234 181 2878 45 
Q 2522 -91 2113 -91 
Q 1359 -91 881 339 
Q 403 769 403 1441 
Q 403 1841 612 2192 
Q 822 2544 1241 2853 
Q 1091 3050 1012 3245 
Q 934 3441 934 3628 
Q 934 4134 1281 4442 
Q 1628 4750 2203 4750 
Q 2463 4750 2720 4694 
Q 2978 4638 3244 4525 
L 3244 3956 
Q 2972 4103 2725 4179 
Q 2478 4256 2266 4256 
Q 1938 4256 1733 4082 
Q 1528 3909 1528 3634 
Q 1528 3475 1620 3314 
Q 1713 3153 1997 2859 
z
" transform="scale(0.015625)"/>
     </defs>
     <use xlink:href="#DejaVuSans-45"/>
     <use xlink:href="#DejaVuSans-6e" transform="translate(63.183594 0)"/>
     <use xlink:href="#DejaVuSans-74" transform="translate(126.5625 0)"/>
     <use xlink:href="#DejaVuSans-72" transform="translate(165.771484 0)"/>
     <use xlink:href="#DejaVuSans-6f" transform="translate(204.634766 0)"/>
     <use xlink:href="#DejaVuSans-70" transform="translate(265.816406 0)"/>
     <use xlink:href="#DejaVuSans-79" transform="translate(329.292969 0)"/>
     <use xlink:href="#DejaVuSans-20" transform="translate(388.472656 0)"/>
     <use xlink:href="#DejaVuSans-26" transform="translate(420.259766 0)"/>
     <use xlink:href="#DejaVuSans-20" transform="translate(498.238281 0)"/>
     <use xlink:href="#DejaVuSans-46" transform="translate(530.025391 0)"/>
     <use xlink:href="#DejaVuSans-69" transform="translate(580.294922 0)"/>
     <use xlink:href="#DejaVuSans-72" transform="translate(608.078125 0)"/>
     <use xlink:href="#DejaVuSans-69" transform="translate(649.191406 0)"/>
     <use xlink:href="#DejaVuSans-6e" transform="translate(676.974609 0)"/>
     <use xlink:href="#DejaVuSans-67" transform="translate(740.353516 0)"/>
     <use xlink:href="#DejaVuSans-20" transform="translate(803.830078 0)"/>
     <use xlink:href="#DejaVuSans-52" transform="translate(835.617188 0)"/>
     <use xlink:href="#DejaVuSans-61" transform="translate(902.849609 0)"/>
     <use xlink:href="#DejaVuSans-74" transform="translate(964.128906 0)"/>
     <use xlink:href="#DejaVuSans-65" transform="translate(1003.337891 0)"/>
     <use xlink:href="#DejaVuSans-20" transform="translate(1064.861328 0)"/>
     <use xlink:href="#DejaVuSans-62" transform="translate(1096.648438 0)"/>
     <use xlink:href="#DejaVuSans-79" transform="translate(1160.125 0)"/>
     <use xlink:href="#DejaVuSans-20" transform="translate(1219.304688 0)"/>
     <use xlink:href="#DejaVuSans-50" transform="translate(1251.091797 0)"/>
     <use xlink:href="#DejaVuSans-61" transform="translate(1306.894531 0)"/>
     <use xlink:href="#DejaVuSans-72" transform="translate(1368.173828 0)"/>
     <use xlink:href="#DejaVuSans-65" transform="translate(1407.037109 0)"/>
     <use xlink:href="#DejaVuSans-6e" transform="translate(1468.560547 0)"/>
     <use xlink:href="#DejaVuSans-74" transform="translate(1531.939453 0)"/>
     <use xlink:href="#DejaVuSans-20" transform="translate(1571.148438 0)"/>
     <use xlink:href="#DejaVuSans-52" transform="translate(1602.935547 0)"/>
     <use xlink:href="#DejaVuSans-65" transform="translate(1667.917969 0)"/>
     <use xlink:href="#DejaVuSans-67" transform="translate(1729.441406 0)"/>
     <use xlink:href="#DejaVuSans-69" transform="translate(1792.917969 0)"/>
     <use xlink:href="#DejaVuSans-6f" transform="translate(1820.701172 0)"/>
     <use xlink:href="#DejaVuSans-6e" transform="translate(1881.882812 0)"/>
    </g>
   </g>
   <g id="legend_1">
    <g id="patch_20">
     <path d="M 499.765583 79.21225 
L 606.253083 79.21225 
Q 608.253083 79.21225 608.253083 77.21225 
L 608.253083 48.856 
Q 608.253083 46.856 606.253083 46.856 
L 499.765583 46.856 
Q 497.765583 46.856 497.765583 48.856 
L 497.765583 77.21225 
Q 497.765583 79.21225 499.765583 79.21225 
z
" style="fill: #ffffff; opacity: 0.8; stroke: #cccccc; stroke-linejoin: miter"/>
    </g>
    <g id="patch_21">
     <path d="M 501.765583 58.454438 
L 521.765583 58.454438 
L 521.765583 51.454438 
L 501.765583 51.454438 
z
" style="fill: #55a868; stroke: #000000; stroke-linejoin: miter"/>
    </g>
    <g id="text_46">
     <!-- Entropy (bits) -->
     <g transform="translate(529.765583 58.454438) scale(0.1 -0.1)">
      <use xlink:href="#DejaVuSans-45"/>
      <use xlink:href="#DejaVuSans-6e" transform="translate(63.183594 0)"/>
      <use xlink:href="#DejaVuSans-74" transform="translate(126.5625 0)"/>
      <use xlink:href="#DejaVuSans-72" transform="translate(165.771484 0)"/>
      <use xlink:href="#DejaVuSans-6f" transform="translate(204.634766 0)"/>
      <use xlink:href="#DejaVuSans-70" transform="translate(265.816406 0)"/>
      <use xlink:href="#DejaVuSans-79" transform="translate(329.292969 0)"/>
      <use xlink:href="#DejaVuSans-20" transform="translate(388.472656 0)"/>
      <use xlink:href="#DejaVuSans-28" transform="translate(420.259766 0)"/>
      <use xlink:href="#DejaVuSans-62" transform="translate(459.273438 0)"/>
      <use xlink:href="#DejaVuSans-69" transform="translate(522.75 0)"/>
      <use xlink:href="#DejaVuSans-74" transform="translate(550.533203 0)"/>
      <use xlink:href="#DejaVuSans-73" transform="translate(589.742188 0)"/>
      <use xlink:href="#DejaVuSans-29" transform="translate(641.841797 0)"/>
     </g>
    </g>
    <g id="patch_22">
     <path d="M 501.765583 73.132563 
L 521.765583 73.132563 
L 521.765583 66.132563 
L 501.765583 66.132563 
z
" style="fill: #c44e52; opacity: 0.8; stroke: #000000; stroke-linejoin: miter"/>
    </g>
    <g id="text_47">
     <!-- Mean rate (Hz) -->
     <g transform="translate(529.765583 73.132563) scale(0.1 -0.1)">
      <use xlink:href="#DejaVuSans-4d"/>
      <use xlink:href="#DejaVuSans-65" transform="translate(86.279297 0)"/>
      <use xlink:href="#DejaVuSans-61" transform="translate(147.802734 0)"/>
      <use xlink:href="#DejaVuSans-6e" transform="translate(209.082031 0)"/>
      <use xlink:href="#DejaVuSans-20" transform="translate(272.460938 0)"/>
      <use xlink:href="#DejaVuSans-72" transform="translate(304.248047 0)"/>
      <use xlink:href="#DejaVuSans-61" transform="translate(345.361328 0)"/>
      <use xlink:href="#DejaVuSans-74" transform="translate(406.640625 0)"/>
      <use xlink:href="#DejaVuSans-65" transform="translate(445.849609 0)"/>
      <use xlink:href="#DejaVuSans-20" transform="translate(507.373047 0)"/>
      <use xlink:href="#DejaVuSans-28" transform="translate(539.160156 0)"/>
      <use xlink:href="#DejaVuSans-48" transform="translate(578.173828 0)"/>
      <use xlink:href="#DejaVuSans-7a" transform="translate(653.369141 0)"/>
      <use xlink:href="#DejaVuSans-29" transform="translate(705.859375 0)"/>
     </g>
    </g>
   </g>
  </g>
  <g id="axes_3">
   <g id="patch_23">
    <path d="M 526.540388 312.86214 
L 542.623628 312.86214 
L 542.623628 78.449419 
L 526.540388 78.449419 
z
" clip-path="url(#p45816f4085)" style="fill: #c44e52; opacity: 0.8; stroke: #000000; stroke-linejoin: miter"/>
   </g>
   <g id="patch_24">
    <path d="M 572.492503 312.86214 
L 588.575744 312.86214 
L 588.575744 142.075727 
L 572.492503 142.075727 
z
" clip-path="url(#p45816f4085)" style="fill: #c44e52; opacity: 0.8; stroke: #000000; stroke-linejoin: miter"/>
   </g>
   <g id="patch_25">
    <path d="M 618.444619 312.86214 
L 634.527859 312.86214 
L 634.527859 89.793327 
L 618.444619 89.793327 
z
" clip-path="url(#p45816f4085)" style="fill: #c44e52; opacity: 0.8; stroke: #000000; stroke-linejoin: miter"/>
   </g>
   <g id="patch_26">
    <path d="M 664.396734 312.86214 
L 680.479974 312.86214 
L 680.479974 163.350219 
L 664.396734 163.350219 
z
" clip-path="url(#p45816f4085)" style="fill: #c44e52; opacity: 0.8; stroke: #000000; stroke-linejoin: miter"/>
   </g>
   <g id="patch_27">
    <path d="M 710.348849 312.86214 
L 726.43209 312.86214 
L 726.43209 69.215495 
L 710.348849 69.215495 
z
" clip-path="url(#p45816f4085)" style="fill: #c44e52; opacity: 0.8; stroke: #000000; stroke-linejoin: miter"/>
   </g>
   <g id="patch_28">
    <path d="M 756.300965 312.86214 
L 772.384205 312.86214 
L 772.384205 69.694024 
L 756.300965 69.694024 
z
" clip-path="url(#p45816f4085)" style="fill: #c44e52; opacity: 0.8; stroke: #000000; stroke-linejoin: miter"/>
   </g>
   <g id="patch_29">
    <path d="M 802.25308 312.86214 
L 818.33632 312.86214 
L 818.33632 54.761054 
L 802.25308 54.761054 
z
" clip-path="url(#p45816f4085)" style="fill: #c44e52; opacity: 0.8; stroke: #000000; stroke-linejoin: miter"/>
   </g>
   <g id="patch_30">
    <path d="M 848.205195 312.86214 
L 864.288436 312.86214 
L 864.288436 110.937749 
L 848.205195 110.937749 
z
" clip-path="url(#p45816f4085)" style="fill: #c44e52; opacity: 0.8; stroke: #000000; stroke-linejoin: miter"/>
   </g>
   <g id="matplotlib.axis_5">
    <g id="ytick_18">
     <g id="line2d_34">
      <defs>
       <path id="m0f3e5a66b3" d="M 0 0 
L 3.5 0 
" style="stroke: #000000; stroke-width: 0.8"/>
      </defs>
      <g>
       <use xlink:href="#m0f3e5a66b3" x="881.98" y="312.86214" style="stroke: #000000; stroke-width: 0.8"/>
      </g>
     </g>
     <g id="text_48">
      <!-- 0.00 -->
      <g transform="translate(888.98 316.661358) scale(0.1 -0.1)">
       <use xlink:href="#DejaVuSans-30"/>
       <use xlink:href="#DejaVuSans-2e" transform="translate(63.623047 0)"/>
       <use xlink:href="#DejaVuSans-30" transform="translate(95.410156 0)"/>
       <use xlink:href="#DejaVuSans-30" transform="translate(159.033203 0)"/>
      </g>
     </g>
    </g>
    <g id="ytick_19">
     <g id="line2d_35">
      <g>
       <use xlink:href="#m0f3e5a66b3" x="881.98" y="272.609395" style="stroke: #000000; stroke-width: 0.8"/>
      </g>
     </g>
     <g id="text_49">
      <!-- 0.05 -->
      <g transform="translate(888.98 276.408613) scale(0.1 -0.1)">
       <use xlink:href="#DejaVuSans-30"/>
       <use xlink:href="#DejaVuSans-2e" transform="translate(63.623047 0)"/>
       <use xlink:href="#DejaVuSans-30" transform="translate(95.410156 0)"/>
       <use xlink:href="#DejaVuSans-35" transform="translate(159.033203 0)"/>
      </g>
     </g>
    </g>
    <g id="ytick_20">
     <g id="line2d_36">
      <g>
       <use xlink:href="#m0f3e5a66b3" x="881.98" y="232.356649" style="stroke: #000000; stroke-width: 0.8"/>
      </g>
     </g>
     <g id="text_50">
      <!-- 0.10 -->
      <g transform="translate(888.98 236.155868) scale(0.1 -0.1)">
       <use xlink:href="#DejaVuSans-30"/>
       <use xlink:href="#DejaVuSans-2e" transform="translate(63.623047 0)"/>
       <use xlink:href="#DejaVuSans-31" transform="translate(95.410156 0)"/>
       <use xlink:href="#DejaVuSans-30" transform="translate(159.033203 0)"/>
      </g>
     </g>
    </g>
    <g id="ytick_21">
     <g id="line2d_37">
      <g>
       <use xlink:href="#m0f3e5a66b3" x="881.98" y="192.103904" style="stroke: #000000; stroke-width: 0.8"/>
      </g>
     </g>
     <g id="text_51">
      <!-- 0.15 -->
      <g transform="translate(888.98 195.903123) scale(0.1 -0.1)">
       <use xlink:href="#DejaVuSans-30"/>
       <use xlink:href="#DejaVuSans-2e" transform="translate(63.623047 0)"/>
       <use xlink:href="#DejaVuSans-31" transform="translate(95.410156 0)"/>
       <use xlink:href="#DejaVuSans-35" transform="translate(159.033203 0)"/>
      </g>
     </g>
    </g>
    <g id="ytick_22">
     <g id="line2d_38">
      <g>
       <use xlink:href="#m0f3e5a66b3" x="881.98" y="151.851159" style="stroke: #000000; stroke-width: 0.8"/>
      </g>
     </g>
     <g id="text_52">
      <!-- 0.20 -->
      <g transform="translate(888.98 155.650378) scale(0.1 -0.1)">
       <use xlink:href="#DejaVuSans-30"/>
       <use xlink:href="#DejaVuSans-2e" transform="translate(63.623047 0)"/>
       <use xlink:href="#DejaVuSans-32" transform="translate(95.410156 0)"/>
       <use xlink:href="#DejaVuSans-30" transform="translate(159.033203 0)"/>
      </g>
     </g>
    </g>
    <g id="ytick_23">
     <g id="line2d_39">
      <g>
       <use xlink:href="#m0f3e5a66b3" x="881.98" y="111.598414" style="stroke: #000000; stroke-width: 0.8"/>
      </g>
     </g>
     <g id="text_53">
      <!-- 0.25 -->
      <g transform="translate(888.98 115.397633) scale(0.1 -0.1)">
       <use xlink:href="#DejaVuSans-30"/>
       <use xlink:href="#DejaVuSans-2e" transform="translate(63.623047 0)"/>
       <use xlink:href="#DejaVuSans-32" transform="translate(95.410156 0)"/>
       <use xlink:href="#DejaVuSans-35" transform="translate(159.033203 0)"/>
      </g>
     </g>
    </g>
    <g id="ytick_24">
     <g id="line2d_40">
      <g>
       <use xlink:href="#m0f3e5a66b3" x="881.98" y="71.345669" style="stroke: #000000; stroke-width: 0.8"/>
      </g>
     </g>
     <g id="text_54">
      <!-- 0.30 -->
      <g transform="translate(888.98 75.144888) scale(0.1 -0.1)">
       <use xlink:href="#DejaVuSans-30"/>
       <use xlink:href="#DejaVuSans-2e" transform="translate(63.623047 0)"/>
       <use xlink:href="#DejaVuSans-33" transform="translate(95.410156 0)"/>
       <use xlink:href="#DejaVuSans-30" transform="translate(159.033203 0)"/>
      </g>
     </g>
    </g>
    <g id="text_55">
     <!-- Mean firing rate (Hz) -->
     <g style="fill: #c44e52" transform="translate(922.844063 229.128601) rotate(-90) scale(0.1 -0.1)">
      <use xlink:href="#DejaVuSans-4d"/>
      <use xlink:href="#DejaVuSans-65" transform="translate(86.279297 0)"/>
      <use xlink:href="#DejaVuSans-61" transform="translate(147.802734 0)"/>
      <use xlink:href="#DejaVuSans-6e" transform="translate(209.082031 0)"/>
      <use xlink:href="#DejaVuSans-20" transform="translate(272.460938 0)"/>
      <use xlink:href="#DejaVuSans-66" transform="translate(304.248047 0)"/>
      <use xlink:href="#DejaVuSans-69" transform="translate(339.453125 0)"/>
      <use xlink:href="#DejaVuSans-72" transform="translate(367.236328 0)"/>
      <use xlink:href="#DejaVuSans-69" transform="translate(408.349609 0)"/>
      <use xlink:href="#DejaVuSans-6e" transform="translate(436.132812 0)"/>
      <use xlink:href="#DejaVuSans-67" transform="translate(499.511719 0)"/>
      <use xlink:href="#DejaVuSans-20" transform="translate(562.988281 0)"/>
      <use xlink:href="#DejaVuSans-72" transform="translate(594.775391 0)"/>
      <use xlink:href="#DejaVuSans-61" transform="translate(635.888672 0)"/>
      <use xlink:href="#DejaVuSans-74" transform="translate(697.167969 0)"/>
      <use xlink:href="#DejaVuSans-65" transform="translate(736.376953 0)"/>
      <use xlink:href="#DejaVuSans-20" transform="translate(797.900391 0)"/>
      <use xlink:href="#DejaVuSans-28" transform="translate(829.6875 0)"/>
      <use xlink:href="#DejaVuSans-48" transform="translate(868.701172 0)"/>
      <use xlink:href="#DejaVuSans-7a" transform="translate(943.896484 0)"/>
      <use xlink:href="#DejaVuSans-29" transform="translate(996.386719 0)"/>
     </g>
    </g>
   </g>
   <g id="patch_31">
    <path d="M 492.765583 312.86214 
L 492.765583 41.856 
" style="fill: none; stroke: #000000; stroke-width: 0.8; stroke-linejoin: miter; stroke-linecap: square"/>
   </g>
   <g id="patch_32">
    <path d="M 881.98 312.86214 
L 881.98 41.856 
" style="fill: none; stroke: #000000; stroke-width: 0.8; stroke-linejoin: miter; stroke-linecap: square"/>
   </g>
   <g id="patch_33">
    <path d="M 492.765583 312.86214 
L 881.98 312.86214 
" style="fill: none; stroke: #000000; stroke-width: 0.8; stroke-linejoin: miter; stroke-linecap: square"/>
   </g>
   <g id="patch_34">
    <path d="M 492.765583 41.856 
L 881.98 41.856 
" style="fill: none; stroke: #000000; stroke-width: 0.8; stroke-linejoin: miter; stroke-linecap: square"/>
   </g>
  </g>
 </g>
 <defs>
  <clipPath id="pf1fe924e1b">
   <rect x="54.11" y="41.856" width="389.214417" height="271.00614"/>
  </clipPath>
  <clipPath id="p45816f4085">
   <rect x="492.765583" y="41.856" width="389.214417" height="271.00614"/>
  </clipPath>
 </defs>
</svg>
