<?xml version="1.0" encoding="utf-8" standalone="no"?>
<!DOCTYPE svg PUBLIC "-//W3C//DTD SVG 1.1//EN"
  "http://www.w3.org/Graphics/SVG/1.1/DTD/svg11.dtd">
<svg xmlns:xlink="http://www.w3.org/1999/xlink" width="864pt" height="360pt" viewBox="0 0 864 360" xmlns="http://www.w3.org/2000/svg" version="1.1">
 <metadata>
  <rdf:RDF xmlns:dc="http://purl.org/dc/elements/1.1/" xmlns:cc="http://creativecommons.org/ns#" xmlns:rdf="http://www.w3.org/1999/02/22-rdf-syntax-ns#">
   <cc:Work>
    <dc:type rdf:resource="http://purl.org/dc/dcmitype/StillImage"/>
    <dc:date>2026-04-20T19:44:37.545812</dc:date>
    <dc:format>image/svg+xml</dc:format>
    <dc:creator>
     <cc:Agent>
      <dc:title>Matplotlib v3.10.8, https://matplotlib.org/</dc:title>
     </cc:Agent>
    </dc:creator>
   </cc:Work>
  </rdf:RDF>
 </metadata>
 <defs>
  <style type="text/css">*{stroke-linejoin: round; stroke-linecap: butt}</style>
 </defs>
 <g id="figure_1">
  <g id="patch_1">
   <path d="M 0 360 
L 864 360 
L 864 0 
L 0 0 
z
" style="fill: #ffffff"/>
  </g>
  <g id="axes_1">
   <g id="patch_2">
    <path d="M 66.62 318.04 
L 427.34 318.04 
L 427.34 26.88 
L 66.62 26.88 
z
" style="fill: #ffffff"/>
   </g>
   <g id="patch_3">
    <path d="M 83.016364 318.04 
L 89.574909 318.04 
L 89.574909 243.075275 
L 83.016364 243.075275 
z
" clip-path="url(#pd79a58979e)" style="fill: #1f77b4; opacity: 0.7"/>
   </g>
   <g id="patch_4">
    <path d="M 89.574909 318.04 
L 96.133455 318.04 
L 96.133455 202.301801 
L 89.574909 202.301801 
z
" clip-path="url(#pd79a58979e)" style="fill: #1f77b4; opacity: 0.7"/>
   </g>
   <g id="patch_5">
    <path d="M 96.133455 318.04 
L 102.692 318.04 
L 102.692 131.883693 
L 96.133455 131.883693 
z
" clip-path="url(#pd79a58979e)" style="fill: #1f77b4; opacity: 0.7"/>
   </g>
   <g id="patch_6">
    <path d="M 102.692 318.04 
L 109.250545 318.04 
L 109.250545 71.546801 
L 102.692 71.546801 
z
" clip-path="url(#pd79a58979e)" style="fill: #1f77b4; opacity: 0.7"/>
   </g>
   <g id="patch_7">
    <path d="M 109.250545 318.04 
L 115.809091 318.04 
L 115.809091 52.239237 
L 109.250545 52.239237 
z
" clip-path="url(#pd79a58979e)" style="fill: #1f77b4; opacity: 0.7"/>
   </g>
   <g id="patch_8">
    <path d="M 115.809091 318.04 
L 122.367636 318.04 
L 122.367636 53.684473 
L 115.809091 53.684473 
z
" clip-path="url(#pd79a58979e)" style="fill: #1f77b4; opacity: 0.7"/>
   </g>
   <g id="patch_9">
    <path d="M 122.367636 318.04 
L 128.926182 318.04 
L 128.926182 44.85401 
L 122.367636 44.85401 
z
" clip-path="url(#pd79a58979e)" style="fill: #1f77b4; opacity: 0.7"/>
   </g>
   <g id="patch_10">
    <path d="M 128.926182 318.04 
L 135.484727 318.04 
L 135.484727 73.114778 
L 128.926182 73.114778 
z
" clip-path="url(#pd79a58979e)" style="fill: #1f77b4; opacity: 0.7"/>
   </g>
   <g id="patch_11">
    <path d="M 135.484727 318.04 
L 142.043273 318.04 
L 142.043273 74.427765 
L 135.484727 74.427765 
z
" clip-path="url(#pd79a58979e)" style="fill: #1f77b4; opacity: 0.7"/>
   </g>
   <g id="patch_12">
    <path d="M 142.043273 318.04 
L 148.601818 318.04 
L 148.601818 88.013161 
L 142.043273 88.013161 
z
" clip-path="url(#pd79a58979e)" style="fill: #1f77b4; opacity: 0.7"/>
   </g>
   <g id="patch_13">
    <path d="M 148.601818 318.04 
L 155.160364 318.04 
L 155.160364 133.024669 
L 148.601818 133.024669 
z
" clip-path="url(#pd79a58979e)" style="fill: #1f77b4; opacity: 0.7"/>
   </g>
   <g id="patch_14">
    <path d="M 155.160364 318.04 
L 161.718909 318.04 
L 161.718909 159.600769 
L 155.160364 159.600769 
z
" clip-path="url(#pd79a58979e)" style="fill: #1f77b4; opacity: 0.7"/>
   </g>
   <g id="patch_15">
    <path d="M 161.718909 318.04 
L 168.277455 318.04 
L 168.277455 182.243959 
L 161.718909 182.243959 
z
" clip-path="url(#pd79a58979e)" style="fill: #1f77b4; opacity: 0.7"/>
   </g>
   <g id="patch_16">
    <path d="M 168.277455 318.04 
L 174.836 318.04 
L 174.836 221.64999 
L 168.277455 221.64999 
z
" clip-path="url(#pd79a58979e)" style="fill: #1f77b4; opacity: 0.7"/>
   </g>
   <g id="patch_17">
    <path d="M 174.836 318.04 
L 181.394545 318.04 
L 181.394545 249.460419 
L 174.836 249.460419 
z
" clip-path="url(#pd79a58979e)" style="fill: #1f77b4; opacity: 0.7"/>
   </g>
   <g id="patch_18">
    <path d="M 181.394545 318.04 
L 187.953091 318.04 
L 187.953091 265.348512 
L 181.394545 265.348512 
z
" clip-path="url(#pd79a58979e)" style="fill: #1f77b4; opacity: 0.7"/>
   </g>
   <g id="patch_19">
    <path d="M 187.953091 318.04 
L 194.511636 318.04 
L 194.511636 264.495373 
L 187.953091 264.495373 
z
" clip-path="url(#pd79a58979e)" style="fill: #1f77b4; opacity: 0.7"/>
   </g>
   <g id="patch_20">
    <path d="M 194.511636 318.04 
L 201.070182 318.04 
L 201.070182 264.118505 
L 194.511636 264.118505 
z
" clip-path="url(#pd79a58979e)" style="fill: #1f77b4; opacity: 0.7"/>
   </g>
   <g id="patch_21">
    <path d="M 201.070182 318.04 
L 207.628727 318.04 
L 207.628727 271.3274 
L 201.070182 271.3274 
z
" clip-path="url(#pd79a58979e)" style="fill: #1f77b4; opacity: 0.7"/>
   </g>
   <g id="patch_22">
    <path d="M 207.628727 318.04 
L 214.187273 318.04 
L 214.187273 270.131968 
L 207.628727 270.131968 
z
" clip-path="url(#pd79a58979e)" style="fill: #1f77b4; opacity: 0.7"/>
   </g>
   <g id="patch_23">
    <path d="M 214.187273 318.04 
L 220.745818 318.04 
L 220.745818 275.227464 
L 214.187273 275.227464 
z
" clip-path="url(#pd79a58979e)" style="fill: #1f77b4; opacity: 0.7"/>
   </g>
   <g id="patch_24">
    <path d="M 220.745818 318.04 
L 227.304364 318.04 
L 227.304364 275.774614 
L 220.745818 275.774614 
z
" clip-path="url(#pd79a58979e)" style="fill: #1f77b4; opacity: 0.7"/>
   </g>
   <g id="patch_25">
    <path d="M 227.304364 318.04 
L 233.862909 318.04 
L 233.862909 271.339501 
L 227.304364 271.339501 
z
" clip-path="url(#pd79a58979e)" style="fill: #1f77b4; opacity: 0.7"/>
   </g>
   <g id="patch_26">
    <path d="M 233.862909 318.04 
L 240.421455 318.04 
L 240.421455 263.763247 
L 233.862909 263.763247 
z
" clip-path="url(#pd79a58979e)" style="fill: #1f77b4; opacity: 0.7"/>
   </g>
   <g id="patch_27">
    <path d="M 240.421455 318.04 
L 246.98 318.04 
L 246.98 252.809876 
L 240.421455 252.809876 
z
" clip-path="url(#pd79a58979e)" style="fill: #1f77b4; opacity: 0.7"/>
   </g>
   <g id="patch_28">
    <path d="M 246.98 318.04 
L 253.538545 318.04 
L 253.538545 247.359986 
L 246.98 247.359986 
z
" clip-path="url(#pd79a58979e)" style="fill: #1f77b4; opacity: 0.7"/>
   </g>
   <g id="patch_29">
    <path d="M 253.538545 318.04 
L 260.097091 318.04 
L 260.097091 245.013206 
L 253.538545 245.013206 
z
" clip-path="url(#pd79a58979e)" style="fill: #1f77b4; opacity: 0.7"/>
   </g>
   <g id="patch_30">
    <path d="M 260.097091 318.04 
L 266.655636 318.04 
L 266.655636 264.632809 
L 260.097091 264.632809 
z
" clip-path="url(#pd79a58979e)" style="fill: #1f77b4; opacity: 0.7"/>
   </g>
   <g id="patch_31">
    <path d="M 266.655636 318.04 
L 273.214182 318.04 
L 273.214182 281.72152 
L 266.655636 281.72152 
z
" clip-path="url(#pd79a58979e)" style="fill: #1f77b4; opacity: 0.7"/>
   </g>
   <g id="patch_32">
    <path d="M 273.214182 318.04 
L 279.772727 318.04 
L 279.772727 290.662623 
L 273.214182 290.662623 
z
" clip-path="url(#pd79a58979e)" style="fill: #1f77b4; opacity: 0.7"/>
   </g>
   <g id="patch_33">
    <path d="M 279.772727 318.04 
L 286.331273 318.04 
L 286.331273 296.013974 
L 279.772727 296.013974 
z
" clip-path="url(#pd79a58979e)" style="fill: #1f77b4; opacity: 0.7"/>
   </g>
   <g id="patch_34">
    <path d="M 286.331273 318.04 
L 292.889818 318.04 
L 292.889818 303.729393 
L 286.331273 303.729393 
z
" clip-path="url(#pd79a58979e)" style="fill: #1f77b4; opacity: 0.7"/>
   </g>
   <g id="patch_35">
    <path d="M 292.889818 318.04 
L 299.448364 318.04 
L 299.448364 303.152855 
L 292.889818 303.152855 
z
" clip-path="url(#pd79a58979e)" style="fill: #1f77b4; opacity: 0.7"/>
   </g>
   <g id="patch_36">
    <path d="M 299.448364 318.04 
L 306.006909 318.04 
L 306.006909 309.254484 
L 299.448364 309.254484 
z
" clip-path="url(#pd79a58979e)" style="fill: #1f77b4; opacity: 0.7"/>
   </g>
   <g id="patch_37">
    <path d="M 306.006909 318.04 
L 312.565455 318.04 
L 312.565455 312.42415 
L 306.006909 312.42415 
z
" clip-path="url(#pd79a58979e)" style="fill: #1f77b4; opacity: 0.7"/>
   </g>
   <g id="patch_38">
    <path d="M 312.565455 318.04 
L 319.124 318.04 
L 319.124 308.697826 
L 312.565455 308.697826 
z
" clip-path="url(#pd79a58979e)" style="fill: #1f77b4; opacity: 0.7"/>
   </g>
   <g id="patch_39">
    <path d="M 319.124 318.04 
L 325.682545 318.04 
L 325.682545 305.631885 
L 319.124 305.631885 
z
" clip-path="url(#pd79a58979e)" style="fill: #1f77b4; opacity: 0.7"/>
   </g>
   <g id="patch_40">
    <path d="M 325.682545 318.04 
L 332.241091 318.04 
L 332.241091 312.569365 
L 325.682545 312.569365 
z
" clip-path="url(#pd79a58979e)" style="fill: #1f77b4; opacity: 0.7"/>
   </g>
   <g id="patch_41">
    <path d="M 332.241091 318.04 
L 338.799636 318.04 
L 338.799636 312.037774 
L 332.241091 312.037774 
z
" clip-path="url(#pd79a58979e)" style="fill: #1f77b4; opacity: 0.7"/>
   </g>
   <g id="patch_42">
    <path d="M 338.799636 318.04 
L 345.358182 318.04 
L 345.358182 316.762452 
L 338.799636 316.762452 
z
" clip-path="url(#pd79a58979e)" style="fill: #1f77b4; opacity: 0.7"/>
   </g>
   <g id="patch_43">
    <path d="M 345.358182 318.04 
L 351.916727 318.04 
L 351.916727 317.200691 
L 345.358182 317.200691 
z
" clip-path="url(#pd79a58979e)" style="fill: #1f77b4; opacity: 0.7"/>
   </g>
   <g id="patch_44">
    <path d="M 351.916727 318.04 
L 358.475273 318.04 
L 358.475273 316.52302 
L 351.916727 316.52302 
z
" clip-path="url(#pd79a58979e)" style="fill: #1f77b4; opacity: 0.7"/>
   </g>
   <g id="patch_45">
    <path d="M 358.475273 318.04 
L 365.033818 318.04 
L 365.033818 316.464243 
L 358.475273 316.464243 
z
" clip-path="url(#pd79a58979e)" style="fill: #1f77b4; opacity: 0.7"/>
   </g>
   <g id="patch_46">
    <path d="M 365.033818 318.04 
L 371.592364 318.04 
L 371.592364 316.932735 
L 365.033818 316.932735 
z
" clip-path="url(#pd79a58979e)" style="fill: #1f77b4; opacity: 0.7"/>
   </g>
   <g id="patch_47">
    <path d="M 371.592364 318.04 
L 378.150909 318.04 
L 378.150909 316.140102 
L 371.592364 316.140102 
z
" clip-path="url(#pd79a58979e)" style="fill: #1f77b4; opacity: 0.7"/>
   </g>
   <g id="patch_48">
    <path d="M 378.150909 318.04 
L 384.709455 318.04 
L 384.709455 315.854858 
L 378.150909 315.854858 
z
" clip-path="url(#pd79a58979e)" style="fill: #1f77b4; opacity: 0.7"/>
   </g>
   <g id="patch_49">
    <path d="M 384.709455 318.04 
L 391.268 318.04 
L 391.268 316.328536 
L 384.709455 316.328536 
z
" clip-path="url(#pd79a58979e)" style="fill: #1f77b4; opacity: 0.7"/>
   </g>
   <g id="patch_50">
    <path d="M 391.268 318.04 
L 397.826545 318.04 
L 397.826545 317.244774 
L 391.268 317.244774 
z
" clip-path="url(#pd79a58979e)" style="fill: #1f77b4; opacity: 0.7"/>
   </g>
   <g id="patch_51">
    <path d="M 397.826545 318.04 
L 404.385091 318.04 
L 404.385091 317.895649 
L 397.826545 317.895649 
z
" clip-path="url(#pd79a58979e)" style="fill: #1f77b4; opacity: 0.7"/>
   </g>
   <g id="patch_52">
    <path d="M 404.385091 318.04 
L 410.943636 318.04 
L 410.943636 317.843787 
L 404.385091 317.843787 
z
" clip-path="url(#pd79a58979e)" style="fill: #1f77b4; opacity: 0.7"/>
   </g>
   <g id="patch_53">
    <path d="M 83.016364 318.04 
L 89.574909 318.04 
L 89.574909 247.235809 
L 83.016364 247.235809 
z
" clip-path="url(#pd79a58979e)" style="fill: #ff7f0e; opacity: 0.7"/>
   </g>
   <g id="patch_54">
    <path d="M 89.574909 318.04 
L 96.133455 318.04 
L 96.133455 201.326319 
L 89.574909 201.326319 
z
" clip-path="url(#pd79a58979e)" style="fill: #ff7f0e; opacity: 0.7"/>
   </g>
   <g id="patch_55">
    <path d="M 96.133455 318.04 
L 102.692 318.04 
L 102.692 131.516108 
L 96.133455 131.516108 
z
" clip-path="url(#pd79a58979e)" style="fill: #ff7f0e; opacity: 0.7"/>
   </g>
   <g id="patch_56">
    <path d="M 102.692 318.04 
L 109.250545 318.04 
L 109.250545 65.806068 
L 102.692 65.806068 
z
" clip-path="url(#pd79a58979e)" style="fill: #ff7f0e; opacity: 0.7"/>
   </g>
   <g id="patch_57">
    <path d="M 109.250545 318.04 
L 115.809091 318.04 
L 115.809091 45.293919 
L 109.250545 45.293919 
z
" clip-path="url(#pd79a58979e)" style="fill: #ff7f0e; opacity: 0.7"/>
   </g>
   <g id="patch_58">
    <path d="M 115.809091 318.04 
L 122.367636 318.04 
L 122.367636 49.461861 
L 115.809091 49.461861 
z
" clip-path="url(#pd79a58979e)" style="fill: #ff7f0e; opacity: 0.7"/>
   </g>
   <g id="patch_59">
    <path d="M 122.367636 318.04 
L 128.926182 318.04 
L 128.926182 40.744762 
L 122.367636 40.744762 
z
" clip-path="url(#pd79a58979e)" style="fill: #ff7f0e; opacity: 0.7"/>
   </g>
   <g id="patch_60">
    <path d="M 128.926182 318.04 
L 135.484727 318.04 
L 135.484727 65.091645 
L 128.926182 65.091645 
z
" clip-path="url(#pd79a58979e)" style="fill: #ff7f0e; opacity: 0.7"/>
   </g>
   <g id="patch_61">
    <path d="M 135.484727 318.04 
L 142.043273 318.04 
L 142.043273 76.807629 
L 135.484727 76.807629 
z
" clip-path="url(#pd79a58979e)" style="fill: #ff7f0e; opacity: 0.7"/>
   </g>
   <g id="patch_62">
    <path d="M 142.043273 318.04 
L 148.601818 318.04 
L 148.601818 99.04795 
L 142.043273 99.04795 
z
" clip-path="url(#pd79a58979e)" style="fill: #ff7f0e; opacity: 0.7"/>
   </g>
   <g id="patch_63">
    <path d="M 148.601818 318.04 
L 155.160364 318.04 
L 155.160364 138.355374 
L 148.601818 138.355374 
z
" clip-path="url(#pd79a58979e)" style="fill: #ff7f0e; opacity: 0.7"/>
   </g>
   <g id="patch_64">
    <path d="M 155.160364 318.04 
L 161.718909 318.04 
L 161.718909 172.529113 
L 155.160364 172.529113 
z
" clip-path="url(#pd79a58979e)" style="fill: #ff7f0e; opacity: 0.7"/>
   </g>
   <g id="patch_65">
    <path d="M 161.718909 318.04 
L 168.277455 318.04 
L 168.277455 197.884095 
L 161.718909 197.884095 
z
" clip-path="url(#pd79a58979e)" style="fill: #ff7f0e; opacity: 0.7"/>
   </g>
   <g id="patch_66">
    <path d="M 168.277455 318.04 
L 174.836 318.04 
L 174.836 235.288272 
L 168.277455 235.288272 
z
" clip-path="url(#pd79a58979e)" style="fill: #ff7f0e; opacity: 0.7"/>
   </g>
   <g id="patch_67">
    <path d="M 174.836 318.04 
L 181.394545 318.04 
L 181.394545 254.744317 
L 174.836 254.744317 
z
" clip-path="url(#pd79a58979e)" style="fill: #ff7f0e; opacity: 0.7"/>
   </g>
   <g id="patch_68">
    <path d="M 181.394545 318.04 
L 187.953091 318.04 
L 187.953091 269.269992 
L 181.394545 269.269992 
z
" clip-path="url(#pd79a58979e)" style="fill: #ff7f0e; opacity: 0.7"/>
   </g>
   <g id="patch_69">
    <path d="M 187.953091 318.04 
L 194.511636 318.04 
L 194.511636 268.120701 
L 187.953091 268.120701 
z
" clip-path="url(#pd79a58979e)" style="fill: #ff7f0e; opacity: 0.7"/>
   </g>
   <g id="patch_70">
    <path d="M 194.511636 318.04 
L 201.070182 318.04 
L 201.070182 275.696981 
L 194.511636 275.696981 
z
" clip-path="url(#pd79a58979e)" style="fill: #ff7f0e; opacity: 0.7"/>
   </g>
   <g id="patch_71">
    <path d="M 201.070182 318.04 
L 207.628727 318.04 
L 207.628727 282.2934 
L 201.070182 282.2934 
z
" clip-path="url(#pd79a58979e)" style="fill: #ff7f0e; opacity: 0.7"/>
   </g>
   <g id="patch_72">
    <path d="M 207.628727 318.04 
L 214.187273 318.04 
L 214.187273 279.785857 
L 207.628727 279.785857 
z
" clip-path="url(#pd79a58979e)" style="fill: #ff7f0e; opacity: 0.7"/>
   </g>
   <g id="patch_73">
    <path d="M 214.187273 318.04 
L 220.745818 318.04 
L 220.745818 282.420471 
L 214.187273 282.420471 
z
" clip-path="url(#pd79a58979e)" style="fill: #ff7f0e; opacity: 0.7"/>
   </g>
   <g id="patch_74">
    <path d="M 220.745818 318.04 
L 227.304364 318.04 
L 227.304364 277.444919 
L 220.745818 277.444919 
z
" clip-path="url(#pd79a58979e)" style="fill: #ff7f0e; opacity: 0.7"/>
   </g>
   <g id="patch_75">
    <path d="M 227.304364 318.04 
L 233.862909 318.04 
L 233.862909 264.830964 
L 227.304364 264.830964 
z
" clip-path="url(#pd79a58979e)" style="fill: #ff7f0e; opacity: 0.7"/>
   </g>
   <g id="patch_76">
    <path d="M 233.862909 318.04 
L 240.421455 318.04 
L 240.421455 250.517075 
L 233.862909 250.517075 
z
" clip-path="url(#pd79a58979e)" style="fill: #ff7f0e; opacity: 0.7"/>
   </g>
   <g id="patch_77">
    <path d="M 240.421455 318.04 
L 246.98 318.04 
L 246.98 235.087781 
L 240.421455 235.087781 
z
" clip-path="url(#pd79a58979e)" style="fill: #ff7f0e; opacity: 0.7"/>
   </g>
   <g id="patch_78">
    <path d="M 246.98 318.04 
L 253.538545 318.04 
L 253.538545 228.545016 
L 246.98 228.545016 
z
" clip-path="url(#pd79a58979e)" style="fill: #ff7f0e; opacity: 0.7"/>
   </g>
   <g id="patch_79">
    <path d="M 253.538545 318.04 
L 260.097091 318.04 
L 260.097091 236.321786 
L 253.538545 236.321786 
z
" clip-path="url(#pd79a58979e)" style="fill: #ff7f0e; opacity: 0.7"/>
   </g>
   <g id="patch_80">
    <path d="M 260.097091 318.04 
L 266.655636 318.04 
L 266.655636 260.12085 
L 260.097091 260.12085 
z
" clip-path="url(#pd79a58979e)" style="fill: #ff7f0e; opacity: 0.7"/>
   </g>
   <g id="patch_81">
    <path d="M 266.655636 318.04 
L 273.214182 318.04 
L 273.214182 278.077452 
L 266.655636 278.077452 
z
" clip-path="url(#pd79a58979e)" style="fill: #ff7f0e; opacity: 0.7"/>
   </g>
   <g id="patch_82">
    <path d="M 273.214182 318.04 
L 279.772727 318.04 
L 279.772727 288.790984 
L 273.214182 288.790984 
z
" clip-path="url(#pd79a58979e)" style="fill: #ff7f0e; opacity: 0.7"/>
   </g>
   <g id="patch_83">
    <path d="M 279.772727 318.04 
L 286.331273 318.04 
L 286.331273 294.252231 
L 279.772727 294.252231 
z
" clip-path="url(#pd79a58979e)" style="fill: #ff7f0e; opacity: 0.7"/>
   </g>
   <g id="patch_84">
    <path d="M 286.331273 318.04 
L 292.889818 318.04 
L 292.889818 302.31703 
L 286.331273 302.31703 
z
" clip-path="url(#pd79a58979e)" style="fill: #ff7f0e; opacity: 0.7"/>
   </g>
   <g id="patch_85">
    <path d="M 292.889818 318.04 
L 299.448364 318.04 
L 299.448364 302.492107 
L 292.889818 302.492107 
z
" clip-path="url(#pd79a58979e)" style="fill: #ff7f0e; opacity: 0.7"/>
   </g>
   <g id="patch_86">
    <path d="M 299.448364 318.04 
L 306.006909 318.04 
L 306.006909 308.50682 
L 299.448364 308.50682 
z
" clip-path="url(#pd79a58979e)" style="fill: #ff7f0e; opacity: 0.7"/>
   </g>
   <g id="patch_87">
    <path d="M 306.006909 318.04 
L 312.565455 318.04 
L 312.565455 311.404048 
L 306.006909 311.404048 
z
" clip-path="url(#pd79a58979e)" style="fill: #ff7f0e; opacity: 0.7"/>
   </g>
   <g id="patch_88">
    <path d="M 312.565455 318.04 
L 319.124 318.04 
L 319.124 309.181711 
L 312.565455 309.181711 
z
" clip-path="url(#pd79a58979e)" style="fill: #ff7f0e; opacity: 0.7"/>
   </g>
   <g id="patch_89">
    <path d="M 319.124 318.04 
L 325.682545 318.04 
L 325.682545 303.822121 
L 319.124 303.822121 
z
" clip-path="url(#pd79a58979e)" style="fill: #ff7f0e; opacity: 0.7"/>
   </g>
   <g id="patch_90">
    <path d="M 325.682545 318.04 
L 332.241091 318.04 
L 332.241091 312.290725 
L 325.682545 312.290725 
z
" clip-path="url(#pd79a58979e)" style="fill: #ff7f0e; opacity: 0.7"/>
   </g>
   <g id="patch_91">
    <path d="M 332.241091 318.04 
L 338.799636 318.04 
L 338.799636 311.971634 
L 332.241091 311.971634 
z
" clip-path="url(#pd79a58979e)" style="fill: #ff7f0e; opacity: 0.7"/>
   </g>
   <g id="patch_92">
    <path d="M 338.799636 318.04 
L 345.358182 318.04 
L 345.358182 316.486905 
L 338.799636 316.486905 
z
" clip-path="url(#pd79a58979e)" style="fill: #ff7f0e; opacity: 0.7"/>
   </g>
   <g id="patch_93">
    <path d="M 345.358182 318.04 
L 351.916727 318.04 
L 351.916727 316.966953 
L 345.358182 316.966953 
z
" clip-path="url(#pd79a58979e)" style="fill: #ff7f0e; opacity: 0.7"/>
   </g>
   <g id="patch_94">
    <path d="M 351.916727 318.04 
L 358.475273 318.04 
L 358.475273 315.509867 
L 351.916727 315.509867 
z
" clip-path="url(#pd79a58979e)" style="fill: #ff7f0e; opacity: 0.7"/>
   </g>
   <g id="patch_95">
    <path d="M 358.475273 318.04 
L 365.033818 318.04 
L 365.033818 315.854372 
L 358.475273 315.854372 
z
" clip-path="url(#pd79a58979e)" style="fill: #ff7f0e; opacity: 0.7"/>
   </g>
   <g id="patch_96">
    <path d="M 365.033818 318.04 
L 371.592364 318.04 
L 371.592364 315.351734 
L 365.033818 315.351734 
z
" clip-path="url(#pd79a58979e)" style="fill: #ff7f0e; opacity: 0.7"/>
   </g>
   <g id="patch_97">
    <path d="M 371.592364 318.04 
L 378.150909 318.04 
L 378.150909 314.191148 
L 371.592364 314.191148 
z
" clip-path="url(#pd79a58979e)" style="fill: #ff7f0e; opacity: 0.7"/>
   </g>
   <g id="patch_98">
    <path d="M 378.150909 318.04 
L 384.709455 318.04 
L 384.709455 315.416681 
L 378.150909 315.416681 
z
" clip-path="url(#pd79a58979e)" style="fill: #ff7f0e; opacity: 0.7"/>
   </g>
   <g id="patch_99">
    <path d="M 384.709455 318.04 
L 391.268 318.04 
L 391.268 316.554676 
L 384.709455 316.554676 
z
" clip-path="url(#pd79a58979e)" style="fill: #ff7f0e; opacity: 0.7"/>
   </g>
   <g id="patch_100">
    <path d="M 391.268 318.04 
L 397.826545 318.04 
L 397.826545 317.291691 
L 391.268 317.291691 
z
" clip-path="url(#pd79a58979e)" style="fill: #ff7f0e; opacity: 0.7"/>
   </g>
   <g id="patch_101">
    <path d="M 397.826545 318.04 
L 404.385091 318.04 
L 404.385091 317.551481 
L 397.826545 317.551481 
z
" clip-path="url(#pd79a58979e)" style="fill: #ff7f0e; opacity: 0.7"/>
   </g>
   <g id="patch_102">
    <path d="M 404.385091 318.04 
L 410.943636 318.04 
L 410.943636 317.678552 
L 404.385091 317.678552 
z
" clip-path="url(#pd79a58979e)" style="fill: #ff7f0e; opacity: 0.7"/>
   </g>
   <g id="matplotlib.axis_1">
    <g id="xtick_1">
     <g id="line2d_1">
      <defs>
       <path id="m6830f26496" d="M 0 0 
L 0 3.5 
" style="stroke: #000000; stroke-width: 0.8"/>
      </defs>
      <g>
       <use xlink:href="#m6830f26496" x="83.016364" y="318.04" style="stroke: #000000; stroke-width: 0.8"/>
      </g>
     </g>
     <g id="text_1">
      <!-- 0 -->
      <g transform="translate(79.835114 332.638438) scale(0.1 -0.1)">
       <defs>
        <path id="DejaVuSans-30" d="M 2034 4250 
Q 1547 4250 1301 3770 
Q 1056 3291 1056 2328 
Q 1056 1369 1301 889 
Q 1547 409 2034 409 
Q 2525 409 2770 889 
Q 3016 1369 3016 2328 
Q 3016 3291 2770 3770 
Q 2525 4250 2034 4250 
z
M 2034 4750 
Q 2819 4750 3233 4129 
Q 3647 3509 3647 2328 
Q 3647 1150 3233 529 
Q 2819 -91 2034 -91 
Q 1250 -91 836 529 
Q 422 1150 422 2328 
Q 422 3509 836 4129 
Q 1250 4750 2034 4750 
z
" transform="scale(0.015625)"/>
       </defs>
       <use xlink:href="#DejaVuSans-30"/>
      </g>
     </g>
    </g>
    <g id="xtick_2">
     <g id="line2d_2">
      <g>
       <use xlink:href="#m6830f26496" x="134.897935" y="318.04" style="stroke: #000000; stroke-width: 0.8"/>
      </g>
     </g>
     <g id="text_2">
      <!-- 500 -->
      <g transform="translate(125.354185 332.638438) scale(0.1 -0.1)">
       <defs>
        <path id="DejaVuSans-35" d="M 691 4666 
L 3169 4666 
L 3169 4134 
L 1269 4134 
L 1269 2991 
Q 1406 3038 1543 3061 
Q 1681 3084 1819 3084 
Q 2600 3084 3056 2656 
Q 3513 2228 3513 1497 
Q 3513 744 3044 326 
Q 2575 -91 1722 -91 
Q 1428 -91 1123 -41 
Q 819 9 494 109 
L 494 744 
Q 775 591 1075 516 
Q 1375 441 1709 441 
Q 2250 441 2565 725 
Q 2881 1009 2881 1497 
Q 2881 1984 2565 2268 
Q 2250 2553 1709 2553 
Q 1456 2553 1204 2497 
Q 953 2441 691 2322 
L 691 4666 
z
" transform="scale(0.015625)"/>
       </defs>
       <use xlink:href="#DejaVuSans-35"/>
       <use xlink:href="#DejaVuSans-30" transform="translate(63.623047 0)"/>
       <use xlink:href="#DejaVuSans-30" transform="translate(127.246094 0)"/>
      </g>
     </g>
    </g>
    <g id="xtick_3">
     <g id="line2d_3">
      <g>
       <use xlink:href="#m6830f26496" x="186.779507" y="318.04" style="stroke: #000000; stroke-width: 0.8"/>
      </g>
     </g>
     <g id="text_3">
      <!-- 1000 -->
      <g transform="translate(174.054507 332.638438) scale(0.1 -0.1)">
       <defs>
        <path id="DejaVuSans-31" d="M 794 531 
L 1825 531 
L 1825 4091 
L 703 3866 
L 703 4441 
L 1819 4666 
L 2450 4666 
L 2450 531 
L 3481 531 
L 3481 0 
L 794 0 
L 794 531 
z
" transform="scale(0.015625)"/>
       </defs>
       <use xlink:href="#DejaVuSans-31"/>
       <use xlink:href="#DejaVuSans-30" transform="translate(63.623047 0)"/>
       <use xlink:href="#DejaVuSans-30" transform="translate(127.246094 0)"/>
       <use xlink:href="#DejaVuSans-30" transform="translate(190.869141 0)"/>
      </g>
     </g>
    </g>
    <g id="xtick_4">
     <g id="line2d_4">
      <g>
       <use xlink:href="#m6830f26496" x="238.661078" y="318.04" style="stroke: #000000; stroke-width: 0.8"/>
      </g>
     </g>
     <g id="text_4">
      <!-- 1500 -->
      <g transform="translate(225.936078 332.638438) scale(0.1 -0.1)">
       <use xlink:href="#DejaVuSans-31"/>
       <use xlink:href="#DejaVuSans-35" transform="translate(63.623047 0)"/>
       <use xlink:href="#DejaVuSans-30" transform="translate(127.246094 0)"/>
       <use xlink:href="#DejaVuSans-30" transform="translate(190.869141 0)"/>
      </g>
     </g>
    </g>
    <g id="xtick_5">
     <g id="line2d_5">
      <g>
       <use xlink:href="#m6830f26496" x="290.54265" y="318.04" style="stroke: #000000; stroke-width: 0.8"/>
      </g>
     </g>
     <g id="text_5">
      <!-- 2000 -->
      <g transform="translate(277.81765 332.638438) scale(0.1 -0.1)">
       <defs>
        <path id="DejaVuSans-32" d="M 1228 531 
L 3431 531 
L 3431 0 
L 469 0 
L 469 531 
Q 828 903 1448 1529 
Q 2069 2156 2228 2338 
Q 2531 2678 2651 2914 
Q 2772 3150 2772 3378 
Q 2772 3750 2511 3984 
Q 2250 4219 1831 4219 
Q 1534 4219 1204 4116 
Q 875 4013 500 3803 
L 500 4441 
Q 881 4594 1212 4672 
Q 1544 4750 1819 4750 
Q 2544 4750 2975 4387 
Q 3406 4025 3406 3419 
Q 3406 3131 3298 2873 
Q 3191 2616 2906 2266 
Q 2828 2175 2409 1742 
Q 1991 1309 1228 531 
z
" transform="scale(0.015625)"/>
       </defs>
       <use xlink:href="#DejaVuSans-32"/>
       <use xlink:href="#DejaVuSans-30" transform="translate(63.623047 0)"/>
       <use xlink:href="#DejaVuSans-30" transform="translate(127.246094 0)"/>
       <use xlink:href="#DejaVuSans-30" transform="translate(190.869141 0)"/>
      </g>
     </g>
    </g>
    <g id="xtick_6">
     <g id="line2d_6">
      <g>
       <use xlink:href="#m6830f26496" x="342.424221" y="318.04" style="stroke: #000000; stroke-width: 0.8"/>
      </g>
     </g>
     <g id="text_6">
      <!-- 2500 -->
      <g transform="translate(329.699221 332.638438) scale(0.1 -0.1)">
       <use xlink:href="#DejaVuSans-32"/>
       <use xlink:href="#DejaVuSans-35" transform="translate(63.623047 0)"/>
       <use xlink:href="#DejaVuSans-30" transform="translate(127.246094 0)"/>
       <use xlink:href="#DejaVuSans-30" transform="translate(190.869141 0)"/>
      </g>
     </g>
    </g>
    <g id="xtick_7">
     <g id="line2d_7">
      <g>
       <use xlink:href="#m6830f26496" x="394.305793" y="318.04" style="stroke: #000000; stroke-width: 0.8"/>
      </g>
     </g>
     <g id="text_7">
      <!-- 3000 -->
      <g transform="translate(381.580793 332.638438) scale(0.1 -0.1)">
       <defs>
        <path id="DejaVuSans-33" d="M 2597 2516 
Q 3050 2419 3304 2112 
Q 3559 1806 3559 1356 
Q 3559 666 3084 287 
Q 2609 -91 1734 -91 
Q 1441 -91 1130 -33 
Q 819 25 488 141 
L 488 750 
Q 750 597 1062 519 
Q 1375 441 1716 441 
Q 2309 441 2620 675 
Q 2931 909 2931 1356 
Q 2931 1769 2642 2001 
Q 2353 2234 1838 2234 
L 1294 2234 
L 1294 2753 
L 1863 2753 
Q 2328 2753 2575 2939 
Q 2822 3125 2822 3475 
Q 2822 3834 2567 4026 
Q 2313 4219 1838 4219 
Q 1578 4219 1281 4162 
Q 984 4106 628 3988 
L 628 4550 
Q 988 4650 1302 4700 
Q 1616 4750 1894 4750 
Q 2613 4750 3031 4423 
Q 3450 4097 3450 3541 
Q 3450 3153 3228 2886 
Q 3006 2619 2597 2516 
z
" transform="scale(0.015625)"/>
       </defs>
       <use xlink:href="#DejaVuSans-33"/>
       <use xlink:href="#DejaVuSans-30" transform="translate(63.623047 0)"/>
       <use xlink:href="#DejaVuSans-30" transform="translate(127.246094 0)"/>
       <use xlink:href="#DejaVuSans-30" transform="translate(190.869141 0)"/>
      </g>
     </g>
    </g>
    <g id="text_8">
     <!-- Pairwise distance (μm) -->
     <g transform="translate(190.204219 346.316563) scale(0.1 -0.1)">
      <defs>
       <path id="DejaVuSans-50" d="M 1259 4147 
L 1259 2394 
L 2053 2394 
Q 2494 2394 2734 2622 
Q 2975 2850 2975 3272 
Q 2975 3691 2734 3919 
Q 2494 4147 2053 4147 
L 1259 4147 
z
M 628 4666 
L 2053 4666 
Q 2838 4666 3239 4311 
Q 3641 3956 3641 3272 
Q 3641 2581 3239 2228 
Q 2838 1875 2053 1875 
L 1259 1875 
L 1259 0 
L 628 0 
L 628 4666 
z
" transform="scale(0.015625)"/>
       <path id="DejaVuSans-61" d="M 2194 1759 
Q 1497 1759 1228 1600 
Q 959 1441 959 1056 
Q 959 750 1161 570 
Q 1363 391 1709 391 
Q 2188 391 2477 730 
Q 2766 1069 2766 1631 
L 2766 1759 
L 2194 1759 
z
M 3341 1997 
L 3341 0 
L 2766 0 
L 2766 531 
Q 2569 213 2275 61 
Q 1981 -91 1556 -91 
Q 1019 -91 701 211 
Q 384 513 384 1019 
Q 384 1609 779 1909 
Q 1175 2209 1959 2209 
L 2766 2209 
L 2766 2266 
Q 2766 2663 2505 2880 
Q 2244 3097 1772 3097 
Q 1472 3097 1187 3025 
Q 903 2953 641 2809 
L 641 3341 
Q 956 3463 1253 3523 
Q 1550 3584 1831 3584 
Q 2591 3584 2966 3190 
Q 3341 2797 3341 1997 
z
" transform="scale(0.015625)"/>
       <path id="DejaVuSans-69" d="M 603 3500 
L 1178 3500 
L 1178 0 
L 603 0 
L 603 3500 
z
M 603 4863 
L 1178 4863 
L 1178 4134 
L 603 4134 
L 603 4863 
z
" transform="scale(0.015625)"/>
       <path id="DejaVuSans-72" d="M 2631 2963 
Q 2534 3019 2420 3045 
Q 2306 3072 2169 3072 
Q 1681 3072 1420 2755 
Q 1159 2438 1159 1844 
L 1159 0 
L 581 0 
L 581 3500 
L 1159 3500 
L 1159 2956 
Q 1341 3275 1631 3429 
Q 1922 3584 2338 3584 
Q 2397 3584 2469 3576 
Q 2541 3569 2628 3553 
L 2631 2963 
z
" transform="scale(0.015625)"/>
       <path id="DejaVuSans-77" d="M 269 3500 
L 844 3500 
L 1563 769 
L 2278 3500 
L 2956 3500 
L 3675 769 
L 4391 3500 
L 4966 3500 
L 4050 0 
L 3372 0 
L 2619 2869 
L 1863 0 
L 1184 0 
L 269 3500 
z
" transform="scale(0.015625)"/>
       <path id="DejaVuSans-73" d="M 2834 3397 
L 2834 2853 
Q 2591 2978 2328 3040 
Q 2066 3103 1784 3103 
Q 1356 3103 1142 2972 
Q 928 2841 928 2578 
Q 928 2378 1081 2264 
Q 1234 2150 1697 2047 
L 1894 2003 
Q 2506 1872 2764 1633 
Q 3022 1394 3022 966 
Q 3022 478 2636 193 
Q 2250 -91 1575 -91 
Q 1294 -91 989 -36 
Q 684 19 347 128 
L 347 722 
Q 666 556 975 473 
Q 1284 391 1588 391 
Q 1994 391 2212 530 
Q 2431 669 2431 922 
Q 2431 1156 2273 1281 
Q 2116 1406 1581 1522 
L 1381 1569 
Q 847 1681 609 1914 
Q 372 2147 372 2553 
Q 372 3047 722 3315 
Q 1072 3584 1716 3584 
Q 2034 3584 2315 3537 
Q 2597 3491 2834 3397 
z
" transform="scale(0.015625)"/>
       <path id="DejaVuSans-65" d="M 3597 1894 
L 3597 1613 
L 953 1613 
Q 991 1019 1311 708 
Q 1631 397 2203 397 
Q 2534 397 2845 478 
Q 3156 559 3463 722 
L 3463 178 
Q 3153 47 2828 -22 
Q 2503 -91 2169 -91 
Q 1331 -91 842 396 
Q 353 884 353 1716 
Q 353 2575 817 3079 
Q 1281 3584 2069 3584 
Q 2775 3584 3186 3129 
Q 3597 2675 3597 1894 
z
M 3022 2063 
Q 3016 2534 2758 2815 
Q 2500 3097 2075 3097 
Q 1594 3097 1305 2825 
Q 1016 2553 972 2059 
L 3022 2063 
z
" transform="scale(0.015625)"/>
       <path id="DejaVuSans-20" transform="scale(0.015625)"/>
       <path id="DejaVuSans-64" d="M 2906 2969 
L 2906 4863 
L 3481 4863 
L 3481 0 
L 2906 0 
L 2906 525 
Q 2725 213 2448 61 
Q 2172 -91 1784 -91 
Q 1150 -91 751 415 
Q 353 922 353 1747 
Q 353 2572 751 3078 
Q 1150 3584 1784 3584 
Q 2172 3584 2448 3432 
Q 2725 3281 2906 2969 
z
M 947 1747 
Q 947 1113 1208 752 
Q 1469 391 1925 391 
Q 2381 391 2643 752 
Q 2906 1113 2906 1747 
Q 2906 2381 2643 2742 
Q 2381 3103 1925 3103 
Q 1469 3103 1208 2742 
Q 947 2381 947 1747 
z
" transform="scale(0.015625)"/>
       <path id="DejaVuSans-74" d="M 1172 4494 
L 1172 3500 
L 2356 3500 
L 2356 3053 
L 1172 3053 
L 1172 1153 
Q 1172 725 1289 603 
Q 1406 481 1766 481 
L 2356 481 
L 2356 0 
L 1766 0 
Q 1100 0 847 248 
Q 594 497 594 1153 
L 594 3053 
L 172 3053 
L 172 3500 
L 594 3500 
L 594 4494 
L 1172 4494 
z
" transform="scale(0.015625)"/>
       <path id="DejaVuSans-6e" d="M 3513 2113 
L 3513 0 
L 2938 0 
L 2938 2094 
Q 2938 2591 2744 2837 
Q 2550 3084 2163 3084 
Q 1697 3084 1428 2787 
Q 1159 2491 1159 1978 
L 1159 0 
L 581 0 
L 581 3500 
L 1159 3500 
L 1159 2956 
Q 1366 3272 1645 3428 
Q 1925 3584 2291 3584 
Q 2894 3584 3203 3211 
Q 3513 2838 3513 2113 
z
" transform="scale(0.015625)"/>
       <path id="DejaVuSans-63" d="M 3122 3366 
L 3122 2828 
Q 2878 2963 2633 3030 
Q 2388 3097 2138 3097 
Q 1578 3097 1268 2742 
Q 959 2388 959 1747 
Q 959 1106 1268 751 
Q 1578 397 2138 397 
Q 2388 397 2633 464 
Q 2878 531 3122 666 
L 3122 134 
Q 2881 22 2623 -34 
Q 2366 -91 2075 -91 
Q 1284 -91 818 406 
Q 353 903 353 1747 
Q 353 2603 823 3093 
Q 1294 3584 2113 3584 
Q 2378 3584 2631 3529 
Q 2884 3475 3122 3366 
z
" transform="scale(0.015625)"/>
       <path id="DejaVuSans-28" d="M 1984 4856 
Q 1566 4138 1362 3434 
Q 1159 2731 1159 2009 
Q 1159 1288 1364 580 
Q 1569 -128 1984 -844 
L 1484 -844 
Q 1016 -109 783 600 
Q 550 1309 550 2009 
Q 550 2706 781 3412 
Q 1013 4119 1484 4856 
L 1984 4856 
z
" transform="scale(0.015625)"/>
       <path id="DejaVuSans-3bc" d="M 544 -1331 
L 544 3500 
L 1119 3500 
L 1119 1325 
Q 1119 872 1334 640 
Q 1550 409 1972 409 
Q 2434 409 2667 671 
Q 2900 934 2900 1459 
L 2900 3500 
L 3475 3500 
L 3475 806 
Q 3475 619 3529 530 
Q 3584 441 3700 441 
Q 3728 441 3778 458 
Q 3828 475 3916 513 
L 3916 50 
Q 3788 -22 3673 -56 
Q 3559 -91 3450 -91 
Q 3234 -91 3106 31 
Q 2978 153 2931 403 
Q 2775 156 2548 32 
Q 2322 -91 2016 -91 
Q 1697 -91 1473 31 
Q 1250 153 1119 397 
L 1119 -1331 
L 544 -1331 
z
" transform="scale(0.015625)"/>
       <path id="DejaVuSans-6d" d="M 3328 2828 
Q 3544 3216 3844 3400 
Q 4144 3584 4550 3584 
Q 5097 3584 5394 3201 
Q 5691 2819 5691 2113 
L 5691 0 
L 5113 0 
L 5113 2094 
Q 5113 2597 4934 2840 
Q 4756 3084 4391 3084 
Q 3944 3084 3684 2787 
Q 3425 2491 3425 1978 
L 3425 0 
L 2847 0 
L 2847 2094 
Q 2847 2600 2669 2842 
Q 2491 3084 2119 3084 
Q 1678 3084 1418 2786 
Q 1159 2488 1159 1978 
L 1159 0 
L 581 0 
L 581 3500 
L 1159 3500 
L 1159 2956 
Q 1356 3278 1631 3431 
Q 1906 3584 2284 3584 
Q 2666 3584 2933 3390 
Q 3200 3197 3328 2828 
z
" transform="scale(0.015625)"/>
       <path id="DejaVuSans-29" d="M 513 4856 
L 1013 4856 
Q 1481 4119 1714 3412 
Q 1947 2706 1947 2009 
Q 1947 1309 1714 600 
Q 1481 -109 1013 -844 
L 513 -844 
Q 928 -128 1133 580 
Q 1338 1288 1338 2009 
Q 1338 2731 1133 3434 
Q 928 4138 513 4856 
z
" transform="scale(0.015625)"/>
      </defs>
      <use xlink:href="#DejaVuSans-50"/>
      <use xlink:href="#DejaVuSans-61" transform="translate(55.802734 0)"/>
      <use xlink:href="#DejaVuSans-69" transform="translate(117.082031 0)"/>
      <use xlink:href="#DejaVuSans-72" transform="translate(144.865234 0)"/>
      <use xlink:href="#DejaVuSans-77" transform="translate(185.978516 0)"/>
      <use xlink:href="#DejaVuSans-69" transform="translate(267.765625 0)"/>
      <use xlink:href="#DejaVuSans-73" transform="translate(295.548828 0)"/>
      <use xlink:href="#DejaVuSans-65" transform="translate(347.648438 0)"/>
      <use xlink:href="#DejaVuSans-20" transform="translate(409.171875 0)"/>
      <use xlink:href="#DejaVuSans-64" transform="translate(440.958984 0)"/>
      <use xlink:href="#DejaVuSans-69" transform="translate(504.435547 0)"/>
      <use xlink:href="#DejaVuSans-73" transform="translate(532.21875 0)"/>
      <use xlink:href="#DejaVuSans-74" transform="translate(584.318359 0)"/>
      <use xlink:href="#DejaVuSans-61" transform="translate(623.527344 0)"/>
      <use xlink:href="#DejaVuSans-6e" transform="translate(684.806641 0)"/>
      <use xlink:href="#DejaVuSans-63" transform="translate(748.185547 0)"/>
      <use xlink:href="#DejaVuSans-65" transform="translate(803.166016 0)"/>
      <use xlink:href="#DejaVuSans-20" transform="translate(864.689453 0)"/>
      <use xlink:href="#DejaVuSans-28" transform="translate(896.476562 0)"/>
      <use xlink:href="#DejaVuSans-3bc" transform="translate(935.490234 0)"/>
      <use xlink:href="#DejaVuSans-6d" transform="translate(999.113281 0)"/>
      <use xlink:href="#DejaVuSans-29" transform="translate(1096.525391 0)"/>
     </g>
    </g>
   </g>
   <g id="matplotlib.axis_2">
    <g id="ytick_1">
     <g id="line2d_8">
      <defs>
       <path id="m1e1ae73ad4" d="M 0 0 
L -3.5 0 
" style="stroke: #000000; stroke-width: 0.8"/>
      </defs>
      <g>
       <use xlink:href="#m1e1ae73ad4" x="66.62" y="318.04" style="stroke: #000000; stroke-width: 0.8"/>
      </g>
     </g>
     <g id="text_9">
      <!-- 0.0000 -->
      <g transform="translate(24.629375 321.839219) scale(0.1 -0.1)">
       <defs>
        <path id="DejaVuSans-2e" d="M 684 794 
L 1344 794 
L 1344 0 
L 684 0 
L 684 794 
z
" transform="scale(0.015625)"/>
       </defs>
       <use xlink:href="#DejaVuSans-30"/>
       <use xlink:href="#DejaVuSans-2e" transform="translate(63.623047 0)"/>
       <use xlink:href="#DejaVuSans-30" transform="translate(95.410156 0)"/>
       <use xlink:href="#DejaVuSans-30" transform="translate(159.033203 0)"/>
       <use xlink:href="#DejaVuSans-30" transform="translate(222.65625 0)"/>
       <use xlink:href="#DejaVuSans-30" transform="translate(286.279297 0)"/>
      </g>
     </g>
    </g>
    <g id="ytick_2">
     <g id="line2d_9">
      <g>
       <use xlink:href="#m1e1ae73ad4" x="66.62" y="271.665737" style="stroke: #000000; stroke-width: 0.8"/>
      </g>
     </g>
     <g id="text_10">
      <!-- 0.0002 -->
      <g transform="translate(24.629375 275.464956) scale(0.1 -0.1)">
       <use xlink:href="#DejaVuSans-30"/>
       <use xlink:href="#DejaVuSans-2e" transform="translate(63.623047 0)"/>
       <use xlink:href="#DejaVuSans-30" transform="translate(95.410156 0)"/>
       <use xlink:href="#DejaVuSans-30" transform="translate(159.033203 0)"/>
       <use xlink:href="#DejaVuSans-30" transform="translate(222.65625 0)"/>
       <use xlink:href="#DejaVuSans-32" transform="translate(286.279297 0)"/>
      </g>
     </g>
    </g>
    <g id="ytick_3">
     <g id="line2d_10">
      <g>
       <use xlink:href="#m1e1ae73ad4" x="66.62" y="225.291474" style="stroke: #000000; stroke-width: 0.8"/>
      </g>
     </g>
     <g id="text_11">
      <!-- 0.0004 -->
      <g transform="translate(24.629375 229.090693) scale(0.1 -0.1)">
       <defs>
        <path id="DejaVuSans-34" d="M 2419 4116 
L 825 1625 
L 2419 1625 
L 2419 4116 
z
M 2253 4666 
L 3047 4666 
L 3047 1625 
L 3713 1625 
L 3713 1100 
L 3047 1100 
L 3047 0 
L 2419 0 
L 2419 1100 
L 313 1100 
L 313 1709 
L 2253 4666 
z
" transform="scale(0.015625)"/>
       </defs>
       <use xlink:href="#DejaVuSans-30"/>
       <use xlink:href="#DejaVuSans-2e" transform="translate(63.623047 0)"/>
       <use xlink:href="#DejaVuSans-30" transform="translate(95.410156 0)"/>
       <use xlink:href="#DejaVuSans-30" transform="translate(159.033203 0)"/>
       <use xlink:href="#DejaVuSans-30" transform="translate(222.65625 0)"/>
       <use xlink:href="#DejaVuSans-34" transform="translate(286.279297 0)"/>
      </g>
     </g>
    </g>
    <g id="ytick_4">
     <g id="line2d_11">
      <g>
       <use xlink:href="#m1e1ae73ad4" x="66.62" y="178.917211" style="stroke: #000000; stroke-width: 0.8"/>
      </g>
     </g>
     <g id="text_12">
      <!-- 0.0006 -->
      <g transform="translate(24.629375 182.71643) scale(0.1 -0.1)">
       <defs>
        <path id="DejaVuSans-36" d="M 2113 2584 
Q 1688 2584 1439 2293 
Q 1191 2003 1191 1497 
Q 1191 994 1439 701 
Q 1688 409 2113 409 
Q 2538 409 2786 701 
Q 3034 994 3034 1497 
Q 3034 2003 2786 2293 
Q 2538 2584 2113 2584 
z
M 3366 4563 
L 3366 3988 
Q 3128 4100 2886 4159 
Q 2644 4219 2406 4219 
Q 1781 4219 1451 3797 
Q 1122 3375 1075 2522 
Q 1259 2794 1537 2939 
Q 1816 3084 2150 3084 
Q 2853 3084 3261 2657 
Q 3669 2231 3669 1497 
Q 3669 778 3244 343 
Q 2819 -91 2113 -91 
Q 1303 -91 875 529 
Q 447 1150 447 2328 
Q 447 3434 972 4092 
Q 1497 4750 2381 4750 
Q 2619 4750 2861 4703 
Q 3103 4656 3366 4563 
z
" transform="scale(0.015625)"/>
       </defs>
       <use xlink:href="#DejaVuSans-30"/>
       <use xlink:href="#DejaVuSans-2e" transform="translate(63.623047 0)"/>
       <use xlink:href="#DejaVuSans-30" transform="translate(95.410156 0)"/>
       <use xlink:href="#DejaVuSans-30" transform="translate(159.033203 0)"/>
       <use xlink:href="#DejaVuSans-30" transform="translate(222.65625 0)"/>
       <use xlink:href="#DejaVuSans-36" transform="translate(286.279297 0)"/>
      </g>
     </g>
    </g>
    <g id="ytick_5">
     <g id="line2d_12">
      <g>
       <use xlink:href="#m1e1ae73ad4" x="66.62" y="132.542949" style="stroke: #000000; stroke-width: 0.8"/>
      </g>
     </g>
     <g id="text_13">
      <!-- 0.0008 -->
      <g transform="translate(24.629375 136.342167) scale(0.1 -0.1)">
       <defs>
        <path id="DejaVuSans-38" d="M 2034 2216 
Q 1584 2216 1326 1975 
Q 1069 1734 1069 1313 
Q 1069 891 1326 650 
Q 1584 409 2034 409 
Q 2484 409 2743 651 
Q 3003 894 3003 1313 
Q 3003 1734 2745 1975 
Q 2488 2216 2034 2216 
z
M 1403 2484 
Q 997 2584 770 2862 
Q 544 3141 544 3541 
Q 544 4100 942 4425 
Q 1341 4750 2034 4750 
Q 2731 4750 3128 4425 
Q 3525 4100 3525 3541 
Q 3525 3141 3298 2862 
Q 3072 2584 2669 2484 
Q 3125 2378 3379 2068 
Q 3634 1759 3634 1313 
Q 3634 634 3220 271 
Q 2806 -91 2034 -91 
Q 1263 -91 848 271 
Q 434 634 434 1313 
Q 434 1759 690 2068 
Q 947 2378 1403 2484 
z
M 1172 3481 
Q 1172 3119 1398 2916 
Q 1625 2713 2034 2713 
Q 2441 2713 2670 2916 
Q 2900 3119 2900 3481 
Q 2900 3844 2670 4047 
Q 2441 4250 2034 4250 
Q 1625 4250 1398 4047 
Q 1172 3844 1172 3481 
z
" transform="scale(0.015625)"/>
       </defs>
       <use xlink:href="#DejaVuSans-30"/>
       <use xlink:href="#DejaVuSans-2e" transform="translate(63.623047 0)"/>
       <use xlink:href="#DejaVuSans-30" transform="translate(95.410156 0)"/>
       <use xlink:href="#DejaVuSans-30" transform="translate(159.033203 0)"/>
       <use xlink:href="#DejaVuSans-30" transform="translate(222.65625 0)"/>
       <use xlink:href="#DejaVuSans-38" transform="translate(286.279297 0)"/>
      </g>
     </g>
    </g>
    <g id="ytick_6">
     <g id="line2d_13">
      <g>
       <use xlink:href="#m1e1ae73ad4" x="66.62" y="86.168686" style="stroke: #000000; stroke-width: 0.8"/>
      </g>
     </g>
     <g id="text_14">
      <!-- 0.0010 -->
      <g transform="translate(24.629375 89.967904) scale(0.1 -0.1)">
       <use xlink:href="#DejaVuSans-30"/>
       <use xlink:href="#DejaVuSans-2e" transform="translate(63.623047 0)"/>
       <use xlink:href="#DejaVuSans-30" transform="translate(95.410156 0)"/>
       <use xlink:href="#DejaVuSans-30" transform="translate(159.033203 0)"/>
       <use xlink:href="#DejaVuSans-31" transform="translate(222.65625 0)"/>
       <use xlink:href="#DejaVuSans-30" transform="translate(286.279297 0)"/>
      </g>
     </g>
    </g>
    <g id="ytick_7">
     <g id="line2d_14">
      <g>
       <use xlink:href="#m1e1ae73ad4" x="66.62" y="39.794423" style="stroke: #000000; stroke-width: 0.8"/>
      </g>
     </g>
     <g id="text_15">
      <!-- 0.0012 -->
      <g transform="translate(24.629375 43.593642) scale(0.1 -0.1)">
       <use xlink:href="#DejaVuSans-30"/>
       <use xlink:href="#DejaVuSans-2e" transform="translate(63.623047 0)"/>
       <use xlink:href="#DejaVuSans-30" transform="translate(95.410156 0)"/>
       <use xlink:href="#DejaVuSans-30" transform="translate(159.033203 0)"/>
       <use xlink:href="#DejaVuSans-31" transform="translate(222.65625 0)"/>
       <use xlink:href="#DejaVuSans-32" transform="translate(286.279297 0)"/>
      </g>
     </g>
    </g>
    <g id="text_16">
     <!-- Density -->
     <g transform="translate(18.549688 191.468594) rotate(-90) scale(0.1 -0.1)">
      <defs>
       <path id="DejaVuSans-44" d="M 1259 4147 
L 1259 519 
L 2022 519 
Q 2988 519 3436 956 
Q 3884 1394 3884 2338 
Q 3884 3275 3436 3711 
Q 2988 4147 2022 4147 
L 1259 4147 
z
M 628 4666 
L 1925 4666 
Q 3281 4666 3915 4102 
Q 4550 3538 4550 2338 
Q 4550 1131 3912 565 
Q 3275 0 1925 0 
L 628 0 
L 628 4666 
z
" transform="scale(0.015625)"/>
       <path id="DejaVuSans-79" d="M 2059 -325 
Q 1816 -950 1584 -1140 
Q 1353 -1331 966 -1331 
L 506 -1331 
L 506 -850 
L 844 -850 
Q 1081 -850 1212 -737 
Q 1344 -625 1503 -206 
L 1606 56 
L 191 3500 
L 800 3500 
L 1894 763 
L 2988 3500 
L 3597 3500 
L 2059 -325 
z
" transform="scale(0.015625)"/>
      </defs>
      <use xlink:href="#DejaVuSans-44"/>
      <use xlink:href="#DejaVuSans-65" transform="translate(77.001953 0)"/>
      <use xlink:href="#DejaVuSans-6e" transform="translate(138.525391 0)"/>
      <use xlink:href="#DejaVuSans-73" transform="translate(201.904297 0)"/>
      <use xlink:href="#DejaVuSans-69" transform="translate(254.003906 0)"/>
      <use xlink:href="#DejaVuSans-74" transform="translate(281.787109 0)"/>
      <use xlink:href="#DejaVuSans-79" transform="translate(320.996094 0)"/>
     </g>
    </g>
   </g>
   <g id="patch_103">
    <path d="M 66.62 318.04 
L 66.62 26.88 
" style="fill: none; stroke: #000000; stroke-width: 0.8; stroke-linejoin: miter; stroke-linecap: square"/>
   </g>
   <g id="patch_104">
    <path d="M 427.34 318.04 
L 427.34 26.88 
" style="fill: none; stroke: #000000; stroke-width: 0.8; stroke-linejoin: miter; stroke-linecap: square"/>
   </g>
   <g id="patch_105">
    <path d="M 66.62 318.04 
L 427.34 318.04 
" style="fill: none; stroke: #000000; stroke-width: 0.8; stroke-linejoin: miter; stroke-linecap: square"/>
   </g>
   <g id="patch_106">
    <path d="M 66.62 26.88 
L 427.34 26.88 
" style="fill: none; stroke: #000000; stroke-width: 0.8; stroke-linejoin: miter; stroke-linecap: square"/>
   </g>
   <g id="text_17">
    <!-- Spatial Clustering of Electrophysiological Subtypes -->
    <g transform="translate(94.499375 20.88) scale(0.12 -0.12)">
     <defs>
      <path id="DejaVuSans-53" d="M 3425 4513 
L 3425 3897 
Q 3066 4069 2747 4153 
Q 2428 4238 2131 4238 
Q 1616 4238 1336 4038 
Q 1056 3838 1056 3469 
Q 1056 3159 1242 3001 
Q 1428 2844 1947 2747 
L 2328 2669 
Q 3034 2534 3370 2195 
Q 3706 1856 3706 1288 
Q 3706 609 3251 259 
Q 2797 -91 1919 -91 
Q 1588 -91 1214 -16 
Q 841 59 441 206 
L 441 856 
Q 825 641 1194 531 
Q 1563 422 1919 422 
Q 2459 422 2753 634 
Q 3047 847 3047 1241 
Q 3047 1584 2836 1778 
Q 2625 1972 2144 2069 
L 1759 2144 
Q 1053 2284 737 2584 
Q 422 2884 422 3419 
Q 422 4038 858 4394 
Q 1294 4750 2059 4750 
Q 2388 4750 2728 4690 
Q 3069 4631 3425 4513 
z
" transform="scale(0.015625)"/>
      <path id="DejaVuSans-70" d="M 1159 525 
L 1159 -1331 
L 581 -1331 
L 581 3500 
L 1159 3500 
L 1159 2969 
Q 1341 3281 1617 3432 
Q 1894 3584 2278 3584 
Q 2916 3584 3314 3078 
Q 3713 2572 3713 1747 
Q 3713 922 3314 415 
Q 2916 -91 2278 -91 
Q 1894 -91 1617 61 
Q 1341 213 1159 525 
z
M 3116 1747 
Q 3116 2381 2855 2742 
Q 2594 3103 2138 3103 
Q 1681 3103 1420 2742 
Q 1159 2381 1159 1747 
Q 1159 1113 1420 752 
Q 1681 391 2138 391 
Q 2594 391 2855 752 
Q 3116 1113 3116 1747 
z
" transform="scale(0.015625)"/>
      <path id="DejaVuSans-6c" d="M 603 4863 
L 1178 4863 
L 1178 0 
L 603 0 
L 603 4863 
z
" transform="scale(0.015625)"/>
      <path id="DejaVuSans-43" d="M 4122 4306 
L 4122 3641 
Q 3803 3938 3442 4084 
Q 3081 4231 2675 4231 
Q 1875 4231 1450 3742 
Q 1025 3253 1025 2328 
Q 1025 1406 1450 917 
Q 1875 428 2675 428 
Q 3081 428 3442 575 
Q 3803 722 4122 1019 
L 4122 359 
Q 3791 134 3420 21 
Q 3050 -91 2638 -91 
Q 1578 -91 968 557 
Q 359 1206 359 2328 
Q 359 3453 968 4101 
Q 1578 4750 2638 4750 
Q 3056 4750 3426 4639 
Q 3797 4528 4122 4306 
z
" transform="scale(0.015625)"/>
      <path id="DejaVuSans-75" d="M 544 1381 
L 544 3500 
L 1119 3500 
L 1119 1403 
Q 1119 906 1312 657 
Q 1506 409 1894 409 
Q 2359 409 2629 706 
Q 2900 1003 2900 1516 
L 2900 3500 
L 3475 3500 
L 3475 0 
L 2900 0 
L 2900 538 
Q 2691 219 2414 64 
Q 2138 -91 1772 -91 
Q 1169 -91 856 284 
Q 544 659 544 1381 
z
M 1991 3584 
L 1991 3584 
z
" transform="scale(0.015625)"/>
      <path id="DejaVuSans-67" d="M 2906 1791 
Q 2906 2416 2648 2759 
Q 2391 3103 1925 3103 
Q 1463 3103 1205 2759 
Q 947 2416 947 1791 
Q 947 1169 1205 825 
Q 1463 481 1925 481 
Q 2391 481 2648 825 
Q 2906 1169 2906 1791 
z
M 3481 434 
Q 3481 -459 3084 -895 
Q 2688 -1331 1869 -1331 
Q 1566 -1331 1297 -1286 
Q 1028 -1241 775 -1147 
L 775 -588 
Q 1028 -725 1275 -790 
Q 1522 -856 1778 -856 
Q 2344 -856 2625 -561 
Q 2906 -266 2906 331 
L 2906 616 
Q 2728 306 2450 153 
Q 2172 0 1784 0 
Q 1141 0 747 490 
Q 353 981 353 1791 
Q 353 2603 747 3093 
Q 1141 3584 1784 3584 
Q 2172 3584 2450 3431 
Q 2728 3278 2906 2969 
L 2906 3500 
L 3481 3500 
L 3481 434 
z
" transform="scale(0.015625)"/>
      <path id="DejaVuSans-6f" d="M 1959 3097 
Q 1497 3097 1228 2736 
Q 959 2375 959 1747 
Q 959 1119 1226 758 
Q 1494 397 1959 397 
Q 2419 397 2687 759 
Q 2956 1122 2956 1747 
Q 2956 2369 2687 2733 
Q 2419 3097 1959 3097 
z
M 1959 3584 
Q 2709 3584 3137 3096 
Q 3566 2609 3566 1747 
Q 3566 888 3137 398 
Q 2709 -91 1959 -91 
Q 1206 -91 779 398 
Q 353 888 353 1747 
Q 353 2609 779 3096 
Q 1206 3584 1959 3584 
z
" transform="scale(0.015625)"/>
      <path id="DejaVuSans-66" d="M 2375 4863 
L 2375 4384 
L 1825 4384 
Q 1516 4384 1395 4259 
Q 1275 4134 1275 3809 
L 1275 3500 
L 2222 3500 
L 2222 3053 
L 1275 3053 
L 1275 0 
L 697 0 
L 697 3053 
L 147 3053 
L 147 3500 
L 697 3500 
L 697 3744 
Q 697 4328 969 4595 
Q 1241 4863 1831 4863 
L 2375 4863 
z
" transform="scale(0.015625)"/>
      <path id="DejaVuSans-45" d="M 628 4666 
L 3578 4666 
L 3578 4134 
L 1259 4134 
L 1259 2753 
L 3481 2753 
L 3481 2222 
L 1259 2222 
L 1259 531 
L 3634 531 
L 3634 0 
L 628 0 
L 628 4666 
z
" transform="scale(0.015625)"/>
      <path id="DejaVuSans-68" d="M 3513 2113 
L 3513 0 
L 2938 0 
L 2938 2094 
Q 2938 2591 2744 2837 
Q 2550 3084 2163 3084 
Q 1697 3084 1428 2787 
Q 1159 2491 1159 1978 
L 1159 0 
L 581 0 
L 581 4863 
L 1159 4863 
L 1159 2956 
Q 1366 3272 1645 3428 
Q 1925 3584 2291 3584 
Q 2894 3584 3203 3211 
Q 3513 2838 3513 2113 
z
" transform="scale(0.015625)"/>
      <path id="DejaVuSans-62" d="M 3116 1747 
Q 3116 2381 2855 2742 
Q 2594 3103 2138 3103 
Q 1681 3103 1420 2742 
Q 1159 2381 1159 1747 
Q 1159 1113 1420 752 
Q 1681 391 2138 391 
Q 2594 391 2855 752 
Q 3116 1113 3116 1747 
z
M 1159 2969 
Q 1341 3281 1617 3432 
Q 1894 3584 2278 3584 
Q 2916 3584 3314 3078 
Q 3713 2572 3713 1747 
Q 3713 922 3314 415 
Q 2916 -91 2278 -91 
Q 1894 -91 1617 61 
Q 1341 213 1159 525 
L 1159 0 
L 581 0 
L 581 4863 
L 1159 4863 
L 1159 2969 
z
" transform="scale(0.015625)"/>
     </defs>
     <use xlink:href="#DejaVuSans-53"/>
     <use xlink:href="#DejaVuSans-70" transform="translate(63.476562 0)"/>
     <use xlink:href="#DejaVuSans-61" transform="translate(126.953125 0)"/>
     <use xlink:href="#DejaVuSans-74" transform="translate(188.232422 0)"/>
     <use xlink:href="#DejaVuSans-69" transform="translate(227.441406 0)"/>
     <use xlink:href="#DejaVuSans-61" transform="translate(255.224609 0)"/>
     <use xlink:href="#DejaVuSans-6c" transform="translate(316.503906 0)"/>
     <use xlink:href="#DejaVuSans-20" transform="translate(344.287109 0)"/>
     <use xlink:href="#DejaVuSans-43" transform="translate(376.074219 0)"/>
     <use xlink:href="#DejaVuSans-6c" transform="translate(445.898438 0)"/>
     <use xlink:href="#DejaVuSans-75" transform="translate(473.681641 0)"/>
     <use xlink:href="#DejaVuSans-73" transform="translate(537.060547 0)"/>
     <use xlink:href="#DejaVuSans-74" transform="translate(589.160156 0)"/>
     <use xlink:href="#DejaVuSans-65" transform="translate(628.369141 0)"/>
     <use xlink:href="#DejaVuSans-72" transform="translate(689.892578 0)"/>
     <use xlink:href="#DejaVuSans-69" transform="translate(731.005859 0)"/>
     <use xlink:href="#DejaVuSans-6e" transform="translate(758.789062 0)"/>
     <use xlink:href="#DejaVuSans-67" transform="translate(822.167969 0)"/>
     <use xlink:href="#DejaVuSans-20" transform="translate(885.644531 0)"/>
     <use xlink:href="#DejaVuSans-6f" transform="translate(917.431641 0)"/>
     <use xlink:href="#DejaVuSans-66" transform="translate(978.613281 0)"/>
     <use xlink:href="#DejaVuSans-20" transform="translate(1013.818359 0)"/>
     <use xlink:href="#DejaVuSans-45" transform="translate(1045.605469 0)"/>
     <use xlink:href="#DejaVuSans-6c" transform="translate(1108.789062 0)"/>
     <use xlink:href="#DejaVuSans-65" transform="translate(1136.572266 0)"/>
     <use xlink:href="#DejaVuSans-63" transform="translate(1198.095703 0)"/>
     <use xlink:href="#DejaVuSans-74" transform="translate(1253.076172 0)"/>
     <use xlink:href="#DejaVuSans-72" transform="translate(1292.285156 0)"/>
     <use xlink:href="#DejaVuSans-6f" transform="translate(1331.148438 0)"/>
     <use xlink:href="#DejaVuSans-70" transform="translate(1392.330078 0)"/>
     <use xlink:href="#DejaVuSans-68" transform="translate(1455.806641 0)"/>
     <use xlink:href="#DejaVuSans-79" transform="translate(1519.185547 0)"/>
     <use xlink:href="#DejaVuSans-73" transform="translate(1578.365234 0)"/>
     <use xlink:href="#DejaVuSans-69" transform="translate(1630.464844 0)"/>
     <use xlink:href="#DejaVuSans-6f" transform="translate(1658.248047 0)"/>
     <use xlink:href="#DejaVuSans-6c" transform="translate(1719.429688 0)"/>
     <use xlink:href="#DejaVuSans-6f" transform="translate(1747.212891 0)"/>
     <use xlink:href="#DejaVuSans-67" transform="translate(1808.394531 0)"/>
     <use xlink:href="#DejaVuSans-69" transform="translate(1871.871094 0)"/>
     <use xlink:href="#DejaVuSans-63" transform="translate(1899.654297 0)"/>
     <use xlink:href="#DejaVuSans-61" transform="translate(1954.634766 0)"/>
     <use xlink:href="#DejaVuSans-6c" transform="translate(2015.914062 0)"/>
     <use xlink:href="#DejaVuSans-20" transform="translate(2043.697266 0)"/>
     <use xlink:href="#DejaVuSans-53" transform="translate(2075.484375 0)"/>
     <use xlink:href="#DejaVuSans-75" transform="translate(2138.960938 0)"/>
     <use xlink:href="#DejaVuSans-62" transform="translate(2202.339844 0)"/>
     <use xlink:href="#DejaVuSans-74" transform="translate(2265.816406 0)"/>
     <use xlink:href="#DejaVuSans-79" transform="translate(2305.025391 0)"/>
     <use xlink:href="#DejaVuSans-70" transform="translate(2364.205078 0)"/>
     <use xlink:href="#DejaVuSans-65" transform="translate(2427.681641 0)"/>
     <use xlink:href="#DejaVuSans-73" transform="translate(2489.205078 0)"/>
    </g>
   </g>
   <g id="legend_1">
    <g id="patch_107">
     <path d="M 282.7025 64.23625 
L 420.34 64.23625 
Q 422.34 64.23625 422.34 62.23625 
L 422.34 33.88 
Q 422.34 31.88 420.34 31.88 
L 282.7025 31.88 
Q 280.7025 31.88 280.7025 33.88 
L 280.7025 62.23625 
Q 280.7025 64.23625 282.7025 64.23625 
z
" style="fill: #ffffff; opacity: 0.8; stroke: #cccccc; stroke-linejoin: miter"/>
    </g>
    <g id="patch_108">
     <path d="M 284.7025 43.478437 
L 304.7025 43.478437 
L 304.7025 36.478437 
L 284.7025 36.478437 
z
" style="fill: #1f77b4; opacity: 0.7"/>
    </g>
    <g id="text_18">
     <!-- Within same subtype -->
     <g transform="translate(312.7025 43.478437) scale(0.1 -0.1)">
      <defs>
       <path id="DejaVuSans-57" d="M 213 4666 
L 850 4666 
L 1831 722 
L 2809 4666 
L 3519 4666 
L 4500 722 
L 5478 4666 
L 6119 4666 
L 4947 0 
L 4153 0 
L 3169 4050 
L 2175 0 
L 1381 0 
L 213 4666 
z
" transform="scale(0.015625)"/>
      </defs>
      <use xlink:href="#DejaVuSans-57"/>
      <use xlink:href="#DejaVuSans-69" transform="translate(96.626953 0)"/>
      <use xlink:href="#DejaVuSans-74" transform="translate(124.410156 0)"/>
      <use xlink:href="#DejaVuSans-68" transform="translate(163.619141 0)"/>
      <use xlink:href="#DejaVuSans-69" transform="translate(226.998047 0)"/>
      <use xlink:href="#DejaVuSans-6e" transform="translate(254.78125 0)"/>
      <use xlink:href="#DejaVuSans-20" transform="translate(318.160156 0)"/>
      <use xlink:href="#DejaVuSans-73" transform="translate(349.947266 0)"/>
      <use xlink:href="#DejaVuSans-61" transform="translate(402.046875 0)"/>
      <use xlink:href="#DejaVuSans-6d" transform="translate(463.326172 0)"/>
      <use xlink:href="#DejaVuSans-65" transform="translate(560.738281 0)"/>
      <use xlink:href="#DejaVuSans-20" transform="translate(622.261719 0)"/>
      <use xlink:href="#DejaVuSans-73" transform="translate(654.048828 0)"/>
      <use xlink:href="#DejaVuSans-75" transform="translate(706.148438 0)"/>
      <use xlink:href="#DejaVuSans-62" transform="translate(769.527344 0)"/>
      <use xlink:href="#DejaVuSans-74" transform="translate(833.003906 0)"/>
      <use xlink:href="#DejaVuSans-79" transform="translate(872.212891 0)"/>
      <use xlink:href="#DejaVuSans-70" transform="translate(931.392578 0)"/>
      <use xlink:href="#DejaVuSans-65" transform="translate(994.869141 0)"/>
     </g>
    </g>
    <g id="patch_109">
     <path d="M 284.7025 58.156563 
L 304.7025 58.156563 
L 304.7025 51.156563 
L 284.7025 51.156563 
z
" style="fill: #ff7f0e; opacity: 0.7"/>
    </g>
    <g id="text_19">
     <!-- Between subtypes -->
     <g transform="translate(312.7025 58.156563) scale(0.1 -0.1)">
      <defs>
       <path id="DejaVuSans-42" d="M 1259 2228 
L 1259 519 
L 2272 519 
Q 2781 519 3026 730 
Q 3272 941 3272 1375 
Q 3272 1813 3026 2020 
Q 2781 2228 2272 2228 
L 1259 2228 
z
M 1259 4147 
L 1259 2741 
L 2194 2741 
Q 2656 2741 2882 2914 
Q 3109 3088 3109 3444 
Q 3109 3797 2882 3972 
Q 2656 4147 2194 4147 
L 1259 4147 
z
M 628 4666 
L 2241 4666 
Q 2963 4666 3353 4366 
Q 3744 4066 3744 3513 
Q 3744 3084 3544 2831 
Q 3344 2578 2956 2516 
Q 3422 2416 3680 2098 
Q 3938 1781 3938 1306 
Q 3938 681 3513 340 
Q 3088 0 2303 0 
L 628 0 
L 628 4666 
z
" transform="scale(0.015625)"/>
      </defs>
      <use xlink:href="#DejaVuSans-42"/>
      <use xlink:href="#DejaVuSans-65" transform="translate(68.603516 0)"/>
      <use xlink:href="#DejaVuSans-74" transform="translate(130.126953 0)"/>
      <use xlink:href="#DejaVuSans-77" transform="translate(169.335938 0)"/>
      <use xlink:href="#DejaVuSans-65" transform="translate(251.123047 0)"/>
      <use xlink:href="#DejaVuSans-65" transform="translate(312.646484 0)"/>
      <use xlink:href="#DejaVuSans-6e" transform="translate(374.169922 0)"/>
      <use xlink:href="#DejaVuSans-20" transform="translate(437.548828 0)"/>
      <use xlink:href="#DejaVuSans-73" transform="translate(469.335938 0)"/>
      <use xlink:href="#DejaVuSans-75" transform="translate(521.435547 0)"/>
      <use xlink:href="#DejaVuSans-62" transform="translate(584.814453 0)"/>
      <use xlink:href="#DejaVuSans-74" transform="translate(648.291016 0)"/>
      <use xlink:href="#DejaVuSans-79" transform="translate(687.5 0)"/>
      <use xlink:href="#DejaVuSans-70" transform="translate(746.679688 0)"/>
      <use xlink:href="#DejaVuSans-65" transform="translate(810.15625 0)"/>
      <use xlink:href="#DejaVuSans-73" transform="translate(871.679688 0)"/>
     </g>
    </g>
   </g>
  </g>
  <g id="axes_2">
   <g id="patch_110">
    <path d="M 492.48 318.04 
L 853.2 318.04 
L 853.2 26.88 
L 492.48 26.88 
z
" style="fill: #ffffff"/>
   </g>
   <g id="patch_111">
    <path d="M 551.550518 304.805455 
L 552.387628 304.805455 
L 552.387628 292.909234 
L 551.550518 292.909234 
z
" clip-path="url(#p353a2f27dc)" style="fill: #1f77b4"/>
   </g>
   <g id="patch_112">
    <path d="M 551.550518 289.935179 
L 544.721069 289.935179 
L 544.721069 278.038958 
L 551.550518 278.038958 
z
" clip-path="url(#p353a2f27dc)" style="fill: #1f77b4"/>
   </g>
   <g id="patch_113">
    <path d="M 551.550518 275.064903 
L 563.316111 275.064903 
L 563.316111 263.168682 
L 551.550518 263.168682 
z
" clip-path="url(#p353a2f27dc)" style="fill: #1f77b4"/>
   </g>
   <g id="patch_114">
    <path d="M 551.550518 260.194627 
L 538.321813 260.194627 
L 538.321813 248.298407 
L 551.550518 248.298407 
z
" clip-path="url(#p353a2f27dc)" style="fill: #1f77b4"/>
   </g>
   <g id="patch_115">
    <path d="M 551.550518 245.324351 
L 573.163721 245.324351 
L 573.163721 233.428131 
L 551.550518 233.428131 
z
" clip-path="url(#p353a2f27dc)" style="fill: #1f77b4"/>
   </g>
   <g id="patch_116">
    <path d="M 551.550518 230.454076 
L 557.791143 230.454076 
L 557.791143 218.557855 
L 551.550518 218.557855 
z
" clip-path="url(#p353a2f27dc)" style="fill: #1f77b4"/>
   </g>
   <g id="patch_117">
    <path d="M 551.550518 215.5838 
L 558.17117 215.5838 
L 558.17117 203.687579 
L 551.550518 203.687579 
z
" clip-path="url(#p353a2f27dc)" style="fill: #1f77b4"/>
   </g>
   <g id="patch_118">
    <path d="M 551.550518 200.713524 
L 553.267291 200.713524 
L 553.267291 188.817303 
L 551.550518 188.817303 
z
" clip-path="url(#p353a2f27dc)" style="fill: #1f77b4"/>
   </g>
   <g id="patch_119">
    <path d="M 551.550518 185.843248 
L 570.760518 185.843248 
L 570.760518 173.947028 
L 551.550518 173.947028 
z
" clip-path="url(#p353a2f27dc)" style="fill: #1f77b4"/>
   </g>
   <g id="patch_120">
    <path d="M 551.550518 170.972972 
L 548.542273 170.972972 
L 548.542273 159.076752 
L 551.550518 159.076752 
z
" clip-path="url(#p353a2f27dc)" style="fill: #1f77b4"/>
   </g>
   <g id="patch_121">
    <path d="M 551.550518 156.102697 
L 541.440392 156.102697 
L 541.440392 144.206476 
L 551.550518 144.206476 
z
" clip-path="url(#p353a2f27dc)" style="fill: #1f77b4"/>
   </g>
   <g id="patch_122">
    <path d="M 551.550518 141.232421 
L 569.783035 141.232421 
L 569.783035 129.3362 
L 551.550518 129.3362 
z
" clip-path="url(#p353a2f27dc)" style="fill: #1f77b4"/>
   </g>
   <g id="patch_123">
    <path d="M 551.550518 126.362145 
L 555.925824 126.362145 
L 555.925824 114.465924 
L 551.550518 114.465924 
z
" clip-path="url(#p353a2f27dc)" style="fill: #1f77b4"/>
   </g>
   <g id="patch_124">
    <path d="M 551.550518 111.491869 
L 836.803636 111.491869 
L 836.803636 99.595649 
L 551.550518 99.595649 
z
" clip-path="url(#p353a2f27dc)" style="fill: #1f77b4"/>
   </g>
   <g id="patch_125">
    <path d="M 551.550518 96.621593 
L 540.225172 96.621593 
L 540.225172 84.725373 
L 551.550518 84.725373 
z
" clip-path="url(#p353a2f27dc)" style="fill: #1f77b4"/>
   </g>
   <g id="patch_126">
    <path d="M 551.550518 81.751318 
L 508.876364 81.751318 
L 508.876364 69.855097 
L 551.550518 69.855097 
z
" clip-path="url(#p353a2f27dc)" style="fill: #1f77b4"/>
   </g>
   <g id="patch_127">
    <path d="M 551.550518 66.881042 
L 552.04217 66.881042 
L 552.04217 54.984821 
L 551.550518 54.984821 
z
" clip-path="url(#p353a2f27dc)" style="fill: #1f77b4"/>
   </g>
   <g id="patch_128">
    <path d="M 551.550518 52.010766 
L 588.397436 52.010766 
L 588.397436 40.114545 
L 551.550518 40.114545 
z
" clip-path="url(#p353a2f27dc)" style="fill: #1f77b4"/>
   </g>
   <g id="matplotlib.axis_3">
    <g id="xtick_8">
     <g id="line2d_15">
      <g>
       <use xlink:href="#m6830f26496" x="551.550518" y="318.04" style="stroke: #000000; stroke-width: 0.8"/>
      </g>
     </g>
     <g id="text_20">
      <!-- 0 -->
      <g transform="translate(548.369268 332.638438) scale(0.1 -0.1)">
       <use xlink:href="#DejaVuSans-30"/>
      </g>
     </g>
    </g>
    <g id="xtick_9">
     <g id="line2d_16">
      <g>
       <use xlink:href="#m6830f26496" x="612.406119" y="318.04" style="stroke: #000000; stroke-width: 0.8"/>
      </g>
     </g>
     <g id="text_21">
      <!-- 50 -->
      <g transform="translate(606.043619 332.638438) scale(0.1 -0.1)">
       <use xlink:href="#DejaVuSans-35"/>
       <use xlink:href="#DejaVuSans-30" transform="translate(63.623047 0)"/>
      </g>
     </g>
    </g>
    <g id="xtick_10">
     <g id="line2d_17">
      <g>
       <use xlink:href="#m6830f26496" x="673.261719" y="318.04" style="stroke: #000000; stroke-width: 0.8"/>
      </g>
     </g>
     <g id="text_22">
      <!-- 100 -->
      <g transform="translate(663.717969 332.638438) scale(0.1 -0.1)">
       <use xlink:href="#DejaVuSans-31"/>
       <use xlink:href="#DejaVuSans-30" transform="translate(63.623047 0)"/>
       <use xlink:href="#DejaVuSans-30" transform="translate(127.246094 0)"/>
      </g>
     </g>
    </g>
    <g id="xtick_11">
     <g id="line2d_18">
      <g>
       <use xlink:href="#m6830f26496" x="734.117319" y="318.04" style="stroke: #000000; stroke-width: 0.8"/>
      </g>
     </g>
     <g id="text_23">
      <!-- 150 -->
      <g transform="translate(724.573569 332.638438) scale(0.1 -0.1)">
       <use xlink:href="#DejaVuSans-31"/>
       <use xlink:href="#DejaVuSans-35" transform="translate(63.623047 0)"/>
       <use xlink:href="#DejaVuSans-30" transform="translate(127.246094 0)"/>
      </g>
     </g>
    </g>
    <g id="xtick_12">
     <g id="line2d_19">
      <g>
       <use xlink:href="#m6830f26496" x="794.972919" y="318.04" style="stroke: #000000; stroke-width: 0.8"/>
      </g>
     </g>
     <g id="text_24">
      <!-- 200 -->
      <g transform="translate(785.429169 332.638438) scale(0.1 -0.1)">
       <use xlink:href="#DejaVuSans-32"/>
       <use xlink:href="#DejaVuSans-30" transform="translate(63.623047 0)"/>
       <use xlink:href="#DejaVuSans-30" transform="translate(127.246094 0)"/>
      </g>
     </g>
    </g>
    <g id="text_25">
     <!-- Effect size (between - within group distance) -->
     <g transform="translate(560.947031 346.316563) scale(0.1 -0.1)">
      <defs>
       <path id="DejaVuSans-7a" d="M 353 3500 
L 3084 3500 
L 3084 2975 
L 922 459 
L 3084 459 
L 3084 0 
L 275 0 
L 275 525 
L 2438 3041 
L 353 3041 
L 353 3500 
z
" transform="scale(0.015625)"/>
       <path id="DejaVuSans-2d" d="M 313 2009 
L 1997 2009 
L 1997 1497 
L 313 1497 
L 313 2009 
z
" transform="scale(0.015625)"/>
      </defs>
      <use xlink:href="#DejaVuSans-45"/>
      <use xlink:href="#DejaVuSans-66" transform="translate(63.183594 0)"/>
      <use xlink:href="#DejaVuSans-66" transform="translate(98.388672 0)"/>
      <use xlink:href="#DejaVuSans-65" transform="translate(133.59375 0)"/>
      <use xlink:href="#DejaVuSans-63" transform="translate(195.117188 0)"/>
      <use xlink:href="#DejaVuSans-74" transform="translate(250.097656 0)"/>
      <use xlink:href="#DejaVuSans-20" transform="translate(289.306641 0)"/>
      <use xlink:href="#DejaVuSans-73" transform="translate(321.09375 0)"/>
      <use xlink:href="#DejaVuSans-69" transform="translate(373.193359 0)"/>
      <use xlink:href="#DejaVuSans-7a" transform="translate(400.976562 0)"/>
      <use xlink:href="#DejaVuSans-65" transform="translate(453.466797 0)"/>
      <use xlink:href="#DejaVuSans-20" transform="translate(514.990234 0)"/>
      <use xlink:href="#DejaVuSans-28" transform="translate(546.777344 0)"/>
      <use xlink:href="#DejaVuSans-62" transform="translate(585.791016 0)"/>
      <use xlink:href="#DejaVuSans-65" transform="translate(649.267578 0)"/>
      <use xlink:href="#DejaVuSans-74" transform="translate(710.791016 0)"/>
      <use xlink:href="#DejaVuSans-77" transform="translate(750 0)"/>
      <use xlink:href="#DejaVuSans-65" transform="translate(831.787109 0)"/>
      <use xlink:href="#DejaVuSans-65" transform="translate(893.310547 0)"/>
      <use xlink:href="#DejaVuSans-6e" transform="translate(954.833984 0)"/>
      <use xlink:href="#DejaVuSans-20" transform="translate(1018.212891 0)"/>
      <use xlink:href="#DejaVuSans-2d" transform="translate(1050 0)"/>
      <use xlink:href="#DejaVuSans-20" transform="translate(1086.083984 0)"/>
      <use xlink:href="#DejaVuSans-77" transform="translate(1117.871094 0)"/>
      <use xlink:href="#DejaVuSans-69" transform="translate(1199.658203 0)"/>
      <use xlink:href="#DejaVuSans-74" transform="translate(1227.441406 0)"/>
      <use xlink:href="#DejaVuSans-68" transform="translate(1266.650391 0)"/>
      <use xlink:href="#DejaVuSans-69" transform="translate(1330.029297 0)"/>
      <use xlink:href="#DejaVuSans-6e" transform="translate(1357.8125 0)"/>
      <use xlink:href="#DejaVuSans-20" transform="translate(1421.191406 0)"/>
      <use xlink:href="#DejaVuSans-67" transform="translate(1452.978516 0)"/>
      <use xlink:href="#DejaVuSans-72" transform="translate(1516.455078 0)"/>
      <use xlink:href="#DejaVuSans-6f" transform="translate(1555.318359 0)"/>
      <use xlink:href="#DejaVuSans-75" transform="translate(1616.5 0)"/>
      <use xlink:href="#DejaVuSans-70" transform="translate(1679.878906 0)"/>
      <use xlink:href="#DejaVuSans-20" transform="translate(1743.355469 0)"/>
      <use xlink:href="#DejaVuSans-64" transform="translate(1775.142578 0)"/>
      <use xlink:href="#DejaVuSans-69" transform="translate(1838.619141 0)"/>
      <use xlink:href="#DejaVuSans-73" transform="translate(1866.402344 0)"/>
      <use xlink:href="#DejaVuSans-74" transform="translate(1918.501953 0)"/>
      <use xlink:href="#DejaVuSans-61" transform="translate(1957.710938 0)"/>
      <use xlink:href="#DejaVuSans-6e" transform="translate(2018.990234 0)"/>
      <use xlink:href="#DejaVuSans-63" transform="translate(2082.369141 0)"/>
      <use xlink:href="#DejaVuSans-65" transform="translate(2137.349609 0)"/>
      <use xlink:href="#DejaVuSans-29" transform="translate(2198.873047 0)"/>
     </g>
    </g>
   </g>
   <g id="matplotlib.axis_4">
    <g id="ytick_8">
     <g id="line2d_20">
      <g>
       <use xlink:href="#m1e1ae73ad4" x="492.48" y="298.857344" style="stroke: #000000; stroke-width: 0.8"/>
      </g>
     </g>
     <g id="text_26">
      <!-- PL5 -->
      <g transform="translate(467.515937 302.656563) scale(0.1 -0.1)">
       <defs>
        <path id="DejaVuSans-4c" d="M 628 4666 
L 1259 4666 
L 1259 531 
L 3531 531 
L 3531 0 
L 628 0 
L 628 4666 
z
" transform="scale(0.015625)"/>
       </defs>
       <use xlink:href="#DejaVuSans-50"/>
       <use xlink:href="#DejaVuSans-4c" transform="translate(60.302734 0)"/>
       <use xlink:href="#DejaVuSans-35" transform="translate(116.015625 0)"/>
      </g>
     </g>
    </g>
    <g id="ytick_9">
     <g id="line2d_21">
      <g>
       <use xlink:href="#m1e1ae73ad4" x="492.48" y="283.987068" style="stroke: #000000; stroke-width: 0.8"/>
      </g>
     </g>
     <g id="text_27">
      <!-- PL6b -->
      <g transform="translate(461.1675 287.786287) scale(0.1 -0.1)">
       <use xlink:href="#DejaVuSans-50"/>
       <use xlink:href="#DejaVuSans-4c" transform="translate(60.302734 0)"/>
       <use xlink:href="#DejaVuSans-36" transform="translate(116.015625 0)"/>
       <use xlink:href="#DejaVuSans-62" transform="translate(179.638672 0)"/>
      </g>
     </g>
    </g>
    <g id="ytick_10">
     <g id="line2d_22">
      <g>
       <use xlink:href="#m1e1ae73ad4" x="492.48" y="269.116793" style="stroke: #000000; stroke-width: 0.8"/>
      </g>
     </g>
     <g id="text_28">
      <!-- ORBl6a -->
      <g transform="translate(448.53 272.916011) scale(0.1 -0.1)">
       <defs>
        <path id="DejaVuSans-4f" d="M 2522 4238 
Q 1834 4238 1429 3725 
Q 1025 3213 1025 2328 
Q 1025 1447 1429 934 
Q 1834 422 2522 422 
Q 3209 422 3611 934 
Q 4013 1447 4013 2328 
Q 4013 3213 3611 3725 
Q 3209 4238 2522 4238 
z
M 2522 4750 
Q 3503 4750 4090 4092 
Q 4678 3434 4678 2328 
Q 4678 1225 4090 567 
Q 3503 -91 2522 -91 
Q 1538 -91 948 565 
Q 359 1222 359 2328 
Q 359 3434 948 4092 
Q 1538 4750 2522 4750 
z
" transform="scale(0.015625)"/>
        <path id="DejaVuSans-52" d="M 2841 2188 
Q 3044 2119 3236 1894 
Q 3428 1669 3622 1275 
L 4263 0 
L 3584 0 
L 2988 1197 
Q 2756 1666 2539 1819 
Q 2322 1972 1947 1972 
L 1259 1972 
L 1259 0 
L 628 0 
L 628 4666 
L 2053 4666 
Q 2853 4666 3247 4331 
Q 3641 3997 3641 3322 
Q 3641 2881 3436 2590 
Q 3231 2300 2841 2188 
z
M 1259 4147 
L 1259 2491 
L 2053 2491 
Q 2509 2491 2742 2702 
Q 2975 2913 2975 3322 
Q 2975 3731 2742 3939 
Q 2509 4147 2053 4147 
L 1259 4147 
z
" transform="scale(0.015625)"/>
       </defs>
       <use xlink:href="#DejaVuSans-4f"/>
       <use xlink:href="#DejaVuSans-52" transform="translate(78.710938 0)"/>
       <use xlink:href="#DejaVuSans-42" transform="translate(148.193359 0)"/>
       <use xlink:href="#DejaVuSans-6c" transform="translate(216.796875 0)"/>
       <use xlink:href="#DejaVuSans-36" transform="translate(244.580078 0)"/>
       <use xlink:href="#DejaVuSans-61" transform="translate(308.203125 0)"/>
      </g>
     </g>
    </g>
    <g id="ytick_11">
     <g id="line2d_23">
      <g>
       <use xlink:href="#m1e1ae73ad4" x="492.48" y="254.246517" style="stroke: #000000; stroke-width: 0.8"/>
      </g>
     </g>
     <g id="text_29">
      <!-- ORBm2/3 -->
      <g transform="translate(437.964375 258.045736) scale(0.1 -0.1)">
       <defs>
        <path id="DejaVuSans-2f" d="M 1625 4666 
L 2156 4666 
L 531 -594 
L 0 -594 
L 1625 4666 
z
" transform="scale(0.015625)"/>
       </defs>
       <use xlink:href="#DejaVuSans-4f"/>
       <use xlink:href="#DejaVuSans-52" transform="translate(78.710938 0)"/>
       <use xlink:href="#DejaVuSans-42" transform="translate(148.193359 0)"/>
       <use xlink:href="#DejaVuSans-6d" transform="translate(216.796875 0)"/>
       <use xlink:href="#DejaVuSans-32" transform="translate(314.208984 0)"/>
       <use xlink:href="#DejaVuSans-2f" transform="translate(377.832031 0)"/>
       <use xlink:href="#DejaVuSans-33" transform="translate(411.523438 0)"/>
      </g>
     </g>
    </g>
    <g id="ytick_12">
     <g id="line2d_24">
      <g>
       <use xlink:href="#m1e1ae73ad4" x="492.48" y="239.376241" style="stroke: #000000; stroke-width: 0.8"/>
      </g>
     </g>
     <g id="text_30">
      <!-- PL2/3 -->
      <g transform="translate(457.784687 243.17546) scale(0.1 -0.1)">
       <use xlink:href="#DejaVuSans-50"/>
       <use xlink:href="#DejaVuSans-4c" transform="translate(60.302734 0)"/>
       <use xlink:href="#DejaVuSans-32" transform="translate(116.015625 0)"/>
       <use xlink:href="#DejaVuSans-2f" transform="translate(179.638672 0)"/>
       <use xlink:href="#DejaVuSans-33" transform="translate(213.330078 0)"/>
      </g>
     </g>
    </g>
    <g id="ytick_13">
     <g id="line2d_25">
      <g>
       <use xlink:href="#m1e1ae73ad4" x="492.48" y="224.505965" style="stroke: #000000; stroke-width: 0.8"/>
      </g>
     </g>
     <g id="text_31">
      <!-- ORBm6a -->
      <g transform="translate(441.5675 228.305184) scale(0.1 -0.1)">
       <use xlink:href="#DejaVuSans-4f"/>
       <use xlink:href="#DejaVuSans-52" transform="translate(78.710938 0)"/>
       <use xlink:href="#DejaVuSans-42" transform="translate(148.193359 0)"/>
       <use xlink:href="#DejaVuSans-6d" transform="translate(216.796875 0)"/>
       <use xlink:href="#DejaVuSans-36" transform="translate(314.208984 0)"/>
       <use xlink:href="#DejaVuSans-61" transform="translate(377.832031 0)"/>
      </g>
     </g>
    </g>
    <g id="ytick_14">
     <g id="line2d_26">
      <g>
       <use xlink:href="#m1e1ae73ad4" x="492.48" y="209.635689" style="stroke: #000000; stroke-width: 0.8"/>
      </g>
     </g>
     <g id="text_32">
      <!-- PL6a -->
      <g transform="translate(461.387812 213.434908) scale(0.1 -0.1)">
       <use xlink:href="#DejaVuSans-50"/>
       <use xlink:href="#DejaVuSans-4c" transform="translate(60.302734 0)"/>
       <use xlink:href="#DejaVuSans-36" transform="translate(116.015625 0)"/>
       <use xlink:href="#DejaVuSans-61" transform="translate(179.638672 0)"/>
      </g>
     </g>
    </g>
    <g id="ytick_15">
     <g id="line2d_27">
      <g>
       <use xlink:href="#m1e1ae73ad4" x="492.48" y="194.765414" style="stroke: #000000; stroke-width: 0.8"/>
      </g>
     </g>
     <g id="text_33">
      <!-- ILA6a -->
      <g transform="translate(457.401875 198.564632) scale(0.1 -0.1)">
       <defs>
        <path id="DejaVuSans-49" d="M 628 4666 
L 1259 4666 
L 1259 0 
L 628 0 
L 628 4666 
z
" transform="scale(0.015625)"/>
        <path id="DejaVuSans-41" d="M 2188 4044 
L 1331 1722 
L 3047 1722 
L 2188 4044 
z
M 1831 4666 
L 2547 4666 
L 4325 0 
L 3669 0 
L 3244 1197 
L 1141 1197 
L 716 0 
L 50 0 
L 1831 4666 
z
" transform="scale(0.015625)"/>
       </defs>
       <use xlink:href="#DejaVuSans-49"/>
       <use xlink:href="#DejaVuSans-4c" transform="translate(29.492188 0)"/>
       <use xlink:href="#DejaVuSans-41" transform="translate(87.455078 0)"/>
       <use xlink:href="#DejaVuSans-36" transform="translate(155.863281 0)"/>
       <use xlink:href="#DejaVuSans-61" transform="translate(219.486328 0)"/>
      </g>
     </g>
    </g>
    <g id="ytick_16">
     <g id="line2d_28">
      <g>
       <use xlink:href="#m1e1ae73ad4" x="492.48" y="179.895138" style="stroke: #000000; stroke-width: 0.8"/>
      </g>
     </g>
     <g id="text_34">
      <!-- ORBl5 -->
      <g transform="translate(454.658125 183.694357) scale(0.1 -0.1)">
       <use xlink:href="#DejaVuSans-4f"/>
       <use xlink:href="#DejaVuSans-52" transform="translate(78.710938 0)"/>
       <use xlink:href="#DejaVuSans-42" transform="translate(148.193359 0)"/>
       <use xlink:href="#DejaVuSans-6c" transform="translate(216.796875 0)"/>
       <use xlink:href="#DejaVuSans-35" transform="translate(244.580078 0)"/>
      </g>
     </g>
    </g>
    <g id="ytick_17">
     <g id="line2d_29">
      <g>
       <use xlink:href="#m1e1ae73ad4" x="492.48" y="165.024862" style="stroke: #000000; stroke-width: 0.8"/>
      </g>
     </g>
     <g id="text_35">
      <!-- ORBvl5 -->
      <g transform="translate(448.739375 168.824081) scale(0.1 -0.1)">
       <defs>
        <path id="DejaVuSans-76" d="M 191 3500 
L 800 3500 
L 1894 563 
L 2988 3500 
L 3597 3500 
L 2284 0 
L 1503 0 
L 191 3500 
z
" transform="scale(0.015625)"/>
       </defs>
       <use xlink:href="#DejaVuSans-4f"/>
       <use xlink:href="#DejaVuSans-52" transform="translate(78.710938 0)"/>
       <use xlink:href="#DejaVuSans-42" transform="translate(148.193359 0)"/>
       <use xlink:href="#DejaVuSans-76" transform="translate(216.796875 0)"/>
       <use xlink:href="#DejaVuSans-6c" transform="translate(275.976562 0)"/>
       <use xlink:href="#DejaVuSans-35" transform="translate(303.759766 0)"/>
      </g>
     </g>
    </g>
    <g id="ytick_18">
     <g id="line2d_30">
      <g>
       <use xlink:href="#m1e1ae73ad4" x="492.48" y="150.154586" style="stroke: #000000; stroke-width: 0.8"/>
      </g>
     </g>
     <g id="text_36">
      <!-- ORBl2/3 -->
      <g transform="translate(444.926875 153.953805) scale(0.1 -0.1)">
       <use xlink:href="#DejaVuSans-4f"/>
       <use xlink:href="#DejaVuSans-52" transform="translate(78.710938 0)"/>
       <use xlink:href="#DejaVuSans-42" transform="translate(148.193359 0)"/>
       <use xlink:href="#DejaVuSans-6c" transform="translate(216.796875 0)"/>
       <use xlink:href="#DejaVuSans-32" transform="translate(244.580078 0)"/>
       <use xlink:href="#DejaVuSans-2f" transform="translate(308.203125 0)"/>
       <use xlink:href="#DejaVuSans-33" transform="translate(341.894531 0)"/>
      </g>
     </g>
    </g>
    <g id="ytick_19">
     <g id="line2d_31">
      <g>
       <use xlink:href="#m1e1ae73ad4" x="492.48" y="135.284311" style="stroke: #000000; stroke-width: 0.8"/>
      </g>
     </g>
     <g id="text_37">
      <!-- ORBvl6a -->
      <g transform="translate(442.61125 139.083529) scale(0.1 -0.1)">
       <use xlink:href="#DejaVuSans-4f"/>
       <use xlink:href="#DejaVuSans-52" transform="translate(78.710938 0)"/>
       <use xlink:href="#DejaVuSans-42" transform="translate(148.193359 0)"/>
       <use xlink:href="#DejaVuSans-76" transform="translate(216.796875 0)"/>
       <use xlink:href="#DejaVuSans-6c" transform="translate(275.976562 0)"/>
       <use xlink:href="#DejaVuSans-36" transform="translate(303.759766 0)"/>
       <use xlink:href="#DejaVuSans-61" transform="translate(367.382812 0)"/>
      </g>
     </g>
    </g>
    <g id="ytick_20">
     <g id="line2d_32">
      <g>
       <use xlink:href="#m1e1ae73ad4" x="492.48" y="120.414035" style="stroke: #000000; stroke-width: 0.8"/>
      </g>
     </g>
     <g id="text_38">
      <!-- ILA5 -->
      <g transform="translate(463.53 124.213253) scale(0.1 -0.1)">
       <use xlink:href="#DejaVuSans-49"/>
       <use xlink:href="#DejaVuSans-4c" transform="translate(29.492188 0)"/>
       <use xlink:href="#DejaVuSans-41" transform="translate(87.455078 0)"/>
       <use xlink:href="#DejaVuSans-35" transform="translate(155.863281 0)"/>
      </g>
     </g>
    </g>
    <g id="ytick_21">
     <g id="line2d_33">
      <g>
       <use xlink:href="#m1e1ae73ad4" x="492.48" y="105.543759" style="stroke: #000000; stroke-width: 0.8"/>
      </g>
     </g>
     <g id="text_39">
      <!-- ILA2/3 -->
      <g transform="translate(453.79875 109.342978) scale(0.1 -0.1)">
       <use xlink:href="#DejaVuSans-49"/>
       <use xlink:href="#DejaVuSans-4c" transform="translate(29.492188 0)"/>
       <use xlink:href="#DejaVuSans-41" transform="translate(87.455078 0)"/>
       <use xlink:href="#DejaVuSans-32" transform="translate(155.863281 0)"/>
       <use xlink:href="#DejaVuSans-2f" transform="translate(219.486328 0)"/>
       <use xlink:href="#DejaVuSans-33" transform="translate(253.177734 0)"/>
      </g>
     </g>
    </g>
    <g id="ytick_22">
     <g id="line2d_34">
      <g>
       <use xlink:href="#m1e1ae73ad4" x="492.48" y="90.673483" style="stroke: #000000; stroke-width: 0.8"/>
      </g>
     </g>
     <g id="text_40">
      <!-- ORBl1 -->
      <g transform="translate(454.658125 94.472702) scale(0.1 -0.1)">
       <use xlink:href="#DejaVuSans-4f"/>
       <use xlink:href="#DejaVuSans-52" transform="translate(78.710938 0)"/>
       <use xlink:href="#DejaVuSans-42" transform="translate(148.193359 0)"/>
       <use xlink:href="#DejaVuSans-6c" transform="translate(216.796875 0)"/>
       <use xlink:href="#DejaVuSans-31" transform="translate(244.580078 0)"/>
      </g>
     </g>
    </g>
    <g id="ytick_23">
     <g id="line2d_35">
      <g>
       <use xlink:href="#m1e1ae73ad4" x="492.48" y="75.803207" style="stroke: #000000; stroke-width: 0.8"/>
      </g>
     </g>
     <g id="text_41">
      <!-- ORBvl1 -->
      <g transform="translate(448.739375 79.602426) scale(0.1 -0.1)">
       <use xlink:href="#DejaVuSans-4f"/>
       <use xlink:href="#DejaVuSans-52" transform="translate(78.710938 0)"/>
       <use xlink:href="#DejaVuSans-42" transform="translate(148.193359 0)"/>
       <use xlink:href="#DejaVuSans-76" transform="translate(216.796875 0)"/>
       <use xlink:href="#DejaVuSans-6c" transform="translate(275.976562 0)"/>
       <use xlink:href="#DejaVuSans-31" transform="translate(303.759766 0)"/>
      </g>
     </g>
    </g>
    <g id="ytick_24">
     <g id="line2d_36">
      <g>
       <use xlink:href="#m1e1ae73ad4" x="492.48" y="60.932932" style="stroke: #000000; stroke-width: 0.8"/>
      </g>
     </g>
     <g id="text_42">
      <!-- ORBm5 -->
      <g transform="translate(447.695625 64.73215) scale(0.1 -0.1)">
       <use xlink:href="#DejaVuSans-4f"/>
       <use xlink:href="#DejaVuSans-52" transform="translate(78.710938 0)"/>
       <use xlink:href="#DejaVuSans-42" transform="translate(148.193359 0)"/>
       <use xlink:href="#DejaVuSans-6d" transform="translate(216.796875 0)"/>
       <use xlink:href="#DejaVuSans-35" transform="translate(314.208984 0)"/>
      </g>
     </g>
    </g>
    <g id="ytick_25">
     <g id="line2d_37">
      <g>
       <use xlink:href="#m1e1ae73ad4" x="492.48" y="46.062656" style="stroke: #000000; stroke-width: 0.8"/>
      </g>
     </g>
     <g id="text_43">
      <!-- ORBvl2/3 -->
      <g transform="translate(439.008125 49.861875) scale(0.1 -0.1)">
       <use xlink:href="#DejaVuSans-4f"/>
       <use xlink:href="#DejaVuSans-52" transform="translate(78.710938 0)"/>
       <use xlink:href="#DejaVuSans-42" transform="translate(148.193359 0)"/>
       <use xlink:href="#DejaVuSans-76" transform="translate(216.796875 0)"/>
       <use xlink:href="#DejaVuSans-6c" transform="translate(275.976562 0)"/>
       <use xlink:href="#DejaVuSans-32" transform="translate(303.759766 0)"/>
       <use xlink:href="#DejaVuSans-2f" transform="translate(367.382812 0)"/>
       <use xlink:href="#DejaVuSans-33" transform="translate(401.074219 0)"/>
      </g>
     </g>
    </g>
   </g>
   <g id="line2d_38">
    <path d="M 551.550518 318.04 
L 551.550518 26.88 
" clip-path="url(#p353a2f27dc)" style="fill: none; stroke-dasharray: 5.55,2.4; stroke-dashoffset: 0; stroke: #000000; stroke-width: 1.5"/>
   </g>
   <g id="patch_129">
    <path d="M 492.48 318.04 
L 492.48 26.88 
" style="fill: none; stroke: #000000; stroke-width: 0.8; stroke-linejoin: miter; stroke-linecap: square"/>
   </g>
   <g id="patch_130">
    <path d="M 853.2 318.04 
L 853.2 26.88 
" style="fill: none; stroke: #000000; stroke-width: 0.8; stroke-linejoin: miter; stroke-linecap: square"/>
   </g>
   <g id="patch_131">
    <path d="M 492.48 318.04 
L 853.2 318.04 
" style="fill: none; stroke: #000000; stroke-width: 0.8; stroke-linejoin: miter; stroke-linecap: square"/>
   </g>
   <g id="patch_132">
    <path d="M 492.48 26.88 
L 853.2 26.88 
" style="fill: none; stroke: #000000; stroke-width: 0.8; stroke-linejoin: miter; stroke-linecap: square"/>
   </g>
   <g id="text_44">
    <!-- Effect Size by Region -->
    <g transform="translate(609.542813 20.88) scale(0.12 -0.12)">
     <use xlink:href="#DejaVuSans-45"/>
     <use xlink:href="#DejaVuSans-66" transform="translate(63.183594 0)"/>
     <use xlink:href="#DejaVuSans-66" transform="translate(98.388672 0)"/>
     <use xlink:href="#DejaVuSans-65" transform="translate(133.59375 0)"/>
     <use xlink:href="#DejaVuSans-63" transform="translate(195.117188 0)"/>
     <use xlink:href="#DejaVuSans-74" transform="translate(250.097656 0)"/>
     <use xlink:href="#DejaVuSans-20" transform="translate(289.306641 0)"/>
     <use xlink:href="#DejaVuSans-53" transform="translate(321.09375 0)"/>
     <use xlink:href="#DejaVuSans-69" transform="translate(384.570312 0)"/>
     <use xlink:href="#DejaVuSans-7a" transform="translate(412.353516 0)"/>
     <use xlink:href="#DejaVuSans-65" transform="translate(464.84375 0)"/>
     <use xlink:href="#DejaVuSans-20" transform="translate(526.367188 0)"/>
     <use xlink:href="#DejaVuSans-62" transform="translate(558.154297 0)"/>
     <use xlink:href="#DejaVuSans-79" transform="translate(621.630859 0)"/>
     <use xlink:href="#DejaVuSans-20" transform="translate(680.810547 0)"/>
     <use xlink:href="#DejaVuSans-52" transform="translate(712.597656 0)"/>
     <use xlink:href="#DejaVuSans-65" transform="translate(777.580078 0)"/>
     <use xlink:href="#DejaVuSans-67" transform="translate(839.103516 0)"/>
     <use xlink:href="#DejaVuSans-69" transform="translate(902.580078 0)"/>
     <use xlink:href="#DejaVuSans-6f" transform="translate(930.363281 0)"/>
     <use xlink:href="#DejaVuSans-6e" transform="translate(991.544922 0)"/>
    </g>
   </g>
  </g>
 </g>
 <defs>
  <clipPath id="pd79a58979e">
   <rect x="66.62" y="26.88" width="360.72" height="291.16"/>
  </clipPath>
  <clipPath id="p353a2f27dc">
   <rect x="492.48" y="26.88" width="360.72" height="291.16"/>
  </clipPath>
 </defs>
</svg>
